<?xml version="1.0" encoding="UTF-8" standalone="no"?>
<!DOCTYPE svg PUBLIC "-//W3C//DTD SVG 1.1//EN"
 "http://www.w3.org/Graphics/SVG/1.1/DTD/svg11.dtd">
<!-- Generated by graphviz version 2.40.1 (0)
 -->
<!-- Title: workflow_nugenerna_umiprobe Pages: 1 -->
<svg width="702pt" height="404pt"
 viewBox="0.00 0.00 702.49 404.00" xmlns="http://www.w3.org/2000/svg" xmlns:xlink="http://www.w3.org/1999/xlink">
<g id="graph0" class="graph" transform="scale(1 1) rotate(0) translate(4 400)">
<title>workflow_nugenerna_umiprobe</title>
<polygon fill="#ffffff" stroke="transparent" points="-4,4 -4,-400 698.489,-400 698.489,4 -4,4"/>
<!-- NugenePreRnaAlign -->
<g id="node1" class="node">
<title>NugenePreRnaAlign</title>
<ellipse fill="none" stroke="#000000" cx="202.7445" cy="-378" rx="83.6854" ry="18"/>
<text text-anchor="middle" x="202.7445" y="-374.3" font-family="Times,serif" font-size="14.00" fill="#000000">NugenePreRnaAlign</text>
</g>
<!-- FusionCatcher -->
<g id="node2" class="node">
<title>FusionCatcher</title>
<ellipse fill="none" stroke="#000000" cx="61.7445" cy="-306" rx="61.99" ry="18"/>
<text text-anchor="middle" x="61.7445" y="-302.3" font-family="Times,serif" font-size="14.00" fill="#000000">FusionCatcher</text>
</g>
<!-- NugenePreRnaAlign&#45;&gt;FusionCatcher -->
<g id="edge1" class="edge">
<title>NugenePreRnaAlign&#45;&gt;FusionCatcher</title>
<path fill="none" stroke="#000000" d="M170.0419,-361.3008C149.6832,-350.9049 123.3542,-337.4603 101.7547,-326.4307"/>
<polygon fill="#000000" stroke="#000000" points="103.3163,-323.2982 92.8185,-321.8675 100.1328,-329.5325 103.3163,-323.2982"/>
</g>
<!-- FastqcNugene -->
<g id="node3" class="node">
<title>FastqcNugene</title>
<ellipse fill="none" stroke="#000000" cx="202.7445" cy="-306" rx="61.1893" ry="18"/>
<text text-anchor="middle" x="202.7445" y="-302.3" font-family="Times,serif" font-size="14.00" fill="#000000">FastqcNugene</text>
</g>
<!-- NugenePreRnaAlign&#45;&gt;FastqcNugene -->
<g id="edge2" class="edge">
<title>NugenePreRnaAlign&#45;&gt;FastqcNugene</title>
<path fill="none" stroke="#000000" d="M202.7445,-359.8314C202.7445,-352.131 202.7445,-342.9743 202.7445,-334.4166"/>
<polygon fill="#000000" stroke="#000000" points="206.2446,-334.4132 202.7445,-324.4133 199.2446,-334.4133 206.2446,-334.4132"/>
</g>
<!-- Hisat2Alignment -->
<g id="node4" class="node">
<title>Hisat2Alignment</title>
<ellipse fill="none" stroke="#000000" cx="353.7445" cy="-306" rx="71.4873" ry="18"/>
<text text-anchor="middle" x="353.7445" y="-302.3" font-family="Times,serif" font-size="14.00" fill="#000000">Hisat2Alignment</text>
</g>
<!-- NugenePreRnaAlign&#45;&gt;Hisat2Alignment -->
<g id="edge3" class="edge">
<title>NugenePreRnaAlign&#45;&gt;Hisat2Alignment</title>
<path fill="none" stroke="#000000" d="M237.387,-361.4817C259.2738,-351.0457 287.7159,-337.4838 311.0012,-326.3809"/>
<polygon fill="#000000" stroke="#000000" points="312.7815,-329.4096 320.3015,-321.9463 309.7687,-323.0911 312.7815,-329.4096"/>
</g>
<!-- TrimByBed -->
<g id="node5" class="node">
<title>TrimByBed</title>
<ellipse fill="none" stroke="#000000" cx="617.7445" cy="-378" rx="53.0913" ry="18"/>
<text text-anchor="middle" x="617.7445" y="-374.3" font-family="Times,serif" font-size="14.00" fill="#000000">TrimByBed</text>
</g>
<!-- AddOrReplaceReadGroups -->
<g id="node6" class="node">
<title>AddOrReplaceReadGroups</title>
<ellipse fill="none" stroke="#000000" cx="550.7445" cy="-306" rx="107.4815" ry="18"/>
<text text-anchor="middle" x="550.7445" y="-302.3" font-family="Times,serif" font-size="14.00" fill="#000000">AddOrReplaceReadGroups</text>
</g>
<!-- TrimByBed&#45;&gt;AddOrReplaceReadGroups -->
<g id="edge4" class="edge">
<title>TrimByBed&#45;&gt;AddOrReplaceReadGroups</title>
<path fill="none" stroke="#000000" d="M601.5257,-360.5708C593.397,-351.8355 583.399,-341.0914 574.4303,-331.4534"/>
<polygon fill="#000000" stroke="#000000" points="576.8883,-328.957 567.5137,-324.0206 571.7638,-333.7256 576.8883,-328.957"/>
</g>
<!-- NugeneBcSplitter -->
<g id="node7" class="node">
<title>NugeneBcSplitter</title>
<ellipse fill="none" stroke="#000000" cx="567.7445" cy="-234" rx="73.387" ry="18"/>
<text text-anchor="middle" x="567.7445" y="-230.3" font-family="Times,serif" font-size="14.00" fill="#000000">NugeneBcSplitter</text>
</g>
<!-- AddOrReplaceReadGroups&#45;&gt;NugeneBcSplitter -->
<g id="edge5" class="edge">
<title>AddOrReplaceReadGroups&#45;&gt;NugeneBcSplitter</title>
<path fill="none" stroke="#000000" d="M555.0343,-287.8314C556.8525,-280.131 559.0145,-270.9743 561.035,-262.4166"/>
<polygon fill="#000000" stroke="#000000" points="564.5053,-262.95 563.3969,-252.4133 557.6926,-261.3414 564.5053,-262.95"/>
</g>
<!-- MergeBamFiles -->
<g id="node8" class="node">
<title>MergeBamFiles</title>
<ellipse fill="none" stroke="#000000" cx="578.7445" cy="-162" rx="68.4888" ry="18"/>
<text text-anchor="middle" x="578.7445" y="-158.3" font-family="Times,serif" font-size="14.00" fill="#000000">MergeBamFiles</text>
</g>
<!-- NugeneBcSplitter&#45;&gt;MergeBamFiles -->
<g id="edge6" class="edge">
<title>NugeneBcSplitter&#45;&gt;MergeBamFiles</title>
<path fill="none" stroke="#000000" d="M570.5203,-215.8314C571.6967,-208.131 573.0957,-198.9743 574.4031,-190.4166"/>
<polygon fill="#000000" stroke="#000000" points="577.8809,-190.8272 575.9314,-180.4133 570.9612,-189.7699 577.8809,-190.8272"/>
</g>
<!-- MarkDuplicates -->
<g id="node9" class="node">
<title>MarkDuplicates</title>
<ellipse fill="none" stroke="#000000" cx="584.7445" cy="-90" rx="67.6881" ry="18"/>
<text text-anchor="middle" x="584.7445" y="-86.3" font-family="Times,serif" font-size="14.00" fill="#000000">MarkDuplicates</text>
</g>
<!-- MergeBamFiles&#45;&gt;MarkDuplicates -->
<g id="edge7" class="edge">
<title>MergeBamFiles&#45;&gt;MarkDuplicates</title>
<path fill="none" stroke="#000000" d="M580.2586,-143.8314C580.9003,-136.131 581.6633,-126.9743 582.3765,-118.4166"/>
<polygon fill="#000000" stroke="#000000" points="585.8674,-118.6694 583.2101,-108.4133 578.8916,-118.088 585.8674,-118.6694"/>
</g>
<!-- SnortByName -->
<g id="node10" class="node">
<title>SnortByName</title>
<ellipse fill="none" stroke="#000000" cx="632.7445" cy="-18" rx="61.99" ry="18"/>
<text text-anchor="middle" x="632.7445" y="-14.3" font-family="Times,serif" font-size="14.00" fill="#000000">SnortByName</text>
</g>
<!-- MarkDuplicates&#45;&gt;SnortByName -->
<g id="edge8" class="edge">
<title>MarkDuplicates&#45;&gt;SnortByName</title>
<path fill="none" stroke="#000000" d="M596.6097,-72.2022C602.2059,-63.8079 608.9967,-53.6218 615.174,-44.3558"/>
<polygon fill="#000000" stroke="#000000" points="618.2146,-46.1045 620.8495,-35.8425 612.3903,-42.2216 618.2146,-46.1045"/>
</g>
<!-- SnortByName&#45;&gt;TrimByBed -->
<g id="edge9" class="edge">
<title>SnortByName&#45;&gt;TrimByBed</title>
<path fill="none" stroke="#000000" d="M643.9845,-35.8602C659.5421,-62.3376 685.7445,-114.0488 685.7445,-162 685.7445,-234 685.7445,-234 685.7445,-234 685.7445,-274.8816 685.3494,-287.5971 666.7445,-324 661.2192,-334.811 652.9567,-345.1006 644.7833,-353.7421"/>
<polygon fill="#000000" stroke="#000000" points="642.2554,-351.3206 637.6946,-360.8836 647.2235,-356.252 642.2554,-351.3206"/>
</g>
</g>
</svg>
