<?xml version="1.0" encoding="UTF-8" standalone="no"?>
<!DOCTYPE svg PUBLIC "-//W3C//DTD SVG 1.1//EN"
 "http://www.w3.org/Graphics/SVG/1.1/DTD/svg11.dtd">
<!-- Generated by graphviz version 2.40.1 (0)
 -->
<!-- Title: workflow_prepiont Pages: 1 -->
<svg width="192pt" height="260pt"
 viewBox="0.00 0.00 192.14 260.00" xmlns="http://www.w3.org/2000/svg" xmlns:xlink="http://www.w3.org/1999/xlink">
<g id="graph0" class="graph" transform="scale(1 1) rotate(0) translate(4 256)">
<title>workflow_prepiont</title>
<polygon fill="#ffffff" stroke="transparent" points="-4,4 -4,-256 188.1378,-256 188.1378,4 -4,4"/>
<!-- IontBamToFastq -->
<g id="node1" class="node">
<title>IontBamToFastq</title>
<ellipse fill="none" stroke="#000000" cx="113.2941" cy="-234" rx="70.6878" ry="18"/>
<text text-anchor="middle" x="113.2941" y="-230.3" font-family="Times,serif" font-size="14.00" fill="#000000">IontBamToFastq</text>
</g>
<!-- FastqToTmp -->
<g id="node2" class="node">
<title>FastqToTmp</title>
<ellipse fill="none" stroke="#000000" cx="113.2941" cy="-162" rx="56.59" ry="18"/>
<text text-anchor="middle" x="113.2941" y="-158.3" font-family="Times,serif" font-size="14.00" fill="#000000">FastqToTmp</text>
</g>
<!-- IontBamToFastq&#45;&gt;FastqToTmp -->
<g id="edge1" class="edge">
<title>IontBamToFastq&#45;&gt;FastqToTmp</title>
<path fill="none" stroke="#000000" d="M113.2941,-215.8314C113.2941,-208.131 113.2941,-198.9743 113.2941,-190.4166"/>
<polygon fill="#000000" stroke="#000000" points="116.7942,-190.4132 113.2941,-180.4133 109.7942,-190.4133 116.7942,-190.4132"/>
</g>
<!-- FilterWorkflow -->
<g id="node3" class="node">
<title>FilterWorkflow</title>
<ellipse fill="none" stroke="#000000" cx="66.2941" cy="-90" rx="66.0889" ry="18"/>
<text text-anchor="middle" x="66.2941" y="-86.3" font-family="Times,serif" font-size="14.00" fill="#000000">FilterWorkflow</text>
</g>
<!-- FastqToTmp&#45;&gt;FilterWorkflow -->
<g id="edge2" class="edge">
<title>FastqToTmp&#45;&gt;FilterWorkflow</title>
<path fill="none" stroke="#000000" d="M101.6761,-144.2022C96.1965,-135.8079 89.5472,-125.6218 83.4986,-116.3558"/>
<polygon fill="#000000" stroke="#000000" points="86.3384,-114.3032 77.9413,-107.8425 80.4768,-118.1295 86.3384,-114.3032"/>
</g>
<!-- GenerateCluster -->
<g id="node4" class="node">
<title>GenerateCluster</title>
<ellipse fill="none" stroke="#000000" cx="113.2941" cy="-18" rx="67.6881" ry="18"/>
<text text-anchor="middle" x="113.2941" y="-14.3" font-family="Times,serif" font-size="14.00" fill="#000000">GenerateCluster</text>
</g>
<!-- FastqToTmp&#45;&gt;GenerateCluster -->
<g id="edge3" class="edge">
<title>FastqToTmp&#45;&gt;GenerateCluster</title>
<path fill="none" stroke="#000000" d="M125.1836,-144.368C131.3097,-134.2107 138.1419,-120.9273 141.2941,-108 145.0846,-92.4555 145.0846,-87.5445 141.2941,-72 139.0402,-62.7566 134.9048,-53.3312 130.4914,-44.9966"/>
<polygon fill="#000000" stroke="#000000" points="133.4418,-43.1033 125.4758,-36.118 127.347,-46.5463 133.4418,-43.1033"/>
</g>
<!-- FilterWorkflow&#45;&gt;GenerateCluster -->
<g id="edge4" class="edge">
<title>FilterWorkflow&#45;&gt;GenerateCluster</title>
<path fill="none" stroke="#000000" d="M77.9121,-72.2022C83.3917,-63.8079 90.041,-53.6218 96.0896,-44.3558"/>
<polygon fill="#000000" stroke="#000000" points="99.1115,-46.1295 101.6469,-35.8425 93.2498,-42.3032 99.1115,-46.1295"/>
</g>
</g>
</svg>
