<?xml version="1.0" encoding="UTF-8" standalone="no"?>
<!DOCTYPE svg PUBLIC "-//W3C//DTD SVG 1.1//EN"
 "http://www.w3.org/Graphics/SVG/1.1/DTD/svg11.dtd">
<!-- Generated by graphviz version 2.40.1 (0)
 -->
<!-- Title: workflow_nugene Pages: 1 -->
<svg width="2168pt" height="1268pt"
 viewBox="0.00 0.00 2168.03 1268.00" xmlns="http://www.w3.org/2000/svg" xmlns:xlink="http://www.w3.org/1999/xlink">
<g id="graph0" class="graph" transform="scale(1 1) rotate(0) translate(4 1264)">
<title>workflow_nugene</title>
<polygon fill="#ffffff" stroke="transparent" points="-4,4 -4,-1264 2164.0289,-1264 2164.0289,4 -4,4"/>
<!-- NugenePreAlign -->
<g id="node1" class="node">
<title>NugenePreAlign</title>
<ellipse fill="none" stroke="#000000" cx="1970.3443" cy="-1242" rx="69.5877" ry="18"/>
<text text-anchor="middle" x="1970.3443" y="-1238.3" font-family="Times,serif" font-size="14.00" fill="#000000">NugenePreAlign</text>
</g>
<!-- FastqcNugene -->
<g id="node2" class="node">
<title>FastqcNugene</title>
<ellipse fill="none" stroke="#000000" cx="2096.3443" cy="-1098" rx="61.1893" ry="18"/>
<text text-anchor="middle" x="2096.3443" y="-1094.3" font-family="Times,serif" font-size="14.00" fill="#000000">FastqcNugene</text>
</g>
<!-- NugenePreAlign&#45;&gt;FastqcNugene -->
<g id="edge1" class="edge">
<title>NugenePreAlign&#45;&gt;FastqcNugene</title>
<path fill="none" stroke="#000000" d="M1985.7944,-1224.3428C2007.899,-1199.0804 2048.6751,-1152.4791 2074.0481,-1123.4813"/>
<polygon fill="#000000" stroke="#000000" points="2076.8168,-1125.6322 2080.7678,-1115.8017 2071.5487,-1121.0227 2076.8168,-1125.6322"/>
</g>
<!-- BwaMemAlignment -->
<g id="node3" class="node">
<title>BwaMemAlignment</title>
<ellipse fill="none" stroke="#000000" cx="1914.3443" cy="-1170" rx="84.485" ry="18"/>
<text text-anchor="middle" x="1914.3443" y="-1166.3" font-family="Times,serif" font-size="14.00" fill="#000000">BwaMemAlignment</text>
</g>
<!-- NugenePreAlign&#45;&gt;BwaMemAlignment -->
<g id="edge2" class="edge">
<title>NugenePreAlign&#45;&gt;BwaMemAlignment</title>
<path fill="none" stroke="#000000" d="M1956.5016,-1224.2022C1949.838,-1215.6348 1941.7228,-1205.2009 1934.3984,-1195.7839"/>
<polygon fill="#000000" stroke="#000000" points="1937.124,-1193.5873 1928.2218,-1187.8425 1931.5985,-1197.8849 1937.124,-1193.5873"/>
</g>
<!-- SampleMarkdown -->
<g id="node16" class="node">
<title>SampleMarkdown</title>
<ellipse fill="none" stroke="#000000" cx="1780.3443" cy="-306" rx="76.8869" ry="18"/>
<text text-anchor="middle" x="1780.3443" y="-302.3" font-family="Times,serif" font-size="14.00" fill="#000000">SampleMarkdown</text>
</g>
<!-- FastqcNugene&#45;&gt;SampleMarkdown -->
<g id="edge18" class="edge">
<title>FastqcNugene&#45;&gt;SampleMarkdown</title>
<path fill="none" stroke="#000000" d="M2109.2808,-1080.383C2127.1868,-1054.2086 2157.3443,-1002.871 2157.3443,-954 2157.3443,-954 2157.3443,-954 2157.3443,-450 2157.3443,-409.1184 2168.0829,-388.0522 2138.3443,-360 2118.5348,-341.3139 1961.4894,-323.1809 1862.0886,-313.4152"/>
<polygon fill="#000000" stroke="#000000" points="1862.3512,-309.9243 1852.0592,-312.439 1861.673,-316.8914 1862.3512,-309.9243"/>
</g>
<!-- TrimByBed -->
<g id="node4" class="node">
<title>TrimByBed</title>
<ellipse fill="none" stroke="#000000" cx="1904.3443" cy="-1098" rx="53.0913" ry="18"/>
<text text-anchor="middle" x="1904.3443" y="-1094.3" font-family="Times,serif" font-size="14.00" fill="#000000">TrimByBed</text>
</g>
<!-- BwaMemAlignment&#45;&gt;TrimByBed -->
<g id="edge3" class="edge">
<title>BwaMemAlignment&#45;&gt;TrimByBed</title>
<path fill="none" stroke="#000000" d="M1911.8209,-1151.8314C1910.7514,-1144.131 1909.4796,-1134.9743 1908.291,-1126.4166"/>
<polygon fill="#000000" stroke="#000000" points="1911.7442,-1125.8367 1906.9017,-1116.4133 1904.8107,-1126.7997 1911.7442,-1125.8367"/>
</g>
<!-- AddOrReplaceReadGroups -->
<g id="node5" class="node">
<title>AddOrReplaceReadGroups</title>
<ellipse fill="none" stroke="#000000" cx="1903.3443" cy="-1026" rx="107.4815" ry="18"/>
<text text-anchor="middle" x="1903.3443" y="-1022.3" font-family="Times,serif" font-size="14.00" fill="#000000">AddOrReplaceReadGroups</text>
</g>
<!-- TrimByBed&#45;&gt;AddOrReplaceReadGroups -->
<g id="edge4" class="edge">
<title>TrimByBed&#45;&gt;AddOrReplaceReadGroups</title>
<path fill="none" stroke="#000000" d="M1904.0919,-1079.8314C1903.985,-1072.131 1903.8578,-1062.9743 1903.739,-1054.4166"/>
<polygon fill="#000000" stroke="#000000" points="1907.2387,-1054.3637 1903.6,-1044.4133 1900.2393,-1054.4609 1907.2387,-1054.3637"/>
</g>
<!-- NugeneBcSplitter -->
<g id="node6" class="node">
<title>NugeneBcSplitter</title>
<ellipse fill="none" stroke="#000000" cx="1784.3443" cy="-954" rx="73.387" ry="18"/>
<text text-anchor="middle" x="1784.3443" y="-950.3" font-family="Times,serif" font-size="14.00" fill="#000000">NugeneBcSplitter</text>
</g>
<!-- AddOrReplaceReadGroups&#45;&gt;NugeneBcSplitter -->
<g id="edge5" class="edge">
<title>AddOrReplaceReadGroups&#45;&gt;NugeneBcSplitter</title>
<path fill="none" stroke="#000000" d="M1874.5377,-1008.5708C1858.3709,-998.7892 1838.0409,-986.4887 1820.7766,-976.0431"/>
<polygon fill="#000000" stroke="#000000" points="1822.4339,-972.9551 1812.0662,-970.7729 1818.8102,-978.9442 1822.4339,-972.9551"/>
</g>
<!-- MergeBamFiles -->
<g id="node7" class="node">
<title>MergeBamFiles</title>
<ellipse fill="none" stroke="#000000" cx="1640.3443" cy="-882" rx="68.4888" ry="18"/>
<text text-anchor="middle" x="1640.3443" y="-878.3" font-family="Times,serif" font-size="14.00" fill="#000000">MergeBamFiles</text>
</g>
<!-- NugeneBcSplitter&#45;&gt;MergeBamFiles -->
<g id="edge6" class="edge">
<title>NugeneBcSplitter&#45;&gt;MergeBamFiles</title>
<path fill="none" stroke="#000000" d="M1751.6685,-937.6621C1730.9026,-927.2791 1703.8413,-913.7485 1681.5995,-902.6276"/>
<polygon fill="#000000" stroke="#000000" points="1682.9043,-899.3669 1672.3948,-898.0252 1679.7738,-905.6279 1682.9043,-899.3669"/>
</g>
<!-- MarkDuplicates -->
<g id="node8" class="node">
<title>MarkDuplicates</title>
<ellipse fill="none" stroke="#000000" cx="1640.3443" cy="-810" rx="67.6881" ry="18"/>
<text text-anchor="middle" x="1640.3443" y="-806.3" font-family="Times,serif" font-size="14.00" fill="#000000">MarkDuplicates</text>
</g>
<!-- MergeBamFiles&#45;&gt;MarkDuplicates -->
<g id="edge7" class="edge">
<title>MergeBamFiles&#45;&gt;MarkDuplicates</title>
<path fill="none" stroke="#000000" d="M1640.3443,-863.8314C1640.3443,-856.131 1640.3443,-846.9743 1640.3443,-838.4166"/>
<polygon fill="#000000" stroke="#000000" points="1643.8444,-838.4132 1640.3443,-828.4133 1636.8444,-838.4133 1643.8444,-838.4132"/>
</g>
<!-- IndelRealignmentKnown -->
<g id="node18" class="node">
<title>IndelRealignmentKnown</title>
<ellipse fill="none" stroke="#000000" cx="749.3443" cy="-738" rx="100.1823" ry="18"/>
<text text-anchor="middle" x="749.3443" y="-734.3" font-family="Times,serif" font-size="14.00" fill="#000000">IndelRealignmentKnown</text>
</g>
<!-- MergeBamFiles&#45;&gt;IndelRealignmentKnown -->
<g id="edge21" class="edge">
<title>MergeBamFiles&#45;&gt;IndelRealignmentKnown</title>
<path fill="none" stroke="#000000" d="M1581.8833,-872.5518C1428.3747,-847.7423 1013.3291,-780.6642 833.8899,-751.6639"/>
<polygon fill="#000000" stroke="#000000" points="834.3991,-748.2009 823.9688,-750.0605 833.2822,-755.1112 834.3991,-748.2009"/>
</g>
<!-- MantaSV -->
<g id="node9" class="node">
<title>MantaSV</title>
<ellipse fill="none" stroke="#000000" cx="1593.3443" cy="-738" rx="44.6926" ry="18"/>
<text text-anchor="middle" x="1593.3443" y="-734.3" font-family="Times,serif" font-size="14.00" fill="#000000">MantaSV</text>
</g>
<!-- MarkDuplicates&#45;&gt;MantaSV -->
<g id="edge8" class="edge">
<title>MarkDuplicates&#45;&gt;MantaSV</title>
<path fill="none" stroke="#000000" d="M1628.7263,-792.2022C1623.2055,-783.7448 1616.4973,-773.4685 1610.4125,-764.147"/>
<polygon fill="#000000" stroke="#000000" points="1613.2257,-762.0536 1604.8286,-755.593 1607.3641,-765.88 1613.2257,-762.0536"/>
</g>
<!-- CollectMultipleMetrics -->
<g id="node14" class="node">
<title>CollectMultipleMetrics</title>
<ellipse fill="none" stroke="#000000" cx="1855.3443" cy="-378" rx="94.4839" ry="18"/>
<text text-anchor="middle" x="1855.3443" y="-374.3" font-family="Times,serif" font-size="14.00" fill="#000000">CollectMultipleMetrics</text>
</g>
<!-- MarkDuplicates&#45;&gt;CollectMultipleMetrics -->
<g id="edge13" class="edge">
<title>MarkDuplicates&#45;&gt;CollectMultipleMetrics</title>
<path fill="none" stroke="#000000" d="M1682.6649,-795.8978C1733.8813,-775.842 1813.3443,-733.8002 1813.3443,-666 1813.3443,-666 1813.3443,-666 1813.3443,-522 1813.3443,-480.0688 1829.9595,-433.918 1842.289,-405.4435"/>
<polygon fill="#000000" stroke="#000000" points="1845.5595,-406.7032 1846.4372,-396.1447 1839.1667,-403.8513 1845.5595,-406.7032"/>
</g>
<!-- CalculateHsMetrics -->
<g id="node15" class="node">
<title>CalculateHsMetrics</title>
<ellipse fill="none" stroke="#000000" cx="2048.3443" cy="-378" rx="81.4863" ry="18"/>
<text text-anchor="middle" x="2048.3443" y="-374.3" font-family="Times,serif" font-size="14.00" fill="#000000">CalculateHsMetrics</text>
</g>
<!-- MarkDuplicates&#45;&gt;CalculateHsMetrics -->
<g id="edge14" class="edge">
<title>MarkDuplicates&#45;&gt;CalculateHsMetrics</title>
<path fill="none" stroke="#000000" d="M1706.2845,-805.6299C1791.58,-795.9888 1929.3443,-765.0808 1929.3443,-666 1929.3443,-666 1929.3443,-666 1929.3443,-522 1929.3443,-469.6783 1976.6036,-426.1139 2011.5577,-401.0482"/>
<polygon fill="#000000" stroke="#000000" points="2013.9298,-403.6619 2020.143,-395.08 2009.9342,-397.9142 2013.9298,-403.6619"/>
</g>
<!-- MarkDuplicates&#45;&gt;SampleMarkdown -->
<g id="edge19" class="edge">
<title>MarkDuplicates&#45;&gt;SampleMarkdown</title>
<path fill="none" stroke="#000000" d="M1660.984,-792.7951C1688.3826,-767.899 1733.3443,-718.9737 1733.3443,-666 1733.3443,-666 1733.3443,-666 1733.3443,-450 1733.3443,-409.1184 1738.5874,-398.4975 1752.3443,-360 1755.5975,-350.8961 1760.1047,-341.3979 1764.5529,-332.9515"/>
<polygon fill="#000000" stroke="#000000" points="1767.754,-334.3925 1769.4801,-323.9393 1761.612,-331.0345 1767.754,-334.3925"/>
</g>
<!-- MarkDuplicates&#45;&gt;IndelRealignmentKnown -->
<g id="edge20" class="edge">
<title>MarkDuplicates&#45;&gt;IndelRealignmentKnown</title>
<path fill="none" stroke="#000000" d="M1575.5481,-804.7639C1422.0928,-792.3635 1035.5364,-761.1266 850.7609,-746.1953"/>
<polygon fill="#000000" stroke="#000000" points="851.019,-742.7048 840.7696,-745.3879 850.4551,-749.6821 851.019,-742.7048"/>
</g>
<!-- SamQC -->
<g id="node48" class="node">
<title>SamQC</title>
<ellipse fill="none" stroke="#000000" cx="1268.3443" cy="-450" rx="38.9931" ry="18"/>
<text text-anchor="middle" x="1268.3443" y="-446.3" font-family="Times,serif" font-size="14.00" fill="#000000">SamQC</text>
</g>
<!-- MarkDuplicates&#45;&gt;SamQC -->
<g id="edge60" class="edge">
<title>MarkDuplicates&#45;&gt;SamQC</title>
<path fill="none" stroke="#000000" d="M1572.8645,-808.6292C1411.2532,-803.523 1015.3443,-779.4375 1015.3443,-666 1015.3443,-666 1015.3443,-666 1015.3443,-594 1015.3443,-500.7191 1146.8539,-467.0927 1220.2436,-455.5899"/>
<polygon fill="#000000" stroke="#000000" points="1220.8176,-459.0431 1230.1937,-454.1097 1219.7875,-452.1193 1220.8176,-459.0431"/>
</g>
<!-- SnpEffManta -->
<g id="node10" class="node">
<title>SnpEffManta</title>
<ellipse fill="none" stroke="#000000" cx="1547.3443" cy="-666" rx="58.4896" ry="18"/>
<text text-anchor="middle" x="1547.3443" y="-662.3" font-family="Times,serif" font-size="14.00" fill="#000000">SnpEffManta</text>
</g>
<!-- MantaSV&#45;&gt;SnpEffManta -->
<g id="edge9" class="edge">
<title>MantaSV&#45;&gt;SnpEffManta</title>
<path fill="none" stroke="#000000" d="M1581.9735,-720.2022C1576.6105,-711.8079 1570.1026,-701.6218 1564.1828,-692.3558"/>
<polygon fill="#000000" stroke="#000000" points="1567.0771,-690.3851 1558.7437,-683.8425 1561.1782,-694.1539 1567.0771,-690.3851"/>
</g>
<!-- SvVariantsToDescriptionTable -->
<g id="node11" class="node">
<title>SvVariantsToDescriptionTable</title>
<ellipse fill="none" stroke="#000000" cx="1547.3443" cy="-594" rx="120.4791" ry="18"/>
<text text-anchor="middle" x="1547.3443" y="-590.3" font-family="Times,serif" font-size="14.00" fill="#000000">SvVariantsToDescriptionTable</text>
</g>
<!-- SnpEffManta&#45;&gt;SvVariantsToDescriptionTable -->
<g id="edge10" class="edge">
<title>SnpEffManta&#45;&gt;SvVariantsToDescriptionTable</title>
<path fill="none" stroke="#000000" d="M1547.3443,-647.8314C1547.3443,-640.131 1547.3443,-630.9743 1547.3443,-622.4166"/>
<polygon fill="#000000" stroke="#000000" points="1550.8444,-622.4132 1547.3443,-612.4133 1543.8444,-622.4133 1550.8444,-622.4132"/>
</g>
<!-- SvVariantsToTable -->
<g id="node12" class="node">
<title>SvVariantsToTable</title>
<ellipse fill="none" stroke="#000000" cx="1122.3443" cy="-594" rx="79.0865" ry="18"/>
<text text-anchor="middle" x="1122.3443" y="-590.3" font-family="Times,serif" font-size="14.00" fill="#000000">SvVariantsToTable</text>
</g>
<!-- SnpEffManta&#45;&gt;SvVariantsToTable -->
<g id="edge11" class="edge">
<title>SnpEffManta&#45;&gt;SvVariantsToTable</title>
<path fill="none" stroke="#000000" d="M1494.3998,-658.2342C1427.9272,-648.3191 1310.4617,-630.2519 1210.3443,-612 1203.8506,-610.8162 1197.0985,-609.5317 1190.351,-608.2123"/>
<polygon fill="#000000" stroke="#000000" points="1190.9883,-604.7706 1180.499,-606.2618 1189.6288,-611.6373 1190.9883,-604.7706"/>
</g>
<!-- SvVariantsToMinTable -->
<g id="node13" class="node">
<title>SvVariantsToMinTable</title>
<ellipse fill="none" stroke="#000000" cx="1314.3443" cy="-594" rx="94.7833" ry="18"/>
<text text-anchor="middle" x="1314.3443" y="-590.3" font-family="Times,serif" font-size="14.00" fill="#000000">SvVariantsToMinTable</text>
</g>
<!-- SnpEffManta&#45;&gt;SvVariantsToMinTable -->
<g id="edge12" class="edge">
<title>SnpEffManta&#45;&gt;SvVariantsToMinTable</title>
<path fill="none" stroke="#000000" d="M1505.957,-653.2108C1469.2742,-641.8753 1415.2708,-625.1876 1373.9368,-612.4149"/>
<polygon fill="#000000" stroke="#000000" points="1374.8431,-609.0317 1364.2555,-609.4232 1372.7763,-615.7196 1374.8431,-609.0317"/>
</g>
<!-- MultiQC -->
<g id="node49" class="node">
<title>MultiQC</title>
<ellipse fill="none" stroke="#000000" cx="1606.3443" cy="-162" rx="42.7926" ry="18"/>
<text text-anchor="middle" x="1606.3443" y="-158.3" font-family="Times,serif" font-size="14.00" fill="#000000">MultiQC</text>
</g>
<!-- SnpEffManta&#45;&gt;MultiQC -->
<g id="edge62" class="edge">
<title>SnpEffManta&#45;&gt;MultiQC</title>
<path fill="none" stroke="#000000" d="M1600.2445,-658.0695C1627.8814,-650.9469 1659.3962,-637.4676 1676.3443,-612 1685.2085,-598.6799 1678.4232,-591.8644 1676.3443,-576 1665.5864,-493.9063 1642.9367,-477.4995 1628.3443,-396 1615.1842,-322.5004 1609.5971,-234.5136 1607.4806,-190.3061"/>
<polygon fill="#000000" stroke="#000000" points="1610.9648,-189.8766 1607.0148,-180.0456 1603.972,-190.1941 1610.9648,-189.8766"/>
</g>
<!-- CollectMultipleMetrics&#45;&gt;SampleMarkdown -->
<g id="edge16" class="edge">
<title>CollectMultipleMetrics&#45;&gt;SampleMarkdown</title>
<path fill="none" stroke="#000000" d="M1836.805,-360.2022C1827.541,-351.3088 1816.182,-340.4042 1806.0875,-330.7135"/>
<polygon fill="#000000" stroke="#000000" points="1808.3081,-327.9935 1798.6704,-323.593 1803.4604,-333.0432 1808.3081,-327.9935"/>
</g>
<!-- Cleanup -->
<g id="node50" class="node">
<title>Cleanup</title>
<ellipse fill="none" stroke="#000000" cx="1606.3443" cy="-18" rx="40.0939" ry="18"/>
<text text-anchor="middle" x="1606.3443" y="-14.3" font-family="Times,serif" font-size="14.00" fill="#000000">Cleanup</text>
</g>
<!-- CollectMultipleMetrics&#45;&gt;Cleanup -->
<g id="edge70" class="edge">
<title>CollectMultipleMetrics&#45;&gt;Cleanup</title>
<path fill="none" stroke="#000000" d="M1861.7065,-359.615C1870.5127,-332.4838 1885.3443,-279.9662 1885.3443,-234 1885.3443,-234 1885.3443,-234 1885.3443,-162 1885.3443,-60.2754 1737.0769,-30.3378 1656.7126,-21.5824"/>
<polygon fill="#000000" stroke="#000000" points="1656.6207,-18.0551 1646.3182,-20.5266 1655.9133,-25.0193 1656.6207,-18.0551"/>
</g>
<!-- CalculateHsMetrics&#45;&gt;SampleMarkdown -->
<g id="edge15" class="edge">
<title>CalculateHsMetrics&#45;&gt;SampleMarkdown</title>
<path fill="none" stroke="#000000" d="M1996.3534,-364.0323C1951.7308,-352.0441 1887.394,-334.7596 1840.546,-322.1736"/>
<polygon fill="#000000" stroke="#000000" points="1841.3937,-318.7773 1830.8281,-319.5628 1839.5775,-325.5376 1841.3937,-318.7773"/>
</g>
<!-- CalculateHsMetrics&#45;&gt;Cleanup -->
<g id="edge69" class="edge">
<title>CalculateHsMetrics&#45;&gt;Cleanup</title>
<path fill="none" stroke="#000000" d="M2035.1082,-359.9445C2017.1676,-333.6382 1987.3443,-282.5995 1987.3443,-234 1987.3443,-234 1987.3443,-234 1987.3443,-162 1987.3443,-93.5426 1924.9644,-99.6613 1862.3443,-72 1794.567,-42.0606 1709.2217,-28.3507 1656.217,-22.3435"/>
<polygon fill="#000000" stroke="#000000" points="1656.3812,-18.8408 1646.0621,-21.2422 1655.6264,-25.8 1656.3812,-18.8408"/>
</g>
<!-- ProjectMarkdown -->
<g id="node47" class="node">
<title>ProjectMarkdown</title>
<ellipse fill="none" stroke="#000000" cx="1778.3443" cy="-234" rx="74.9875" ry="18"/>
<text text-anchor="middle" x="1778.3443" y="-230.3" font-family="Times,serif" font-size="14.00" fill="#000000">ProjectMarkdown</text>
</g>
<!-- SampleMarkdown&#45;&gt;ProjectMarkdown -->
<g id="edge59" class="edge">
<title>SampleMarkdown&#45;&gt;ProjectMarkdown</title>
<path fill="none" stroke="#000000" d="M1779.8396,-287.8314C1779.6257,-280.131 1779.3714,-270.9743 1779.1336,-262.4166"/>
<polygon fill="#000000" stroke="#000000" points="1782.6322,-262.3122 1778.8558,-252.4133 1775.6349,-262.5066 1782.6322,-262.3122"/>
</g>
<!-- Fastqc -->
<g id="node17" class="node">
<title>Fastqc</title>
<ellipse fill="none" stroke="#000000" cx="1671.3443" cy="-378" rx="33.5952" ry="18"/>
<text text-anchor="middle" x="1671.3443" y="-374.3" font-family="Times,serif" font-size="14.00" fill="#000000">Fastqc</text>
</g>
<!-- Fastqc&#45;&gt;SampleMarkdown -->
<g id="edge17" class="edge">
<title>Fastqc&#45;&gt;SampleMarkdown</title>
<path fill="none" stroke="#000000" d="M1692.6193,-363.9468C1707.7083,-353.9797 1728.2918,-340.3833 1745.7283,-328.8656"/>
<polygon fill="#000000" stroke="#000000" points="1748.099,-331.4943 1754.5139,-323.0623 1744.2408,-325.6535 1748.099,-331.4943"/>
</g>
<!-- Fastqc&#45;&gt;Cleanup -->
<g id="edge71" class="edge">
<title>Fastqc&#45;&gt;Cleanup</title>
<path fill="none" stroke="#000000" d="M1672.3801,-359.8074C1674.2001,-320.0671 1676.2416,-222.757 1658.3443,-144 1650.2427,-108.3489 1632.9814,-69.8391 1620.5664,-44.905"/>
<polygon fill="#000000" stroke="#000000" points="1623.5577,-43.0652 1615.9113,-35.7315 1617.3155,-46.2329 1623.5577,-43.0652"/>
</g>
<!-- MergeBamFilesFreebayes -->
<g id="node19" class="node">
<title>MergeBamFilesFreebayes</title>
<ellipse fill="none" stroke="#000000" cx="749.3443" cy="-666" rx="103.9815" ry="18"/>
<text text-anchor="middle" x="749.3443" y="-662.3" font-family="Times,serif" font-size="14.00" fill="#000000">MergeBamFilesFreebayes</text>
</g>
<!-- IndelRealignmentKnown&#45;&gt;MergeBamFilesFreebayes -->
<g id="edge22" class="edge">
<title>IndelRealignmentKnown&#45;&gt;MergeBamFilesFreebayes</title>
<path fill="none" stroke="#000000" d="M749.3443,-719.8314C749.3443,-712.131 749.3443,-702.9743 749.3443,-694.4166"/>
<polygon fill="#000000" stroke="#000000" points="752.8444,-694.4132 749.3443,-684.4133 745.8444,-694.4133 752.8444,-694.4132"/>
</g>
<!-- NugeneProbeMetrics -->
<g id="node20" class="node">
<title>NugeneProbeMetrics</title>
<ellipse fill="none" stroke="#000000" cx="197.3443" cy="-666" rx="85.5853" ry="18"/>
<text text-anchor="middle" x="197.3443" y="-662.3" font-family="Times,serif" font-size="14.00" fill="#000000">NugeneProbeMetrics</text>
</g>
<!-- IndelRealignmentKnown&#45;&gt;NugeneProbeMetrics -->
<g id="edge23" class="edge">
<title>IndelRealignmentKnown&#45;&gt;NugeneProbeMetrics</title>
<path fill="none" stroke="#000000" d="M665.243,-728.2326C577.7447,-717.9073 436.8096,-700.8176 315.3443,-684 302.6671,-682.2448 289.2391,-680.2888 276.1604,-678.3312"/>
<polygon fill="#000000" stroke="#000000" points="276.6553,-674.8663 266.2453,-676.8372 275.6122,-681.7882 276.6553,-674.8663"/>
</g>
<!-- HaplotypeCaller -->
<g id="node25" class="node">
<title>HaplotypeCaller</title>
<ellipse fill="none" stroke="#000000" cx="369.3443" cy="-594" rx="68.7879" ry="18"/>
<text text-anchor="middle" x="369.3443" y="-590.3" font-family="Times,serif" font-size="14.00" fill="#000000">HaplotypeCaller</text>
</g>
<!-- IndelRealignmentKnown&#45;&gt;HaplotypeCaller -->
<g id="edge28" class="edge">
<title>IndelRealignmentKnown&#45;&gt;HaplotypeCaller</title>
<path fill="none" stroke="#000000" d="M655.0658,-731.755C542.9167,-723.3474 368.2558,-706.7725 348.3443,-684 333.1185,-666.5864 341.7017,-640.2429 352.1064,-620.55"/>
<polygon fill="#000000" stroke="#000000" points="355.2056,-622.1802 357.0995,-611.756 349.1184,-618.7239 355.2056,-622.1802"/>
</g>
<!-- ContEst -->
<g id="node27" class="node">
<title>ContEst</title>
<ellipse fill="none" stroke="#000000" cx="910.3443" cy="-666" rx="38.9931" ry="18"/>
<text text-anchor="middle" x="910.3443" y="-662.3" font-family="Times,serif" font-size="14.00" fill="#000000">ContEst</text>
</g>
<!-- IndelRealignmentKnown&#45;&gt;ContEst -->
<g id="edge31" class="edge">
<title>IndelRealignmentKnown&#45;&gt;ContEst</title>
<path fill="none" stroke="#000000" d="M787.0916,-721.1192C812.8873,-709.5833 846.9339,-694.3574 872.7062,-682.8319"/>
<polygon fill="#000000" stroke="#000000" points="874.4442,-685.8888 882.1441,-678.6113 871.5865,-679.4987 874.4442,-685.8888"/>
</g>
<!-- Mutect2 -->
<g id="node28" class="node">
<title>Mutect2</title>
<ellipse fill="none" stroke="#000000" cx="587.3443" cy="-666" rx="40.0939" ry="18"/>
<text text-anchor="middle" x="587.3443" y="-662.3" font-family="Times,serif" font-size="14.00" fill="#000000">Mutect2</text>
</g>
<!-- IndelRealignmentKnown&#45;&gt;Mutect2 -->
<g id="edge32" class="edge">
<title>IndelRealignmentKnown&#45;&gt;Mutect2</title>
<path fill="none" stroke="#000000" d="M711.771,-721.3008C685.7982,-709.7573 651.3676,-694.4548 625.3101,-682.8737"/>
<polygon fill="#000000" stroke="#000000" points="626.6796,-679.6523 616.12,-678.7892 623.8366,-686.049 626.6796,-679.6523"/>
</g>
<!-- CnvProfile -->
<g id="node43" class="node">
<title>CnvProfile</title>
<ellipse fill="none" stroke="#000000" cx="923.3443" cy="-450" rx="49.2915" ry="18"/>
<text text-anchor="middle" x="923.3443" y="-446.3" font-family="Times,serif" font-size="14.00" fill="#000000">CnvProfile</text>
</g>
<!-- IndelRealignmentKnown&#45;&gt;CnvProfile -->
<g id="edge53" class="edge">
<title>IndelRealignmentKnown&#45;&gt;CnvProfile</title>
<path fill="none" stroke="#000000" d="M830.4131,-727.3758C882.1503,-718.7428 942.3961,-704.5925 958.3443,-684 1007.3289,-620.7504 981.0315,-580.7156 958.3443,-504 955.3815,-493.9814 949.9128,-484.0765 944.1645,-475.5391"/>
<polygon fill="#000000" stroke="#000000" points="946.8433,-473.2691 938.1661,-467.1898 941.1583,-477.3534 946.8433,-473.2691"/>
</g>
<!-- Varscan2 -->
<g id="node44" class="node">
<title>Varscan2</title>
<ellipse fill="none" stroke="#000000" cx="64.3443" cy="-522" rx="44.393" ry="18"/>
<text text-anchor="middle" x="64.3443" y="-518.3" font-family="Times,serif" font-size="14.00" fill="#000000">Varscan2</text>
</g>
<!-- IndelRealignmentKnown&#45;&gt;Varscan2 -->
<g id="edge54" class="edge">
<title>IndelRealignmentKnown&#45;&gt;Varscan2</title>
<path fill="none" stroke="#000000" d="M650.3046,-735.0839C480.1905,-729.292 146.422,-714.2067 102.3443,-684 60.1598,-655.0907 58.1461,-588.6982 60.9183,-550.486"/>
<polygon fill="#000000" stroke="#000000" points="64.4461,-550.3274 61.8451,-540.0568 57.4736,-549.7077 64.4461,-550.3274"/>
</g>
<!-- Freebayes -->
<g id="node22" class="node">
<title>Freebayes</title>
<ellipse fill="none" stroke="#000000" cx="782.3443" cy="-594" rx="46.2923" ry="18"/>
<text text-anchor="middle" x="782.3443" y="-590.3" font-family="Times,serif" font-size="14.00" fill="#000000">Freebayes</text>
</g>
<!-- MergeBamFilesFreebayes&#45;&gt;Freebayes -->
<g id="edge25" class="edge">
<title>MergeBamFilesFreebayes&#45;&gt;Freebayes</title>
<path fill="none" stroke="#000000" d="M757.6716,-647.8314C761.3734,-639.7547 765.8094,-630.0761 769.8928,-621.1668"/>
<polygon fill="#000000" stroke="#000000" points="773.1491,-622.4624 774.134,-611.9134 766.7856,-619.5458 773.1491,-622.4624"/>
</g>
<!-- MergeNugeneCNRTables -->
<g id="node21" class="node">
<title>MergeNugeneCNRTables</title>
<ellipse fill="none" stroke="#000000" cx="179.3443" cy="-594" rx="102.8821" ry="18"/>
<text text-anchor="middle" x="179.3443" y="-590.3" font-family="Times,serif" font-size="14.00" fill="#000000">MergeNugeneCNRTables</text>
</g>
<!-- NugeneProbeMetrics&#45;&gt;MergeNugeneCNRTables -->
<g id="edge24" class="edge">
<title>NugeneProbeMetrics&#45;&gt;MergeNugeneCNRTables</title>
<path fill="none" stroke="#000000" d="M192.8021,-647.8314C190.8559,-640.0463 188.5375,-630.7729 186.378,-622.1347"/>
<polygon fill="#000000" stroke="#000000" points="189.7685,-621.2658 183.9476,-612.4133 182.9775,-622.9636 189.7685,-621.2658"/>
</g>
<!-- MergeFreeBayesVariants -->
<g id="node24" class="node">
<title>MergeFreeBayesVariants</title>
<ellipse fill="none" stroke="#000000" cx="848.3443" cy="-522" rx="100.9827" ry="18"/>
<text text-anchor="middle" x="848.3443" y="-518.3" font-family="Times,serif" font-size="14.00" fill="#000000">MergeFreeBayesVariants</text>
</g>
<!-- Freebayes&#45;&gt;MergeFreeBayesVariants -->
<g id="edge27" class="edge">
<title>Freebayes&#45;&gt;MergeFreeBayesVariants</title>
<path fill="none" stroke="#000000" d="M797.9854,-576.937C806.0464,-568.1431 816.0393,-557.2418 824.9932,-547.4739"/>
<polygon fill="#000000" stroke="#000000" points="827.7172,-549.6819 831.8945,-539.9453 822.5571,-544.9518 827.7172,-549.6819"/>
</g>
<!-- CreatePaddedTargets -->
<g id="node23" class="node">
<title>CreatePaddedTargets</title>
<ellipse fill="none" stroke="#000000" cx="443.3443" cy="-666" rx="85.5853" ry="18"/>
<text text-anchor="middle" x="443.3443" y="-662.3" font-family="Times,serif" font-size="14.00" fill="#000000">CreatePaddedTargets</text>
</g>
<!-- CreatePaddedTargets&#45;&gt;Freebayes -->
<g id="edge26" class="edge">
<title>CreatePaddedTargets&#45;&gt;Freebayes</title>
<path fill="none" stroke="#000000" d="M507.0514,-653.9124C590.3683,-638.1006 725.9982,-612.3467 727.3443,-612 730.9107,-611.0814 734.5835,-610.0568 738.259,-608.9754"/>
<polygon fill="#000000" stroke="#000000" points="739.3877,-612.2902 747.9235,-606.014 737.3369,-605.5974 739.3877,-612.2902"/>
</g>
<!-- CreatePaddedTargets&#45;&gt;HaplotypeCaller -->
<g id="edge29" class="edge">
<title>CreatePaddedTargets&#45;&gt;HaplotypeCaller</title>
<path fill="none" stroke="#000000" d="M425.0522,-648.2022C415.9117,-639.3088 404.7042,-628.4042 394.7443,-618.7135"/>
<polygon fill="#000000" stroke="#000000" points="397.0341,-616.0581 387.426,-611.593 392.1525,-621.0752 397.0341,-616.0581"/>
</g>
<!-- CombineVariants -->
<g id="node31" class="node">
<title>CombineVariants</title>
<ellipse fill="none" stroke="#000000" cx="727.3443" cy="-450" rx="73.387" ry="18"/>
<text text-anchor="middle" x="727.3443" y="-446.3" font-family="Times,serif" font-size="14.00" fill="#000000">CombineVariants</text>
</g>
<!-- MergeFreeBayesVariants&#45;&gt;CombineVariants -->
<g id="edge36" class="edge">
<title>MergeFreeBayesVariants&#45;&gt;CombineVariants</title>
<path fill="none" stroke="#000000" d="M819.3618,-504.7542C802.9294,-494.9763 782.1933,-482.6374 764.5673,-472.1492"/>
<polygon fill="#000000" stroke="#000000" points="766.0563,-468.9625 755.6728,-466.8566 762.4767,-474.9781 766.0563,-468.9625"/>
</g>
<!-- MergeVariants -->
<g id="node26" class="node">
<title>MergeVariants</title>
<ellipse fill="none" stroke="#000000" cx="666.3443" cy="-522" rx="63.8893" ry="18"/>
<text text-anchor="middle" x="666.3443" y="-518.3" font-family="Times,serif" font-size="14.00" fill="#000000">MergeVariants</text>
</g>
<!-- HaplotypeCaller&#45;&gt;MergeVariants -->
<g id="edge30" class="edge">
<title>HaplotypeCaller&#45;&gt;MergeVariants</title>
<path fill="none" stroke="#000000" d="M420.761,-581.8057C466.3872,-570.95 534.8421,-554.5777 594.3443,-540 599.0255,-538.8531 603.876,-537.6571 608.7462,-536.4508"/>
<polygon fill="#000000" stroke="#000000" points="609.8617,-539.7801 618.7231,-533.9726 608.1742,-532.9866 609.8617,-539.7801"/>
</g>
<!-- HaplotypeCaller&#45;&gt;Varscan2 -->
<g id="edge55" class="edge">
<title>HaplotypeCaller&#45;&gt;Varscan2</title>
<path fill="none" stroke="#000000" d="M317.7423,-582.0706C308.9358,-580.0408 299.8783,-577.9569 291.3443,-576 221.1443,-559.9026 203.3087,-557.092 133.3443,-540 126.2337,-538.2629 118.727,-536.3681 111.3865,-534.481"/>
<polygon fill="#000000" stroke="#000000" points="112.0908,-531.048 101.5326,-531.9281 110.3352,-537.8242 112.0908,-531.048"/>
</g>
<!-- HaplotypeCaller&#45;&gt;Cleanup -->
<g id="edge73" class="edge">
<title>HaplotypeCaller&#45;&gt;Cleanup</title>
<path fill="none" stroke="#000000" d="M332.1865,-578.7092C268.9885,-551.5185 147.3443,-493.5279 147.3443,-450 147.3443,-450 147.3443,-450 147.3443,-162 147.3443,-150.3678 155.7365,-148.7732 166.3443,-144 295.4441,-85.9092 1315.7171,-32.3328 1555.8541,-20.4442"/>
<polygon fill="#000000" stroke="#000000" points="1556.2257,-23.9302 1566.0411,-19.9417 1555.8808,-16.9387 1556.2257,-23.9302"/>
</g>
<!-- MergeVariants&#45;&gt;CombineVariants -->
<g id="edge35" class="edge">
<title>MergeVariants&#45;&gt;CombineVariants</title>
<path fill="none" stroke="#000000" d="M681.4229,-504.2022C688.7548,-495.5483 697.7,-484.99 705.7411,-475.4988"/>
<polygon fill="#000000" stroke="#000000" points="708.4339,-477.7349 712.2277,-467.8425 703.093,-473.2099 708.4339,-477.7349"/>
</g>
<!-- MergeVariants&#45;&gt;CnvProfile -->
<g id="edge52" class="edge">
<title>MergeVariants&#45;&gt;CnvProfile</title>
<path fill="none" stroke="#000000" d="M711.6991,-509.2936C757.3054,-496.5167 827.3987,-476.8797 874.2801,-463.7456"/>
<polygon fill="#000000" stroke="#000000" points="875.2296,-467.1144 883.9146,-461.0464 873.3411,-460.374 875.2296,-467.1144"/>
</g>
<!-- MergeMutect2VariantsBySample -->
<g id="node29" class="node">
<title>MergeMutect2VariantsBySample</title>
<ellipse fill="none" stroke="#000000" cx="587.3443" cy="-594" rx="130.777" ry="18"/>
<text text-anchor="middle" x="587.3443" y="-590.3" font-family="Times,serif" font-size="14.00" fill="#000000">MergeMutect2VariantsBySample</text>
</g>
<!-- Mutect2&#45;&gt;MergeMutect2VariantsBySample -->
<g id="edge33" class="edge">
<title>Mutect2&#45;&gt;MergeMutect2VariantsBySample</title>
<path fill="none" stroke="#000000" d="M587.3443,-647.8314C587.3443,-640.131 587.3443,-630.9743 587.3443,-622.4166"/>
<polygon fill="#000000" stroke="#000000" points="590.8444,-622.4132 587.3443,-612.4133 583.8444,-622.4133 590.8444,-622.4132"/>
</g>
<!-- MergeMutect2VariantsByProject -->
<g id="node30" class="node">
<title>MergeMutect2VariantsByProject</title>
<ellipse fill="none" stroke="#000000" cx="456.3443" cy="-522" rx="128.8774" ry="18"/>
<text text-anchor="middle" x="456.3443" y="-518.3" font-family="Times,serif" font-size="14.00" fill="#000000">MergeMutect2VariantsByProject</text>
</g>
<!-- MergeMutect2VariantsBySample&#45;&gt;MergeMutect2VariantsByProject -->
<g id="edge34" class="edge">
<title>MergeMutect2VariantsBySample&#45;&gt;MergeMutect2VariantsByProject</title>
<path fill="none" stroke="#000000" d="M555.2981,-576.3868C537.8526,-566.7985 516.0792,-554.8314 497.4015,-544.5658"/>
<polygon fill="#000000" stroke="#000000" points="498.9631,-541.4303 488.5137,-539.6809 495.5914,-547.5648 498.9631,-541.4303"/>
</g>
<!-- MergeMutect2VariantsByProject&#45;&gt;CombineVariants -->
<g id="edge37" class="edge">
<title>MergeMutect2VariantsByProject&#45;&gt;CombineVariants</title>
<path fill="none" stroke="#000000" d="M516.488,-506.0209C561.429,-494.0808 622.5861,-477.8324 667.4636,-465.9092"/>
<polygon fill="#000000" stroke="#000000" points="668.5866,-469.2324 677.3525,-463.2819 666.7891,-462.4671 668.5866,-469.2324"/>
</g>
<!-- VariantAnnotation -->
<g id="node32" class="node">
<title>VariantAnnotation</title>
<ellipse fill="none" stroke="#000000" cx="781.3443" cy="-378" rx="76.8869" ry="18"/>
<text text-anchor="middle" x="781.3443" y="-374.3" font-family="Times,serif" font-size="14.00" fill="#000000">VariantAnnotation</text>
</g>
<!-- CombineVariants&#45;&gt;VariantAnnotation -->
<g id="edge38" class="edge">
<title>CombineVariants&#45;&gt;VariantAnnotation</title>
<path fill="none" stroke="#000000" d="M740.6926,-432.2022C747.0533,-423.7214 754.7856,-413.4115 761.7921,-404.0696"/>
<polygon fill="#000000" stroke="#000000" points="764.7623,-405.9426 767.9624,-395.8425 759.1623,-401.7426 764.7623,-405.9426"/>
</g>
<!-- CustTumorNormalAnnotations -->
<g id="node33" class="node">
<title>CustTumorNormalAnnotations</title>
<ellipse fill="none" stroke="#000000" cx="781.3443" cy="-306" rx="121.5784" ry="18"/>
<text text-anchor="middle" x="781.3443" y="-302.3" font-family="Times,serif" font-size="14.00" fill="#000000">CustTumorNormalAnnotations</text>
</g>
<!-- VariantAnnotation&#45;&gt;CustTumorNormalAnnotations -->
<g id="edge39" class="edge">
<title>VariantAnnotation&#45;&gt;CustTumorNormalAnnotations</title>
<path fill="none" stroke="#000000" d="M781.3443,-359.8314C781.3443,-352.131 781.3443,-342.9743 781.3443,-334.4166"/>
<polygon fill="#000000" stroke="#000000" points="784.8444,-334.4132 781.3443,-324.4133 777.8444,-334.4133 784.8444,-334.4132"/>
</g>
<!-- VariantAnnotation&#45;&gt;MultiQC -->
<g id="edge66" class="edge">
<title>VariantAnnotation&#45;&gt;MultiQC</title>
<path fill="none" stroke="#000000" d="M836.602,-365.5001C964.0365,-336.3139 1288.0096,-260.0578 1554.3443,-180 1557.5007,-179.0512 1560.7507,-178.0312 1564.0119,-176.9765"/>
<polygon fill="#000000" stroke="#000000" points="1565.3585,-180.2174 1573.7461,-173.7444 1563.1526,-173.574 1565.3585,-180.2174"/>
</g>
<!-- SelectIndels -->
<g id="node34" class="node">
<title>SelectIndels</title>
<ellipse fill="none" stroke="#000000" cx="1180.3443" cy="-234" rx="53.8905" ry="18"/>
<text text-anchor="middle" x="1180.3443" y="-230.3" font-family="Times,serif" font-size="14.00" fill="#000000">SelectIndels</text>
</g>
<!-- CustTumorNormalAnnotations&#45;&gt;SelectIndels -->
<g id="edge40" class="edge">
<title>CustTumorNormalAnnotations&#45;&gt;SelectIndels</title>
<path fill="none" stroke="#000000" d="M858.7486,-292.0323C936.1849,-278.0588 1053.498,-256.8895 1122.9733,-244.3527"/>
<polygon fill="#000000" stroke="#000000" points="1123.6468,-247.7877 1132.8663,-242.5675 1122.4036,-240.899 1123.6468,-247.7877"/>
</g>
<!-- SelectSNV -->
<g id="node35" class="node">
<title>SelectSNV</title>
<ellipse fill="none" stroke="#000000" cx="720.3443" cy="-234" rx="50.0912" ry="18"/>
<text text-anchor="middle" x="720.3443" y="-230.3" font-family="Times,serif" font-size="14.00" fill="#000000">SelectSNV</text>
</g>
<!-- CustTumorNormalAnnotations&#45;&gt;SelectSNV -->
<g id="edge41" class="edge">
<title>CustTumorNormalAnnotations&#45;&gt;SelectSNV</title>
<path fill="none" stroke="#000000" d="M765.9514,-287.8314C758.6355,-279.1962 749.7682,-268.7299 741.8048,-259.3304"/>
<polygon fill="#000000" stroke="#000000" points="744.2356,-256.7851 735.101,-251.4177 738.8947,-261.31 744.2356,-256.7851"/>
</g>
<!-- IndelVariantsToTable -->
<g id="node36" class="node">
<title>IndelVariantsToTable</title>
<ellipse fill="none" stroke="#000000" cx="1180.3443" cy="-162" rx="88.2844" ry="18"/>
<text text-anchor="middle" x="1180.3443" y="-158.3" font-family="Times,serif" font-size="14.00" fill="#000000">IndelVariantsToTable</text>
</g>
<!-- SelectIndels&#45;&gt;IndelVariantsToTable -->
<g id="edge42" class="edge">
<title>SelectIndels&#45;&gt;IndelVariantsToTable</title>
<path fill="none" stroke="#000000" d="M1180.3443,-215.8314C1180.3443,-208.131 1180.3443,-198.9743 1180.3443,-190.4166"/>
<polygon fill="#000000" stroke="#000000" points="1183.8444,-190.4132 1180.3443,-180.4133 1176.8444,-190.4133 1183.8444,-190.4132"/>
</g>
<!-- IndelVariantsToMinTable -->
<g id="node37" class="node">
<title>IndelVariantsToMinTable</title>
<ellipse fill="none" stroke="#000000" cx="970.3443" cy="-162" rx="103.1819" ry="18"/>
<text text-anchor="middle" x="970.3443" y="-158.3" font-family="Times,serif" font-size="14.00" fill="#000000">IndelVariantsToMinTable</text>
</g>
<!-- SelectIndels&#45;&gt;IndelVariantsToMinTable -->
<g id="edge43" class="edge">
<title>SelectIndels&#45;&gt;IndelVariantsToMinTable</title>
<path fill="none" stroke="#000000" d="M1142.3149,-220.9613C1110.0904,-209.9129 1063.4224,-193.9125 1026.8303,-181.3666"/>
<polygon fill="#000000" stroke="#000000" points="1027.874,-178.0245 1017.2794,-178.092 1025.6037,-184.6462 1027.874,-178.0245"/>
</g>
<!-- IndelVariantsToDescriptionTable -->
<g id="node40" class="node">
<title>IndelVariantsToDescriptionTable</title>
<ellipse fill="none" stroke="#000000" cx="1416.3443" cy="-162" rx="129.1772" ry="18"/>
<text text-anchor="middle" x="1416.3443" y="-158.3" font-family="Times,serif" font-size="14.00" fill="#000000">IndelVariantsToDescriptionTable</text>
</g>
<!-- SelectIndels&#45;&gt;IndelVariantsToDescriptionTable -->
<g id="edge46" class="edge">
<title>SelectIndels&#45;&gt;IndelVariantsToDescriptionTable</title>
<path fill="none" stroke="#000000" d="M1220.3785,-221.7862C1256.6137,-210.7314 1310.6029,-194.2601 1352.7429,-181.4038"/>
<polygon fill="#000000" stroke="#000000" points="1353.8172,-184.7354 1362.3606,-178.4696 1351.7745,-178.0401 1353.8172,-184.7354"/>
</g>
<!-- SelectIndels&#45;&gt;MultiQC -->
<g id="edge63" class="edge">
<title>SelectIndels&#45;&gt;MultiQC</title>
<path fill="none" stroke="#000000" d="M1232.6656,-229.6069C1305.5318,-222.776 1441.348,-207.4509 1554.3443,-180 1557.7429,-179.1744 1561.2328,-178.2168 1564.7186,-177.1818"/>
<polygon fill="#000000" stroke="#000000" points="1565.9711,-180.4567 1574.4514,-174.1057 1563.8616,-173.7821 1565.9711,-180.4567"/>
</g>
<!-- SNVVariantsToTable -->
<g id="node38" class="node">
<title>SNVVariantsToTable</title>
<ellipse fill="none" stroke="#000000" cx="486.3443" cy="-162" rx="87.9851" ry="18"/>
<text text-anchor="middle" x="486.3443" y="-158.3" font-family="Times,serif" font-size="14.00" fill="#000000">SNVVariantsToTable</text>
</g>
<!-- SelectSNV&#45;&gt;SNVVariantsToTable -->
<g id="edge44" class="edge">
<title>SelectSNV&#45;&gt;SNVVariantsToTable</title>
<path fill="none" stroke="#000000" d="M682.2274,-222.2717C645.1021,-210.8486 588.1424,-193.3225 545.1974,-180.1086"/>
<polygon fill="#000000" stroke="#000000" points="546.02,-176.6999 535.4329,-177.1042 543.9614,-183.3903 546.02,-176.6999"/>
</g>
<!-- SNVVariantsToMinTable -->
<g id="node39" class="node">
<title>SNVVariantsToMinTable</title>
<ellipse fill="none" stroke="#000000" cx="278.3443" cy="-162" rx="102.8821" ry="18"/>
<text text-anchor="middle" x="278.3443" y="-158.3" font-family="Times,serif" font-size="14.00" fill="#000000">SNVVariantsToMinTable</text>
</g>
<!-- SelectSNV&#45;&gt;SNVVariantsToMinTable -->
<g id="edge45" class="edge">
<title>SelectSNV&#45;&gt;SNVVariantsToMinTable</title>
<path fill="none" stroke="#000000" d="M674.7073,-226.5659C601.4998,-214.6407 456.6413,-191.0439 363.7923,-175.9191"/>
<polygon fill="#000000" stroke="#000000" points="364.2886,-172.4539 353.8559,-174.3005 363.1631,-179.3629 364.2886,-172.4539"/>
</g>
<!-- SNVVariantsToDescriptionTable -->
<g id="node41" class="node">
<title>SNVVariantsToDescriptionTable</title>
<ellipse fill="none" stroke="#000000" cx="720.3443" cy="-162" rx="128.8774" ry="18"/>
<text text-anchor="middle" x="720.3443" y="-158.3" font-family="Times,serif" font-size="14.00" fill="#000000">SNVVariantsToDescriptionTable</text>
</g>
<!-- SelectSNV&#45;&gt;SNVVariantsToDescriptionTable -->
<g id="edge47" class="edge">
<title>SelectSNV&#45;&gt;SNVVariantsToDescriptionTable</title>
<path fill="none" stroke="#000000" d="M720.3443,-215.8314C720.3443,-208.131 720.3443,-198.9743 720.3443,-190.4166"/>
<polygon fill="#000000" stroke="#000000" points="723.8444,-190.4132 720.3443,-180.4133 716.8444,-190.4133 723.8444,-190.4132"/>
</g>
<!-- SelectSNV&#45;&gt;MultiQC -->
<g id="edge64" class="edge">
<title>SelectSNV&#45;&gt;MultiQC</title>
<path fill="none" stroke="#000000" d="M770.0219,-231.5622C937.8577,-223.2182 1477.6275,-195.4675 1554.3443,-180 1557.9264,-179.2778 1561.5989,-178.3696 1565.2549,-177.347"/>
<polygon fill="#000000" stroke="#000000" points="1566.2806,-180.6934 1574.8203,-174.4225 1564.2339,-173.9993 1566.2806,-180.6934"/>
</g>
<!-- TablesToXlsx -->
<g id="node42" class="node">
<title>TablesToXlsx</title>
<ellipse fill="none" stroke="#000000" cx="1298.3443" cy="-90" rx="60.3893" ry="18"/>
<text text-anchor="middle" x="1298.3443" y="-86.3" font-family="Times,serif" font-size="14.00" fill="#000000">TablesToXlsx</text>
</g>
<!-- IndelVariantsToTable&#45;&gt;TablesToXlsx -->
<g id="edge48" class="edge">
<title>IndelVariantsToTable&#45;&gt;TablesToXlsx</title>
<path fill="none" stroke="#000000" d="M1208.6082,-144.7542C1224.8654,-134.8346 1245.4422,-122.2792 1262.7896,-111.6944"/>
<polygon fill="#000000" stroke="#000000" points="1264.8134,-114.5597 1271.5268,-106.3632 1261.1673,-108.5842 1264.8134,-114.5597"/>
</g>
<!-- SNVVariantsToTable&#45;&gt;TablesToXlsx -->
<g id="edge49" class="edge">
<title>SNVVariantsToTable&#45;&gt;TablesToXlsx</title>
<path fill="none" stroke="#000000" d="M548.6697,-149.2838C559.8477,-147.2976 571.4156,-145.4323 582.3443,-144 817.915,-113.1273 1099.5777,-98.2932 1228.1351,-92.7281"/>
<polygon fill="#000000" stroke="#000000" points="1228.3974,-96.2202 1238.2388,-92.2962 1228.0984,-89.2266 1228.3974,-96.2202"/>
</g>
<!-- PlotGenome -->
<g id="node45" class="node">
<title>PlotGenome</title>
<ellipse fill="none" stroke="#000000" cx="64.3443" cy="-90" rx="55.4913" ry="18"/>
<text text-anchor="middle" x="64.3443" y="-86.3" font-family="Times,serif" font-size="14.00" fill="#000000">PlotGenome</text>
</g>
<!-- SNVVariantsToTable&#45;&gt;PlotGenome -->
<g id="edge57" class="edge">
<title>SNVVariantsToTable&#45;&gt;PlotGenome</title>
<path fill="none" stroke="#000000" d="M421.8295,-149.7094C411.3132,-147.7618 400.5306,-145.7984 390.3443,-144 297.5716,-127.6208 189.6783,-110.0352 124.2369,-99.5306"/>
<polygon fill="#000000" stroke="#000000" points="124.5352,-96.0338 114.1073,-97.9068 123.4272,-102.9456 124.5352,-96.0338"/>
</g>
<!-- IndelVariantsToDescriptionTable&#45;&gt;TablesToXlsx -->
<g id="edge51" class="edge">
<title>IndelVariantsToDescriptionTable&#45;&gt;TablesToXlsx</title>
<path fill="none" stroke="#000000" d="M1387.4782,-144.3868C1371.2097,-134.4602 1350.7627,-121.9841 1333.5573,-111.4859"/>
<polygon fill="#000000" stroke="#000000" points="1335.2542,-108.4212 1324.8947,-106.2003 1331.6081,-114.3967 1335.2542,-108.4212"/>
</g>
<!-- SNVVariantsToDescriptionTable&#45;&gt;TablesToXlsx -->
<g id="edge50" class="edge">
<title>SNVVariantsToDescriptionTable&#45;&gt;TablesToXlsx</title>
<path fill="none" stroke="#000000" d="M814.2366,-149.656C828.9949,-147.7438 844.0821,-145.8053 858.3443,-144 990.7776,-127.2367 1145.7385,-108.3999 1231.9062,-97.9946"/>
<polygon fill="#000000" stroke="#000000" points="1232.5588,-101.4414 1242.0673,-96.7682 1231.72,-94.4918 1232.5588,-101.4414"/>
</g>
<!-- TablesToXlsx&#45;&gt;Cleanup -->
<g id="edge68" class="edge">
<title>TablesToXlsx&#45;&gt;Cleanup</title>
<path fill="none" stroke="#000000" d="M1344.0379,-78.1107C1401.9356,-64.0563 1500.9891,-40.9286 1559.4518,-27.8369"/>
<polygon fill="#000000" stroke="#000000" points="1560.5267,-31.1833 1569.5257,-25.5914 1559.0037,-24.3509 1560.5267,-31.1833"/>
</g>
<!-- TablesToXlsx&#45;&gt;Cleanup -->
<g id="edge72" class="edge">
<title>TablesToXlsx&#45;&gt;Cleanup</title>
<path fill="none" stroke="#000000" d="M1347.7156,-79.6075C1406.8235,-66.3452 1504.7511,-43.4695 1561.6923,-29.6364"/>
<polygon fill="#000000" stroke="#000000" points="1562.6027,-33.017 1571.4882,-27.2466 1560.9436,-26.2165 1562.6027,-33.017"/>
</g>
<!-- Varscan2&#45;&gt;PlotGenome -->
<g id="edge56" class="edge">
<title>Varscan2&#45;&gt;PlotGenome</title>
<path fill="none" stroke="#000000" d="M64.3443,-503.8146C64.3443,-476.4983 64.3443,-423.25 64.3443,-378 64.3443,-378 64.3443,-378 64.3443,-234 64.3443,-193.876 64.3443,-147.4631 64.3443,-118.4177"/>
<polygon fill="#000000" stroke="#000000" points="67.8444,-118.1853 64.3443,-108.1854 60.8444,-118.1854 67.8444,-118.1853"/>
</g>
<!-- MergeSegFiles -->
<g id="node46" class="node">
<title>MergeSegFiles</title>
<ellipse fill="none" stroke="#000000" cx="64.3443" cy="-18" rx="64.189" ry="18"/>
<text text-anchor="middle" x="64.3443" y="-14.3" font-family="Times,serif" font-size="14.00" fill="#000000">MergeSegFiles</text>
</g>
<!-- PlotGenome&#45;&gt;MergeSegFiles -->
<g id="edge58" class="edge">
<title>PlotGenome&#45;&gt;MergeSegFiles</title>
<path fill="none" stroke="#000000" d="M64.3443,-71.8314C64.3443,-64.131 64.3443,-54.9743 64.3443,-46.4166"/>
<polygon fill="#000000" stroke="#000000" points="67.8444,-46.4132 64.3443,-36.4133 60.8444,-46.4133 67.8444,-46.4132"/>
</g>
<!-- PlotGenome&#45;&gt;Cleanup -->
<g id="edge67" class="edge">
<title>PlotGenome&#45;&gt;Cleanup</title>
<path fill="none" stroke="#000000" d="M105.2708,-77.7542C114.4319,-75.4539 124.1579,-73.35 133.3443,-72 416.6827,-30.3613 1330.549,-20.2543 1555.808,-18.3714"/>
<polygon fill="#000000" stroke="#000000" points="1556.0379,-21.8698 1566.0089,-18.2879 1555.9805,-14.87 1556.0379,-21.8698"/>
</g>
<!-- ProjectMarkdown&#45;&gt;MultiQC -->
<g id="edge61" class="edge">
<title>ProjectMarkdown&#45;&gt;MultiQC</title>
<path fill="none" stroke="#000000" d="M1741.0229,-218.3771C1712.9724,-206.635 1674.6198,-190.5805 1646.0151,-178.6064"/>
<polygon fill="#000000" stroke="#000000" points="1647.2929,-175.3471 1636.717,-174.7142 1644.5899,-181.8042 1647.2929,-175.3471"/>
</g>
<!-- ProjectMarkdown&#45;&gt;Cleanup -->
<g id="edge74" class="edge">
<title>ProjectMarkdown&#45;&gt;Cleanup</title>
<path fill="none" stroke="#000000" d="M1772.1197,-215.8552C1760.4125,-183.7892 1732.5292,-116.3126 1691.3443,-72 1677.9125,-57.5481 1659.805,-45.3441 1643.7543,-36.2145"/>
<polygon fill="#000000" stroke="#000000" points="1645.0451,-32.931 1634.5925,-31.2006 1641.6845,-39.0717 1645.0451,-32.931"/>
</g>
<!-- SamQC&#45;&gt;MultiQC -->
<g id="edge65" class="edge">
<title>SamQC&#45;&gt;MultiQC</title>
<path fill="none" stroke="#000000" d="M1286.9981,-434.1056C1343.536,-385.9313 1513.1627,-241.3974 1579.4149,-184.9457"/>
<polygon fill="#000000" stroke="#000000" points="1581.9898,-187.35 1587.3315,-178.2003 1577.4499,-182.0218 1581.9898,-187.35"/>
</g>
<!-- MultiQC&#45;&gt;Cleanup -->
<g id="edge75" class="edge">
<title>MultiQC&#45;&gt;Cleanup</title>
<path fill="none" stroke="#000000" d="M1606.3443,-143.7623C1606.3443,-119.201 1606.3443,-75.2474 1606.3443,-46.3541"/>
<polygon fill="#000000" stroke="#000000" points="1609.8444,-46.0896 1606.3443,-36.0896 1602.8444,-46.0897 1609.8444,-46.0896"/>
</g>
</g>
</svg>
