<?xml version="1.0" encoding="UTF-8" standalone="no"?>
<!DOCTYPE svg PUBLIC "-//W3C//DTD SVG 1.1//EN"
 "http://www.w3.org/Graphics/SVG/1.1/DTD/svg11.dtd">
<!-- Generated by graphviz version 2.40.1 (0)
 -->
<!-- Title: workflow Pages: 1 -->
<svg width="2604pt" height="1052pt"
 viewBox="0.00 0.00 2603.59 1052.00" xmlns="http://www.w3.org/2000/svg" xmlns:xlink="http://www.w3.org/1999/xlink">
<g id="graph0" class="graph" transform="scale(1 1) rotate(0) translate(4 1048)">
<title>workflow</title>
<polygon fill="#ffffff" stroke="transparent" points="-4,4 -4,-1048 2599.5859,-1048 2599.5859,4 -4,4"/>
<!-- BwaMemAlignment -->
<g id="node1" class="node">
<title>BwaMemAlignment</title>
<ellipse fill="none" stroke="#000000" cx="469.2416" cy="-1026" rx="84.485" ry="18"/>
<text text-anchor="middle" x="469.2416" y="-1022.3" font-family="Times,serif" font-size="14.00" fill="#000000">BwaMemAlignment</text>
</g>
<!-- AddOrReplaceReadGroups -->
<g id="node2" class="node">
<title>AddOrReplaceReadGroups</title>
<ellipse fill="none" stroke="#000000" cx="469.2416" cy="-954" rx="107.4815" ry="18"/>
<text text-anchor="middle" x="469.2416" y="-950.3" font-family="Times,serif" font-size="14.00" fill="#000000">AddOrReplaceReadGroups</text>
</g>
<!-- BwaMemAlignment&#45;&gt;AddOrReplaceReadGroups -->
<g id="edge1" class="edge">
<title>BwaMemAlignment&#45;&gt;AddOrReplaceReadGroups</title>
<path fill="none" stroke="#000000" d="M469.2416,-1007.8314C469.2416,-1000.131 469.2416,-990.9743 469.2416,-982.4166"/>
<polygon fill="#000000" stroke="#000000" points="472.7417,-982.4132 469.2416,-972.4133 465.7417,-982.4133 472.7417,-982.4132"/>
</g>
<!-- MergeBamFiles -->
<g id="node3" class="node">
<title>MergeBamFiles</title>
<ellipse fill="none" stroke="#000000" cx="469.2416" cy="-882" rx="68.4888" ry="18"/>
<text text-anchor="middle" x="469.2416" y="-878.3" font-family="Times,serif" font-size="14.00" fill="#000000">MergeBamFiles</text>
</g>
<!-- AddOrReplaceReadGroups&#45;&gt;MergeBamFiles -->
<g id="edge2" class="edge">
<title>AddOrReplaceReadGroups&#45;&gt;MergeBamFiles</title>
<path fill="none" stroke="#000000" d="M469.2416,-935.8314C469.2416,-928.131 469.2416,-918.9743 469.2416,-910.4166"/>
<polygon fill="#000000" stroke="#000000" points="472.7417,-910.4132 469.2416,-900.4133 465.7417,-910.4133 472.7417,-910.4132"/>
</g>
<!-- MarkDuplicates -->
<g id="node4" class="node">
<title>MarkDuplicates</title>
<ellipse fill="none" stroke="#000000" cx="469.2416" cy="-810" rx="67.6881" ry="18"/>
<text text-anchor="middle" x="469.2416" y="-806.3" font-family="Times,serif" font-size="14.00" fill="#000000">MarkDuplicates</text>
</g>
<!-- MergeBamFiles&#45;&gt;MarkDuplicates -->
<g id="edge3" class="edge">
<title>MergeBamFiles&#45;&gt;MarkDuplicates</title>
<path fill="none" stroke="#000000" d="M469.2416,-863.8314C469.2416,-856.131 469.2416,-846.9743 469.2416,-838.4166"/>
<polygon fill="#000000" stroke="#000000" points="472.7417,-838.4132 469.2416,-828.4133 465.7417,-838.4133 472.7417,-838.4132"/>
</g>
<!-- MantaSV -->
<g id="node5" class="node">
<title>MantaSV</title>
<ellipse fill="none" stroke="#000000" cx="561.2416" cy="-738" rx="44.6926" ry="18"/>
<text text-anchor="middle" x="561.2416" y="-734.3" font-family="Times,serif" font-size="14.00" fill="#000000">MantaSV</text>
</g>
<!-- MarkDuplicates&#45;&gt;MantaSV -->
<g id="edge4" class="edge">
<title>MarkDuplicates&#45;&gt;MantaSV</title>
<path fill="none" stroke="#000000" d="M491.0444,-792.937C503.4533,-783.2257 519.1463,-770.9441 532.5461,-760.4574"/>
<polygon fill="#000000" stroke="#000000" points="534.8251,-763.1183 540.5431,-754.1989 530.5109,-757.6057 534.8251,-763.1183"/>
</g>
<!-- CollectMultipleMetrics -->
<g id="node10" class="node">
<title>CollectMultipleMetrics</title>
<ellipse fill="none" stroke="#000000" cx="94.2416" cy="-378" rx="94.4839" ry="18"/>
<text text-anchor="middle" x="94.2416" y="-374.3" font-family="Times,serif" font-size="14.00" fill="#000000">CollectMultipleMetrics</text>
</g>
<!-- MarkDuplicates&#45;&gt;CollectMultipleMetrics -->
<g id="edge9" class="edge">
<title>MarkDuplicates&#45;&gt;CollectMultipleMetrics</title>
<path fill="none" stroke="#000000" d="M403.8866,-804.914C357.318,-798.8197 294.8025,-785.427 247.2416,-756 202.7204,-728.4537 171.2416,-718.354 171.2416,-666 171.2416,-666 171.2416,-666 171.2416,-522 171.2416,-476.2684 140.668,-430.9936 118.0513,-403.7581"/>
<polygon fill="#000000" stroke="#000000" points="120.4915,-401.2265 111.3304,-395.9043 115.173,-405.7778 120.4915,-401.2265"/>
</g>
<!-- CalculateHsMetrics -->
<g id="node11" class="node">
<title>CalculateHsMetrics</title>
<ellipse fill="none" stroke="#000000" cx="287.2416" cy="-378" rx="81.4863" ry="18"/>
<text text-anchor="middle" x="287.2416" y="-374.3" font-family="Times,serif" font-size="14.00" fill="#000000">CalculateHsMetrics</text>
</g>
<!-- MarkDuplicates&#45;&gt;CalculateHsMetrics -->
<g id="edge10" class="edge">
<title>MarkDuplicates&#45;&gt;CalculateHsMetrics</title>
<path fill="none" stroke="#000000" d="M410.9794,-800.6129C360.1818,-791.2849 291.6706,-775.5642 272.2416,-756 243.0707,-726.626 248.2416,-707.3978 248.2416,-666 248.2416,-666 248.2416,-666 248.2416,-522 248.2416,-480.2959 263.67,-434.0864 275.1189,-405.5372"/>
<polygon fill="#000000" stroke="#000000" points="278.3879,-406.7907 278.9707,-396.2119 271.9181,-404.1183 278.3879,-406.7907"/>
</g>
<!-- SampleMarkdown -->
<g id="node12" class="node">
<title>SampleMarkdown</title>
<ellipse fill="none" stroke="#000000" cx="396.2416" cy="-306" rx="76.8869" ry="18"/>
<text text-anchor="middle" x="396.2416" y="-302.3" font-family="Times,serif" font-size="14.00" fill="#000000">SampleMarkdown</text>
</g>
<!-- MarkDuplicates&#45;&gt;SampleMarkdown -->
<g id="edge14" class="edge">
<title>MarkDuplicates&#45;&gt;SampleMarkdown</title>
<path fill="none" stroke="#000000" d="M447.2983,-792.7207C409.6016,-761.4642 333.8416,-691.3648 305.2416,-612 280.6639,-543.7968 346.8285,-496.3466 377.2416,-396 383.4079,-375.6547 388.299,-352.1314 391.5737,-334.2373"/>
<polygon fill="#000000" stroke="#000000" points="395.0607,-334.6175 393.3565,-324.1606 388.1677,-333.3979 395.0607,-334.6175"/>
</g>
<!-- IndelRealignmentKnown -->
<g id="node14" class="node">
<title>IndelRealignmentKnown</title>
<ellipse fill="none" stroke="#000000" cx="1651.2416" cy="-738" rx="100.1823" ry="18"/>
<text text-anchor="middle" x="1651.2416" y="-734.3" font-family="Times,serif" font-size="14.00" fill="#000000">IndelRealignmentKnown</text>
</g>
<!-- MarkDuplicates&#45;&gt;IndelRealignmentKnown -->
<g id="edge15" class="edge">
<title>MarkDuplicates&#45;&gt;IndelRealignmentKnown</title>
<path fill="none" stroke="#000000" d="M536.9082,-809.0672C706.0152,-806.1959 1160.5375,-795.1517 1537.2416,-756 1547.5871,-754.9248 1558.4243,-753.5455 1569.1285,-752.0297"/>
<polygon fill="#000000" stroke="#000000" points="1569.9409,-755.4483 1579.3302,-750.54 1568.9294,-748.5217 1569.9409,-755.4483"/>
</g>
<!-- SamQC -->
<g id="node43" class="node">
<title>SamQC</title>
<ellipse fill="none" stroke="#000000" cx="1536.2416" cy="-522" rx="38.9931" ry="18"/>
<text text-anchor="middle" x="1536.2416" y="-518.3" font-family="Times,serif" font-size="14.00" fill="#000000">SamQC</text>
</g>
<!-- MarkDuplicates&#45;&gt;SamQC -->
<g id="edge59" class="edge">
<title>MarkDuplicates&#45;&gt;SamQC</title>
<path fill="none" stroke="#000000" d="M536.7021,-808.5293C708.019,-804.3292 1156.522,-790.3004 1301.2416,-756 1381.0824,-737.0767 1405.9651,-733.7153 1471.2416,-684 1503.7109,-659.271 1513.1352,-649.9154 1528.2416,-612 1536.0558,-592.3874 1537.8648,-568.5216 1537.8231,-550.2953"/>
<polygon fill="#000000" stroke="#000000" points="1541.3223,-550.2158 1537.6161,-540.2904 1534.3238,-550.3607 1541.3223,-550.2158"/>
</g>
<!-- SnpEffManta -->
<g id="node6" class="node">
<title>SnpEffManta</title>
<ellipse fill="none" stroke="#000000" cx="652.2416" cy="-666" rx="58.4896" ry="18"/>
<text text-anchor="middle" x="652.2416" y="-662.3" font-family="Times,serif" font-size="14.00" fill="#000000">SnpEffManta</text>
</g>
<!-- MantaSV&#45;&gt;SnpEffManta -->
<g id="edge5" class="edge">
<title>MantaSV&#45;&gt;SnpEffManta</title>
<path fill="none" stroke="#000000" d="M581.8909,-721.6621C593.9634,-712.1102 609.4028,-699.8945 622.7405,-689.3416"/>
<polygon fill="#000000" stroke="#000000" points="625.054,-691.9742 630.7245,-683.0245 620.7106,-686.4846 625.054,-691.9742"/>
</g>
<!-- SvVariantsToDescriptionTable -->
<g id="node7" class="node">
<title>SvVariantsToDescriptionTable</title>
<ellipse fill="none" stroke="#000000" cx="434.2416" cy="-594" rx="120.4791" ry="18"/>
<text text-anchor="middle" x="434.2416" y="-590.3" font-family="Times,serif" font-size="14.00" fill="#000000">SvVariantsToDescriptionTable</text>
</g>
<!-- SnpEffManta&#45;&gt;SvVariantsToDescriptionTable -->
<g id="edge6" class="edge">
<title>SnpEffManta&#45;&gt;SvVariantsToDescriptionTable</title>
<path fill="none" stroke="#000000" d="M612.2571,-652.7941C579.0832,-641.8376 531.4206,-626.0958 493.7611,-613.6578"/>
<polygon fill="#000000" stroke="#000000" points="494.5155,-610.2211 483.9223,-610.4083 492.3201,-616.8679 494.5155,-610.2211"/>
</g>
<!-- SvVariantsToTable -->
<g id="node8" class="node">
<title>SvVariantsToTable</title>
<ellipse fill="none" stroke="#000000" cx="652.2416" cy="-594" rx="79.0865" ry="18"/>
<text text-anchor="middle" x="652.2416" y="-590.3" font-family="Times,serif" font-size="14.00" fill="#000000">SvVariantsToTable</text>
</g>
<!-- SnpEffManta&#45;&gt;SvVariantsToTable -->
<g id="edge7" class="edge">
<title>SnpEffManta&#45;&gt;SvVariantsToTable</title>
<path fill="none" stroke="#000000" d="M652.2416,-647.8314C652.2416,-640.131 652.2416,-630.9743 652.2416,-622.4166"/>
<polygon fill="#000000" stroke="#000000" points="655.7417,-622.4132 652.2416,-612.4133 648.7417,-622.4133 655.7417,-622.4132"/>
</g>
<!-- SvVariantsToMinTable -->
<g id="node9" class="node">
<title>SvVariantsToMinTable</title>
<ellipse fill="none" stroke="#000000" cx="844.2416" cy="-594" rx="94.7833" ry="18"/>
<text text-anchor="middle" x="844.2416" y="-590.3" font-family="Times,serif" font-size="14.00" fill="#000000">SvVariantsToMinTable</text>
</g>
<!-- SnpEffManta&#45;&gt;SvVariantsToMinTable -->
<g id="edge8" class="edge">
<title>SnpEffManta&#45;&gt;SvVariantsToMinTable</title>
<path fill="none" stroke="#000000" d="M689.717,-651.9468C718.6949,-641.08 759.1773,-625.8991 791.4374,-613.8016"/>
<polygon fill="#000000" stroke="#000000" points="793.029,-616.9428 801.1634,-610.1544 790.5711,-610.3885 793.029,-616.9428"/>
</g>
<!-- MultiQC -->
<g id="node44" class="node">
<title>MultiQC</title>
<ellipse fill="none" stroke="#000000" cx="1000.2416" cy="-162" rx="42.7926" ry="18"/>
<text text-anchor="middle" x="1000.2416" y="-158.3" font-family="Times,serif" font-size="14.00" fill="#000000">MultiQC</text>
</g>
<!-- SnpEffManta&#45;&gt;MultiQC -->
<g id="edge61" class="edge">
<title>SnpEffManta&#45;&gt;MultiQC</title>
<path fill="none" stroke="#000000" d="M709.9416,-662.9558C786.289,-657.7094 915.1041,-644.235 948.2416,-612 977.5456,-583.4941 967.2416,-562.8816 967.2416,-522 967.2416,-522 967.2416,-522 967.2416,-306 967.2416,-264.6545 980.3269,-218.2804 990.0178,-189.6051"/>
<polygon fill="#000000" stroke="#000000" points="993.4198,-190.4782 993.404,-179.8833 986.8094,-188.1756 993.4198,-190.4782"/>
</g>
<!-- CollectMultipleMetrics&#45;&gt;SampleMarkdown -->
<g id="edge12" class="edge">
<title>CollectMultipleMetrics&#45;&gt;SampleMarkdown</title>
<path fill="none" stroke="#000000" d="M153.1872,-363.9468C204.7104,-351.6631 279.3562,-333.8667 332.3063,-321.2429"/>
<polygon fill="#000000" stroke="#000000" points="333.346,-324.5932 342.2617,-318.8694 331.7226,-317.784 333.346,-324.5932"/>
</g>
<!-- Cleanup -->
<g id="node45" class="node">
<title>Cleanup</title>
<ellipse fill="none" stroke="#000000" cx="929.2416" cy="-18" rx="40.0939" ry="18"/>
<text text-anchor="middle" x="929.2416" y="-14.3" font-family="Times,serif" font-size="14.00" fill="#000000">Cleanup</text>
</g>
<!-- CollectMultipleMetrics&#45;&gt;Cleanup -->
<g id="edge69" class="edge">
<title>CollectMultipleMetrics&#45;&gt;Cleanup</title>
<path fill="none" stroke="#000000" d="M111.9962,-360.2193C135.5649,-334.6391 174.2416,-284.9062 174.2416,-234 174.2416,-234 174.2416,-234 174.2416,-162 174.2416,-56.768 291.1563,-97.5413 393.2416,-72 484.6342,-49.134 764.1275,-28.8149 879.0682,-21.195"/>
<polygon fill="#000000" stroke="#000000" points="879.5927,-24.6681 889.3412,-20.5188 879.1329,-17.6832 879.5927,-24.6681"/>
</g>
<!-- CalculateHsMetrics&#45;&gt;SampleMarkdown -->
<g id="edge11" class="edge">
<title>CalculateHsMetrics&#45;&gt;SampleMarkdown</title>
<path fill="none" stroke="#000000" d="M313.3499,-360.7542C327.9105,-351.1362 346.2223,-339.0403 361.9289,-328.6653"/>
<polygon fill="#000000" stroke="#000000" points="363.9315,-331.5371 370.3465,-323.1051 360.0734,-325.6963 363.9315,-331.5371"/>
</g>
<!-- CalculateHsMetrics&#45;&gt;Cleanup -->
<g id="edge68" class="edge">
<title>CalculateHsMetrics&#45;&gt;Cleanup</title>
<path fill="none" stroke="#000000" d="M287.656,-359.8157C288.2419,-332.5008 289.2416,-279.2544 289.2416,-234 289.2416,-234 289.2416,-234 289.2416,-162 289.2416,-101.5243 729.8154,-42.2725 879.8778,-23.8449"/>
<polygon fill="#000000" stroke="#000000" points="880.6677,-27.2746 890.1702,-22.5892 879.8199,-20.3261 880.6677,-27.2746"/>
</g>
<!-- ProjectMarkdown -->
<g id="node42" class="node">
<title>ProjectMarkdown</title>
<ellipse fill="none" stroke="#000000" cx="788.2416" cy="-234" rx="74.9875" ry="18"/>
<text text-anchor="middle" x="788.2416" y="-230.3" font-family="Times,serif" font-size="14.00" fill="#000000">ProjectMarkdown</text>
</g>
<!-- SampleMarkdown&#45;&gt;ProjectMarkdown -->
<g id="edge58" class="edge">
<title>SampleMarkdown&#45;&gt;ProjectMarkdown</title>
<path fill="none" stroke="#000000" d="M457.0615,-294.829C527.7155,-281.8517 644.0632,-260.4818 718.3687,-246.8338"/>
<polygon fill="#000000" stroke="#000000" points="719.3622,-250.21 728.5654,-244.9609 718.0976,-243.3251 719.3622,-250.21"/>
</g>
<!-- Fastqc -->
<g id="node13" class="node">
<title>Fastqc</title>
<ellipse fill="none" stroke="#000000" cx="674.2416" cy="-378" rx="33.5952" ry="18"/>
<text text-anchor="middle" x="674.2416" y="-374.3" font-family="Times,serif" font-size="14.00" fill="#000000">Fastqc</text>
</g>
<!-- Fastqc&#45;&gt;SampleMarkdown -->
<g id="edge13" class="edge">
<title>Fastqc&#45;&gt;SampleMarkdown</title>
<path fill="none" stroke="#000000" d="M643.6955,-370.0888C599.095,-358.5376 515.2005,-336.8095 457.5589,-321.8807"/>
<polygon fill="#000000" stroke="#000000" points="458.3894,-318.4804 447.8312,-319.3613 456.6343,-325.2568 458.3894,-318.4804"/>
</g>
<!-- Fastqc&#45;&gt;Cleanup -->
<g id="edge70" class="edge">
<title>Fastqc&#45;&gt;Cleanup</title>
<path fill="none" stroke="#000000" d="M706.2607,-372.187C766.6229,-359.1833 891.2416,-321.7151 891.2416,-234 891.2416,-234 891.2416,-234 891.2416,-162 891.2416,-120.1368 906.4419,-73.6262 917.6153,-45.0925"/>
<polygon fill="#000000" stroke="#000000" points="920.874,-46.3698 921.368,-35.7865 914.382,-43.7518 920.874,-46.3698"/>
</g>
<!-- BQSR -->
<g id="node15" class="node">
<title>BQSR</title>
<ellipse fill="none" stroke="#000000" cx="1585.2416" cy="-666" rx="33.5952" ry="18"/>
<text text-anchor="middle" x="1585.2416" y="-662.3" font-family="Times,serif" font-size="14.00" fill="#000000">BQSR</text>
</g>
<!-- IndelRealignmentKnown&#45;&gt;BQSR -->
<g id="edge16" class="edge">
<title>IndelRealignmentKnown&#45;&gt;BQSR</title>
<path fill="none" stroke="#000000" d="M1634.927,-720.2022C1626.6137,-711.1332 1616.3832,-699.9726 1607.3706,-690.1407"/>
<polygon fill="#000000" stroke="#000000" points="1609.801,-687.6124 1600.4637,-682.6058 1604.6409,-692.3424 1609.801,-687.6124"/>
</g>
<!-- ContEst -->
<g id="node17" class="node">
<title>ContEst</title>
<ellipse fill="none" stroke="#000000" cx="1676.2416" cy="-666" rx="38.9931" ry="18"/>
<text text-anchor="middle" x="1676.2416" y="-662.3" font-family="Times,serif" font-size="14.00" fill="#000000">ContEst</text>
</g>
<!-- IndelRealignmentKnown&#45;&gt;ContEst -->
<g id="edge18" class="edge">
<title>IndelRealignmentKnown&#45;&gt;ContEst</title>
<path fill="none" stroke="#000000" d="M1657.5502,-719.8314C1660.3247,-711.8406 1663.6438,-702.2819 1666.7099,-693.4514"/>
<polygon fill="#000000" stroke="#000000" points="1670.0479,-694.5082 1670.0217,-683.9134 1663.4352,-692.2121 1670.0479,-694.5082"/>
</g>
<!-- Mutect2 -->
<g id="node18" class="node">
<title>Mutect2</title>
<ellipse fill="none" stroke="#000000" cx="1138.2416" cy="-666" rx="40.0939" ry="18"/>
<text text-anchor="middle" x="1138.2416" y="-662.3" font-family="Times,serif" font-size="14.00" fill="#000000">Mutect2</text>
</g>
<!-- IndelRealignmentKnown&#45;&gt;Mutect2 -->
<g id="edge19" class="edge">
<title>IndelRealignmentKnown&#45;&gt;Mutect2</title>
<path fill="none" stroke="#000000" d="M1564.4679,-729.0052C1478.1806,-719.5899 1342.1655,-703.4758 1225.2416,-684 1211.9052,-681.7786 1197.5017,-678.968 1184.3254,-676.2323"/>
<polygon fill="#000000" stroke="#000000" points="1185.0336,-672.8047 1174.5266,-674.1658 1183.5891,-679.6541 1185.0336,-672.8047"/>
</g>
<!-- MergeBamFilesFreebayes -->
<g id="node21" class="node">
<title>MergeBamFilesFreebayes</title>
<ellipse fill="none" stroke="#000000" cx="1338.2416" cy="-666" rx="103.9815" ry="18"/>
<text text-anchor="middle" x="1338.2416" y="-662.3" font-family="Times,serif" font-size="14.00" fill="#000000">MergeBamFilesFreebayes</text>
</g>
<!-- IndelRealignmentKnown&#45;&gt;MergeBamFilesFreebayes -->
<g id="edge23" class="edge">
<title>IndelRealignmentKnown&#45;&gt;MergeBamFilesFreebayes</title>
<path fill="none" stroke="#000000" d="M1589.4029,-723.7751C1538.0804,-711.9693 1465.002,-695.1589 1410.8958,-682.7128"/>
<polygon fill="#000000" stroke="#000000" points="1411.5534,-679.2727 1401.0232,-680.4418 1409.9841,-686.0945 1411.5534,-679.2727"/>
</g>
<!-- Varscan2 -->
<g id="node38" class="node">
<title>Varscan2</title>
<ellipse fill="none" stroke="#000000" cx="1743.2416" cy="-522" rx="44.393" ry="18"/>
<text text-anchor="middle" x="1743.2416" y="-518.3" font-family="Times,serif" font-size="14.00" fill="#000000">Varscan2</text>
</g>
<!-- IndelRealignmentKnown&#45;&gt;Varscan2 -->
<g id="edge51" class="edge">
<title>IndelRealignmentKnown&#45;&gt;Varscan2</title>
<path fill="none" stroke="#000000" d="M1685.3872,-720.9393C1699.7673,-711.9569 1715.2291,-699.548 1724.2416,-684 1748.3327,-642.439 1748.8387,-584.8227 1746.4385,-550.6795"/>
<polygon fill="#000000" stroke="#000000" points="1749.9058,-550.1419 1745.5833,-540.469 1742.9303,-550.7262 1749.9058,-550.1419"/>
</g>
<!-- AnalyseCovariants -->
<g id="node16" class="node">
<title>AnalyseCovariants</title>
<ellipse fill="none" stroke="#000000" cx="1623.2416" cy="-450" rx="77.1866" ry="18"/>
<text text-anchor="middle" x="1623.2416" y="-446.3" font-family="Times,serif" font-size="14.00" fill="#000000">AnalyseCovariants</text>
</g>
<!-- BQSR&#45;&gt;AnalyseCovariants -->
<g id="edge17" class="edge">
<title>BQSR&#45;&gt;AnalyseCovariants</title>
<path fill="none" stroke="#000000" d="M1590.3911,-648.1115C1593.2742,-637.6487 1596.7742,-624.1487 1599.2416,-612 1608.6984,-565.4382 1616.0356,-510.6349 1619.9908,-478.1903"/>
<polygon fill="#000000" stroke="#000000" points="1623.4866,-478.4339 1621.2007,-468.0887 1616.5362,-477.6015 1623.4866,-478.4339"/>
</g>
<!-- HaplotypeCaller -->
<g id="node20" class="node">
<title>HaplotypeCaller</title>
<ellipse fill="none" stroke="#000000" cx="1450.2416" cy="-594" rx="68.7879" ry="18"/>
<text text-anchor="middle" x="1450.2416" y="-590.3" font-family="Times,serif" font-size="14.00" fill="#000000">HaplotypeCaller</text>
</g>
<!-- BQSR&#45;&gt;HaplotypeCaller -->
<g id="edge21" class="edge">
<title>BQSR&#45;&gt;HaplotypeCaller</title>
<path fill="none" stroke="#000000" d="M1561.1063,-653.1278C1541.288,-642.5581 1512.8209,-627.3756 1489.6955,-615.0421"/>
<polygon fill="#000000" stroke="#000000" points="1491.272,-611.9162 1480.8014,-610.2985 1487.9779,-618.0927 1491.272,-611.9162"/>
</g>
<!-- CnvProfile -->
<g id="node40" class="node">
<title>CnvProfile</title>
<ellipse fill="none" stroke="#000000" cx="1325.2416" cy="-378" rx="49.2915" ry="18"/>
<text text-anchor="middle" x="1325.2416" y="-374.3" font-family="Times,serif" font-size="14.00" fill="#000000">CnvProfile</text>
</g>
<!-- BQSR&#45;&gt;CnvProfile -->
<g id="edge56" class="edge">
<title>BQSR&#45;&gt;CnvProfile</title>
<path fill="none" stroke="#000000" d="M1576.0304,-648.4627C1565.7004,-629.5925 1547.8116,-599.1742 1528.2416,-576 1512.8102,-557.7265 1505.618,-556.4351 1488.2416,-540 1437.7923,-492.2833 1380.5985,-434.5687 1349.1498,-402.5065"/>
<polygon fill="#000000" stroke="#000000" points="1351.5972,-400.0033 1342.0994,-395.3083 1346.5964,-404.9015 1351.5972,-400.0033"/>
</g>
<!-- AnalyseCovariants&#45;&gt;Cleanup -->
<g id="edge71" class="edge">
<title>AnalyseCovariants&#45;&gt;Cleanup</title>
<path fill="none" stroke="#000000" d="M1697.8877,-444.9849C1903.0322,-430.2108 2460.2416,-382.9952 2460.2416,-306 2460.2416,-306 2460.2416,-306 2460.2416,-234 2460.2416,-193.1184 2470.8929,-172.1445 2441.2416,-144 2291.7908,-2.1434 2188.1932,-93.3008 1983.2416,-72 1598.8197,-32.0468 1132.309,-21.272 979.9848,-18.7167"/>
<polygon fill="#000000" stroke="#000000" points="979.6217,-15.2104 969.5659,-18.5466 979.5074,-22.2094 979.6217,-15.2104"/>
</g>
<!-- MergeMutect2VariantsByProject -->
<g id="node23" class="node">
<title>MergeMutect2VariantsByProject</title>
<ellipse fill="none" stroke="#000000" cx="1124.2416" cy="-594" rx="128.8774" ry="18"/>
<text text-anchor="middle" x="1124.2416" y="-590.3" font-family="Times,serif" font-size="14.00" fill="#000000">MergeMutect2VariantsByProject</text>
</g>
<!-- Mutect2&#45;&gt;MergeMutect2VariantsByProject -->
<g id="edge26" class="edge">
<title>Mutect2&#45;&gt;MergeMutect2VariantsByProject</title>
<path fill="none" stroke="#000000" d="M1134.7088,-647.8314C1133.2115,-640.131 1131.4311,-630.9743 1129.7671,-622.4166"/>
<polygon fill="#000000" stroke="#000000" points="1133.1664,-621.5614 1127.822,-612.4133 1126.2951,-622.8975 1133.1664,-621.5614"/>
</g>
<!-- CreatePaddedTargets -->
<g id="node19" class="node">
<title>CreatePaddedTargets</title>
<ellipse fill="none" stroke="#000000" cx="1206.2416" cy="-738" rx="85.5853" ry="18"/>
<text text-anchor="middle" x="1206.2416" y="-734.3" font-family="Times,serif" font-size="14.00" fill="#000000">CreatePaddedTargets</text>
</g>
<!-- CreatePaddedTargets&#45;&gt;Mutect2 -->
<g id="edge20" class="edge">
<title>CreatePaddedTargets&#45;&gt;Mutect2</title>
<path fill="none" stroke="#000000" d="M1189.4326,-720.2022C1180.8674,-711.1332 1170.3269,-699.9726 1161.0412,-690.1407"/>
<polygon fill="#000000" stroke="#000000" points="1163.3357,-687.4728 1153.9249,-682.6058 1158.2466,-692.2792 1163.3357,-687.4728"/>
</g>
<!-- CreatePaddedTargets&#45;&gt;HaplotypeCaller -->
<g id="edge22" class="edge">
<title>CreatePaddedTargets&#45;&gt;HaplotypeCaller</title>
<path fill="none" stroke="#000000" d="M1285.6835,-731.1358C1349.1048,-723.8149 1430.6427,-709.6335 1451.2416,-684 1465.0146,-666.8608 1463.3448,-641.3722 1459.0474,-621.8908"/>
<polygon fill="#000000" stroke="#000000" points="1462.4029,-620.884 1456.5502,-612.0525 1455.6181,-622.6062 1462.4029,-620.884"/>
</g>
<!-- Freebayes -->
<g id="node22" class="node">
<title>Freebayes</title>
<ellipse fill="none" stroke="#000000" cx="1317.2416" cy="-594" rx="46.2923" ry="18"/>
<text text-anchor="middle" x="1317.2416" y="-590.3" font-family="Times,serif" font-size="14.00" fill="#000000">Freebayes</text>
</g>
<!-- CreatePaddedTargets&#45;&gt;Freebayes -->
<g id="edge25" class="edge">
<title>CreatePaddedTargets&#45;&gt;Freebayes</title>
<path fill="none" stroke="#000000" d="M1205.9103,-719.7186C1206.4449,-700.2121 1209.9385,-669.2537 1225.2416,-648 1237.1118,-631.5143 1255.6997,-619.2422 1273.0695,-610.5995"/>
<polygon fill="#000000" stroke="#000000" points="1274.9688,-613.5751 1282.5437,-606.1676 1272.0028,-607.2345 1274.9688,-613.5751"/>
</g>
<!-- CombineVariants -->
<g id="node24" class="node">
<title>CombineVariants</title>
<ellipse fill="none" stroke="#000000" cx="1124.2416" cy="-522" rx="73.387" ry="18"/>
<text text-anchor="middle" x="1124.2416" y="-518.3" font-family="Times,serif" font-size="14.00" fill="#000000">CombineVariants</text>
</g>
<!-- HaplotypeCaller&#45;&gt;CombineVariants -->
<g id="edge28" class="edge">
<title>HaplotypeCaller&#45;&gt;CombineVariants</title>
<path fill="none" stroke="#000000" d="M1398.6555,-582.0005C1389.8472,-579.9788 1380.7849,-577.9158 1372.2416,-576 1310.4958,-562.1537 1239.9837,-546.8492 1189.9707,-536.0797"/>
<polygon fill="#000000" stroke="#000000" points="1190.4479,-532.6024 1179.9354,-533.9204 1188.9753,-539.4457 1190.4479,-532.6024"/>
</g>
<!-- HaplotypeCaller&#45;&gt;Varscan2 -->
<g id="edge52" class="edge">
<title>HaplotypeCaller&#45;&gt;Varscan2</title>
<path fill="none" stroke="#000000" d="M1500.6101,-581.6228C1555.1781,-568.2136 1641.6044,-546.9757 1695.2324,-533.7975"/>
<polygon fill="#000000" stroke="#000000" points="1696.2994,-537.1395 1705.1753,-531.3542 1694.6289,-530.3417 1696.2994,-537.1395"/>
</g>
<!-- HaplotypeCaller&#45;&gt;Cleanup -->
<g id="edge72" class="edge">
<title>HaplotypeCaller&#45;&gt;Cleanup</title>
<path fill="none" stroke="#000000" d="M1411.1233,-578.9894C1363.085,-560.691 1279.0155,-529.1046 1206.2416,-504 1156.814,-486.9491 1136.3723,-498.9651 1094.2416,-468 991.7032,-392.6365 929.2416,-361.2548 929.2416,-234 929.2416,-234 929.2416,-234 929.2416,-162 929.2416,-121.876 929.2416,-75.4631 929.2416,-46.4177"/>
<polygon fill="#000000" stroke="#000000" points="932.7417,-46.1853 929.2416,-36.1854 925.7417,-46.1854 932.7417,-46.1853"/>
</g>
<!-- MergeBamFilesFreebayes&#45;&gt;Freebayes -->
<g id="edge24" class="edge">
<title>MergeBamFilesFreebayes&#45;&gt;Freebayes</title>
<path fill="none" stroke="#000000" d="M1332.9425,-647.8314C1330.6369,-639.9266 1327.8837,-630.4872 1325.3315,-621.7365"/>
<polygon fill="#000000" stroke="#000000" points="1328.6265,-620.5334 1322.4664,-611.9134 1321.9065,-622.4934 1328.6265,-620.5334"/>
</g>
<!-- Freebayes&#45;&gt;CombineVariants -->
<g id="edge27" class="edge">
<title>Freebayes&#45;&gt;CombineVariants</title>
<path fill="none" stroke="#000000" d="M1283.6236,-581.4586C1253.4158,-570.1893 1208.647,-553.488 1174.2417,-540.6529"/>
<polygon fill="#000000" stroke="#000000" points="1175.4257,-537.359 1164.8331,-537.1429 1172.979,-543.9175 1175.4257,-537.359"/>
</g>
<!-- MergeMutect2VariantsByProject&#45;&gt;CombineVariants -->
<g id="edge29" class="edge">
<title>MergeMutect2VariantsByProject&#45;&gt;CombineVariants</title>
<path fill="none" stroke="#000000" d="M1124.2416,-575.8314C1124.2416,-568.131 1124.2416,-558.9743 1124.2416,-550.4166"/>
<polygon fill="#000000" stroke="#000000" points="1127.7417,-550.4132 1124.2416,-540.4133 1120.7417,-550.4133 1127.7417,-550.4132"/>
</g>
<!-- MergeVariants -->
<g id="node25" class="node">
<title>MergeVariants</title>
<ellipse fill="none" stroke="#000000" cx="1167.2416" cy="-450" rx="63.8893" ry="18"/>
<text text-anchor="middle" x="1167.2416" y="-446.3" font-family="Times,serif" font-size="14.00" fill="#000000">MergeVariants</text>
</g>
<!-- CombineVariants&#45;&gt;MergeVariants -->
<g id="edge30" class="edge">
<title>CombineVariants&#45;&gt;MergeVariants</title>
<path fill="none" stroke="#000000" d="M1135.0924,-503.8314C1140.0185,-495.5829 1145.9426,-485.6635 1151.356,-476.5992"/>
<polygon fill="#000000" stroke="#000000" points="1154.4208,-478.2935 1156.5434,-467.9134 1148.411,-474.7042 1154.4208,-478.2935"/>
</g>
<!-- VariantAnnotation -->
<g id="node26" class="node">
<title>VariantAnnotation</title>
<ellipse fill="none" stroke="#000000" cx="1167.2416" cy="-378" rx="76.8869" ry="18"/>
<text text-anchor="middle" x="1167.2416" y="-374.3" font-family="Times,serif" font-size="14.00" fill="#000000">VariantAnnotation</text>
</g>
<!-- MergeVariants&#45;&gt;VariantAnnotation -->
<g id="edge31" class="edge">
<title>MergeVariants&#45;&gt;VariantAnnotation</title>
<path fill="none" stroke="#000000" d="M1167.2416,-431.8314C1167.2416,-424.131 1167.2416,-414.9743 1167.2416,-406.4166"/>
<polygon fill="#000000" stroke="#000000" points="1170.7417,-406.4132 1167.2416,-396.4133 1163.7417,-406.4133 1170.7417,-406.4132"/>
</g>
<!-- MergeVariants&#45;&gt;CnvProfile -->
<g id="edge55" class="edge">
<title>MergeVariants&#45;&gt;CnvProfile</title>
<path fill="none" stroke="#000000" d="M1201.1366,-434.5542C1225.7676,-423.3299 1259.196,-408.0967 1285.1537,-396.2679"/>
<polygon fill="#000000" stroke="#000000" points="1286.7006,-399.4093 1294.349,-392.0777 1283.7979,-393.0395 1286.7006,-399.4093"/>
</g>
<!-- CustTumorNormalAnnotations -->
<g id="node27" class="node">
<title>CustTumorNormalAnnotations</title>
<ellipse fill="none" stroke="#000000" cx="1629.2416" cy="-306" rx="121.5784" ry="18"/>
<text text-anchor="middle" x="1629.2416" y="-302.3" font-family="Times,serif" font-size="14.00" fill="#000000">CustTumorNormalAnnotations</text>
</g>
<!-- VariantAnnotation&#45;&gt;CustTumorNormalAnnotations -->
<g id="edge32" class="edge">
<title>VariantAnnotation&#45;&gt;CustTumorNormalAnnotations</title>
<path fill="none" stroke="#000000" d="M1227.4745,-366.8563C1240.5715,-364.5176 1254.3612,-362.1195 1267.2416,-360 1356.3174,-345.3428 1458.0135,-330.3232 1530.8897,-319.8574"/>
<polygon fill="#000000" stroke="#000000" points="1531.5752,-323.295 1540.9773,-318.4114 1530.5818,-316.3659 1531.5752,-323.295"/>
</g>
<!-- VariantAnnotation&#45;&gt;MultiQC -->
<g id="edge65" class="edge">
<title>VariantAnnotation&#45;&gt;MultiQC</title>
<path fill="none" stroke="#000000" d="M1153.2906,-359.9555C1123.5377,-321.4727 1053.7943,-231.2657 1019.6986,-187.1659"/>
<polygon fill="#000000" stroke="#000000" points="1022.4563,-185.0106 1013.5708,-179.2401 1016.9185,-189.2922 1022.4563,-185.0106"/>
</g>
<!-- SelectIndels -->
<g id="node28" class="node">
<title>SelectIndels</title>
<ellipse fill="none" stroke="#000000" cx="1679.2416" cy="-234" rx="53.8905" ry="18"/>
<text text-anchor="middle" x="1679.2416" y="-230.3" font-family="Times,serif" font-size="14.00" fill="#000000">SelectIndels</text>
</g>
<!-- CustTumorNormalAnnotations&#45;&gt;SelectIndels -->
<g id="edge33" class="edge">
<title>CustTumorNormalAnnotations&#45;&gt;SelectIndels</title>
<path fill="none" stroke="#000000" d="M1641.8587,-287.8314C1647.6465,-279.497 1654.6189,-269.4567 1660.9665,-260.3162"/>
<polygon fill="#000000" stroke="#000000" points="1663.9726,-262.1235 1666.8018,-251.9134 1658.223,-258.1307 1663.9726,-262.1235"/>
</g>
<!-- SelectSNV -->
<g id="node29" class="node">
<title>SelectSNV</title>
<ellipse fill="none" stroke="#000000" cx="1557.2416" cy="-234" rx="50.0912" ry="18"/>
<text text-anchor="middle" x="1557.2416" y="-230.3" font-family="Times,serif" font-size="14.00" fill="#000000">SelectSNV</text>
</g>
<!-- CustTumorNormalAnnotations&#45;&gt;SelectSNV -->
<g id="edge34" class="edge">
<title>CustTumorNormalAnnotations&#45;&gt;SelectSNV</title>
<path fill="none" stroke="#000000" d="M1611.073,-287.8314C1602.2634,-279.0218 1591.5479,-268.3063 1582.0037,-258.7621"/>
<polygon fill="#000000" stroke="#000000" points="1584.2053,-256.0139 1574.6593,-251.4177 1579.2556,-260.9637 1584.2053,-256.0139"/>
</g>
<!-- IndelVariantsToTable -->
<g id="node30" class="node">
<title>IndelVariantsToTable</title>
<ellipse fill="none" stroke="#000000" cx="2150.2416" cy="-162" rx="88.2844" ry="18"/>
<text text-anchor="middle" x="2150.2416" y="-158.3" font-family="Times,serif" font-size="14.00" fill="#000000">IndelVariantsToTable</text>
</g>
<!-- SelectIndels&#45;&gt;IndelVariantsToTable -->
<g id="edge35" class="edge">
<title>SelectIndels&#45;&gt;IndelVariantsToTable</title>
<path fill="none" stroke="#000000" d="M1729.4098,-227.3515C1801.1143,-217.7093 1936.9881,-198.9203 2052.2416,-180 2059.8031,-178.7587 2067.682,-177.408 2075.5421,-176.023"/>
<polygon fill="#000000" stroke="#000000" points="2076.2316,-179.4554 2085.4628,-174.2559 2075.004,-172.5638 2076.2316,-179.4554"/>
</g>
<!-- IndelVariantsToMinTable -->
<g id="node31" class="node">
<title>IndelVariantsToMinTable</title>
<ellipse fill="none" stroke="#000000" cx="1663.2416" cy="-162" rx="103.1819" ry="18"/>
<text text-anchor="middle" x="1663.2416" y="-158.3" font-family="Times,serif" font-size="14.00" fill="#000000">IndelVariantsToMinTable</text>
</g>
<!-- SelectIndels&#45;&gt;IndelVariantsToMinTable -->
<g id="edge36" class="edge">
<title>SelectIndels&#45;&gt;IndelVariantsToMinTable</title>
<path fill="none" stroke="#000000" d="M1675.2042,-215.8314C1673.493,-208.131 1671.4582,-198.9743 1669.5564,-190.4166"/>
<polygon fill="#000000" stroke="#000000" points="1672.9195,-189.4159 1667.3335,-180.4133 1666.0862,-190.9344 1672.9195,-189.4159"/>
</g>
<!-- IndelVariantsToDescriptionTable -->
<g id="node34" class="node">
<title>IndelVariantsToDescriptionTable</title>
<ellipse fill="none" stroke="#000000" cx="1914.2416" cy="-162" rx="129.1772" ry="18"/>
<text text-anchor="middle" x="1914.2416" y="-158.3" font-family="Times,serif" font-size="14.00" fill="#000000">IndelVariantsToDescriptionTable</text>
</g>
<!-- SelectIndels&#45;&gt;IndelVariantsToDescriptionTable -->
<g id="edge39" class="edge">
<title>SelectIndels&#45;&gt;IndelVariantsToDescriptionTable</title>
<path fill="none" stroke="#000000" d="M1719.1062,-221.7862C1755.1878,-210.7314 1808.9483,-194.2601 1850.9097,-181.4038"/>
<polygon fill="#000000" stroke="#000000" points="1851.9508,-184.7455 1860.4867,-178.4696 1849.9001,-178.0526 1851.9508,-184.7455"/>
</g>
<!-- SelectIndels&#45;&gt;MultiQC -->
<g id="edge62" class="edge">
<title>SelectIndels&#45;&gt;MultiQC</title>
<path fill="none" stroke="#000000" d="M1640.2231,-221.4476C1632.3539,-219.315 1624.0881,-217.3552 1616.2416,-216 1368.7292,-173.2525 1298.4865,-229.5303 1052.2416,-180 1048.6095,-179.2694 1044.8844,-178.3471 1041.178,-177.3079"/>
<polygon fill="#000000" stroke="#000000" points="1042.0737,-173.9218 1031.4869,-174.3356 1040.0211,-180.6141 1042.0737,-173.9218"/>
</g>
<!-- SNVVariantsToTable -->
<g id="node32" class="node">
<title>SNVVariantsToTable</title>
<ellipse fill="none" stroke="#000000" cx="2344.2416" cy="-162" rx="87.9851" ry="18"/>
<text text-anchor="middle" x="2344.2416" y="-158.3" font-family="Times,serif" font-size="14.00" fill="#000000">SNVVariantsToTable</text>
</g>
<!-- SelectSNV&#45;&gt;SNVVariantsToTable -->
<g id="edge37" class="edge">
<title>SelectSNV&#45;&gt;SNVVariantsToTable</title>
<path fill="none" stroke="#000000" d="M1593.417,-221.4779C1600.8848,-219.3147 1608.7563,-217.3355 1616.2416,-216 1892.7755,-166.6635 1968.3691,-213.6928 2247.2416,-180 2255.2807,-179.0287 2263.6588,-177.8023 2271.9765,-176.4481"/>
<polygon fill="#000000" stroke="#000000" points="2272.7893,-179.8604 2282.0654,-174.7414 2271.6217,-172.9585 2272.7893,-179.8604"/>
</g>
<!-- SNVVariantsToMinTable -->
<g id="node33" class="node">
<title>SNVVariantsToMinTable</title>
<ellipse fill="none" stroke="#000000" cx="1164.2416" cy="-162" rx="102.8821" ry="18"/>
<text text-anchor="middle" x="1164.2416" y="-158.3" font-family="Times,serif" font-size="14.00" fill="#000000">SNVVariantsToMinTable</text>
</g>
<!-- SelectSNV&#45;&gt;SNVVariantsToMinTable -->
<g id="edge38" class="edge">
<title>SelectSNV&#45;&gt;SNVVariantsToMinTable</title>
<path fill="none" stroke="#000000" d="M1518.8363,-222.449C1510.4453,-220.1357 1501.5799,-217.8508 1493.2416,-216 1487.2554,-214.6712 1344.9639,-191.4287 1249.491,-175.8737"/>
<polygon fill="#000000" stroke="#000000" points="1249.9716,-172.406 1239.5389,-174.2525 1248.846,-179.3149 1249.9716,-172.406"/>
</g>
<!-- SNVVariantsToDescriptionTable -->
<g id="node35" class="node">
<title>SNVVariantsToDescriptionTable</title>
<ellipse fill="none" stroke="#000000" cx="1413.2416" cy="-162" rx="128.8774" ry="18"/>
<text text-anchor="middle" x="1413.2416" y="-158.3" font-family="Times,serif" font-size="14.00" fill="#000000">SNVVariantsToDescriptionTable</text>
</g>
<!-- SelectSNV&#45;&gt;SNVVariantsToDescriptionTable -->
<g id="edge40" class="edge">
<title>SelectSNV&#45;&gt;SNVVariantsToDescriptionTable</title>
<path fill="none" stroke="#000000" d="M1527.7536,-219.256C1507.4319,-209.0951 1480.0707,-195.4145 1457.1897,-183.974"/>
<polygon fill="#000000" stroke="#000000" points="1458.5271,-180.7296 1448.0175,-179.3879 1455.3965,-186.9906 1458.5271,-180.7296"/>
</g>
<!-- SelectSNV&#45;&gt;MultiQC -->
<g id="edge63" class="edge">
<title>SelectSNV&#45;&gt;MultiQC</title>
<path fill="none" stroke="#000000" d="M1519.6196,-222.1185C1511.0235,-219.7683 1501.8754,-217.5516 1493.2416,-216 1299.6902,-181.2173 1244.6814,-220.4839 1052.2416,-180 1048.6658,-179.2477 1044.9976,-178.3184 1041.3445,-177.2818"/>
<polygon fill="#000000" stroke="#000000" points="1042.371,-173.9357 1031.7837,-174.3349 1040.3091,-180.6252 1042.371,-173.9357"/>
</g>
<!-- TablesToSplitTables -->
<g id="node36" class="node">
<title>TablesToSplitTables</title>
<ellipse fill="none" stroke="#000000" cx="1707.2416" cy="-90" rx="83.6854" ry="18"/>
<text text-anchor="middle" x="1707.2416" y="-86.3" font-family="Times,serif" font-size="14.00" fill="#000000">TablesToSplitTables</text>
</g>
<!-- IndelVariantsToTable&#45;&gt;TablesToSplitTables -->
<g id="edge46" class="edge">
<title>IndelVariantsToTable&#45;&gt;TablesToSplitTables</title>
<path fill="none" stroke="#000000" d="M2085.1816,-149.8016C2074.1956,-147.8131 2062.9002,-145.8127 2052.2416,-144 1961.2395,-128.5235 1856.4433,-112.3543 1786.4541,-101.7912"/>
<polygon fill="#000000" stroke="#000000" points="1786.796,-98.3033 1776.3861,-100.2742 1785.753,-105.2252 1786.796,-98.3033"/>
</g>
<!-- TablesToXlsx -->
<g id="node37" class="node">
<title>TablesToXlsx</title>
<ellipse fill="none" stroke="#000000" cx="1914.2416" cy="-90" rx="60.3893" ry="18"/>
<text text-anchor="middle" x="1914.2416" y="-86.3" font-family="Times,serif" font-size="14.00" fill="#000000">TablesToXlsx</text>
</g>
<!-- IndelVariantsToTable&#45;&gt;TablesToXlsx -->
<g id="edge49" class="edge">
<title>IndelVariantsToTable&#45;&gt;TablesToXlsx</title>
<path fill="none" stroke="#000000" d="M2101.0556,-146.9941C2061.6195,-134.9627 2006.4212,-118.1226 1966.2558,-105.8687"/>
<polygon fill="#000000" stroke="#000000" points="1967.2306,-102.5069 1956.6445,-102.9365 1965.1879,-109.2023 1967.2306,-102.5069"/>
</g>
<!-- IndelVariantsToMinTable&#45;&gt;TablesToSplitTables -->
<g id="edge45" class="edge">
<title>IndelVariantsToMinTable&#45;&gt;TablesToSplitTables</title>
<path fill="none" stroke="#000000" d="M1674.3447,-143.8314C1679.3854,-135.5829 1685.4473,-125.6635 1690.9866,-116.5992"/>
<polygon fill="#000000" stroke="#000000" points="1694.0665,-118.2713 1696.2946,-107.9134 1688.0935,-114.6212 1694.0665,-118.2713"/>
</g>
<!-- SNVVariantsToTable&#45;&gt;TablesToSplitTables -->
<g id="edge44" class="edge">
<title>SNVVariantsToTable&#45;&gt;TablesToSplitTables</title>
<path fill="none" stroke="#000000" d="M2281.2455,-149.42C2269.9534,-147.4193 2258.2713,-145.5138 2247.2416,-144 2069.526,-119.6087 2023.5488,-127.6045 1845.2416,-108 1826.6143,-105.952 1806.6068,-103.4927 1787.7653,-101.0593"/>
<polygon fill="#000000" stroke="#000000" points="1788.1027,-97.5738 1777.7343,-99.7524 1787.1983,-104.5151 1788.1027,-97.5738"/>
</g>
<!-- SNVVariantsToTable&#45;&gt;TablesToXlsx -->
<g id="edge47" class="edge">
<title>SNVVariantsToTable&#45;&gt;TablesToXlsx</title>
<path fill="none" stroke="#000000" d="M2279.5792,-149.7894C2268.7881,-147.8124 2257.7039,-145.8188 2247.2416,-144 2153.6631,-127.7322 2045.0093,-110.4044 1977.9351,-99.8882"/>
<polygon fill="#000000" stroke="#000000" points="1978.3629,-96.4127 1967.9418,-98.3236 1977.28,-103.3284 1978.3629,-96.4127"/>
</g>
<!-- PlotGenome -->
<g id="node39" class="node">
<title>PlotGenome</title>
<ellipse fill="none" stroke="#000000" cx="2531.2416" cy="-90" rx="55.4913" ry="18"/>
<text text-anchor="middle" x="2531.2416" y="-86.3" font-family="Times,serif" font-size="14.00" fill="#000000">PlotGenome</text>
</g>
<!-- SNVVariantsToTable&#45;&gt;PlotGenome -->
<g id="edge54" class="edge">
<title>SNVVariantsToTable&#45;&gt;PlotGenome</title>
<path fill="none" stroke="#000000" d="M2385.743,-146.0209C2415.4535,-134.5815 2455.4349,-119.1876 2485.9683,-107.4314"/>
<polygon fill="#000000" stroke="#000000" points="2487.4502,-110.6114 2495.5248,-103.7519 2484.935,-104.0789 2487.4502,-110.6114"/>
</g>
<!-- SNVVariantsToMinTable&#45;&gt;TablesToSplitTables -->
<g id="edge43" class="edge">
<title>SNVVariantsToMinTable&#45;&gt;TablesToSplitTables</title>
<path fill="none" stroke="#000000" d="M1238.8194,-149.5241C1250.9811,-147.5996 1263.4537,-145.692 1275.2416,-144 1395.7871,-126.6978 1535.7175,-109.7846 1622.8819,-99.6244"/>
<polygon fill="#000000" stroke="#000000" points="1623.4541,-103.0815 1632.9828,-98.4497 1622.6454,-96.1284 1623.4541,-103.0815"/>
</g>
<!-- IndelVariantsToDescriptionTable&#45;&gt;TablesToSplitTables -->
<g id="edge42" class="edge">
<title>IndelVariantsToDescriptionTable&#45;&gt;TablesToSplitTables</title>
<path fill="none" stroke="#000000" d="M1865.9706,-145.2101C1834.5733,-134.2893 1793.5865,-120.033 1761.1275,-108.7429"/>
<polygon fill="#000000" stroke="#000000" points="1761.9427,-105.3208 1751.3479,-105.3413 1759.643,-111.9323 1761.9427,-105.3208"/>
</g>
<!-- IndelVariantsToDescriptionTable&#45;&gt;TablesToXlsx -->
<g id="edge50" class="edge">
<title>IndelVariantsToDescriptionTable&#45;&gt;TablesToXlsx</title>
<path fill="none" stroke="#000000" d="M1914.2416,-143.8314C1914.2416,-136.131 1914.2416,-126.9743 1914.2416,-118.4166"/>
<polygon fill="#000000" stroke="#000000" points="1917.7417,-118.4132 1914.2416,-108.4133 1910.7417,-118.4133 1917.7417,-118.4132"/>
</g>
<!-- SNVVariantsToDescriptionTable&#45;&gt;TablesToSplitTables -->
<g id="edge41" class="edge">
<title>SNVVariantsToDescriptionTable&#45;&gt;TablesToSplitTables</title>
<path fill="none" stroke="#000000" d="M1477.3979,-146.2883C1526.0828,-134.3654 1592.7679,-118.0344 1641.7725,-106.0333"/>
<polygon fill="#000000" stroke="#000000" points="1642.757,-109.3957 1651.6374,-103.6174 1641.0919,-102.5966 1642.757,-109.3957"/>
</g>
<!-- SNVVariantsToDescriptionTable&#45;&gt;TablesToXlsx -->
<g id="edge48" class="edge">
<title>SNVVariantsToDescriptionTable&#45;&gt;TablesToXlsx</title>
<path fill="none" stroke="#000000" d="M1506.3628,-149.4838C1584.7945,-138.8276 1699.9262,-122.9172 1800.2416,-108 1816.6542,-105.5594 1834.3776,-102.8142 1850.8464,-100.2169"/>
<polygon fill="#000000" stroke="#000000" points="1851.5857,-103.6436 1860.9154,-98.6229 1850.4911,-96.7297 1851.5857,-103.6436"/>
</g>
<!-- TablesToXlsx&#45;&gt;Cleanup -->
<g id="edge67" class="edge">
<title>TablesToXlsx&#45;&gt;Cleanup</title>
<path fill="none" stroke="#000000" d="M1862.1687,-80.7149C1842.7818,-77.5388 1820.5574,-74.2286 1800.2416,-72 1489.75,-37.94 1114.4553,-23.7169 980.1101,-19.4701"/>
<polygon fill="#000000" stroke="#000000" points="979.8358,-15.96 969.7316,-19.1468 979.6178,-22.9566 979.8358,-15.96"/>
</g>
<!-- Varscan2&#45;&gt;PlotGenome -->
<g id="edge53" class="edge">
<title>Varscan2&#45;&gt;PlotGenome</title>
<path fill="none" stroke="#000000" d="M1786.6815,-518.5985C1950.3132,-505.2141 2520.2416,-453.1988 2520.2416,-378 2520.2416,-378 2520.2416,-378 2520.2416,-234 2520.2416,-193.7591 2524.5652,-147.3759 2527.7911,-118.3689"/>
<polygon fill="#000000" stroke="#000000" points="2531.3006,-118.485 2528.9624,-108.1514 2524.3462,-117.6877 2531.3006,-118.485"/>
</g>
<!-- MergeSegFiles -->
<g id="node41" class="node">
<title>MergeSegFiles</title>
<ellipse fill="none" stroke="#000000" cx="2531.2416" cy="-18" rx="64.189" ry="18"/>
<text text-anchor="middle" x="2531.2416" y="-14.3" font-family="Times,serif" font-size="14.00" fill="#000000">MergeSegFiles</text>
</g>
<!-- PlotGenome&#45;&gt;MergeSegFiles -->
<g id="edge57" class="edge">
<title>PlotGenome&#45;&gt;MergeSegFiles</title>
<path fill="none" stroke="#000000" d="M2531.2416,-71.8314C2531.2416,-64.131 2531.2416,-54.9743 2531.2416,-46.4166"/>
<polygon fill="#000000" stroke="#000000" points="2534.7417,-46.4132 2531.2416,-36.4133 2527.7417,-46.4133 2534.7417,-46.4132"/>
</g>
<!-- PlotGenome&#45;&gt;Cleanup -->
<g id="edge66" class="edge">
<title>PlotGenome&#45;&gt;Cleanup</title>
<path fill="none" stroke="#000000" d="M2490.3166,-77.7443C2481.1554,-75.4446 2471.429,-73.3434 2462.2416,-72 2166.5511,-28.7625 1211.1337,-19.8334 979.9551,-18.2885"/>
<polygon fill="#000000" stroke="#000000" points="979.8368,-14.7878 969.8142,-18.2224 979.7911,-21.7876 979.8368,-14.7878"/>
</g>
<!-- ProjectMarkdown&#45;&gt;MultiQC -->
<g id="edge60" class="edge">
<title>ProjectMarkdown&#45;&gt;MultiQC</title>
<path fill="none" stroke="#000000" d="M831.6546,-219.256C868.1951,-206.846 920.1951,-189.1856 956.7561,-176.7687"/>
<polygon fill="#000000" stroke="#000000" points="958.2899,-179.9442 966.6331,-173.4142 956.0388,-173.316 958.2899,-179.9442"/>
</g>
<!-- ProjectMarkdown&#45;&gt;Cleanup -->
<g id="edge73" class="edge">
<title>ProjectMarkdown&#45;&gt;Cleanup</title>
<path fill="none" stroke="#000000" d="M796.1751,-216.0665C810.2463,-185.1805 841.4825,-120.5888 877.2416,-72 885.0767,-61.3539 894.8794,-50.6558 903.8554,-41.6226"/>
<polygon fill="#000000" stroke="#000000" points="906.4605,-43.9696 911.1394,-34.4639 901.5539,-38.9771 906.4605,-43.9696"/>
</g>
<!-- SamQC&#45;&gt;MultiQC -->
<g id="edge64" class="edge">
<title>SamQC&#45;&gt;MultiQC</title>
<path fill="none" stroke="#000000" d="M1523.2678,-504.8188C1498.6753,-473.1106 1442.417,-404.571 1383.2416,-360 1269.9436,-274.6637 1114.5265,-207.1754 1041.4199,-177.8686"/>
<polygon fill="#000000" stroke="#000000" points="1042.6674,-174.5982 1032.0819,-174.154 1040.08,-181.1025 1042.6674,-174.5982"/>
</g>
<!-- MultiQC&#45;&gt;Cleanup -->
<g id="edge74" class="edge">
<title>MultiQC&#45;&gt;Cleanup</title>
<path fill="none" stroke="#000000" d="M991.5356,-144.3428C979.2928,-119.5122 956.8853,-74.066 942.5461,-44.9836"/>
<polygon fill="#000000" stroke="#000000" points="945.5803,-43.2229 938.0188,-35.8017 939.302,-46.3185 945.5803,-43.2229"/>
</g>
</g>
</svg>
