<?xml version="1.0" encoding="UTF-8" standalone="no"?>
<!DOCTYPE svg PUBLIC "-//W3C//DTD SVG 1.1//EN"
 "http://www.w3.org/Graphics/SVG/1.1/DTD/svg11.dtd">
<!-- Generated by graphviz version 2.40.1 (0)
 -->
<!-- Title: workflow_withPolymorfi Pages: 1 -->
<svg width="1504pt" height="980pt"
 viewBox="0.00 0.00 1504.24 980.00" xmlns="http://www.w3.org/2000/svg" xmlns:xlink="http://www.w3.org/1999/xlink">
<g id="graph0" class="graph" transform="scale(1 1) rotate(0) translate(4 976)">
<title>workflow_withPolymorfi</title>
<polygon fill="#ffffff" stroke="transparent" points="-4,4 -4,-976 1500.2416,-976 1500.2416,4 -4,4"/>
<!-- BwaMemAlignment -->
<g id="node1" class="node">
<title>BwaMemAlignment</title>
<ellipse fill="none" stroke="#000000" cx="325.2416" cy="-954" rx="84.485" ry="18"/>
<text text-anchor="middle" x="325.2416" y="-950.3" font-family="Times,serif" font-size="14.00" fill="#000000">BwaMemAlignment</text>
</g>
<!-- AddOrReplaceReadGroups -->
<g id="node2" class="node">
<title>AddOrReplaceReadGroups</title>
<ellipse fill="none" stroke="#000000" cx="325.2416" cy="-882" rx="107.4815" ry="18"/>
<text text-anchor="middle" x="325.2416" y="-878.3" font-family="Times,serif" font-size="14.00" fill="#000000">AddOrReplaceReadGroups</text>
</g>
<!-- BwaMemAlignment&#45;&gt;AddOrReplaceReadGroups -->
<g id="edge1" class="edge">
<title>BwaMemAlignment&#45;&gt;AddOrReplaceReadGroups</title>
<path fill="none" stroke="#000000" d="M325.2416,-935.8314C325.2416,-928.131 325.2416,-918.9743 325.2416,-910.4166"/>
<polygon fill="#000000" stroke="#000000" points="328.7417,-910.4132 325.2416,-900.4133 321.7417,-910.4133 328.7417,-910.4132"/>
</g>
<!-- MergeBamFiles -->
<g id="node3" class="node">
<title>MergeBamFiles</title>
<ellipse fill="none" stroke="#000000" cx="325.2416" cy="-810" rx="68.4888" ry="18"/>
<text text-anchor="middle" x="325.2416" y="-806.3" font-family="Times,serif" font-size="14.00" fill="#000000">MergeBamFiles</text>
</g>
<!-- AddOrReplaceReadGroups&#45;&gt;MergeBamFiles -->
<g id="edge2" class="edge">
<title>AddOrReplaceReadGroups&#45;&gt;MergeBamFiles</title>
<path fill="none" stroke="#000000" d="M325.2416,-863.8314C325.2416,-856.131 325.2416,-846.9743 325.2416,-838.4166"/>
<polygon fill="#000000" stroke="#000000" points="328.7417,-838.4132 325.2416,-828.4133 321.7417,-838.4133 328.7417,-838.4132"/>
</g>
<!-- MarkDuplicates -->
<g id="node4" class="node">
<title>MarkDuplicates</title>
<ellipse fill="none" stroke="#000000" cx="325.2416" cy="-738" rx="67.6881" ry="18"/>
<text text-anchor="middle" x="325.2416" y="-734.3" font-family="Times,serif" font-size="14.00" fill="#000000">MarkDuplicates</text>
</g>
<!-- MergeBamFiles&#45;&gt;MarkDuplicates -->
<g id="edge3" class="edge">
<title>MergeBamFiles&#45;&gt;MarkDuplicates</title>
<path fill="none" stroke="#000000" d="M325.2416,-791.8314C325.2416,-784.131 325.2416,-774.9743 325.2416,-766.4166"/>
<polygon fill="#000000" stroke="#000000" points="328.7417,-766.4132 325.2416,-756.4133 321.7417,-766.4133 328.7417,-766.4132"/>
</g>
<!-- Manta -->
<g id="node5" class="node">
<title>Manta</title>
<ellipse fill="none" stroke="#000000" cx="544.2416" cy="-666" rx="33.5952" ry="18"/>
<text text-anchor="middle" x="544.2416" y="-662.3" font-family="Times,serif" font-size="14.00" fill="#000000">Manta</text>
</g>
<!-- MarkDuplicates&#45;&gt;Manta -->
<g id="edge4" class="edge">
<title>MarkDuplicates&#45;&gt;Manta</title>
<path fill="none" stroke="#000000" d="M372.3478,-724.9187C408.0331,-714.679 458.1118,-699.6006 501.2416,-684 503.6389,-683.1329 506.0973,-682.2066 508.5654,-681.2489"/>
<polygon fill="#000000" stroke="#000000" points="510.0445,-684.4268 518.0246,-677.4577 507.4403,-677.9292 510.0445,-684.4268"/>
</g>
<!-- CollectMultipleMetrics -->
<g id="node6" class="node">
<title>CollectMultipleMetrics</title>
<ellipse fill="none" stroke="#000000" cx="94.2416" cy="-666" rx="94.4839" ry="18"/>
<text text-anchor="middle" x="94.2416" y="-662.3" font-family="Times,serif" font-size="14.00" fill="#000000">CollectMultipleMetrics</text>
</g>
<!-- MarkDuplicates&#45;&gt;CollectMultipleMetrics -->
<g id="edge5" class="edge">
<title>MarkDuplicates&#45;&gt;CollectMultipleMetrics</title>
<path fill="none" stroke="#000000" d="M281.2486,-724.2879C244.9689,-712.9799 193.1708,-696.8351 153.285,-684.4031"/>
<polygon fill="#000000" stroke="#000000" points="154.2659,-681.0428 143.6773,-681.4085 152.1828,-687.7257 154.2659,-681.0428"/>
</g>
<!-- CalculateHsMetrics -->
<g id="node7" class="node">
<title>CalculateHsMetrics</title>
<ellipse fill="none" stroke="#000000" cx="325.2416" cy="-666" rx="81.4863" ry="18"/>
<text text-anchor="middle" x="325.2416" y="-662.3" font-family="Times,serif" font-size="14.00" fill="#000000">CalculateHsMetrics</text>
</g>
<!-- MarkDuplicates&#45;&gt;CalculateHsMetrics -->
<g id="edge6" class="edge">
<title>MarkDuplicates&#45;&gt;CalculateHsMetrics</title>
<path fill="none" stroke="#000000" d="M325.2416,-719.8314C325.2416,-712.131 325.2416,-702.9743 325.2416,-694.4166"/>
<polygon fill="#000000" stroke="#000000" points="328.7417,-694.4132 325.2416,-684.4133 321.7417,-694.4133 328.7417,-694.4132"/>
</g>
<!-- SampleMarkdown -->
<g id="node8" class="node">
<title>SampleMarkdown</title>
<ellipse fill="none" stroke="#000000" cx="218.2416" cy="-594" rx="76.8869" ry="18"/>
<text text-anchor="middle" x="218.2416" y="-590.3" font-family="Times,serif" font-size="14.00" fill="#000000">SampleMarkdown</text>
</g>
<!-- MarkDuplicates&#45;&gt;SampleMarkdown -->
<g id="edge10" class="edge">
<title>MarkDuplicates&#45;&gt;SampleMarkdown</title>
<path fill="none" stroke="#000000" d="M285.6944,-723.2219C267.6154,-714.4931 247.5334,-701.6418 235.2416,-684 222.7213,-666.03 218.7525,-641.3443 217.7576,-622.371"/>
<polygon fill="#000000" stroke="#000000" points="221.2521,-622.1243 217.4742,-612.226 214.2549,-622.3199 221.2521,-622.1243"/>
</g>
<!-- IndelRealignmentKnown -->
<g id="node10" class="node">
<title>IndelRealignmentKnown</title>
<ellipse fill="none" stroke="#000000" cx="696.2416" cy="-666" rx="100.1823" ry="18"/>
<text text-anchor="middle" x="696.2416" y="-662.3" font-family="Times,serif" font-size="14.00" fill="#000000">IndelRealignmentKnown</text>
</g>
<!-- MarkDuplicates&#45;&gt;IndelRealignmentKnown -->
<g id="edge11" class="edge">
<title>MarkDuplicates&#45;&gt;IndelRealignmentKnown</title>
<path fill="none" stroke="#000000" d="M379.984,-727.3762C442.934,-715.1594 546.7597,-695.01 618.1719,-681.151"/>
<polygon fill="#000000" stroke="#000000" points="618.8757,-684.5798 628.0257,-679.2387 617.5421,-677.708 618.8757,-684.5798"/>
</g>
<!-- CollectMultipleMetrics&#45;&gt;SampleMarkdown -->
<g id="edge8" class="edge">
<title>CollectMultipleMetrics&#45;&gt;SampleMarkdown</title>
<path fill="none" stroke="#000000" d="M123.9427,-648.7542C140.7825,-638.9763 162.0327,-626.6374 180.0957,-616.1492"/>
<polygon fill="#000000" stroke="#000000" points="182.3203,-618.9048 189.2107,-610.8566 178.8053,-612.8513 182.3203,-618.9048"/>
</g>
<!-- Cleanup -->
<g id="node29" class="node">
<title>Cleanup</title>
<ellipse fill="none" stroke="#000000" cx="487.2416" cy="-18" rx="40.0939" ry="18"/>
<text text-anchor="middle" x="487.2416" y="-14.3" font-family="Times,serif" font-size="14.00" fill="#000000">Cleanup</text>
</g>
<!-- CollectMultipleMetrics&#45;&gt;Cleanup -->
<g id="edge36" class="edge">
<title>CollectMultipleMetrics&#45;&gt;Cleanup</title>
<path fill="none" stroke="#000000" d="M96.1064,-647.8374C98.7426,-620.55 103.2416,-567.3383 103.2416,-522 103.2416,-522 103.2416,-522 103.2416,-162 103.2416,-91.099 335.6524,-43.3616 438.857,-25.6585"/>
<polygon fill="#000000" stroke="#000000" points="439.7415,-29.0587 449.0184,-23.9411 438.5749,-22.1566 439.7415,-29.0587"/>
</g>
<!-- CalculateHsMetrics&#45;&gt;SampleMarkdown -->
<g id="edge7" class="edge">
<title>CalculateHsMetrics&#45;&gt;SampleMarkdown</title>
<path fill="none" stroke="#000000" d="M299.6125,-648.7542C285.4514,-639.2252 267.6758,-627.2641 252.3537,-616.9539"/>
<polygon fill="#000000" stroke="#000000" points="253.9122,-613.784 243.6617,-611.1051 250.0043,-619.5917 253.9122,-613.784"/>
</g>
<!-- CalculateHsMetrics&#45;&gt;Cleanup -->
<g id="edge35" class="edge">
<title>CalculateHsMetrics&#45;&gt;Cleanup</title>
<path fill="none" stroke="#000000" d="M325.2416,-647.8146C325.2416,-620.4983 325.2416,-567.25 325.2416,-522 325.2416,-522 325.2416,-522 325.2416,-162 325.2416,-119.0818 330.3701,-102.8167 360.2416,-72 381.8301,-49.7284 414.0626,-36.1727 440.6526,-28.2132"/>
<polygon fill="#000000" stroke="#000000" points="441.8567,-31.5103 450.5332,-25.4302 439.9588,-24.7725 441.8567,-31.5103"/>
</g>
<!-- Fastqc -->
<g id="node9" class="node">
<title>Fastqc</title>
<ellipse fill="none" stroke="#000000" cx="458.2416" cy="-666" rx="33.5952" ry="18"/>
<text text-anchor="middle" x="458.2416" y="-662.3" font-family="Times,serif" font-size="14.00" fill="#000000">Fastqc</text>
</g>
<!-- Fastqc&#45;&gt;SampleMarkdown -->
<g id="edge9" class="edge">
<title>Fastqc&#45;&gt;SampleMarkdown</title>
<path fill="none" stroke="#000000" d="M432.07,-654.4139C426.5618,-652.1539 420.7504,-649.8991 415.2416,-648 371.5392,-632.9336 321.2659,-619.2098 282.444,-609.3676"/>
<polygon fill="#000000" stroke="#000000" points="282.8752,-605.8672 272.3236,-606.8238 281.1688,-612.656 282.8752,-605.8672"/>
</g>
<!-- Fastqc&#45;&gt;Cleanup -->
<g id="edge37" class="edge">
<title>Fastqc&#45;&gt;Cleanup</title>
<path fill="none" stroke="#000000" d="M439.4727,-650.9205C411.7868,-626.8425 363.2416,-576.8091 363.2416,-522 363.2416,-522 363.2416,-522 363.2416,-162 363.2416,-121.1184 357.4382,-104.4976 382.2416,-72 397.2868,-52.2878 421.5596,-39.1472 442.9794,-30.7692"/>
<polygon fill="#000000" stroke="#000000" points="444.3939,-33.9784 452.5767,-27.2485 441.9831,-27.4067 444.3939,-33.9784"/>
</g>
<!-- BQSR -->
<g id="node11" class="node">
<title>BQSR</title>
<ellipse fill="none" stroke="#000000" cx="698.2416" cy="-594" rx="33.5952" ry="18"/>
<text text-anchor="middle" x="698.2416" y="-590.3" font-family="Times,serif" font-size="14.00" fill="#000000">BQSR</text>
</g>
<!-- IndelRealignmentKnown&#45;&gt;BQSR -->
<g id="edge12" class="edge">
<title>IndelRealignmentKnown&#45;&gt;BQSR</title>
<path fill="none" stroke="#000000" d="M696.7463,-647.8314C696.9602,-640.131 697.2146,-630.9743 697.4523,-622.4166"/>
<polygon fill="#000000" stroke="#000000" points="700.951,-622.5066 697.7302,-612.4133 693.9537,-622.3122 700.951,-622.5066"/>
</g>
<!-- Varscan2 -->
<g id="node27" class="node">
<title>Varscan2</title>
<ellipse fill="none" stroke="#000000" cx="446.2416" cy="-450" rx="44.393" ry="18"/>
<text text-anchor="middle" x="446.2416" y="-446.3" font-family="Times,serif" font-size="14.00" fill="#000000">Varscan2</text>
</g>
<!-- IndelRealignmentKnown&#45;&gt;Varscan2 -->
<g id="edge29" class="edge">
<title>IndelRealignmentKnown&#45;&gt;Varscan2</title>
<path fill="none" stroke="#000000" d="M624.1529,-653.4283C560.4519,-641.6357 476.0091,-624.0572 465.2416,-612 432.507,-575.3444 435.4232,-513.937 440.6976,-478.1831"/>
<polygon fill="#000000" stroke="#000000" points="444.2085,-478.4012 442.3733,-467.9665 437.3008,-477.2681 444.2085,-478.4012"/>
</g>
<!-- AnalyseCovariants -->
<g id="node12" class="node">
<title>AnalyseCovariants</title>
<ellipse fill="none" stroke="#000000" cx="1156.2416" cy="-378" rx="77.1866" ry="18"/>
<text text-anchor="middle" x="1156.2416" y="-374.3" font-family="Times,serif" font-size="14.00" fill="#000000">AnalyseCovariants</text>
</g>
<!-- BQSR&#45;&gt;AnalyseCovariants -->
<g id="edge13" class="edge">
<title>BQSR&#45;&gt;AnalyseCovariants</title>
<path fill="none" stroke="#000000" d="M723.8471,-581.9241C798.7929,-546.5785 1018.3352,-443.0388 1112.5139,-398.6227"/>
<polygon fill="#000000" stroke="#000000" points="1114.211,-401.6921 1121.7626,-394.2609 1111.225,-395.3609 1114.211,-401.6921"/>
</g>
<!-- HaplotypeCaller -->
<g id="node13" class="node">
<title>HaplotypeCaller</title>
<ellipse fill="none" stroke="#000000" cx="560.2416" cy="-522" rx="68.7879" ry="18"/>
<text text-anchor="middle" x="560.2416" y="-518.3" font-family="Times,serif" font-size="14.00" fill="#000000">HaplotypeCaller</text>
</g>
<!-- BQSR&#45;&gt;HaplotypeCaller -->
<g id="edge14" class="edge">
<title>BQSR&#45;&gt;HaplotypeCaller</title>
<path fill="none" stroke="#000000" d="M673.8877,-581.2936C653.5315,-570.6729 624.09,-555.3122 600.274,-542.8865"/>
<polygon fill="#000000" stroke="#000000" points="601.6064,-539.6339 591.1216,-538.1113 598.3684,-545.84 601.6064,-539.6339"/>
</g>
<!-- AnalyseCovariants&#45;&gt;Cleanup -->
<g id="edge38" class="edge">
<title>AnalyseCovariants&#45;&gt;Cleanup</title>
<path fill="none" stroke="#000000" d="M1214.3034,-365.9338C1311.4114,-344.066 1496.2416,-294.4978 1496.2416,-234 1496.2416,-234 1496.2416,-234 1496.2416,-162 1496.2416,-64.0587 741.5518,-27.8197 537.5528,-19.813"/>
<polygon fill="#000000" stroke="#000000" points="537.5462,-16.3102 527.4183,-19.4208 537.2754,-23.305 537.5462,-16.3102"/>
</g>
<!-- MergeVariants -->
<g id="node15" class="node">
<title>MergeVariants</title>
<ellipse fill="none" stroke="#000000" cx="616.2416" cy="-450" rx="63.8893" ry="18"/>
<text text-anchor="middle" x="616.2416" y="-446.3" font-family="Times,serif" font-size="14.00" fill="#000000">MergeVariants</text>
</g>
<!-- HaplotypeCaller&#45;&gt;MergeVariants -->
<g id="edge16" class="edge">
<title>HaplotypeCaller&#45;&gt;MergeVariants</title>
<path fill="none" stroke="#000000" d="M574.0843,-504.2022C580.798,-495.5704 588.9852,-485.0439 596.3526,-475.5717"/>
<polygon fill="#000000" stroke="#000000" points="599.1815,-477.6354 602.5582,-467.593 593.656,-473.3378 599.1815,-477.6354"/>
</g>
<!-- HaplotypeCaller&#45;&gt;Varscan2 -->
<g id="edge30" class="edge">
<title>HaplotypeCaller&#45;&gt;Varscan2</title>
<path fill="none" stroke="#000000" d="M533.8012,-505.3008C517.4459,-494.9711 496.3247,-481.6314 478.9244,-470.6417"/>
<polygon fill="#000000" stroke="#000000" points="480.5332,-467.5182 470.2093,-465.1374 476.7952,-473.4366 480.5332,-467.5182"/>
</g>
<!-- HaplotypeCaller&#45;&gt;Cleanup -->
<g id="edge40" class="edge">
<title>HaplotypeCaller&#45;&gt;Cleanup</title>
<path fill="none" stroke="#000000" d="M551.3345,-503.8553C539.0058,-477.0234 518.2416,-424.875 518.2416,-378 518.2416,-378 518.2416,-378 518.2416,-234 518.2416,-161.9123 526.395,-142.2546 510.2416,-72 508.1738,-63.0064 504.6906,-53.6181 501.0523,-45.2398"/>
<polygon fill="#000000" stroke="#000000" points="504.1407,-43.5782 496.7854,-35.9526 497.7799,-46.5006 504.1407,-43.5782"/>
</g>
<!-- CreatePaddedTargets -->
<g id="node14" class="node">
<title>CreatePaddedTargets</title>
<ellipse fill="none" stroke="#000000" cx="560.2416" cy="-594" rx="85.5853" ry="18"/>
<text text-anchor="middle" x="560.2416" y="-590.3" font-family="Times,serif" font-size="14.00" fill="#000000">CreatePaddedTargets</text>
</g>
<!-- CreatePaddedTargets&#45;&gt;HaplotypeCaller -->
<g id="edge15" class="edge">
<title>CreatePaddedTargets&#45;&gt;HaplotypeCaller</title>
<path fill="none" stroke="#000000" d="M560.2416,-575.8314C560.2416,-568.131 560.2416,-558.9743 560.2416,-550.4166"/>
<polygon fill="#000000" stroke="#000000" points="563.7417,-550.4132 560.2416,-540.4133 556.7417,-550.4133 563.7417,-550.4132"/>
</g>
<!-- VariantAnnotation -->
<g id="node16" class="node">
<title>VariantAnnotation</title>
<ellipse fill="none" stroke="#000000" cx="645.2416" cy="-378" rx="76.8869" ry="18"/>
<text text-anchor="middle" x="645.2416" y="-374.3" font-family="Times,serif" font-size="14.00" fill="#000000">VariantAnnotation</text>
</g>
<!-- MergeVariants&#45;&gt;VariantAnnotation -->
<g id="edge17" class="edge">
<title>MergeVariants&#45;&gt;VariantAnnotation</title>
<path fill="none" stroke="#000000" d="M623.5596,-431.8314C626.7293,-423.9617 630.5116,-414.5712 634.023,-405.8533"/>
<polygon fill="#000000" stroke="#000000" points="637.3356,-406.9968 637.8252,-396.4133 630.8425,-404.3815 637.3356,-406.9968"/>
</g>
<!-- CustTumorNormalAnnotations -->
<g id="node17" class="node">
<title>CustTumorNormalAnnotations</title>
<ellipse fill="none" stroke="#000000" cx="668.2416" cy="-306" rx="121.5784" ry="18"/>
<text text-anchor="middle" x="668.2416" y="-302.3" font-family="Times,serif" font-size="14.00" fill="#000000">CustTumorNormalAnnotations</text>
</g>
<!-- VariantAnnotation&#45;&gt;CustTumorNormalAnnotations -->
<g id="edge18" class="edge">
<title>VariantAnnotation&#45;&gt;CustTumorNormalAnnotations</title>
<path fill="none" stroke="#000000" d="M651.0455,-359.8314C653.5324,-352.0463 656.4947,-342.7729 659.2542,-334.1347"/>
<polygon fill="#000000" stroke="#000000" points="662.6506,-335.0041 662.3596,-324.4133 655.9826,-332.874 662.6506,-335.0041"/>
</g>
<!-- SelectIndelsWithPolymorfic -->
<g id="node18" class="node">
<title>SelectIndelsWithPolymorfic</title>
<ellipse fill="none" stroke="#000000" cx="1342.2416" cy="-234" rx="111.5806" ry="18"/>
<text text-anchor="middle" x="1342.2416" y="-230.3" font-family="Times,serif" font-size="14.00" fill="#000000">SelectIndelsWithPolymorfic</text>
</g>
<!-- CustTumorNormalAnnotations&#45;&gt;SelectIndelsWithPolymorfic -->
<g id="edge19" class="edge">
<title>CustTumorNormalAnnotations&#45;&gt;SelectIndelsWithPolymorfic</title>
<path fill="none" stroke="#000000" d="M772.1834,-296.6029C880.8108,-286.544 1056.15,-269.6366 1207.2416,-252 1220.155,-250.4927 1233.7489,-248.8024 1247.1355,-247.0775"/>
<polygon fill="#000000" stroke="#000000" points="1247.8517,-250.5139 1257.3171,-245.754 1246.9493,-243.5723 1247.8517,-250.5139"/>
</g>
<!-- SelectSNVWithPolymorfic -->
<g id="node19" class="node">
<title>SelectSNVWithPolymorfic</title>
<ellipse fill="none" stroke="#000000" cx="661.2416" cy="-234" rx="107.781" ry="18"/>
<text text-anchor="middle" x="661.2416" y="-230.3" font-family="Times,serif" font-size="14.00" fill="#000000">SelectSNVWithPolymorfic</text>
</g>
<!-- CustTumorNormalAnnotations&#45;&gt;SelectSNVWithPolymorfic -->
<g id="edge20" class="edge">
<title>CustTumorNormalAnnotations&#45;&gt;SelectSNVWithPolymorfic</title>
<path fill="none" stroke="#000000" d="M666.4752,-287.8314C665.7266,-280.131 664.8364,-270.9743 664.0044,-262.4166"/>
<polygon fill="#000000" stroke="#000000" points="667.4831,-262.0276 663.0318,-252.4133 660.516,-262.7051 667.4831,-262.0276"/>
</g>
<!-- IndelVariantsToTable -->
<g id="node20" class="node">
<title>IndelVariantsToTable</title>
<ellipse fill="none" stroke="#000000" cx="1380.2416" cy="-162" rx="88.2844" ry="18"/>
<text text-anchor="middle" x="1380.2416" y="-158.3" font-family="Times,serif" font-size="14.00" fill="#000000">IndelVariantsToTable</text>
</g>
<!-- SelectIndelsWithPolymorfic&#45;&gt;IndelVariantsToTable -->
<g id="edge21" class="edge">
<title>SelectIndelsWithPolymorfic&#45;&gt;IndelVariantsToTable</title>
<path fill="none" stroke="#000000" d="M1351.8306,-215.8314C1356.1387,-207.6688 1361.3102,-197.87 1366.0535,-188.8827"/>
<polygon fill="#000000" stroke="#000000" points="1369.215,-190.3909 1370.7873,-179.9134 1363.0243,-187.1236 1369.215,-190.3909"/>
</g>
<!-- SNVVariantsToTable -->
<g id="node21" class="node">
<title>SNVVariantsToTable</title>
<ellipse fill="none" stroke="#000000" cx="634.2416" cy="-162" rx="87.9851" ry="18"/>
<text text-anchor="middle" x="634.2416" y="-158.3" font-family="Times,serif" font-size="14.00" fill="#000000">SNVVariantsToTable</text>
</g>
<!-- SelectSNVWithPolymorfic&#45;&gt;SNVVariantsToTable -->
<g id="edge22" class="edge">
<title>SelectSNVWithPolymorfic&#45;&gt;SNVVariantsToTable</title>
<path fill="none" stroke="#000000" d="M654.4284,-215.8314C651.4773,-207.9617 647.9558,-198.5712 644.6866,-189.8533"/>
<polygon fill="#000000" stroke="#000000" points="647.9351,-188.5476 641.1466,-180.4133 641.3808,-191.0055 647.9351,-188.5476"/>
</g>
<!-- TablesToXlsx -->
<g id="node26" class="node">
<title>TablesToXlsx</title>
<ellipse fill="none" stroke="#000000" cx="751.2416" cy="-90" rx="60.3893" ry="18"/>
<text text-anchor="middle" x="751.2416" y="-86.3" font-family="Times,serif" font-size="14.00" fill="#000000">TablesToXlsx</text>
</g>
<!-- IndelVariantsToTable&#45;&gt;TablesToXlsx -->
<g id="edge25" class="edge">
<title>IndelVariantsToTable&#45;&gt;TablesToXlsx</title>
<path fill="none" stroke="#000000" d="M1316.3132,-149.4936C1304.9886,-147.4968 1293.2877,-145.5735 1282.2416,-144 1117.0548,-120.4692 921.5364,-103.3244 820.0815,-95.2237"/>
<polygon fill="#000000" stroke="#000000" points="820.212,-91.7232 809.9664,-94.4212 819.6583,-98.7013 820.212,-91.7232"/>
</g>
<!-- SNVVariantsToTable&#45;&gt;TablesToXlsx -->
<g id="edge26" class="edge">
<title>SNVVariantsToTable&#45;&gt;TablesToXlsx</title>
<path fill="none" stroke="#000000" d="M662.2661,-144.7542C678.3855,-134.8346 698.7879,-122.2792 715.9882,-111.6944"/>
<polygon fill="#000000" stroke="#000000" points="717.9691,-114.5851 724.6514,-106.3632 714.3004,-108.6234 717.9691,-114.5851"/>
</g>
<!-- PlotGenome -->
<g id="node28" class="node">
<title>PlotGenome</title>
<ellipse fill="none" stroke="#000000" cx="446.2416" cy="-90" rx="55.4913" ry="18"/>
<text text-anchor="middle" x="446.2416" y="-86.3" font-family="Times,serif" font-size="14.00" fill="#000000">PlotGenome</text>
</g>
<!-- SNVVariantsToTable&#45;&gt;PlotGenome -->
<g id="edge32" class="edge">
<title>SNVVariantsToTable&#45;&gt;PlotGenome</title>
<path fill="none" stroke="#000000" d="M592.5183,-146.0209C562.649,-134.5815 522.4538,-119.1876 491.7571,-107.4314"/>
<polygon fill="#000000" stroke="#000000" points="492.7399,-104.06 482.1495,-103.7519 490.2363,-110.597 492.7399,-104.06"/>
</g>
<!-- SelectIndels -->
<g id="node22" class="node">
<title>SelectIndels</title>
<ellipse fill="none" stroke="#000000" cx="1144.2416" cy="-234" rx="53.8905" ry="18"/>
<text text-anchor="middle" x="1144.2416" y="-230.3" font-family="Times,serif" font-size="14.00" fill="#000000">SelectIndels</text>
</g>
<!-- IndelVariantsToDescriptionTable -->
<g id="node23" class="node">
<title>IndelVariantsToDescriptionTable</title>
<ellipse fill="none" stroke="#000000" cx="1144.2416" cy="-162" rx="129.1772" ry="18"/>
<text text-anchor="middle" x="1144.2416" y="-158.3" font-family="Times,serif" font-size="14.00" fill="#000000">IndelVariantsToDescriptionTable</text>
</g>
<!-- SelectIndels&#45;&gt;IndelVariantsToDescriptionTable -->
<g id="edge23" class="edge">
<title>SelectIndels&#45;&gt;IndelVariantsToDescriptionTable</title>
<path fill="none" stroke="#000000" d="M1144.2416,-215.8314C1144.2416,-208.131 1144.2416,-198.9743 1144.2416,-190.4166"/>
<polygon fill="#000000" stroke="#000000" points="1147.7417,-190.4132 1144.2416,-180.4133 1140.7417,-190.4133 1147.7417,-190.4132"/>
</g>
<!-- IndelVariantsToDescriptionTable&#45;&gt;TablesToXlsx -->
<g id="edge28" class="edge">
<title>IndelVariantsToDescriptionTable&#45;&gt;TablesToXlsx</title>
<path fill="none" stroke="#000000" d="M1065.6568,-147.6028C991.2983,-133.9799 881.1917,-113.8077 812.95,-101.3054"/>
<polygon fill="#000000" stroke="#000000" points="813.249,-97.802 802.782,-99.4425 811.9875,-104.6874 813.249,-97.802"/>
</g>
<!-- SelectSNV -->
<g id="node24" class="node">
<title>SelectSNV</title>
<ellipse fill="none" stroke="#000000" cx="868.2416" cy="-234" rx="50.0912" ry="18"/>
<text text-anchor="middle" x="868.2416" y="-230.3" font-family="Times,serif" font-size="14.00" fill="#000000">SelectSNV</text>
</g>
<!-- SNVVariantsToDescriptionTable -->
<g id="node25" class="node">
<title>SNVVariantsToDescriptionTable</title>
<ellipse fill="none" stroke="#000000" cx="868.2416" cy="-162" rx="128.8774" ry="18"/>
<text text-anchor="middle" x="868.2416" y="-158.3" font-family="Times,serif" font-size="14.00" fill="#000000">SNVVariantsToDescriptionTable</text>
</g>
<!-- SelectSNV&#45;&gt;SNVVariantsToDescriptionTable -->
<g id="edge24" class="edge">
<title>SelectSNV&#45;&gt;SNVVariantsToDescriptionTable</title>
<path fill="none" stroke="#000000" d="M868.2416,-215.8314C868.2416,-208.131 868.2416,-198.9743 868.2416,-190.4166"/>
<polygon fill="#000000" stroke="#000000" points="871.7417,-190.4132 868.2416,-180.4133 864.7417,-190.4133 871.7417,-190.4132"/>
</g>
<!-- SNVVariantsToDescriptionTable&#45;&gt;TablesToXlsx -->
<g id="edge27" class="edge">
<title>SNVVariantsToDescriptionTable&#45;&gt;TablesToXlsx</title>
<path fill="none" stroke="#000000" d="M839.6202,-144.3868C823.6047,-134.5311 803.5052,-122.1622 786.5223,-111.7111"/>
<polygon fill="#000000" stroke="#000000" points="788.3144,-108.7044 777.9635,-106.4442 784.6457,-114.666 788.3144,-108.7044"/>
</g>
<!-- TablesToXlsx&#45;&gt;Cleanup -->
<g id="edge34" class="edge">
<title>TablesToXlsx&#45;&gt;Cleanup</title>
<path fill="none" stroke="#000000" d="M704.3213,-78.5914C654.9654,-65.7087 578.1279,-44.778 530.2795,-31.2003"/>
<polygon fill="#000000" stroke="#000000" points="531.106,-27.7965 520.5295,-28.4201 529.1864,-34.5282 531.106,-27.7965"/>
</g>
<!-- TablesToXlsx&#45;&gt;Cleanup -->
<g id="edge39" class="edge">
<title>TablesToXlsx&#45;&gt;Cleanup</title>
<path fill="none" stroke="#000000" d="M709.0668,-77.0447C660.9176,-63.371 582.627,-42.0452 533.0257,-29.1122"/>
<polygon fill="#000000" stroke="#000000" points="533.7603,-25.687 523.2018,-26.5639 532.0026,-32.4627 533.7603,-25.687"/>
</g>
<!-- Varscan2&#45;&gt;PlotGenome -->
<g id="edge31" class="edge">
<title>Varscan2&#45;&gt;PlotGenome</title>
<path fill="none" stroke="#000000" d="M446.2416,-431.8146C446.2416,-404.4983 446.2416,-351.25 446.2416,-306 446.2416,-306 446.2416,-306 446.2416,-234 446.2416,-193.876 446.2416,-147.4631 446.2416,-118.4177"/>
<polygon fill="#000000" stroke="#000000" points="449.7417,-118.1853 446.2416,-108.1854 442.7417,-118.1854 449.7417,-118.1853"/>
</g>
<!-- PlotGenome&#45;&gt;Cleanup -->
<g id="edge33" class="edge">
<title>PlotGenome&#45;&gt;Cleanup</title>
<path fill="none" stroke="#000000" d="M456.3765,-72.2022C461.1429,-63.832 466.9238,-53.6802 472.188,-44.4356"/>
<polygon fill="#000000" stroke="#000000" points="475.3164,-46.0148 477.2234,-35.593 469.2335,-42.5509 475.3164,-46.0148"/>
</g>
</g>
</svg>
