<?xml version="1.0" encoding="UTF-8" standalone="no"?>
<!DOCTYPE svg PUBLIC "-//W3C//DTD SVG 1.1//EN"
 "http://www.w3.org/Graphics/SVG/1.1/DTD/svg11.dtd">
<!-- Generated by graphviz version 2.40.1 (0)
 -->
<!-- Title: workflow_iont_met Pages: 1 -->
<svg width="830pt" height="404pt"
 viewBox="0.00 0.00 830.04 404.00" xmlns="http://www.w3.org/2000/svg" xmlns:xlink="http://www.w3.org/1999/xlink">
<g id="graph0" class="graph" transform="scale(1 1) rotate(0) translate(4 400)">
<title>workflow_iont_met</title>
<polygon fill="#ffffff" stroke="transparent" points="-4,4 -4,-400 826.0386,-400 826.0386,4 -4,4"/>
<!-- BwaMemAlignment -->
<g id="node1" class="node">
<title>BwaMemAlignment</title>
<ellipse fill="none" stroke="#000000" cx="287.2416" cy="-378" rx="84.485" ry="18"/>
<text text-anchor="middle" x="287.2416" y="-374.3" font-family="Times,serif" font-size="14.00" fill="#000000">BwaMemAlignment</text>
</g>
<!-- AddOrReplaceReadGroups -->
<g id="node2" class="node">
<title>AddOrReplaceReadGroups</title>
<ellipse fill="none" stroke="#000000" cx="287.2416" cy="-306" rx="107.4815" ry="18"/>
<text text-anchor="middle" x="287.2416" y="-302.3" font-family="Times,serif" font-size="14.00" fill="#000000">AddOrReplaceReadGroups</text>
</g>
<!-- BwaMemAlignment&#45;&gt;AddOrReplaceReadGroups -->
<g id="edge1" class="edge">
<title>BwaMemAlignment&#45;&gt;AddOrReplaceReadGroups</title>
<path fill="none" stroke="#000000" d="M287.2416,-359.8314C287.2416,-352.131 287.2416,-342.9743 287.2416,-334.4166"/>
<polygon fill="#000000" stroke="#000000" points="290.7417,-334.4132 287.2416,-324.4133 283.7417,-334.4133 290.7417,-334.4132"/>
</g>
<!-- SelectSpanningReads -->
<g id="node3" class="node">
<title>SelectSpanningReads</title>
<ellipse fill="none" stroke="#000000" cx="287.2416" cy="-234" rx="87.1846" ry="18"/>
<text text-anchor="middle" x="287.2416" y="-230.3" font-family="Times,serif" font-size="14.00" fill="#000000">SelectSpanningReads</text>
</g>
<!-- AddOrReplaceReadGroups&#45;&gt;SelectSpanningReads -->
<g id="edge2" class="edge">
<title>AddOrReplaceReadGroups&#45;&gt;SelectSpanningReads</title>
<path fill="none" stroke="#000000" d="M287.2416,-287.8314C287.2416,-280.131 287.2416,-270.9743 287.2416,-262.4166"/>
<polygon fill="#000000" stroke="#000000" points="290.7417,-262.4132 287.2416,-252.4133 283.7417,-262.4133 290.7417,-262.4132"/>
</g>
<!-- MergeBamFiles -->
<g id="node4" class="node">
<title>MergeBamFiles</title>
<ellipse fill="none" stroke="#000000" cx="287.2416" cy="-162" rx="68.4888" ry="18"/>
<text text-anchor="middle" x="287.2416" y="-158.3" font-family="Times,serif" font-size="14.00" fill="#000000">MergeBamFiles</text>
</g>
<!-- SelectSpanningReads&#45;&gt;MergeBamFiles -->
<g id="edge3" class="edge">
<title>SelectSpanningReads&#45;&gt;MergeBamFiles</title>
<path fill="none" stroke="#000000" d="M287.2416,-215.8314C287.2416,-208.131 287.2416,-198.9743 287.2416,-190.4166"/>
<polygon fill="#000000" stroke="#000000" points="290.7417,-190.4132 287.2416,-180.4133 283.7417,-190.4133 290.7417,-190.4132"/>
</g>
<!-- CollectMultipleMetrics -->
<g id="node5" class="node">
<title>CollectMultipleMetrics</title>
<ellipse fill="none" stroke="#000000" cx="94.2416" cy="-90" rx="94.4839" ry="18"/>
<text text-anchor="middle" x="94.2416" y="-86.3" font-family="Times,serif" font-size="14.00" fill="#000000">CollectMultipleMetrics</text>
</g>
<!-- MergeBamFiles&#45;&gt;CollectMultipleMetrics -->
<g id="edge4" class="edge">
<title>MergeBamFiles&#45;&gt;CollectMultipleMetrics</title>
<path fill="none" stroke="#000000" d="M247.7195,-147.256C218.6359,-136.4061 178.7947,-121.5431 146.9938,-109.6796"/>
<polygon fill="#000000" stroke="#000000" points="147.9961,-106.3179 137.4035,-106.1018 145.5494,-112.8764 147.9961,-106.3179"/>
</g>
<!-- CalculateHsMetrics -->
<g id="node6" class="node">
<title>CalculateHsMetrics</title>
<ellipse fill="none" stroke="#000000" cx="287.2416" cy="-90" rx="81.4863" ry="18"/>
<text text-anchor="middle" x="287.2416" y="-86.3" font-family="Times,serif" font-size="14.00" fill="#000000">CalculateHsMetrics</text>
</g>
<!-- MergeBamFiles&#45;&gt;CalculateHsMetrics -->
<g id="edge5" class="edge">
<title>MergeBamFiles&#45;&gt;CalculateHsMetrics</title>
<path fill="none" stroke="#000000" d="M287.2416,-143.8314C287.2416,-136.131 287.2416,-126.9743 287.2416,-118.4166"/>
<polygon fill="#000000" stroke="#000000" points="290.7417,-118.4132 287.2416,-108.4133 283.7417,-118.4133 290.7417,-118.4132"/>
</g>
<!-- CollectHsMetrics -->
<g id="node7" class="node">
<title>CollectHsMetrics</title>
<ellipse fill="none" stroke="#000000" cx="460.2416" cy="-90" rx="73.387" ry="18"/>
<text text-anchor="middle" x="460.2416" y="-86.3" font-family="Times,serif" font-size="14.00" fill="#000000">CollectHsMetrics</text>
</g>
<!-- MergeBamFiles&#45;&gt;CollectHsMetrics -->
<g id="edge6" class="edge">
<title>MergeBamFiles&#45;&gt;CollectHsMetrics</title>
<path fill="none" stroke="#000000" d="M323.9305,-146.7307C350.0401,-135.8642 385.3346,-121.1752 413.4674,-109.4667"/>
<polygon fill="#000000" stroke="#000000" points="414.8224,-112.6939 422.7099,-105.6202 412.1327,-106.2313 414.8224,-112.6939"/>
</g>
<!-- SampleMarkdown -->
<g id="node10" class="node">
<title>SampleMarkdown</title>
<ellipse fill="none" stroke="#000000" cx="465.2416" cy="-18" rx="76.8869" ry="18"/>
<text text-anchor="middle" x="465.2416" y="-14.3" font-family="Times,serif" font-size="14.00" fill="#000000">SampleMarkdown</text>
</g>
<!-- CollectMultipleMetrics&#45;&gt;SampleMarkdown -->
<g id="edge10" class="edge">
<title>CollectMultipleMetrics&#45;&gt;SampleMarkdown</title>
<path fill="none" stroke="#000000" d="M160.569,-77.1278C226.8824,-64.2584 328.4321,-44.5506 395.8172,-31.4732"/>
<polygon fill="#000000" stroke="#000000" points="396.7653,-34.8546 405.9153,-29.5135 395.4317,-27.9828 396.7653,-34.8546"/>
</g>
<!-- CalculateHsMetrics&#45;&gt;SampleMarkdown -->
<g id="edge9" class="edge">
<title>CalculateHsMetrics&#45;&gt;SampleMarkdown</title>
<path fill="none" stroke="#000000" d="M326.3045,-74.1993C353.0604,-63.3767 388.7189,-48.953 417.2115,-37.4279"/>
<polygon fill="#000000" stroke="#000000" points="418.6184,-40.6344 426.5763,-33.6399 415.9935,-34.1452 418.6184,-40.6344"/>
</g>
<!-- IndelRealignmentKnown -->
<g id="node8" class="node">
<title>IndelRealignmentKnown</title>
<ellipse fill="none" stroke="#000000" cx="644.2416" cy="-162" rx="100.1823" ry="18"/>
<text text-anchor="middle" x="644.2416" y="-158.3" font-family="Times,serif" font-size="14.00" fill="#000000">IndelRealignmentKnown</text>
</g>
<!-- GatkDepthOfCoverage -->
<g id="node9" class="node">
<title>GatkDepthOfCoverage</title>
<ellipse fill="none" stroke="#000000" cx="644.2416" cy="-90" rx="92.0841" ry="18"/>
<text text-anchor="middle" x="644.2416" y="-86.3" font-family="Times,serif" font-size="14.00" fill="#000000">GatkDepthOfCoverage</text>
</g>
<!-- IndelRealignmentKnown&#45;&gt;GatkDepthOfCoverage -->
<g id="edge7" class="edge">
<title>IndelRealignmentKnown&#45;&gt;GatkDepthOfCoverage</title>
<path fill="none" stroke="#000000" d="M644.2416,-143.8314C644.2416,-136.131 644.2416,-126.9743 644.2416,-118.4166"/>
<polygon fill="#000000" stroke="#000000" points="647.7417,-118.4132 644.2416,-108.4133 640.7417,-118.4133 647.7417,-118.4132"/>
</g>
<!-- GatkDepthOfCoverage&#45;&gt;SampleMarkdown -->
<g id="edge8" class="edge">
<title>GatkDepthOfCoverage&#45;&gt;SampleMarkdown</title>
<path fill="none" stroke="#000000" d="M603.6238,-73.6621C576.9576,-62.936 541.9402,-48.8508 513.8034,-37.5332"/>
<polygon fill="#000000" stroke="#000000" points="514.7467,-34.1402 504.163,-33.6555 512.1345,-40.6345 514.7467,-34.1402"/>
</g>
<!-- Fastqc -->
<g id="node11" class="node">
<title>Fastqc</title>
<ellipse fill="none" stroke="#000000" cx="788.2416" cy="-90" rx="33.5952" ry="18"/>
<text text-anchor="middle" x="788.2416" y="-86.3" font-family="Times,serif" font-size="14.00" fill="#000000">Fastqc</text>
</g>
<!-- Fastqc&#45;&gt;SampleMarkdown -->
<g id="edge11" class="edge">
<title>Fastqc&#45;&gt;SampleMarkdown</title>
<path fill="none" stroke="#000000" d="M762.177,-78.083C756.6611,-75.8469 750.8194,-73.6856 745.2416,-72 677.8475,-51.6331 598.9234,-37.2302 542.077,-28.4503"/>
<polygon fill="#000000" stroke="#000000" points="542.4964,-24.9739 532.0836,-26.9296 541.4432,-31.8942 542.4964,-24.9739"/>
</g>
</g>
</svg>
