<?xml version="1.0" encoding="UTF-8" standalone="no"?>
<!DOCTYPE svg PUBLIC "-//W3C//DTD SVG 1.1//EN"
 "http://www.w3.org/Graphics/SVG/1.1/DTD/svg11.dtd">
<!-- Generated by graphviz version 2.40.1 (0)
 -->
<!-- Title: workflow_iont Pages: 1 -->
<svg width="2311pt" height="1052pt"
 viewBox="0.00 0.00 2310.58 1052.00" xmlns="http://www.w3.org/2000/svg" xmlns:xlink="http://www.w3.org/1999/xlink">
<g id="graph0" class="graph" transform="scale(1 1) rotate(0) translate(4 1048)">
<title>workflow_iont</title>
<polygon fill="#ffffff" stroke="transparent" points="-4,4 -4,-1048 2306.5825,-1048 2306.5825,4 -4,4"/>
<!-- BwaMemAlignment -->
<g id="node1" class="node">
<title>BwaMemAlignment</title>
<ellipse fill="none" stroke="#000000" cx="748.2393" cy="-1026" rx="84.485" ry="18"/>
<text text-anchor="middle" x="748.2393" y="-1022.3" font-family="Times,serif" font-size="14.00" fill="#000000">BwaMemAlignment</text>
</g>
<!-- AddOrReplaceReadGroups -->
<g id="node2" class="node">
<title>AddOrReplaceReadGroups</title>
<ellipse fill="none" stroke="#000000" cx="748.2393" cy="-954" rx="107.4815" ry="18"/>
<text text-anchor="middle" x="748.2393" y="-950.3" font-family="Times,serif" font-size="14.00" fill="#000000">AddOrReplaceReadGroups</text>
</g>
<!-- BwaMemAlignment&#45;&gt;AddOrReplaceReadGroups -->
<g id="edge1" class="edge">
<title>BwaMemAlignment&#45;&gt;AddOrReplaceReadGroups</title>
<path fill="none" stroke="#000000" d="M748.2393,-1007.8314C748.2393,-1000.131 748.2393,-990.9743 748.2393,-982.4166"/>
<polygon fill="#000000" stroke="#000000" points="751.7394,-982.4132 748.2393,-972.4133 744.7394,-982.4133 751.7394,-982.4132"/>
</g>
<!-- SelectSpanningReads -->
<g id="node3" class="node">
<title>SelectSpanningReads</title>
<ellipse fill="none" stroke="#000000" cx="748.2393" cy="-882" rx="87.1846" ry="18"/>
<text text-anchor="middle" x="748.2393" y="-878.3" font-family="Times,serif" font-size="14.00" fill="#000000">SelectSpanningReads</text>
</g>
<!-- AddOrReplaceReadGroups&#45;&gt;SelectSpanningReads -->
<g id="edge2" class="edge">
<title>AddOrReplaceReadGroups&#45;&gt;SelectSpanningReads</title>
<path fill="none" stroke="#000000" d="M748.2393,-935.8314C748.2393,-928.131 748.2393,-918.9743 748.2393,-910.4166"/>
<polygon fill="#000000" stroke="#000000" points="751.7394,-910.4132 748.2393,-900.4133 744.7394,-910.4133 751.7394,-910.4132"/>
</g>
<!-- MergeBamFiles -->
<g id="node4" class="node">
<title>MergeBamFiles</title>
<ellipse fill="none" stroke="#000000" cx="748.2393" cy="-810" rx="68.4888" ry="18"/>
<text text-anchor="middle" x="748.2393" y="-806.3" font-family="Times,serif" font-size="14.00" fill="#000000">MergeBamFiles</text>
</g>
<!-- SelectSpanningReads&#45;&gt;MergeBamFiles -->
<g id="edge3" class="edge">
<title>SelectSpanningReads&#45;&gt;MergeBamFiles</title>
<path fill="none" stroke="#000000" d="M748.2393,-863.8314C748.2393,-856.131 748.2393,-846.9743 748.2393,-838.4166"/>
<polygon fill="#000000" stroke="#000000" points="751.7394,-838.4132 748.2393,-828.4133 744.7394,-838.4133 751.7394,-838.4132"/>
</g>
<!-- MantaSV -->
<g id="node5" class="node">
<title>MantaSV</title>
<ellipse fill="none" stroke="#000000" cx="555.2393" cy="-738" rx="44.6926" ry="18"/>
<text text-anchor="middle" x="555.2393" y="-734.3" font-family="Times,serif" font-size="14.00" fill="#000000">MantaSV</text>
</g>
<!-- MergeBamFiles&#45;&gt;MantaSV -->
<g id="edge4" class="edge">
<title>MergeBamFiles&#45;&gt;MantaSV</title>
<path fill="none" stroke="#000000" d="M708.7172,-795.256C676.3966,-783.1986 630.7906,-766.1849 597.698,-753.8395"/>
<polygon fill="#000000" stroke="#000000" points="598.8813,-750.5454 588.2887,-750.3293 596.4346,-757.1039 598.8813,-750.5454"/>
</g>
<!-- CollectMultipleMetrics -->
<g id="node10" class="node">
<title>CollectMultipleMetrics</title>
<ellipse fill="none" stroke="#000000" cx="389.2393" cy="-378" rx="94.4839" ry="18"/>
<text text-anchor="middle" x="389.2393" y="-374.3" font-family="Times,serif" font-size="14.00" fill="#000000">CollectMultipleMetrics</text>
</g>
<!-- MergeBamFiles&#45;&gt;CollectMultipleMetrics -->
<g id="edge9" class="edge">
<title>MergeBamFiles&#45;&gt;CollectMultipleMetrics</title>
<path fill="none" stroke="#000000" d="M726.6824,-792.4692C698.6534,-767.5565 653.2393,-719.012 653.2393,-666 653.2393,-666 653.2393,-666 653.2393,-522 653.2393,-475.4378 525.0733,-423.8524 447.3437,-396.8487"/>
<polygon fill="#000000" stroke="#000000" points="448.2557,-393.4612 437.661,-393.521 445.9806,-400.0812 448.2557,-393.4612"/>
</g>
<!-- CalculateHsMetrics -->
<g id="node11" class="node">
<title>CalculateHsMetrics</title>
<ellipse fill="none" stroke="#000000" cx="582.2393" cy="-378" rx="81.4863" ry="18"/>
<text text-anchor="middle" x="582.2393" y="-374.3" font-family="Times,serif" font-size="14.00" fill="#000000">CalculateHsMetrics</text>
</g>
<!-- MergeBamFiles&#45;&gt;CalculateHsMetrics -->
<g id="edge10" class="edge">
<title>MergeBamFiles&#45;&gt;CalculateHsMetrics</title>
<path fill="none" stroke="#000000" d="M744.3025,-791.9156C738.7373,-764.7281 729.2393,-711.6422 729.2393,-666 729.2393,-666 729.2393,-666 729.2393,-522 729.2393,-464.2991 670.7273,-422.0878 627.5342,-398.7886"/>
<polygon fill="#000000" stroke="#000000" points="629.06,-395.6368 618.5764,-394.105 625.8166,-401.8401 629.06,-395.6368"/>
</g>
<!-- CollectHsMetrics -->
<g id="node12" class="node">
<title>CollectHsMetrics</title>
<ellipse fill="none" stroke="#000000" cx="1138.2393" cy="-738" rx="73.387" ry="18"/>
<text text-anchor="middle" x="1138.2393" y="-734.3" font-family="Times,serif" font-size="14.00" fill="#000000">CollectHsMetrics</text>
</g>
<!-- MergeBamFiles&#45;&gt;CollectHsMetrics -->
<g id="edge11" class="edge">
<title>MergeBamFiles&#45;&gt;CollectHsMetrics</title>
<path fill="none" stroke="#000000" d="M806.3639,-800.4782C868.1972,-790.1848 968.8136,-772.9656 1055.2393,-756 1061.3161,-754.8071 1067.633,-753.5211 1073.9477,-752.2047"/>
<polygon fill="#000000" stroke="#000000" points="1074.7714,-755.6081 1083.8341,-750.1201 1073.3271,-748.7587 1074.7714,-755.6081"/>
</g>
<!-- IndelRealignmentKnown -->
<g id="node15" class="node">
<title>IndelRealignmentKnown</title>
<ellipse fill="none" stroke="#000000" cx="946.2393" cy="-738" rx="100.1823" ry="18"/>
<text text-anchor="middle" x="946.2393" y="-734.3" font-family="Times,serif" font-size="14.00" fill="#000000">IndelRealignmentKnown</text>
</g>
<!-- MergeBamFiles&#45;&gt;IndelRealignmentKnown -->
<g id="edge15" class="edge">
<title>MergeBamFiles&#45;&gt;IndelRealignmentKnown</title>
<path fill="none" stroke="#000000" d="M788.7854,-795.256C818.6481,-784.3968 859.566,-769.5176 892.2046,-757.649"/>
<polygon fill="#000000" stroke="#000000" points="893.4077,-760.9358 901.6095,-754.229 891.0154,-754.3572 893.4077,-760.9358"/>
</g>
<!-- SamQC -->
<g id="node41" class="node">
<title>SamQC</title>
<ellipse fill="none" stroke="#000000" cx="796.2393" cy="-450" rx="38.9931" ry="18"/>
<text text-anchor="middle" x="796.2393" y="-446.3" font-family="Times,serif" font-size="14.00" fill="#000000">SamQC</text>
</g>
<!-- MergeBamFiles&#45;&gt;SamQC -->
<g id="edge47" class="edge">
<title>MergeBamFiles&#45;&gt;SamQC</title>
<path fill="none" stroke="#000000" d="M752.1761,-791.9156C757.7414,-764.7281 767.2393,-711.6422 767.2393,-666 767.2393,-666 767.2393,-666 767.2393,-594 767.2393,-552.8901 778.7385,-506.4549 787.2547,-477.702"/>
<polygon fill="#000000" stroke="#000000" points="790.659,-478.5376 790.2305,-467.9514 783.9639,-476.4943 790.659,-478.5376"/>
</g>
<!-- SnpEffManta -->
<g id="node6" class="node">
<title>SnpEffManta</title>
<ellipse fill="none" stroke="#000000" cx="530.2393" cy="-666" rx="58.4896" ry="18"/>
<text text-anchor="middle" x="530.2393" y="-662.3" font-family="Times,serif" font-size="14.00" fill="#000000">SnpEffManta</text>
</g>
<!-- MantaSV&#45;&gt;SnpEffManta -->
<g id="edge5" class="edge">
<title>MantaSV&#45;&gt;SnpEffManta</title>
<path fill="none" stroke="#000000" d="M548.9308,-719.8314C546.1562,-711.8406 542.8372,-702.2819 539.7711,-693.4514"/>
<polygon fill="#000000" stroke="#000000" points="543.0458,-692.2121 536.4593,-683.9134 536.4331,-694.5082 543.0458,-692.2121"/>
</g>
<!-- SvVariantsToDescriptionTable -->
<g id="node7" class="node">
<title>SvVariantsToDescriptionTable</title>
<ellipse fill="none" stroke="#000000" cx="120.2393" cy="-594" rx="120.4791" ry="18"/>
<text text-anchor="middle" x="120.2393" y="-590.3" font-family="Times,serif" font-size="14.00" fill="#000000">SvVariantsToDescriptionTable</text>
</g>
<!-- SnpEffManta&#45;&gt;SvVariantsToDescriptionTable -->
<g id="edge6" class="edge">
<title>SnpEffManta&#45;&gt;SvVariantsToDescriptionTable</title>
<path fill="none" stroke="#000000" d="M479.1415,-657.0267C411.3791,-645.127 290.747,-623.9428 208.1956,-609.446"/>
<polygon fill="#000000" stroke="#000000" points="208.7779,-605.9948 198.3232,-607.7123 207.5671,-612.8893 208.7779,-605.9948"/>
</g>
<!-- SvVariantsToTable -->
<g id="node8" class="node">
<title>SvVariantsToTable</title>
<ellipse fill="none" stroke="#000000" cx="338.2393" cy="-594" rx="79.0865" ry="18"/>
<text text-anchor="middle" x="338.2393" y="-590.3" font-family="Times,serif" font-size="14.00" fill="#000000">SvVariantsToTable</text>
</g>
<!-- SnpEffManta&#45;&gt;SvVariantsToTable -->
<g id="edge7" class="edge">
<title>SnpEffManta&#45;&gt;SvVariantsToTable</title>
<path fill="none" stroke="#000000" d="M492.764,-651.9468C463.1646,-640.847 421.5618,-625.2459 388.9793,-613.0275"/>
<polygon fill="#000000" stroke="#000000" points="390.2065,-609.7498 379.6143,-609.5156 387.7486,-616.3041 390.2065,-609.7498"/>
</g>
<!-- SvVariantsToMinTable -->
<g id="node9" class="node">
<title>SvVariantsToMinTable</title>
<ellipse fill="none" stroke="#000000" cx="530.2393" cy="-594" rx="94.7833" ry="18"/>
<text text-anchor="middle" x="530.2393" y="-590.3" font-family="Times,serif" font-size="14.00" fill="#000000">SvVariantsToMinTable</text>
</g>
<!-- SnpEffManta&#45;&gt;SvVariantsToMinTable -->
<g id="edge8" class="edge">
<title>SnpEffManta&#45;&gt;SvVariantsToMinTable</title>
<path fill="none" stroke="#000000" d="M530.2393,-647.8314C530.2393,-640.131 530.2393,-630.9743 530.2393,-622.4166"/>
<polygon fill="#000000" stroke="#000000" points="533.7394,-622.4132 530.2393,-612.4133 526.7394,-622.4133 533.7394,-622.4132"/>
</g>
<!-- MultiQC -->
<g id="node42" class="node">
<title>MultiQC</title>
<ellipse fill="none" stroke="#000000" cx="661.2393" cy="-162" rx="42.7926" ry="18"/>
<text text-anchor="middle" x="661.2393" y="-158.3" font-family="Times,serif" font-size="14.00" fill="#000000">MultiQC</text>
</g>
<!-- SnpEffManta&#45;&gt;MultiQC -->
<g id="edge49" class="edge">
<title>SnpEffManta&#45;&gt;MultiQC</title>
<path fill="none" stroke="#000000" d="M567.8505,-652.2063C589.0542,-643.1084 615.0542,-629.6084 634.2393,-612 669.1217,-579.9844 691.2393,-569.3474 691.2393,-522 691.2393,-522 691.2393,-522 691.2393,-306 691.2393,-264.8339 679.3437,-218.4133 670.5338,-189.6789"/>
<polygon fill="#000000" stroke="#000000" points="673.8054,-188.4162 667.4554,-179.9352 667.1306,-190.5251 673.8054,-188.4162"/>
</g>
<!-- SampleMarkdown -->
<g id="node13" class="node">
<title>SampleMarkdown</title>
<ellipse fill="none" stroke="#000000" cx="485.2393" cy="-306" rx="76.8869" ry="18"/>
<text text-anchor="middle" x="485.2393" y="-302.3" font-family="Times,serif" font-size="14.00" fill="#000000">SampleMarkdown</text>
</g>
<!-- CollectMultipleMetrics&#45;&gt;SampleMarkdown -->
<g id="edge13" class="edge">
<title>CollectMultipleMetrics&#45;&gt;SampleMarkdown</title>
<path fill="none" stroke="#000000" d="M412.9697,-360.2022C425.3845,-350.8911 440.7388,-339.3754 454.0975,-329.3564"/>
<polygon fill="#000000" stroke="#000000" points="456.2132,-332.1446 462.1132,-323.3446 452.0132,-326.5446 456.2132,-332.1446"/>
</g>
<!-- Cleanup -->
<g id="node43" class="node">
<title>Cleanup</title>
<ellipse fill="none" stroke="#000000" cx="661.2393" cy="-18" rx="40.0939" ry="18"/>
<text text-anchor="middle" x="661.2393" y="-14.3" font-family="Times,serif" font-size="14.00" fill="#000000">Cleanup</text>
</g>
<!-- CollectMultipleMetrics&#45;&gt;Cleanup -->
<g id="edge56" class="edge">
<title>CollectMultipleMetrics&#45;&gt;Cleanup</title>
<path fill="none" stroke="#000000" d="M387.3745,-359.8374C384.7384,-332.55 380.2393,-279.3383 380.2393,-234 380.2393,-234 380.2393,-234 380.2393,-162 380.2393,-59.3589 530.5644,-29.8289 611.3152,-21.3706"/>
<polygon fill="#000000" stroke="#000000" points="611.6652,-24.8532 621.2773,-20.3969 610.9842,-17.8864 611.6652,-24.8532"/>
</g>
<!-- CalculateHsMetrics&#45;&gt;SampleMarkdown -->
<g id="edge12" class="edge">
<title>CalculateHsMetrics&#45;&gt;SampleMarkdown</title>
<path fill="none" stroke="#000000" d="M558.7583,-360.5708C546.1288,-351.1963 530.3822,-339.5081 516.7058,-329.3565"/>
<polygon fill="#000000" stroke="#000000" points="518.6199,-326.4185 508.5041,-323.2687 514.4477,-332.0393 518.6199,-326.4185"/>
</g>
<!-- CalculateHsMetrics&#45;&gt;Cleanup -->
<g id="edge55" class="edge">
<title>CalculateHsMetrics&#45;&gt;Cleanup</title>
<path fill="none" stroke="#000000" d="M583.8969,-359.8326C586.2402,-332.5392 590.2393,-279.3198 590.2393,-234 590.2393,-234 590.2393,-234 590.2393,-162 590.2393,-116.2785 619.3889,-70.0287 640.333,-42.6988"/>
<polygon fill="#000000" stroke="#000000" points="643.0822,-44.8649 646.5281,-34.8461 637.5865,-40.5293 643.0822,-44.8649"/>
</g>
<!-- ProjectMarkdown -->
<g id="node40" class="node">
<title>ProjectMarkdown</title>
<ellipse fill="none" stroke="#000000" cx="487.2393" cy="-234" rx="74.9875" ry="18"/>
<text text-anchor="middle" x="487.2393" y="-230.3" font-family="Times,serif" font-size="14.00" fill="#000000">ProjectMarkdown</text>
</g>
<!-- SampleMarkdown&#45;&gt;ProjectMarkdown -->
<g id="edge46" class="edge">
<title>SampleMarkdown&#45;&gt;ProjectMarkdown</title>
<path fill="none" stroke="#000000" d="M485.744,-287.8314C485.9579,-280.131 486.2123,-270.9743 486.45,-262.4166"/>
<polygon fill="#000000" stroke="#000000" points="489.9487,-262.5066 486.7279,-252.4133 482.9514,-262.3122 489.9487,-262.5066"/>
</g>
<!-- Fastqc -->
<g id="node14" class="node">
<title>Fastqc</title>
<ellipse fill="none" stroke="#000000" cx="243.2393" cy="-378" rx="33.5952" ry="18"/>
<text text-anchor="middle" x="243.2393" y="-374.3" font-family="Times,serif" font-size="14.00" fill="#000000">Fastqc</text>
</g>
<!-- Fastqc&#45;&gt;SampleMarkdown -->
<g id="edge14" class="edge">
<title>Fastqc&#45;&gt;SampleMarkdown</title>
<path fill="none" stroke="#000000" d="M269.4072,-366.4029C274.9156,-364.1437 280.7281,-361.8921 286.2393,-360 330.5618,-344.7833 381.5903,-331.0088 420.877,-321.1805"/>
<polygon fill="#000000" stroke="#000000" points="421.7378,-324.5731 430.6009,-318.7683 420.0524,-317.779 421.7378,-324.5731"/>
</g>
<!-- Fastqc&#45;&gt;Cleanup -->
<g id="edge57" class="edge">
<title>Fastqc&#45;&gt;Cleanup</title>
<path fill="none" stroke="#000000" d="M254.4282,-360.6069C270.2451,-334.3012 297.2393,-282.327 297.2393,-234 297.2393,-234 297.2393,-234 297.2393,-162 297.2393,-102.5357 343.2072,-98.8997 396.2393,-72 433.4527,-53.1241 546.736,-34.4284 612.5193,-24.7619"/>
<polygon fill="#000000" stroke="#000000" points="613.2579,-28.1914 622.6504,-23.2893 612.2509,-21.2642 613.2579,-28.1914"/>
</g>
<!-- GatkDepthOfCoverage -->
<g id="node16" class="node">
<title>GatkDepthOfCoverage</title>
<ellipse fill="none" stroke="#000000" cx="1211.2393" cy="-666" rx="92.0841" ry="18"/>
<text text-anchor="middle" x="1211.2393" y="-662.3" font-family="Times,serif" font-size="14.00" fill="#000000">GatkDepthOfCoverage</text>
</g>
<!-- IndelRealignmentKnown&#45;&gt;GatkDepthOfCoverage -->
<g id="edge16" class="edge">
<title>IndelRealignmentKnown&#45;&gt;GatkDepthOfCoverage</title>
<path fill="none" stroke="#000000" d="M1001.792,-722.9064C1044.2629,-711.3672 1102.8749,-695.4424 1147.2971,-683.373"/>
<polygon fill="#000000" stroke="#000000" points="1148.3871,-686.7038 1157.1195,-680.7043 1146.5517,-679.9487 1148.3871,-686.7038"/>
</g>
<!-- MergeBamFilesFreebayes -->
<g id="node17" class="node">
<title>MergeBamFilesFreebayes</title>
<ellipse fill="none" stroke="#000000" cx="997.2393" cy="-666" rx="103.9815" ry="18"/>
<text text-anchor="middle" x="997.2393" y="-662.3" font-family="Times,serif" font-size="14.00" fill="#000000">MergeBamFilesFreebayes</text>
</g>
<!-- IndelRealignmentKnown&#45;&gt;MergeBamFilesFreebayes -->
<g id="edge17" class="edge">
<title>IndelRealignmentKnown&#45;&gt;MergeBamFilesFreebayes</title>
<path fill="none" stroke="#000000" d="M959.1088,-719.8314C965.0123,-711.497 972.1242,-701.4567 978.5987,-692.3162"/>
<polygon fill="#000000" stroke="#000000" points="981.6265,-694.0967 984.5507,-683.9134 975.9144,-690.0506 981.6265,-694.0967"/>
</g>
<!-- HaplotypeCaller -->
<g id="node21" class="node">
<title>HaplotypeCaller</title>
<ellipse fill="none" stroke="#000000" cx="1464.2393" cy="-594" rx="68.7879" ry="18"/>
<text text-anchor="middle" x="1464.2393" y="-590.3" font-family="Times,serif" font-size="14.00" fill="#000000">HaplotypeCaller</text>
</g>
<!-- IndelRealignmentKnown&#45;&gt;HaplotypeCaller -->
<g id="edge21" class="edge">
<title>IndelRealignmentKnown&#45;&gt;HaplotypeCaller</title>
<path fill="none" stroke="#000000" d="M1018.0106,-725.389C1030.7203,-723.4035 1043.8496,-721.5112 1056.2393,-720 1105.5903,-713.9806 1468.5282,-720.5419 1502.2393,-684 1519.1194,-665.7026 1504.1514,-638.8011 1488.3065,-619.1768"/>
<polygon fill="#000000" stroke="#000000" points="1490.9361,-616.8664 1481.7883,-611.5214 1485.6063,-621.4044 1490.9361,-616.8664"/>
</g>
<!-- Mutect2 -->
<g id="node25" class="node">
<title>Mutect2</title>
<ellipse fill="none" stroke="#000000" cx="835.2393" cy="-666" rx="40.0939" ry="18"/>
<text text-anchor="middle" x="835.2393" y="-662.3" font-family="Times,serif" font-size="14.00" fill="#000000">Mutect2</text>
</g>
<!-- IndelRealignmentKnown&#45;&gt;Mutect2 -->
<g id="edge26" class="edge">
<title>IndelRealignmentKnown&#45;&gt;Mutect2</title>
<path fill="none" stroke="#000000" d="M919.3693,-720.5708C903.5615,-710.3171 883.4865,-697.2954 866.9114,-686.544"/>
<polygon fill="#000000" stroke="#000000" points="868.4067,-683.3422 858.1124,-680.8366 864.5974,-689.2149 868.4067,-683.3422"/>
</g>
<!-- Freebayes -->
<g id="node18" class="node">
<title>Freebayes</title>
<ellipse fill="none" stroke="#000000" cx="1173.2393" cy="-594" rx="46.2923" ry="18"/>
<text text-anchor="middle" x="1173.2393" y="-590.3" font-family="Times,serif" font-size="14.00" fill="#000000">Freebayes</text>
</g>
<!-- MergeBamFilesFreebayes&#45;&gt;Freebayes -->
<g id="edge18" class="edge">
<title>MergeBamFilesFreebayes&#45;&gt;Freebayes</title>
<path fill="none" stroke="#000000" d="M1038.0596,-649.3008C1066.1283,-637.8181 1103.289,-622.6161 1131.5441,-611.0572"/>
<polygon fill="#000000" stroke="#000000" points="1133.2071,-614.1584 1141.1373,-607.1326 1130.5566,-607.6796 1133.2071,-614.1584"/>
</g>
<!-- MergeFreeBayesVariants -->
<g id="node20" class="node">
<title>MergeFreeBayesVariants</title>
<ellipse fill="none" stroke="#000000" cx="1173.2393" cy="-522" rx="100.9827" ry="18"/>
<text text-anchor="middle" x="1173.2393" y="-518.3" font-family="Times,serif" font-size="14.00" fill="#000000">MergeFreeBayesVariants</text>
</g>
<!-- Freebayes&#45;&gt;MergeFreeBayesVariants -->
<g id="edge20" class="edge">
<title>Freebayes&#45;&gt;MergeFreeBayesVariants</title>
<path fill="none" stroke="#000000" d="M1173.2393,-575.8314C1173.2393,-568.131 1173.2393,-558.9743 1173.2393,-550.4166"/>
<polygon fill="#000000" stroke="#000000" points="1176.7394,-550.4132 1173.2393,-540.4133 1169.7394,-550.4133 1176.7394,-550.4132"/>
</g>
<!-- CreatePaddedTargets -->
<g id="node19" class="node">
<title>CreatePaddedTargets</title>
<ellipse fill="none" stroke="#000000" cx="1407.2393" cy="-666" rx="85.5853" ry="18"/>
<text text-anchor="middle" x="1407.2393" y="-662.3" font-family="Times,serif" font-size="14.00" fill="#000000">CreatePaddedTargets</text>
</g>
<!-- CreatePaddedTargets&#45;&gt;Freebayes -->
<g id="edge19" class="edge">
<title>CreatePaddedTargets&#45;&gt;Freebayes</title>
<path fill="none" stroke="#000000" d="M1358.7544,-651.0816C1317.8195,-638.4862 1259.608,-620.575 1219.3579,-608.1903"/>
<polygon fill="#000000" stroke="#000000" points="1220.3749,-604.8414 1209.7878,-605.2457 1218.3162,-611.5318 1220.3749,-604.8414"/>
</g>
<!-- CreatePaddedTargets&#45;&gt;HaplotypeCaller -->
<g id="edge22" class="edge">
<title>CreatePaddedTargets&#45;&gt;HaplotypeCaller</title>
<path fill="none" stroke="#000000" d="M1421.3292,-648.2022C1428.1118,-639.6348 1436.3719,-629.2009 1443.8271,-619.7839"/>
<polygon fill="#000000" stroke="#000000" points="1446.6511,-621.8555 1450.114,-611.8425 1441.1627,-617.5106 1446.6511,-621.8555"/>
</g>
<!-- CombineVariants -->
<g id="node28" class="node">
<title>CombineVariants</title>
<ellipse fill="none" stroke="#000000" cx="1130.2393" cy="-450" rx="73.387" ry="18"/>
<text text-anchor="middle" x="1130.2393" y="-446.3" font-family="Times,serif" font-size="14.00" fill="#000000">CombineVariants</text>
</g>
<!-- MergeFreeBayesVariants&#45;&gt;CombineVariants -->
<g id="edge30" class="edge">
<title>MergeFreeBayesVariants&#45;&gt;CombineVariants</title>
<path fill="none" stroke="#000000" d="M1162.3886,-503.8314C1157.4624,-495.5829 1151.5384,-485.6635 1146.125,-476.5992"/>
<polygon fill="#000000" stroke="#000000" points="1149.07,-474.7042 1140.9376,-467.9134 1143.0602,-478.2935 1149.07,-474.7042"/>
</g>
<!-- MergeVariants -->
<g id="node22" class="node">
<title>MergeVariants</title>
<ellipse fill="none" stroke="#000000" cx="1381.2393" cy="-522" rx="63.8893" ry="18"/>
<text text-anchor="middle" x="1381.2393" y="-518.3" font-family="Times,serif" font-size="14.00" fill="#000000">MergeVariants</text>
</g>
<!-- HaplotypeCaller&#45;&gt;MergeVariants -->
<g id="edge23" class="edge">
<title>HaplotypeCaller&#45;&gt;MergeVariants</title>
<path fill="none" stroke="#000000" d="M1444.1473,-576.5708C1433.5445,-567.3732 1420.3743,-555.9484 1408.8285,-545.9328"/>
<polygon fill="#000000" stroke="#000000" points="1410.9937,-543.1776 1401.1463,-539.2687 1406.4067,-548.4654 1410.9937,-543.1776"/>
</g>
<!-- HaplotypeCaller&#45;&gt;Cleanup -->
<g id="edge60" class="edge">
<title>HaplotypeCaller&#45;&gt;Cleanup</title>
<path fill="none" stroke="#000000" d="M1527.4371,-586.7892C1691.8487,-567.1811 2120.2393,-510.3043 2120.2393,-450 2120.2393,-450 2120.2393,-450 2120.2393,-162 2120.2393,-150.3678 2111.8471,-148.7732 2101.2393,-144 1972.1396,-85.9092 951.8666,-32.3328 711.7295,-20.4442"/>
<polygon fill="#000000" stroke="#000000" points="711.7028,-16.9387 701.5425,-19.9417 711.3579,-23.9302 711.7028,-16.9387"/>
</g>
<!-- CnvProfile -->
<g id="node23" class="node">
<title>CnvProfile</title>
<ellipse fill="none" stroke="#000000" cx="1438.2393" cy="-450" rx="49.2915" ry="18"/>
<text text-anchor="middle" x="1438.2393" y="-446.3" font-family="Times,serif" font-size="14.00" fill="#000000">CnvProfile</text>
</g>
<!-- MergeVariants&#45;&gt;CnvProfile -->
<g id="edge24" class="edge">
<title>MergeVariants&#45;&gt;CnvProfile</title>
<path fill="none" stroke="#000000" d="M1395.3292,-504.2022C1402.2138,-495.506 1410.6207,-484.8867 1418.1628,-475.3598"/>
<polygon fill="#000000" stroke="#000000" points="1421.0453,-477.3575 1424.5082,-467.3446 1415.557,-473.0126 1421.0453,-477.3575"/>
</g>
<!-- MergeVariants&#45;&gt;CombineVariants -->
<g id="edge29" class="edge">
<title>MergeVariants&#45;&gt;CombineVariants</title>
<path fill="none" stroke="#000000" d="M1336.3656,-509.1278C1294.8528,-497.2198 1232.9297,-479.457 1187.793,-466.5094"/>
<polygon fill="#000000" stroke="#000000" points="1188.7206,-463.1344 1178.1431,-463.7413 1186.7904,-469.863 1188.7206,-463.1344"/>
</g>
<!-- BQSR -->
<g id="node24" class="node">
<title>BQSR</title>
<ellipse fill="none" stroke="#000000" cx="1496.2393" cy="-522" rx="33.5952" ry="18"/>
<text text-anchor="middle" x="1496.2393" y="-518.3" font-family="Times,serif" font-size="14.00" fill="#000000">BQSR</text>
</g>
<!-- BQSR&#45;&gt;CnvProfile -->
<g id="edge25" class="edge">
<title>BQSR&#45;&gt;CnvProfile</title>
<path fill="none" stroke="#000000" d="M1482.7872,-505.3008C1475.676,-496.4731 1466.7939,-485.4471 1458.8359,-475.5682"/>
<polygon fill="#000000" stroke="#000000" points="1461.4267,-473.2051 1452.4277,-467.6132 1455.9754,-477.5964 1461.4267,-473.2051"/>
</g>
<!-- MergeMutect2VariantsBySample -->
<g id="node26" class="node">
<title>MergeMutect2VariantsBySample</title>
<ellipse fill="none" stroke="#000000" cx="926.2393" cy="-594" rx="130.777" ry="18"/>
<text text-anchor="middle" x="926.2393" y="-590.3" font-family="Times,serif" font-size="14.00" fill="#000000">MergeMutect2VariantsBySample</text>
</g>
<!-- Mutect2&#45;&gt;MergeMutect2VariantsBySample -->
<g id="edge27" class="edge">
<title>Mutect2&#45;&gt;MergeMutect2VariantsBySample</title>
<path fill="none" stroke="#000000" d="M855.4352,-650.0209C867.2297,-640.6889 882.3505,-628.7252 895.588,-618.2516"/>
<polygon fill="#000000" stroke="#000000" points="897.8697,-620.9094 903.5402,-611.9597 893.5263,-615.4198 897.8697,-620.9094"/>
</g>
<!-- MergeMutect2VariantsByProject -->
<g id="node27" class="node">
<title>MergeMutect2VariantsByProject</title>
<ellipse fill="none" stroke="#000000" cx="926.2393" cy="-522" rx="128.8774" ry="18"/>
<text text-anchor="middle" x="926.2393" y="-518.3" font-family="Times,serif" font-size="14.00" fill="#000000">MergeMutect2VariantsByProject</text>
</g>
<!-- MergeMutect2VariantsBySample&#45;&gt;MergeMutect2VariantsByProject -->
<g id="edge28" class="edge">
<title>MergeMutect2VariantsBySample&#45;&gt;MergeMutect2VariantsByProject</title>
<path fill="none" stroke="#000000" d="M926.2393,-575.8314C926.2393,-568.131 926.2393,-558.9743 926.2393,-550.4166"/>
<polygon fill="#000000" stroke="#000000" points="929.7394,-550.4132 926.2393,-540.4133 922.7394,-550.4133 929.7394,-550.4132"/>
</g>
<!-- MergeMutect2VariantsByProject&#45;&gt;CombineVariants -->
<g id="edge31" class="edge">
<title>MergeMutect2VariantsByProject&#45;&gt;CombineVariants</title>
<path fill="none" stroke="#000000" d="M973.8108,-505.2101C1005.1799,-494.1386 1046.2619,-479.6391 1078.4532,-468.2774"/>
<polygon fill="#000000" stroke="#000000" points="1079.8726,-471.4882 1088.1376,-464.8594 1077.5428,-464.8872 1079.8726,-471.4882"/>
</g>
<!-- VariantAnnotation -->
<g id="node29" class="node">
<title>VariantAnnotation</title>
<ellipse fill="none" stroke="#000000" cx="1088.2393" cy="-378" rx="76.8869" ry="18"/>
<text text-anchor="middle" x="1088.2393" y="-374.3" font-family="Times,serif" font-size="14.00" fill="#000000">VariantAnnotation</text>
</g>
<!-- CombineVariants&#45;&gt;VariantAnnotation -->
<g id="edge32" class="edge">
<title>CombineVariants&#45;&gt;VariantAnnotation</title>
<path fill="none" stroke="#000000" d="M1119.641,-431.8314C1114.8293,-423.5829 1109.0431,-413.6635 1103.7555,-404.5992"/>
<polygon fill="#000000" stroke="#000000" points="1106.7508,-402.7876 1098.6888,-395.9134 1100.7043,-406.3148 1106.7508,-402.7876"/>
</g>
<!-- CustTumorNormalAnnotations -->
<g id="node30" class="node">
<title>CustTumorNormalAnnotations</title>
<ellipse fill="none" stroke="#000000" cx="1088.2393" cy="-306" rx="121.5784" ry="18"/>
<text text-anchor="middle" x="1088.2393" y="-302.3" font-family="Times,serif" font-size="14.00" fill="#000000">CustTumorNormalAnnotations</text>
</g>
<!-- VariantAnnotation&#45;&gt;CustTumorNormalAnnotations -->
<g id="edge33" class="edge">
<title>VariantAnnotation&#45;&gt;CustTumorNormalAnnotations</title>
<path fill="none" stroke="#000000" d="M1088.2393,-359.8314C1088.2393,-352.131 1088.2393,-342.9743 1088.2393,-334.4166"/>
<polygon fill="#000000" stroke="#000000" points="1091.7394,-334.4132 1088.2393,-324.4133 1084.7394,-334.4133 1091.7394,-334.4132"/>
</g>
<!-- VariantAnnotation&#45;&gt;MultiQC -->
<g id="edge53" class="edge">
<title>VariantAnnotation&#45;&gt;MultiQC</title>
<path fill="none" stroke="#000000" d="M1046.8331,-362.7314C1020.7063,-352.6589 986.4904,-338.6561 957.2393,-324 873.4875,-282.0364 858.9597,-259.9619 776.2393,-216 751.5278,-202.867 723.0637,-189.4878 700.6365,-179.3323"/>
<polygon fill="#000000" stroke="#000000" points="701.9786,-176.0982 691.4229,-175.1874 699.1067,-182.482 701.9786,-176.0982"/>
</g>
<!-- SelectIndels -->
<g id="node31" class="node">
<title>SelectIndels</title>
<ellipse fill="none" stroke="#000000" cx="1517.2393" cy="-234" rx="53.8905" ry="18"/>
<text text-anchor="middle" x="1517.2393" y="-230.3" font-family="Times,serif" font-size="14.00" fill="#000000">SelectIndels</text>
</g>
<!-- CustTumorNormalAnnotations&#45;&gt;SelectIndels -->
<g id="edge34" class="edge">
<title>CustTumorNormalAnnotations&#45;&gt;SelectIndels</title>
<path fill="none" stroke="#000000" d="M1168.6792,-292.4996C1253.0245,-278.3437 1383.5297,-256.4408 1458.6228,-243.8377"/>
<polygon fill="#000000" stroke="#000000" points="1459.5577,-247.2299 1468.8404,-242.1229 1458.399,-240.3264 1459.5577,-247.2299"/>
</g>
<!-- SelectSNV -->
<g id="node32" class="node">
<title>SelectSNV</title>
<ellipse fill="none" stroke="#000000" cx="1033.2393" cy="-234" rx="50.0912" ry="18"/>
<text text-anchor="middle" x="1033.2393" y="-230.3" font-family="Times,serif" font-size="14.00" fill="#000000">SelectSNV</text>
</g>
<!-- CustTumorNormalAnnotations&#45;&gt;SelectSNV -->
<g id="edge35" class="edge">
<title>CustTumorNormalAnnotations&#45;&gt;SelectSNV</title>
<path fill="none" stroke="#000000" d="M1074.3605,-287.8314C1067.8309,-279.2835 1059.9305,-268.9412 1052.8068,-259.6156"/>
<polygon fill="#000000" stroke="#000000" points="1055.3963,-257.2398 1046.5445,-251.4177 1049.8336,-261.4891 1055.3963,-257.2398"/>
</g>
<!-- IndelVariantsToTable -->
<g id="node33" class="node">
<title>IndelVariantsToTable</title>
<ellipse fill="none" stroke="#000000" cx="1727.2393" cy="-162" rx="88.2844" ry="18"/>
<text text-anchor="middle" x="1727.2393" y="-158.3" font-family="Times,serif" font-size="14.00" fill="#000000">IndelVariantsToTable</text>
</g>
<!-- SelectIndels&#45;&gt;IndelVariantsToTable -->
<g id="edge36" class="edge">
<title>SelectIndels&#45;&gt;IndelVariantsToTable</title>
<path fill="none" stroke="#000000" d="M1555.2687,-220.9613C1587.9273,-209.7641 1635.4209,-193.4806 1672.2263,-180.8616"/>
<polygon fill="#000000" stroke="#000000" points="1673.4947,-184.1268 1681.819,-177.5727 1671.2243,-177.5052 1673.4947,-184.1268"/>
</g>
<!-- IndelVariantsToMinTable -->
<g id="node34" class="node">
<title>IndelVariantsToMinTable</title>
<ellipse fill="none" stroke="#000000" cx="1517.2393" cy="-162" rx="103.1819" ry="18"/>
<text text-anchor="middle" x="1517.2393" y="-158.3" font-family="Times,serif" font-size="14.00" fill="#000000">IndelVariantsToMinTable</text>
</g>
<!-- SelectIndels&#45;&gt;IndelVariantsToMinTable -->
<g id="edge37" class="edge">
<title>SelectIndels&#45;&gt;IndelVariantsToMinTable</title>
<path fill="none" stroke="#000000" d="M1517.2393,-215.8314C1517.2393,-208.131 1517.2393,-198.9743 1517.2393,-190.4166"/>
<polygon fill="#000000" stroke="#000000" points="1520.7394,-190.4132 1517.2393,-180.4133 1513.7394,-190.4133 1520.7394,-190.4132"/>
</g>
<!-- IndelVariantsToDescriptionTable -->
<g id="node37" class="node">
<title>IndelVariantsToDescriptionTable</title>
<ellipse fill="none" stroke="#000000" cx="1963.2393" cy="-162" rx="129.1772" ry="18"/>
<text text-anchor="middle" x="1963.2393" y="-158.3" font-family="Times,serif" font-size="14.00" fill="#000000">IndelVariantsToDescriptionTable</text>
</g>
<!-- SelectIndels&#45;&gt;IndelVariantsToDescriptionTable -->
<g id="edge40" class="edge">
<title>SelectIndels&#45;&gt;IndelVariantsToDescriptionTable</title>
<path fill="none" stroke="#000000" d="M1565.8182,-226.1577C1638.247,-214.4651 1775.9406,-192.2366 1868.6753,-177.2659"/>
<polygon fill="#000000" stroke="#000000" points="1869.3135,-180.7083 1878.6279,-175.6592 1868.1979,-173.7978 1869.3135,-180.7083"/>
</g>
<!-- SelectIndels&#45;&gt;MultiQC -->
<g id="edge50" class="edge">
<title>SelectIndels&#45;&gt;MultiQC</title>
<path fill="none" stroke="#000000" d="M1463.4715,-232.2537C1307.6006,-226.8958 857.4565,-209.2574 713.2393,-180 709.6581,-179.2735 705.9862,-178.3622 702.3306,-177.3377"/>
<polygon fill="#000000" stroke="#000000" points="703.3524,-173.9902 692.7658,-174.41 701.3035,-180.6836 703.3524,-173.9902"/>
</g>
<!-- SNVVariantsToTable -->
<g id="node35" class="node">
<title>SNVVariantsToTable</title>
<ellipse fill="none" stroke="#000000" cx="1033.2393" cy="-162" rx="87.9851" ry="18"/>
<text text-anchor="middle" x="1033.2393" y="-158.3" font-family="Times,serif" font-size="14.00" fill="#000000">SNVVariantsToTable</text>
</g>
<!-- SelectSNV&#45;&gt;SNVVariantsToTable -->
<g id="edge38" class="edge">
<title>SelectSNV&#45;&gt;SNVVariantsToTable</title>
<path fill="none" stroke="#000000" d="M1033.2393,-215.8314C1033.2393,-208.131 1033.2393,-198.9743 1033.2393,-190.4166"/>
<polygon fill="#000000" stroke="#000000" points="1036.7394,-190.4132 1033.2393,-180.4133 1029.7394,-190.4133 1036.7394,-190.4132"/>
</g>
<!-- SNVVariantsToMinTable -->
<g id="node36" class="node">
<title>SNVVariantsToMinTable</title>
<ellipse fill="none" stroke="#000000" cx="825.2393" cy="-162" rx="102.8821" ry="18"/>
<text text-anchor="middle" x="825.2393" y="-158.3" font-family="Times,serif" font-size="14.00" fill="#000000">SNVVariantsToMinTable</text>
</g>
<!-- SelectSNV&#45;&gt;SNVVariantsToMinTable -->
<g id="edge39" class="edge">
<title>SelectSNV&#45;&gt;SNVVariantsToMinTable</title>
<path fill="none" stroke="#000000" d="M997.0085,-221.4586C965.1686,-210.437 918.3183,-194.2197 881.5865,-181.5048"/>
<polygon fill="#000000" stroke="#000000" points="882.5944,-178.15 871.9996,-178.1862 880.3045,-184.7649 882.5944,-178.15"/>
</g>
<!-- SNVVariantsToDescriptionTable -->
<g id="node38" class="node">
<title>SNVVariantsToDescriptionTable</title>
<ellipse fill="none" stroke="#000000" cx="1267.2393" cy="-162" rx="128.8774" ry="18"/>
<text text-anchor="middle" x="1267.2393" y="-158.3" font-family="Times,serif" font-size="14.00" fill="#000000">SNVVariantsToDescriptionTable</text>
</g>
<!-- SelectSNV&#45;&gt;SNVVariantsToDescriptionTable -->
<g id="edge41" class="edge">
<title>SelectSNV&#45;&gt;SNVVariantsToDescriptionTable</title>
<path fill="none" stroke="#000000" d="M1071.3563,-222.2717C1107.2801,-211.2182 1161.7753,-194.4505 1204.174,-181.4047"/>
<polygon fill="#000000" stroke="#000000" points="1205.3187,-184.7145 1213.8472,-178.4284 1203.26,-178.0241 1205.3187,-184.7145"/>
</g>
<!-- SelectSNV&#45;&gt;MultiQC -->
<g id="edge51" class="edge">
<title>SelectSNV&#45;&gt;MultiQC</title>
<path fill="none" stroke="#000000" d="M987.1895,-226.6639C905.0384,-213.5123 739.3385,-186.6701 713.2393,-180 709.8985,-179.1462 706.4661,-178.1754 703.0343,-177.1374"/>
<polygon fill="#000000" stroke="#000000" points="704.0317,-173.7819 693.4409,-174.0762 701.9036,-180.4506 704.0317,-173.7819"/>
</g>
<!-- TablesToXlsx -->
<g id="node39" class="node">
<title>TablesToXlsx</title>
<ellipse fill="none" stroke="#000000" cx="1150.2393" cy="-90" rx="60.3893" ry="18"/>
<text text-anchor="middle" x="1150.2393" y="-86.3" font-family="Times,serif" font-size="14.00" fill="#000000">TablesToXlsx</text>
</g>
<!-- IndelVariantsToTable&#45;&gt;TablesToXlsx -->
<g id="edge42" class="edge">
<title>IndelVariantsToTable&#45;&gt;TablesToXlsx</title>
<path fill="none" stroke="#000000" d="M1663.0328,-149.5481C1651.7919,-147.5566 1640.191,-145.6211 1629.2393,-144 1483.4172,-122.4151 1311.4876,-104.9682 1218.417,-96.184"/>
<polygon fill="#000000" stroke="#000000" points="1218.5716,-92.6832 1208.2881,-95.2329 1217.9171,-99.6526 1218.5716,-92.6832"/>
</g>
<!-- SNVVariantsToTable&#45;&gt;TablesToXlsx -->
<g id="edge43" class="edge">
<title>SNVVariantsToTable&#45;&gt;TablesToXlsx</title>
<path fill="none" stroke="#000000" d="M1061.2637,-144.7542C1077.3832,-134.8346 1097.7856,-122.2792 1114.9859,-111.6944"/>
<polygon fill="#000000" stroke="#000000" points="1116.9668,-114.5851 1123.6491,-106.3632 1113.2981,-108.6234 1116.9668,-114.5851"/>
</g>
<!-- IndelVariantsToDescriptionTable&#45;&gt;TablesToXlsx -->
<g id="edge45" class="edge">
<title>IndelVariantsToDescriptionTable&#45;&gt;TablesToXlsx</title>
<path fill="none" stroke="#000000" d="M1870.5999,-149.3637C1855.1338,-147.4378 1839.244,-145.5717 1824.2393,-144 1603.8749,-120.9181 1342.0659,-102.5177 1219.719,-94.4431"/>
<polygon fill="#000000" stroke="#000000" points="1219.5893,-90.9271 1209.3813,-93.7636 1219.1301,-97.9121 1219.5893,-90.9271"/>
</g>
<!-- SNVVariantsToDescriptionTable&#45;&gt;TablesToXlsx -->
<g id="edge44" class="edge">
<title>SNVVariantsToDescriptionTable&#45;&gt;TablesToXlsx</title>
<path fill="none" stroke="#000000" d="M1238.6179,-144.3868C1222.6024,-134.5311 1202.5029,-122.1622 1185.5199,-111.7111"/>
<polygon fill="#000000" stroke="#000000" points="1187.3121,-108.7044 1176.9612,-106.4442 1183.6434,-114.666 1187.3121,-108.7044"/>
</g>
<!-- TablesToXlsx&#45;&gt;Cleanup -->
<g id="edge54" class="edge">
<title>TablesToXlsx&#45;&gt;Cleanup</title>
<path fill="none" stroke="#000000" d="M1094.9684,-82.4985C998.3578,-68.7475 800.6576,-39.6408 709.3312,-25.7252"/>
<polygon fill="#000000" stroke="#000000" points="709.672,-22.2367 699.258,-24.1857 708.6144,-29.1564 709.672,-22.2367"/>
</g>
<!-- TablesToXlsx&#45;&gt;Cleanup -->
<g id="edge59" class="edge">
<title>TablesToXlsx&#45;&gt;Cleanup</title>
<path fill="none" stroke="#000000" d="M1096.7789,-81.4579C1001.0927,-66.9167 802.2415,-37.6605 710.0293,-24.5806"/>
<polygon fill="#000000" stroke="#000000" points="710.5111,-21.114 700.1196,-23.1794 709.5311,-28.045 710.5111,-21.114"/>
</g>
<!-- ProjectMarkdown&#45;&gt;MultiQC -->
<g id="edge48" class="edge">
<title>ProjectMarkdown&#45;&gt;MultiQC</title>
<path fill="none" stroke="#000000" d="M524.9947,-218.3771C553.3714,-206.635 592.1699,-190.5805 621.1072,-178.6064"/>
<polygon fill="#000000" stroke="#000000" points="622.6115,-181.7718 630.5134,-174.7142 619.935,-175.3037 622.6115,-181.7718"/>
</g>
<!-- ProjectMarkdown&#45;&gt;Cleanup -->
<g id="edge61" class="edge">
<title>ProjectMarkdown&#45;&gt;Cleanup</title>
<path fill="none" stroke="#000000" d="M493.7125,-215.8618C505.8541,-183.8059 534.6288,-116.3448 576.2393,-72 589.8399,-57.5058 608.1241,-45.2353 624.2498,-36.072"/>
<polygon fill="#000000" stroke="#000000" points="626.3501,-38.9126 633.4433,-31.0426 622.9904,-32.7715 626.3501,-38.9126"/>
</g>
<!-- SamQC&#45;&gt;MultiQC -->
<g id="edge52" class="edge">
<title>SamQC&#45;&gt;MultiQC</title>
<path fill="none" stroke="#000000" d="M791.3784,-432.1219C779.9736,-391.7819 749.1073,-291.3362 705.2393,-216 699.2758,-205.7585 691.43,-195.4447 684.0171,-186.6148"/>
<polygon fill="#000000" stroke="#000000" points="686.5886,-184.2377 677.3975,-178.9675 681.296,-188.819 686.5886,-184.2377"/>
</g>
<!-- MultiQC&#45;&gt;Cleanup -->
<g id="edge62" class="edge">
<title>MultiQC&#45;&gt;Cleanup</title>
<path fill="none" stroke="#000000" d="M661.2393,-143.7623C661.2393,-119.201 661.2393,-75.2474 661.2393,-46.3541"/>
<polygon fill="#000000" stroke="#000000" points="664.7394,-46.0896 661.2393,-36.0896 657.7394,-46.0897 664.7394,-46.0896"/>
</g>
<!-- AnalyseCovariants -->
<g id="node44" class="node">
<title>AnalyseCovariants</title>
<ellipse fill="none" stroke="#000000" cx="2225.2393" cy="-90" rx="77.1866" ry="18"/>
<text text-anchor="middle" x="2225.2393" y="-86.3" font-family="Times,serif" font-size="14.00" fill="#000000">AnalyseCovariants</text>
</g>
<!-- AnalyseCovariants&#45;&gt;Cleanup -->
<g id="edge58" class="edge">
<title>AnalyseCovariants&#45;&gt;Cleanup</title>
<path fill="none" stroke="#000000" d="M2169.1496,-77.4584C2157.6542,-75.2967 2145.5969,-73.323 2134.2393,-72 1849.781,-38.8649 936.7531,-22.392 711.7225,-18.7745"/>
<polygon fill="#000000" stroke="#000000" points="711.5866,-15.2719 701.5321,-18.6119 711.4749,-22.2711 711.5866,-15.2719"/>
</g>
</g>
</svg>
