<?xml version="1.0" encoding="UTF-8" standalone="no"?>
<!DOCTYPE svg PUBLIC "-//W3C//DTD SVG 1.1//EN"
 "http://www.w3.org/Graphics/SVG/1.1/DTD/svg11.dtd">
<!-- Generated by graphviz version 2.40.1 (0)
 -->
<!-- Title: workflow_rnaseq Pages: 1 -->
<svg width="2201pt" height="1052pt"
 viewBox="0.00 0.00 2201.19 1052.00" xmlns="http://www.w3.org/2000/svg" xmlns:xlink="http://www.w3.org/1999/xlink">
<g id="graph0" class="graph" transform="scale(1 1) rotate(0) translate(4 1048)">
<title>workflow_rnaseq</title>
<polygon fill="#ffffff" stroke="transparent" points="-4,4 -4,-1048 2197.1926,-1048 2197.1926,4 -4,4"/>
<!-- Hisat2Alignment -->
<g id="node1" class="node">
<title>Hisat2Alignment</title>
<ellipse fill="none" stroke="#000000" cx="200.797" cy="-1026" rx="71.4873" ry="18"/>
<text text-anchor="middle" x="200.797" y="-1022.3" font-family="Times,serif" font-size="14.00" fill="#000000">Hisat2Alignment</text>
</g>
<!-- AddOrReplaceReadGroups -->
<g id="node2" class="node">
<title>AddOrReplaceReadGroups</title>
<ellipse fill="none" stroke="#000000" cx="200.797" cy="-954" rx="107.4815" ry="18"/>
<text text-anchor="middle" x="200.797" y="-950.3" font-family="Times,serif" font-size="14.00" fill="#000000">AddOrReplaceReadGroups</text>
</g>
<!-- Hisat2Alignment&#45;&gt;AddOrReplaceReadGroups -->
<g id="edge1" class="edge">
<title>Hisat2Alignment&#45;&gt;AddOrReplaceReadGroups</title>
<path fill="none" stroke="#000000" d="M200.797,-1007.8314C200.797,-1000.131 200.797,-990.9743 200.797,-982.4166"/>
<polygon fill="#000000" stroke="#000000" points="204.2971,-982.4132 200.797,-972.4133 197.2971,-982.4133 204.2971,-982.4132"/>
</g>
<!-- MergeBamFiles -->
<g id="node3" class="node">
<title>MergeBamFiles</title>
<ellipse fill="none" stroke="#000000" cx="200.797" cy="-882" rx="68.4888" ry="18"/>
<text text-anchor="middle" x="200.797" y="-878.3" font-family="Times,serif" font-size="14.00" fill="#000000">MergeBamFiles</text>
</g>
<!-- AddOrReplaceReadGroups&#45;&gt;MergeBamFiles -->
<g id="edge2" class="edge">
<title>AddOrReplaceReadGroups&#45;&gt;MergeBamFiles</title>
<path fill="none" stroke="#000000" d="M200.797,-935.8314C200.797,-928.131 200.797,-918.9743 200.797,-910.4166"/>
<polygon fill="#000000" stroke="#000000" points="204.2971,-910.4132 200.797,-900.4133 197.2971,-910.4133 204.2971,-910.4132"/>
</g>
<!-- HtseqCountDups -->
<g id="node4" class="node">
<title>HtseqCountDups</title>
<ellipse fill="none" stroke="#000000" cx="122.797" cy="-810" rx="71.4873" ry="18"/>
<text text-anchor="middle" x="122.797" y="-806.3" font-family="Times,serif" font-size="14.00" fill="#000000">HtseqCountDups</text>
</g>
<!-- MergeBamFiles&#45;&gt;HtseqCountDups -->
<g id="edge3" class="edge">
<title>MergeBamFiles&#45;&gt;HtseqCountDups</title>
<path fill="none" stroke="#000000" d="M181.9154,-864.5708C172.1196,-855.5286 159.992,-844.3338 149.2755,-834.4417"/>
<polygon fill="#000000" stroke="#000000" points="151.4971,-831.7292 141.7751,-827.5182 146.7492,-836.8729 151.4971,-831.7292"/>
</g>
<!-- MarkDuplicates -->
<g id="node5" class="node">
<title>MarkDuplicates</title>
<ellipse fill="none" stroke="#000000" cx="279.797" cy="-810" rx="67.6881" ry="18"/>
<text text-anchor="middle" x="279.797" y="-806.3" font-family="Times,serif" font-size="14.00" fill="#000000">MarkDuplicates</text>
</g>
<!-- MergeBamFiles&#45;&gt;MarkDuplicates -->
<g id="edge4" class="edge">
<title>MergeBamFiles&#45;&gt;MarkDuplicates</title>
<path fill="none" stroke="#000000" d="M219.9207,-864.5708C229.842,-855.5286 242.1251,-844.3338 252.9791,-834.4417"/>
<polygon fill="#000000" stroke="#000000" points="255.5423,-836.8411 260.5756,-827.5182 250.827,-831.6675 255.5423,-836.8411"/>
</g>
<!-- Manta -->
<g id="node6" class="node">
<title>Manta</title>
<ellipse fill="none" stroke="#000000" cx="33.797" cy="-738" rx="33.5952" ry="18"/>
<text text-anchor="middle" x="33.797" y="-734.3" font-family="Times,serif" font-size="14.00" fill="#000000">Manta</text>
</g>
<!-- MarkDuplicates&#45;&gt;Manta -->
<g id="edge5" class="edge">
<title>MarkDuplicates&#45;&gt;Manta</title>
<path fill="none" stroke="#000000" d="M229.767,-797.6494C179.0115,-784.9596 104.0269,-765.7272 75.797,-756 73.6641,-755.2651 71.4868,-754.4713 69.3013,-753.6408"/>
<polygon fill="#000000" stroke="#000000" points="70.3636,-750.2962 59.7789,-749.8335 67.7648,-756.796 70.3636,-750.2962"/>
</g>
<!-- HtseqCount -->
<g id="node7" class="node">
<title>HtseqCount</title>
<ellipse fill="none" stroke="#000000" cx="137.797" cy="-738" rx="52.7911" ry="18"/>
<text text-anchor="middle" x="137.797" y="-734.3" font-family="Times,serif" font-size="14.00" fill="#000000">HtseqCount</text>
</g>
<!-- MarkDuplicates&#45;&gt;HtseqCount -->
<g id="edge6" class="edge">
<title>MarkDuplicates&#45;&gt;HtseqCount</title>
<path fill="none" stroke="#000000" d="M248.2826,-794.0209C227.0258,-783.2428 198.8454,-768.9541 176.2655,-757.5051"/>
<polygon fill="#000000" stroke="#000000" points="177.786,-754.3519 167.2841,-752.9512 174.6203,-760.5953 177.786,-754.3519"/>
</g>
<!-- CollectMultipleMetrics -->
<g id="node8" class="node">
<title>CollectMultipleMetrics</title>
<ellipse fill="none" stroke="#000000" cx="340.797" cy="-738" rx="94.4839" ry="18"/>
<text text-anchor="middle" x="340.797" y="-734.3" font-family="Times,serif" font-size="14.00" fill="#000000">CollectMultipleMetrics</text>
</g>
<!-- MarkDuplicates&#45;&gt;CollectMultipleMetrics -->
<g id="edge7" class="edge">
<title>MarkDuplicates&#45;&gt;CollectMultipleMetrics</title>
<path fill="none" stroke="#000000" d="M294.8757,-792.2022C302.2075,-783.5483 311.1527,-772.99 319.1938,-763.4988"/>
<polygon fill="#000000" stroke="#000000" points="321.8866,-765.7349 325.6804,-755.8425 316.5457,-761.2099 321.8866,-765.7349"/>
</g>
<!-- CalculateHsMetrics -->
<g id="node9" class="node">
<title>CalculateHsMetrics</title>
<ellipse fill="none" stroke="#000000" cx="533.797" cy="-738" rx="81.4863" ry="18"/>
<text text-anchor="middle" x="533.797" y="-734.3" font-family="Times,serif" font-size="14.00" fill="#000000">CalculateHsMetrics</text>
</g>
<!-- MarkDuplicates&#45;&gt;CalculateHsMetrics -->
<g id="edge8" class="edge">
<title>MarkDuplicates&#45;&gt;CalculateHsMetrics</title>
<path fill="none" stroke="#000000" d="M326.0892,-796.8778C367.5482,-785.1256 428.6007,-767.8194 473.7939,-755.0088"/>
<polygon fill="#000000" stroke="#000000" points="474.8055,-758.36 483.4719,-752.2654 472.8964,-751.6253 474.8055,-758.36"/>
</g>
<!-- SampleMarkdown -->
<g id="node10" class="node">
<title>SampleMarkdown</title>
<ellipse fill="none" stroke="#000000" cx="365.797" cy="-666" rx="76.8869" ry="18"/>
<text text-anchor="middle" x="365.797" y="-662.3" font-family="Times,serif" font-size="14.00" fill="#000000">SampleMarkdown</text>
</g>
<!-- MarkDuplicates&#45;&gt;SampleMarkdown -->
<g id="edge12" class="edge">
<title>MarkDuplicates&#45;&gt;SampleMarkdown</title>
<path fill="none" stroke="#000000" d="M261.3655,-792.6135C243.7971,-773.8722 222.1634,-743.5634 237.797,-720 250.7481,-700.4798 272.297,-687.9985 294.0553,-680.0248"/>
<polygon fill="#000000" stroke="#000000" points="295.3435,-683.2841 303.7014,-676.7729 293.1073,-676.6509 295.3435,-683.2841"/>
</g>
<!-- SplitAndTrim -->
<g id="node12" class="node">
<title>SplitAndTrim</title>
<ellipse fill="none" stroke="#000000" cx="1064.797" cy="-738" rx="60.3893" ry="18"/>
<text text-anchor="middle" x="1064.797" y="-734.3" font-family="Times,serif" font-size="14.00" fill="#000000">SplitAndTrim</text>
</g>
<!-- MarkDuplicates&#45;&gt;SplitAndTrim -->
<g id="edge13" class="edge">
<title>MarkDuplicates&#45;&gt;SplitAndTrim</title>
<path fill="none" stroke="#000000" d="M344.0368,-804.1079C490.3486,-790.6883 847.2643,-757.952 996.9605,-744.222"/>
<polygon fill="#000000" stroke="#000000" points="997.3074,-747.7049 1006.9459,-743.3061 996.668,-740.7342 997.3074,-747.7049"/>
</g>
<!-- CollectMultipleMetrics&#45;&gt;SampleMarkdown -->
<g id="edge10" class="edge">
<title>CollectMultipleMetrics&#45;&gt;SampleMarkdown</title>
<path fill="none" stroke="#000000" d="M347.1056,-719.8314C349.8087,-712.0463 353.0286,-702.7729 356.028,-694.1347"/>
<polygon fill="#000000" stroke="#000000" points="359.4297,-695.0081 359.4035,-684.4133 352.817,-692.7119 359.4297,-695.0081"/>
</g>
<!-- Cleanup -->
<g id="node35" class="node">
<title>Cleanup</title>
<ellipse fill="none" stroke="#000000" cx="602.797" cy="-18" rx="40.0939" ry="18"/>
<text text-anchor="middle" x="602.797" y="-14.3" font-family="Times,serif" font-size="14.00" fill="#000000">Cleanup</text>
</g>
<!-- CollectMultipleMetrics&#45;&gt;Cleanup -->
<g id="edge44" class="edge">
<title>CollectMultipleMetrics&#45;&gt;Cleanup</title>
<path fill="none" stroke="#000000" d="M392.1089,-722.7911C413.0619,-714.3243 436.025,-701.8071 451.797,-684 479.8476,-652.33 482.797,-636.3063 482.797,-594 482.797,-594 482.797,-594 482.797,-162 482.797,-107.5494 534.0594,-62.7613 569.5745,-38.2654"/>
<polygon fill="#000000" stroke="#000000" points="571.8567,-40.9497 578.2236,-32.4814 567.9654,-35.131 571.8567,-40.9497"/>
</g>
<!-- CalculateHsMetrics&#45;&gt;SampleMarkdown -->
<g id="edge9" class="edge">
<title>CalculateHsMetrics&#45;&gt;SampleMarkdown</title>
<path fill="none" stroke="#000000" d="M496.0945,-721.8418C471.2802,-711.2071 438.6269,-697.2128 412.2168,-685.8942"/>
<polygon fill="#000000" stroke="#000000" points="413.3655,-682.5786 402.7953,-681.8564 410.608,-689.0127 413.3655,-682.5786"/>
</g>
<!-- CalculateHsMetrics&#45;&gt;Cleanup -->
<g id="edge43" class="edge">
<title>CalculateHsMetrics&#45;&gt;Cleanup</title>
<path fill="none" stroke="#000000" d="M532.3466,-719.8284C530.2963,-692.5296 526.797,-639.3034 526.797,-594 526.797,-594 526.797,-594 526.797,-162 526.797,-115.6313 557.9993,-69.5636 580.4184,-42.4482"/>
<polygon fill="#000000" stroke="#000000" points="583.2303,-44.5446 587.0498,-34.6622 577.9012,-40.0058 583.2303,-44.5446"/>
</g>
<!-- ProjectMarkdown -->
<g id="node34" class="node">
<title>ProjectMarkdown</title>
<ellipse fill="none" stroke="#000000" cx="365.797" cy="-594" rx="74.9875" ry="18"/>
<text text-anchor="middle" x="365.797" y="-590.3" font-family="Times,serif" font-size="14.00" fill="#000000">ProjectMarkdown</text>
</g>
<!-- SampleMarkdown&#45;&gt;ProjectMarkdown -->
<g id="edge41" class="edge">
<title>SampleMarkdown&#45;&gt;ProjectMarkdown</title>
<path fill="none" stroke="#000000" d="M365.797,-647.8314C365.797,-640.131 365.797,-630.9743 365.797,-622.4166"/>
<polygon fill="#000000" stroke="#000000" points="369.2971,-622.4132 365.797,-612.4133 362.2971,-622.4133 369.2971,-622.4132"/>
</g>
<!-- Fastqc -->
<g id="node11" class="node">
<title>Fastqc</title>
<ellipse fill="none" stroke="#000000" cx="666.797" cy="-738" rx="33.5952" ry="18"/>
<text text-anchor="middle" x="666.797" y="-734.3" font-family="Times,serif" font-size="14.00" fill="#000000">Fastqc</text>
</g>
<!-- Fastqc&#45;&gt;SampleMarkdown -->
<g id="edge11" class="edge">
<title>Fastqc&#45;&gt;SampleMarkdown</title>
<path fill="none" stroke="#000000" d="M640.7114,-726.1512C635.197,-723.9102 629.3613,-721.7297 623.797,-720 563.0614,-701.1202 492.2282,-686.824 440.1634,-677.6992"/>
<polygon fill="#000000" stroke="#000000" points="440.4594,-674.1985 430.0092,-675.9433 439.2666,-681.0961 440.4594,-674.1985"/>
</g>
<!-- Fastqc&#45;&gt;Cleanup -->
<g id="edge45" class="edge">
<title>Fastqc&#45;&gt;Cleanup</title>
<path fill="none" stroke="#000000" d="M646.6451,-723.2267C616.9192,-699.5585 564.797,-650.0645 564.797,-594 564.797,-594 564.797,-594 564.797,-162 564.797,-120.1368 579.9973,-73.6262 591.1707,-45.0925"/>
<polygon fill="#000000" stroke="#000000" points="594.4294,-46.3698 594.9234,-35.7865 587.9374,-43.7518 594.4294,-46.3698"/>
</g>
<!-- IndelRealignmentKnown -->
<g id="node13" class="node">
<title>IndelRealignmentKnown</title>
<ellipse fill="none" stroke="#000000" cx="1360.797" cy="-666" rx="100.1823" ry="18"/>
<text text-anchor="middle" x="1360.797" y="-662.3" font-family="Times,serif" font-size="14.00" fill="#000000">IndelRealignmentKnown</text>
</g>
<!-- SplitAndTrim&#45;&gt;IndelRealignmentKnown -->
<g id="edge14" class="edge">
<title>SplitAndTrim&#45;&gt;IndelRealignmentKnown</title>
<path fill="none" stroke="#000000" d="M1111.6991,-726.5914C1160.0636,-714.827 1236.0192,-696.3514 1291.3499,-682.8925"/>
<polygon fill="#000000" stroke="#000000" points="1292.1933,-686.2895 1301.0828,-680.5251 1290.5388,-679.4878 1292.1933,-686.2895"/>
</g>
<!-- BQSR -->
<g id="node14" class="node">
<title>BQSR</title>
<ellipse fill="none" stroke="#000000" cx="1233.797" cy="-594" rx="33.5952" ry="18"/>
<text text-anchor="middle" x="1233.797" y="-590.3" font-family="Times,serif" font-size="14.00" fill="#000000">BQSR</text>
</g>
<!-- IndelRealignmentKnown&#45;&gt;BQSR -->
<g id="edge15" class="edge">
<title>IndelRealignmentKnown&#45;&gt;BQSR</title>
<path fill="none" stroke="#000000" d="M1330.3773,-648.7542C1310.9923,-637.7643 1285.9009,-623.5392 1266.1517,-612.3428"/>
<polygon fill="#000000" stroke="#000000" points="1267.6399,-609.1632 1257.2145,-607.276 1264.1875,-615.2527 1267.6399,-609.1632"/>
</g>
<!-- CnvProfile -->
<g id="node30" class="node">
<title>CnvProfile</title>
<ellipse fill="none" stroke="#000000" cx="2143.797" cy="-378" rx="49.2915" ry="18"/>
<text text-anchor="middle" x="2143.797" y="-374.3" font-family="Times,serif" font-size="14.00" fill="#000000">CnvProfile</text>
</g>
<!-- IndelRealignmentKnown&#45;&gt;CnvProfile -->
<g id="edge35" class="edge">
<title>IndelRealignmentKnown&#45;&gt;CnvProfile</title>
<path fill="none" stroke="#000000" d="M1404.8547,-649.7949C1542.1343,-599.3012 1961.2066,-445.1597 2099.209,-394.4002"/>
<polygon fill="#000000" stroke="#000000" points="2100.4747,-397.664 2108.6517,-390.927 2098.0582,-391.0943 2100.4747,-397.664"/>
</g>
<!-- Varscan2 -->
<g id="node31" class="node">
<title>Varscan2</title>
<ellipse fill="none" stroke="#000000" cx="1494.797" cy="-450" rx="44.393" ry="18"/>
<text text-anchor="middle" x="1494.797" y="-446.3" font-family="Times,serif" font-size="14.00" fill="#000000">Varscan2</text>
</g>
<!-- IndelRealignmentKnown&#45;&gt;Varscan2 -->
<g id="edge36" class="edge">
<title>IndelRealignmentKnown&#45;&gt;Varscan2</title>
<path fill="none" stroke="#000000" d="M1413.119,-650.6076C1432.8184,-642.2531 1453.6202,-629.8692 1466.797,-612 1495.8388,-572.616 1498.5398,-513.3251 1497.1558,-478.455"/>
<polygon fill="#000000" stroke="#000000" points="1500.6278,-477.8435 1496.5911,-468.0478 1493.6381,-478.2228 1500.6278,-477.8435"/>
</g>
<!-- AnalyseCovariants -->
<g id="node15" class="node">
<title>AnalyseCovariants</title>
<ellipse fill="none" stroke="#000000" cx="669.797" cy="-306" rx="77.1866" ry="18"/>
<text text-anchor="middle" x="669.797" y="-302.3" font-family="Times,serif" font-size="14.00" fill="#000000">AnalyseCovariants</text>
</g>
<!-- BQSR&#45;&gt;AnalyseCovariants -->
<g id="edge16" class="edge">
<title>BQSR&#45;&gt;AnalyseCovariants</title>
<path fill="none" stroke="#000000" d="M1201.3195,-588.7257C1106.3776,-572.7949 831.5587,-522.8807 760.797,-468 716.2522,-433.4524 690.1186,-370.5838 678.0169,-334.1571"/>
<polygon fill="#000000" stroke="#000000" points="681.2128,-332.6587 674.8391,-324.1954 674.5439,-334.7861 681.2128,-332.6587"/>
</g>
<!-- HaplotypeCaller -->
<g id="node16" class="node">
<title>HaplotypeCaller</title>
<ellipse fill="none" stroke="#000000" cx="1368.797" cy="-522" rx="68.7879" ry="18"/>
<text text-anchor="middle" x="1368.797" y="-518.3" font-family="Times,serif" font-size="14.00" fill="#000000">HaplotypeCaller</text>
</g>
<!-- BQSR&#45;&gt;HaplotypeCaller -->
<g id="edge17" class="edge">
<title>BQSR&#45;&gt;HaplotypeCaller</title>
<path fill="none" stroke="#000000" d="M1257.9323,-581.1278C1277.7506,-570.5581 1306.2178,-555.3756 1329.3431,-543.0421"/>
<polygon fill="#000000" stroke="#000000" points="1331.0608,-546.0927 1338.2372,-538.2985 1327.7666,-539.9162 1331.0608,-546.0927"/>
</g>
<!-- AnalyseCovariants&#45;&gt;Cleanup -->
<g id="edge46" class="edge">
<title>AnalyseCovariants&#45;&gt;Cleanup</title>
<path fill="none" stroke="#000000" d="M662.4704,-287.9458C652.925,-263.7551 636.3324,-219.3091 626.797,-180 615.5965,-133.8266 608.7921,-78.9047 605.4171,-46.3308"/>
<polygon fill="#000000" stroke="#000000" points="608.8804,-45.7877 604.4027,-36.1856 601.9151,-46.4843 608.8804,-45.7877"/>
</g>
<!-- MergeVariants -->
<g id="node18" class="node">
<title>MergeVariants</title>
<ellipse fill="none" stroke="#000000" cx="1368.797" cy="-450" rx="63.8893" ry="18"/>
<text text-anchor="middle" x="1368.797" y="-446.3" font-family="Times,serif" font-size="14.00" fill="#000000">MergeVariants</text>
</g>
<!-- HaplotypeCaller&#45;&gt;MergeVariants -->
<g id="edge19" class="edge">
<title>HaplotypeCaller&#45;&gt;MergeVariants</title>
<path fill="none" stroke="#000000" d="M1368.797,-503.8314C1368.797,-496.131 1368.797,-486.9743 1368.797,-478.4166"/>
<polygon fill="#000000" stroke="#000000" points="1372.2971,-478.4132 1368.797,-468.4133 1365.2971,-478.4133 1372.2971,-478.4132"/>
</g>
<!-- HaplotypeCaller&#45;&gt;Varscan2 -->
<g id="edge37" class="edge">
<title>HaplotypeCaller&#45;&gt;Varscan2</title>
<path fill="none" stroke="#000000" d="M1397.7039,-505.4817C1416.2696,-494.8728 1440.4881,-481.0337 1460.0924,-469.8312"/>
<polygon fill="#000000" stroke="#000000" points="1462.0728,-472.7307 1469.0188,-464.7304 1458.5998,-466.653 1462.0728,-472.7307"/>
</g>
<!-- HaplotypeCaller&#45;&gt;Cleanup -->
<g id="edge48" class="edge">
<title>HaplotypeCaller&#45;&gt;Cleanup</title>
<path fill="none" stroke="#000000" d="M1313.6643,-510.9741C1181.133,-481.6089 842.1781,-389.0492 659.797,-180 626.6258,-141.9784 642.1052,-119.3962 624.797,-72 621.6023,-63.2517 617.8625,-53.8172 614.3819,-45.3194"/>
<polygon fill="#000000" stroke="#000000" points="617.5275,-43.7676 610.4634,-35.8714 611.0615,-46.4493 617.5275,-43.7676"/>
</g>
<!-- CreatePaddedTargets -->
<g id="node17" class="node">
<title>CreatePaddedTargets</title>
<ellipse fill="none" stroke="#000000" cx="1371.797" cy="-594" rx="85.5853" ry="18"/>
<text text-anchor="middle" x="1371.797" y="-590.3" font-family="Times,serif" font-size="14.00" fill="#000000">CreatePaddedTargets</text>
</g>
<!-- CreatePaddedTargets&#45;&gt;HaplotypeCaller -->
<g id="edge18" class="edge">
<title>CreatePaddedTargets&#45;&gt;HaplotypeCaller</title>
<path fill="none" stroke="#000000" d="M1371.04,-575.8314C1370.7191,-568.131 1370.3376,-558.9743 1369.981,-550.4166"/>
<polygon fill="#000000" stroke="#000000" points="1373.4776,-550.2589 1369.5642,-540.4133 1366.4837,-550.5503 1373.4776,-550.2589"/>
</g>
<!-- VariantAnnotation -->
<g id="node19" class="node">
<title>VariantAnnotation</title>
<ellipse fill="none" stroke="#000000" cx="1368.797" cy="-378" rx="76.8869" ry="18"/>
<text text-anchor="middle" x="1368.797" y="-374.3" font-family="Times,serif" font-size="14.00" fill="#000000">VariantAnnotation</text>
</g>
<!-- MergeVariants&#45;&gt;VariantAnnotation -->
<g id="edge20" class="edge">
<title>MergeVariants&#45;&gt;VariantAnnotation</title>
<path fill="none" stroke="#000000" d="M1368.797,-431.8314C1368.797,-424.131 1368.797,-414.9743 1368.797,-406.4166"/>
<polygon fill="#000000" stroke="#000000" points="1372.2971,-406.4132 1368.797,-396.4133 1365.2971,-406.4133 1372.2971,-406.4132"/>
</g>
<!-- MergeVariants&#45;&gt;CnvProfile -->
<g id="edge34" class="edge">
<title>MergeVariants&#45;&gt;CnvProfile</title>
<path fill="none" stroke="#000000" d="M1414.9022,-437.4129C1423.7745,-435.3375 1433.0332,-433.4077 1441.797,-432 1677.5101,-394.1391 1962.1599,-382.6174 2083.8806,-379.2822"/>
<polygon fill="#000000" stroke="#000000" points="2084.1994,-382.7751 2094.103,-379.011 2084.0137,-375.7776 2084.1994,-382.7751"/>
</g>
<!-- CustTumorNormalAnnotations -->
<g id="node20" class="node">
<title>CustTumorNormalAnnotations</title>
<ellipse fill="none" stroke="#000000" cx="1368.797" cy="-306" rx="121.5784" ry="18"/>
<text text-anchor="middle" x="1368.797" y="-302.3" font-family="Times,serif" font-size="14.00" fill="#000000">CustTumorNormalAnnotations</text>
</g>
<!-- VariantAnnotation&#45;&gt;CustTumorNormalAnnotations -->
<g id="edge21" class="edge">
<title>VariantAnnotation&#45;&gt;CustTumorNormalAnnotations</title>
<path fill="none" stroke="#000000" d="M1368.797,-359.8314C1368.797,-352.131 1368.797,-342.9743 1368.797,-334.4166"/>
<polygon fill="#000000" stroke="#000000" points="1372.2971,-334.4132 1368.797,-324.4133 1365.2971,-334.4133 1372.2971,-334.4132"/>
</g>
<!-- SelectIndels -->
<g id="node21" class="node">
<title>SelectIndels</title>
<ellipse fill="none" stroke="#000000" cx="1118.797" cy="-234" rx="53.8905" ry="18"/>
<text text-anchor="middle" x="1118.797" y="-230.3" font-family="Times,serif" font-size="14.00" fill="#000000">SelectIndels</text>
</g>
<!-- CustTumorNormalAnnotations&#45;&gt;SelectIndels -->
<g id="edge22" class="edge">
<title>CustTumorNormalAnnotations&#45;&gt;SelectIndels</title>
<path fill="none" stroke="#000000" d="M1313.0033,-289.9314C1269.971,-277.5381 1210.9599,-260.5429 1169.3127,-248.5485"/>
<polygon fill="#000000" stroke="#000000" points="1170.2264,-245.1695 1159.6483,-245.7652 1168.2891,-251.8961 1170.2264,-245.1695"/>
</g>
<!-- SelectSNV -->
<g id="node22" class="node">
<title>SelectSNV</title>
<ellipse fill="none" stroke="#000000" cx="1610.797" cy="-234" rx="50.0912" ry="18"/>
<text text-anchor="middle" x="1610.797" y="-230.3" font-family="Times,serif" font-size="14.00" fill="#000000">SelectSNV</text>
</g>
<!-- CustTumorNormalAnnotations&#45;&gt;SelectSNV -->
<g id="edge23" class="edge">
<title>CustTumorNormalAnnotations&#45;&gt;SelectSNV</title>
<path fill="none" stroke="#000000" d="M1423.1065,-289.8418C1464.947,-277.3934 1522.2591,-260.3419 1562.5091,-248.3667"/>
<polygon fill="#000000" stroke="#000000" points="1563.5123,-251.7199 1572.099,-245.5135 1561.5161,-245.0105 1563.5123,-251.7199"/>
</g>
<!-- IndelVariantsToTable -->
<g id="node23" class="node">
<title>IndelVariantsToTable</title>
<ellipse fill="none" stroke="#000000" cx="756.797" cy="-162" rx="88.2844" ry="18"/>
<text text-anchor="middle" x="756.797" y="-158.3" font-family="Times,serif" font-size="14.00" fill="#000000">IndelVariantsToTable</text>
</g>
<!-- SelectIndels&#45;&gt;IndelVariantsToTable -->
<g id="edge24" class="edge">
<title>SelectIndels&#45;&gt;IndelVariantsToTable</title>
<path fill="none" stroke="#000000" d="M1072.2129,-224.7347C1010.9333,-212.5465 902.562,-190.9919 830.2034,-176.6002"/>
<polygon fill="#000000" stroke="#000000" points="830.7316,-173.1367 820.2409,-174.6187 829.366,-180.0023 830.7316,-173.1367"/>
</g>
<!-- IndelVariantsToMinTable -->
<g id="node24" class="node">
<title>IndelVariantsToMinTable</title>
<ellipse fill="none" stroke="#000000" cx="1243.797" cy="-162" rx="103.1819" ry="18"/>
<text text-anchor="middle" x="1243.797" y="-158.3" font-family="Times,serif" font-size="14.00" fill="#000000">IndelVariantsToMinTable</text>
</g>
<!-- SelectIndels&#45;&gt;IndelVariantsToMinTable -->
<g id="edge25" class="edge">
<title>SelectIndels&#45;&gt;IndelVariantsToMinTable</title>
<path fill="none" stroke="#000000" d="M1145.9201,-218.3771C1163.1525,-208.4512 1185.7348,-195.4438 1204.8654,-184.4246"/>
<polygon fill="#000000" stroke="#000000" points="1206.7416,-187.3831 1213.66,-179.3589 1203.2477,-181.3173 1206.7416,-187.3831"/>
</g>
<!-- IndelVariantsToDescriptionTable -->
<g id="node27" class="node">
<title>IndelVariantsToDescriptionTable</title>
<ellipse fill="none" stroke="#000000" cx="992.797" cy="-162" rx="129.1772" ry="18"/>
<text text-anchor="middle" x="992.797" y="-158.3" font-family="Times,serif" font-size="14.00" fill="#000000">IndelVariantsToDescriptionTable</text>
</g>
<!-- SelectIndels&#45;&gt;IndelVariantsToDescriptionTable -->
<g id="edge28" class="edge">
<title>SelectIndels&#45;&gt;IndelVariantsToDescriptionTable</title>
<path fill="none" stroke="#000000" d="M1091.4569,-218.3771C1074.2117,-208.5227 1051.651,-195.6308 1032.4567,-184.6627"/>
<polygon fill="#000000" stroke="#000000" points="1034.0441,-181.5386 1023.6251,-179.6161 1030.571,-187.6164 1034.0441,-181.5386"/>
</g>
<!-- SNVVariantsToTable -->
<g id="node25" class="node">
<title>SNVVariantsToTable</title>
<ellipse fill="none" stroke="#000000" cx="1727.797" cy="-162" rx="87.9851" ry="18"/>
<text text-anchor="middle" x="1727.797" y="-158.3" font-family="Times,serif" font-size="14.00" fill="#000000">SNVVariantsToTable</text>
</g>
<!-- SelectSNV&#45;&gt;SNVVariantsToTable -->
<g id="edge26" class="edge">
<title>SelectSNV&#45;&gt;SNVVariantsToTable</title>
<path fill="none" stroke="#000000" d="M1636.1843,-218.3771C1652.2092,-208.5155 1673.1771,-195.6122 1691.0087,-184.639"/>
<polygon fill="#000000" stroke="#000000" points="1693.3225,-187.3248 1700.0047,-179.1029 1689.6538,-181.3631 1693.3225,-187.3248"/>
</g>
<!-- SNVVariantsToMinTable -->
<g id="node26" class="node">
<title>SNVVariantsToMinTable</title>
<ellipse fill="none" stroke="#000000" cx="1935.797" cy="-162" rx="102.8821" ry="18"/>
<text text-anchor="middle" x="1935.797" y="-158.3" font-family="Times,serif" font-size="14.00" fill="#000000">SNVVariantsToMinTable</text>
</g>
<!-- SelectSNV&#45;&gt;SNVVariantsToMinTable -->
<g id="edge27" class="edge">
<title>SelectSNV&#45;&gt;SNVVariantsToMinTable</title>
<path fill="none" stroke="#000000" d="M1653.6193,-224.5132C1706.5482,-212.7874 1797.4883,-192.6407 1861.8066,-178.3917"/>
<polygon fill="#000000" stroke="#000000" points="1862.8846,-181.7378 1871.8909,-176.1577 1861.3705,-174.9035 1862.8846,-181.7378"/>
</g>
<!-- SNVVariantsToDescriptionTable -->
<g id="node28" class="node">
<title>SNVVariantsToDescriptionTable</title>
<ellipse fill="none" stroke="#000000" cx="1493.797" cy="-162" rx="128.8774" ry="18"/>
<text text-anchor="middle" x="1493.797" y="-158.3" font-family="Times,serif" font-size="14.00" fill="#000000">SNVVariantsToDescriptionTable</text>
</g>
<!-- SelectSNV&#45;&gt;SNVVariantsToDescriptionTable -->
<g id="edge29" class="edge">
<title>SelectSNV&#45;&gt;SNVVariantsToDescriptionTable</title>
<path fill="none" stroke="#000000" d="M1585.4097,-218.3771C1569.6137,-208.6564 1549.015,-195.9803 1531.3515,-185.1104"/>
<polygon fill="#000000" stroke="#000000" points="1532.7741,-181.8763 1522.4231,-179.6161 1529.1053,-187.8379 1532.7741,-181.8763"/>
</g>
<!-- TablesToXlsx -->
<g id="node29" class="node">
<title>TablesToXlsx</title>
<ellipse fill="none" stroke="#000000" cx="874.797" cy="-90" rx="60.3893" ry="18"/>
<text text-anchor="middle" x="874.797" y="-86.3" font-family="Times,serif" font-size="14.00" fill="#000000">TablesToXlsx</text>
</g>
<!-- IndelVariantsToTable&#45;&gt;TablesToXlsx -->
<g id="edge30" class="edge">
<title>IndelVariantsToTable&#45;&gt;TablesToXlsx</title>
<path fill="none" stroke="#000000" d="M785.0609,-144.7542C801.3181,-134.8346 821.8949,-122.2792 839.2423,-111.6944"/>
<polygon fill="#000000" stroke="#000000" points="841.2661,-114.5597 847.9795,-106.3632 837.62,-108.5842 841.2661,-114.5597"/>
</g>
<!-- SNVVariantsToTable&#45;&gt;TablesToXlsx -->
<g id="edge31" class="edge">
<title>SNVVariantsToTable&#45;&gt;TablesToXlsx</title>
<path fill="none" stroke="#000000" d="M1665.4764,-149.2468C1654.2979,-147.2645 1642.7286,-145.4101 1631.797,-144 1380.2669,-111.5554 1079.0177,-97.3719 945.0184,-92.3312"/>
<polygon fill="#000000" stroke="#000000" points="945.0128,-88.8286 934.8899,-91.9556 944.7534,-95.8238 945.0128,-88.8286"/>
</g>
<!-- PlotGenome -->
<g id="node32" class="node">
<title>PlotGenome</title>
<ellipse fill="none" stroke="#000000" cx="1896.797" cy="-90" rx="55.4913" ry="18"/>
<text text-anchor="middle" x="1896.797" y="-86.3" font-family="Times,serif" font-size="14.00" fill="#000000">PlotGenome</text>
</g>
<!-- SNVVariantsToTable&#45;&gt;PlotGenome -->
<g id="edge39" class="edge">
<title>SNVVariantsToTable&#45;&gt;PlotGenome</title>
<path fill="none" stroke="#000000" d="M1766.1457,-145.6621C1792.2804,-134.5278 1826.9114,-119.7737 1853.9525,-108.2533"/>
<polygon fill="#000000" stroke="#000000" points="1855.3463,-111.4639 1863.1744,-104.3244 1852.6027,-105.024 1855.3463,-111.4639"/>
</g>
<!-- IndelVariantsToDescriptionTable&#45;&gt;TablesToXlsx -->
<g id="edge33" class="edge">
<title>IndelVariantsToDescriptionTable&#45;&gt;TablesToXlsx</title>
<path fill="none" stroke="#000000" d="M963.931,-144.3868C947.6624,-134.4602 927.2154,-121.9841 910.01,-111.4859"/>
<polygon fill="#000000" stroke="#000000" points="911.7069,-108.4212 901.3474,-106.2003 908.0608,-114.3967 911.7069,-108.4212"/>
</g>
<!-- SNVVariantsToDescriptionTable&#45;&gt;TablesToXlsx -->
<g id="edge32" class="edge">
<title>SNVVariantsToDescriptionTable&#45;&gt;TablesToXlsx</title>
<path fill="none" stroke="#000000" d="M1400.2929,-149.5737C1385.4141,-147.6627 1370.1882,-145.7462 1355.797,-144 1208.2529,-126.0969 1034.9845,-107.1559 941.9659,-97.157"/>
<polygon fill="#000000" stroke="#000000" points="942.1653,-93.6584 931.8488,-96.0708 941.418,-100.6184 942.1653,-93.6584"/>
</g>
<!-- TablesToXlsx&#45;&gt;Cleanup -->
<g id="edge42" class="edge">
<title>TablesToXlsx&#45;&gt;Cleanup</title>
<path fill="none" stroke="#000000" d="M827.2345,-78.75C776.0058,-65.7624 695.3916,-44.4451 645.9389,-30.8252"/>
<polygon fill="#000000" stroke="#000000" points="646.7527,-27.419 636.1814,-28.1251 644.8857,-34.1654 646.7527,-27.419"/>
</g>
<!-- TablesToXlsx&#45;&gt;Cleanup -->
<g id="edge47" class="edge">
<title>TablesToXlsx&#45;&gt;Cleanup</title>
<path fill="none" stroke="#000000" d="M831.786,-77.2108C781.7217,-63.4209 699.5947,-41.71 648.4356,-28.7627"/>
<polygon fill="#000000" stroke="#000000" points="649.1873,-25.3428 638.6354,-26.295 647.478,-32.1309 649.1873,-25.3428"/>
</g>
<!-- Varscan2&#45;&gt;PlotGenome -->
<g id="edge38" class="edge">
<title>Varscan2&#45;&gt;PlotGenome</title>
<path fill="none" stroke="#000000" d="M1539.2049,-448.3425C1673.5988,-442.1322 2066.797,-414.6763 2066.797,-306 2066.797,-306 2066.797,-306 2066.797,-234 2066.797,-193.1184 2074.6831,-174.7968 2047.797,-144 2025.4099,-118.3565 1989.9628,-104.8902 1959.0375,-97.8187"/>
<polygon fill="#000000" stroke="#000000" points="1959.685,-94.3784 1949.178,-95.7402 1958.2409,-101.2278 1959.685,-94.3784"/>
</g>
<!-- MergeSegFiles -->
<g id="node33" class="node">
<title>MergeSegFiles</title>
<ellipse fill="none" stroke="#000000" cx="1896.797" cy="-18" rx="64.189" ry="18"/>
<text text-anchor="middle" x="1896.797" y="-14.3" font-family="Times,serif" font-size="14.00" fill="#000000">MergeSegFiles</text>
</g>
<!-- PlotGenome&#45;&gt;MergeSegFiles -->
<g id="edge40" class="edge">
<title>PlotGenome&#45;&gt;MergeSegFiles</title>
<path fill="none" stroke="#000000" d="M1896.797,-71.8314C1896.797,-64.131 1896.797,-54.9743 1896.797,-46.4166"/>
<polygon fill="#000000" stroke="#000000" points="1900.2971,-46.4132 1896.797,-36.4133 1893.2971,-46.4133 1900.2971,-46.4132"/>
</g>
</g>
</svg>
