<?xml version="1.0" encoding="UTF-8" standalone="no"?>
<!DOCTYPE svg PUBLIC "-//W3C//DTD SVG 1.1//EN"
 "http://www.w3.org/Graphics/SVG/1.1/DTD/svg11.dtd">
<!-- Generated by graphviz version 2.40.1 (0)
 -->
<!-- Title: workflow_iont_scat Pages: 1 -->
<svg width="2505pt" height="1196pt"
 viewBox="0.00 0.00 2505.19 1196.00" xmlns="http://www.w3.org/2000/svg" xmlns:xlink="http://www.w3.org/1999/xlink">
<g id="graph0" class="graph" transform="scale(1 1) rotate(0) translate(4 1192)">
<title>workflow_iont_scat</title>
<polygon fill="#ffffff" stroke="transparent" points="-4,4 -4,-1192 2501.1869,-1192 2501.1869,4 -4,4"/>
<!-- BwaMemAlignment -->
<g id="node1" class="node">
<title>BwaMemAlignment</title>
<ellipse fill="none" stroke="#000000" cx="866.7947" cy="-1170" rx="84.485" ry="18"/>
<text text-anchor="middle" x="866.7947" y="-1166.3" font-family="Times,serif" font-size="14.00" fill="#000000">BwaMemAlignment</text>
</g>
<!-- AddOrReplaceReadGroups -->
<g id="node2" class="node">
<title>AddOrReplaceReadGroups</title>
<ellipse fill="none" stroke="#000000" cx="866.7947" cy="-1098" rx="107.4815" ry="18"/>
<text text-anchor="middle" x="866.7947" y="-1094.3" font-family="Times,serif" font-size="14.00" fill="#000000">AddOrReplaceReadGroups</text>
</g>
<!-- BwaMemAlignment&#45;&gt;AddOrReplaceReadGroups -->
<g id="edge1" class="edge">
<title>BwaMemAlignment&#45;&gt;AddOrReplaceReadGroups</title>
<path fill="none" stroke="#000000" d="M866.7947,-1151.8314C866.7947,-1144.131 866.7947,-1134.9743 866.7947,-1126.4166"/>
<polygon fill="#000000" stroke="#000000" points="870.2948,-1126.4132 866.7947,-1116.4133 863.2948,-1126.4133 870.2948,-1126.4132"/>
</g>
<!-- SelectSpanningReads -->
<g id="node3" class="node">
<title>SelectSpanningReads</title>
<ellipse fill="none" stroke="#000000" cx="866.7947" cy="-1026" rx="87.1846" ry="18"/>
<text text-anchor="middle" x="866.7947" y="-1022.3" font-family="Times,serif" font-size="14.00" fill="#000000">SelectSpanningReads</text>
</g>
<!-- AddOrReplaceReadGroups&#45;&gt;SelectSpanningReads -->
<g id="edge2" class="edge">
<title>AddOrReplaceReadGroups&#45;&gt;SelectSpanningReads</title>
<path fill="none" stroke="#000000" d="M866.7947,-1079.8314C866.7947,-1072.131 866.7947,-1062.9743 866.7947,-1054.4166"/>
<polygon fill="#000000" stroke="#000000" points="870.2948,-1054.4132 866.7947,-1044.4133 863.2948,-1054.4133 870.2948,-1054.4132"/>
</g>
<!-- MergeBamFiles -->
<g id="node4" class="node">
<title>MergeBamFiles</title>
<ellipse fill="none" stroke="#000000" cx="866.7947" cy="-954" rx="68.4888" ry="18"/>
<text text-anchor="middle" x="866.7947" y="-950.3" font-family="Times,serif" font-size="14.00" fill="#000000">MergeBamFiles</text>
</g>
<!-- SelectSpanningReads&#45;&gt;MergeBamFiles -->
<g id="edge3" class="edge">
<title>SelectSpanningReads&#45;&gt;MergeBamFiles</title>
<path fill="none" stroke="#000000" d="M866.7947,-1007.8314C866.7947,-1000.131 866.7947,-990.9743 866.7947,-982.4166"/>
<polygon fill="#000000" stroke="#000000" points="870.2948,-982.4132 866.7947,-972.4133 863.2948,-982.4133 870.2948,-982.4132"/>
</g>
<!-- CoNVaDING -->
<g id="node5" class="node">
<title>CoNVaDING</title>
<ellipse fill="none" stroke="#000000" cx="59.7947" cy="-882" rx="59.5901" ry="18"/>
<text text-anchor="middle" x="59.7947" y="-878.3" font-family="Times,serif" font-size="14.00" fill="#000000">CoNVaDING</text>
</g>
<!-- MergeBamFiles&#45;&gt;CoNVaDING -->
<g id="edge4" class="edge">
<title>MergeBamFiles&#45;&gt;CoNVaDING</title>
<path fill="none" stroke="#000000" d="M798.6582,-952.7284C668.6335,-949.4749 376.4426,-938.1813 133.7947,-900 127.5376,-899.0154 121.0309,-897.769 114.5872,-896.3932"/>
<polygon fill="#000000" stroke="#000000" points="115.0816,-892.9172 104.5581,-894.1438 113.5496,-899.7475 115.0816,-892.9172"/>
</g>
<!-- MantaSV -->
<g id="node6" class="node">
<title>MantaSV</title>
<ellipse fill="none" stroke="#000000" cx="749.7947" cy="-882" rx="44.6926" ry="18"/>
<text text-anchor="middle" x="749.7947" y="-878.3" font-family="Times,serif" font-size="14.00" fill="#000000">MantaSV</text>
</g>
<!-- MergeBamFiles&#45;&gt;MantaSV -->
<g id="edge5" class="edge">
<title>MergeBamFiles&#45;&gt;MantaSV</title>
<path fill="none" stroke="#000000" d="M839.6585,-937.3008C822.8727,-926.9711 801.1957,-913.6314 783.3375,-902.6417"/>
<polygon fill="#000000" stroke="#000000" points="784.744,-899.3977 774.393,-897.1374 781.0753,-905.3593 784.744,-899.3977"/>
</g>
<!-- CollectMultipleMetrics -->
<g id="node11" class="node">
<title>CollectMultipleMetrics</title>
<ellipse fill="none" stroke="#000000" cx="908.7947" cy="-378" rx="94.4839" ry="18"/>
<text text-anchor="middle" x="908.7947" y="-374.3" font-family="Times,serif" font-size="14.00" fill="#000000">CollectMultipleMetrics</text>
</g>
<!-- MergeBamFiles&#45;&gt;CollectMultipleMetrics -->
<g id="edge10" class="edge">
<title>MergeBamFiles&#45;&gt;CollectMultipleMetrics</title>
<path fill="none" stroke="#000000" d="M866.7947,-935.8146C866.7947,-908.4983 866.7947,-855.25 866.7947,-810 866.7947,-810 866.7947,-810 866.7947,-666 866.7947,-561.6577 860.8061,-533.3059 885.7947,-432 888.0047,-423.0403 891.5295,-413.6618 895.1622,-405.2822"/>
<polygon fill="#000000" stroke="#000000" points="898.4356,-406.5395 899.4039,-395.989 892.0676,-403.6329 898.4356,-406.5395"/>
</g>
<!-- CalculateHsMetrics -->
<g id="node12" class="node">
<title>CalculateHsMetrics</title>
<ellipse fill="none" stroke="#000000" cx="677.7947" cy="-378" rx="81.4863" ry="18"/>
<text text-anchor="middle" x="677.7947" y="-374.3" font-family="Times,serif" font-size="14.00" fill="#000000">CalculateHsMetrics</text>
</g>
<!-- MergeBamFiles&#45;&gt;CalculateHsMetrics -->
<g id="edge11" class="edge">
<title>MergeBamFiles&#45;&gt;CalculateHsMetrics</title>
<path fill="none" stroke="#000000" d="M802.3555,-947.884C625.8762,-930.274 147.7947,-876.4374 147.7947,-810 147.7947,-810 147.7947,-810 147.7947,-522 147.7947,-498.3284 466.795,-424.7145 609.8258,-392.8979"/>
<polygon fill="#000000" stroke="#000000" points="610.8094,-396.2648 619.8131,-390.6806 609.2922,-389.4312 610.8094,-396.2648"/>
</g>
<!-- CollectHsMetrics -->
<g id="node13" class="node">
<title>CollectHsMetrics</title>
<ellipse fill="none" stroke="#000000" cx="1277.7947" cy="-882" rx="73.387" ry="18"/>
<text text-anchor="middle" x="1277.7947" y="-878.3" font-family="Times,serif" font-size="14.00" fill="#000000">CollectHsMetrics</text>
</g>
<!-- MergeBamFiles&#45;&gt;CollectHsMetrics -->
<g id="edge12" class="edge">
<title>MergeBamFiles&#45;&gt;CollectHsMetrics</title>
<path fill="none" stroke="#000000" d="M926.2077,-945.1402C992.0365,-935.1093 1101.2559,-917.8309 1194.7947,-900 1200.8779,-898.8404 1207.1992,-897.5768 1213.5166,-896.2745"/>
<polygon fill="#000000" stroke="#000000" points="1214.3346,-899.6792 1223.406,-894.2056 1212.9012,-892.8275 1214.3346,-899.6792"/>
</g>
<!-- IndelRealignmentKnown -->
<g id="node17" class="node">
<title>IndelRealignmentKnown</title>
<ellipse fill="none" stroke="#000000" cx="1085.7947" cy="-882" rx="100.1823" ry="18"/>
<text text-anchor="middle" x="1085.7947" y="-878.3" font-family="Times,serif" font-size="14.00" fill="#000000">IndelRealignmentKnown</text>
</g>
<!-- MergeBamFiles&#45;&gt;IndelRealignmentKnown -->
<g id="edge17" class="edge">
<title>MergeBamFiles&#45;&gt;IndelRealignmentKnown</title>
<path fill="none" stroke="#000000" d="M909.54,-939.9468C943.2489,-928.8644 990.6061,-913.2949 1027.7443,-901.085"/>
<polygon fill="#000000" stroke="#000000" points="1029.0321,-904.3461 1037.4387,-897.8979 1026.8458,-897.6962 1029.0321,-904.3461"/>
</g>
<!-- SamQC -->
<g id="node42" class="node">
<title>SamQC</title>
<ellipse fill="none" stroke="#000000" cx="933.7947" cy="-450" rx="38.9931" ry="18"/>
<text text-anchor="middle" x="933.7947" y="-446.3" font-family="Times,serif" font-size="14.00" fill="#000000">SamQC</text>
</g>
<!-- MergeBamFiles&#45;&gt;SamQC -->
<g id="edge58" class="edge">
<title>MergeBamFiles&#45;&gt;SamQC</title>
<path fill="none" stroke="#000000" d="M874.8535,-935.7668C886.0081,-908.8248 904.7947,-856.5405 904.7947,-810 904.7947,-810 904.7947,-810 904.7947,-594 904.7947,-552.8901 916.2938,-506.4549 924.8101,-477.702"/>
<polygon fill="#000000" stroke="#000000" points="928.2144,-478.5376 927.7859,-467.9514 921.5192,-476.4943 928.2144,-478.5376"/>
</g>
<!-- SnpEffManta -->
<g id="node7" class="node">
<title>SnpEffManta</title>
<ellipse fill="none" stroke="#000000" cx="705.7947" cy="-810" rx="58.4896" ry="18"/>
<text text-anchor="middle" x="705.7947" y="-806.3" font-family="Times,serif" font-size="14.00" fill="#000000">SnpEffManta</text>
</g>
<!-- MantaSV&#45;&gt;SnpEffManta -->
<g id="edge6" class="edge">
<title>MantaSV&#45;&gt;SnpEffManta</title>
<path fill="none" stroke="#000000" d="M738.9183,-864.2022C733.8413,-855.8944 727.6918,-845.8316 722.0764,-836.6427"/>
<polygon fill="#000000" stroke="#000000" points="724.8995,-834.5503 716.6985,-827.8425 718.9265,-838.2005 724.8995,-834.5503"/>
</g>
<!-- SvVariantsToDescriptionTable -->
<g id="node8" class="node">
<title>SvVariantsToDescriptionTable</title>
<ellipse fill="none" stroke="#000000" cx="295.7947" cy="-738" rx="120.4791" ry="18"/>
<text text-anchor="middle" x="295.7947" y="-734.3" font-family="Times,serif" font-size="14.00" fill="#000000">SvVariantsToDescriptionTable</text>
</g>
<!-- SnpEffManta&#45;&gt;SvVariantsToDescriptionTable -->
<g id="edge7" class="edge">
<title>SnpEffManta&#45;&gt;SvVariantsToDescriptionTable</title>
<path fill="none" stroke="#000000" d="M654.6969,-801.0267C586.9345,-789.127 466.3024,-767.9428 383.7509,-753.446"/>
<polygon fill="#000000" stroke="#000000" points="384.3332,-749.9948 373.8786,-751.7123 383.1224,-756.8893 384.3332,-749.9948"/>
</g>
<!-- SvVariantsToTable -->
<g id="node9" class="node">
<title>SvVariantsToTable</title>
<ellipse fill="none" stroke="#000000" cx="513.7947" cy="-738" rx="79.0865" ry="18"/>
<text text-anchor="middle" x="513.7947" y="-734.3" font-family="Times,serif" font-size="14.00" fill="#000000">SvVariantsToTable</text>
</g>
<!-- SnpEffManta&#45;&gt;SvVariantsToTable -->
<g id="edge8" class="edge">
<title>SnpEffManta&#45;&gt;SvVariantsToTable</title>
<path fill="none" stroke="#000000" d="M668.3194,-795.9468C638.7199,-784.847 597.1172,-769.2459 564.5346,-757.0275"/>
<polygon fill="#000000" stroke="#000000" points="565.7619,-753.7498 555.1696,-753.5156 563.304,-760.3041 565.7619,-753.7498"/>
</g>
<!-- SvVariantsToMinTable -->
<g id="node10" class="node">
<title>SvVariantsToMinTable</title>
<ellipse fill="none" stroke="#000000" cx="705.7947" cy="-738" rx="94.7833" ry="18"/>
<text text-anchor="middle" x="705.7947" y="-734.3" font-family="Times,serif" font-size="14.00" fill="#000000">SvVariantsToMinTable</text>
</g>
<!-- SnpEffManta&#45;&gt;SvVariantsToMinTable -->
<g id="edge9" class="edge">
<title>SnpEffManta&#45;&gt;SvVariantsToMinTable</title>
<path fill="none" stroke="#000000" d="M705.7947,-791.8314C705.7947,-784.131 705.7947,-774.9743 705.7947,-766.4166"/>
<polygon fill="#000000" stroke="#000000" points="709.2948,-766.4132 705.7947,-756.4133 702.2948,-766.4133 709.2948,-766.4132"/>
</g>
<!-- MultiQC -->
<g id="node43" class="node">
<title>MultiQC</title>
<ellipse fill="none" stroke="#000000" cx="1065.7947" cy="-162" rx="42.7926" ry="18"/>
<text text-anchor="middle" x="1065.7947" y="-158.3" font-family="Times,serif" font-size="14.00" fill="#000000">MultiQC</text>
</g>
<!-- SnpEffManta&#45;&gt;MultiQC -->
<g id="edge60" class="edge">
<title>SnpEffManta&#45;&gt;MultiQC</title>
<path fill="none" stroke="#000000" d="M748.1373,-797.5143C769.6209,-789.0958 794.3673,-775.8312 809.7947,-756 900.6134,-639.2571 783.742,-539.0616 885.7947,-432 925.9792,-389.8431 971.6862,-438.2292 1011.7947,-396 1065.9825,-338.947 1069.6225,-238.8394 1067.7935,-190.1653"/>
<polygon fill="#000000" stroke="#000000" points="1071.2831,-189.8644 1067.3042,-180.0451 1064.2913,-190.2025 1071.2831,-189.8644"/>
</g>
<!-- SampleMarkdown -->
<g id="node15" class="node">
<title>SampleMarkdown</title>
<ellipse fill="none" stroke="#000000" cx="786.7947" cy="-306" rx="76.8869" ry="18"/>
<text text-anchor="middle" x="786.7947" y="-302.3" font-family="Times,serif" font-size="14.00" fill="#000000">SampleMarkdown</text>
</g>
<!-- CollectMultipleMetrics&#45;&gt;SampleMarkdown -->
<g id="edge15" class="edge">
<title>CollectMultipleMetrics&#45;&gt;SampleMarkdown</title>
<path fill="none" stroke="#000000" d="M879.5727,-360.7542C863.0045,-350.9763 842.097,-338.6374 824.3253,-328.1492"/>
<polygon fill="#000000" stroke="#000000" points="825.7483,-324.925 815.3574,-322.8566 822.1905,-330.9535 825.7483,-324.925"/>
</g>
<!-- Cleanup -->
<g id="node44" class="node">
<title>Cleanup</title>
<ellipse fill="none" stroke="#000000" cx="994.7947" cy="-18" rx="40.0939" ry="18"/>
<text text-anchor="middle" x="994.7947" y="-14.3" font-family="Times,serif" font-size="14.00" fill="#000000">Cleanup</text>
</g>
<!-- CollectMultipleMetrics&#45;&gt;Cleanup -->
<g id="edge67" class="edge">
<title>CollectMultipleMetrics&#45;&gt;Cleanup</title>
<path fill="none" stroke="#000000" d="M918.9743,-360.0031C933.0642,-333.3554 956.7947,-281.4342 956.7947,-234 956.7947,-234 956.7947,-234 956.7947,-162 956.7947,-120.1368 971.995,-73.6262 983.1684,-45.0925"/>
<polygon fill="#000000" stroke="#000000" points="986.4271,-46.3698 986.9211,-35.7865 979.9351,-43.7518 986.4271,-46.3698"/>
</g>
<!-- CalculateHsMetrics&#45;&gt;SampleMarkdown -->
<g id="edge14" class="edge">
<title>CalculateHsMetrics&#45;&gt;SampleMarkdown</title>
<path fill="none" stroke="#000000" d="M703.9029,-360.7542C718.4635,-351.1362 736.7753,-339.0403 752.482,-328.6653"/>
<polygon fill="#000000" stroke="#000000" points="754.4846,-331.5371 760.8995,-323.1051 750.6264,-325.6963 754.4846,-331.5371"/>
</g>
<!-- CalculateHsMetrics&#45;&gt;Cleanup -->
<g id="edge66" class="edge">
<title>CalculateHsMetrics&#45;&gt;Cleanup</title>
<path fill="none" stroke="#000000" d="M678.2091,-359.8157C678.7949,-332.5008 679.7947,-279.2544 679.7947,-234 679.7947,-234 679.7947,-234 679.7947,-162 679.7947,-103.5086 861.7146,-50.7548 949.0545,-28.7983"/>
<polygon fill="#000000" stroke="#000000" points="950.1053,-32.1437 958.9669,-26.3366 948.4181,-25.3501 950.1053,-32.1437"/>
</g>
<!-- GatkDepthOfCoverage -->
<g id="node14" class="node">
<title>GatkDepthOfCoverage</title>
<ellipse fill="none" stroke="#000000" cx="1024.7947" cy="-522" rx="92.0841" ry="18"/>
<text text-anchor="middle" x="1024.7947" y="-518.3" font-family="Times,serif" font-size="14.00" fill="#000000">GatkDepthOfCoverage</text>
</g>
<!-- GatkDepthOfCoverage&#45;&gt;SampleMarkdown -->
<g id="edge13" class="edge">
<title>GatkDepthOfCoverage&#45;&gt;SampleMarkdown</title>
<path fill="none" stroke="#000000" d="M1021.1702,-503.758C1016.0717,-483.0767 1004.7161,-449.9155 981.7947,-432 918.8882,-382.832 862.4288,-452.2787 805.7947,-396 789.7596,-380.0655 785.6485,-354.2342 785.1774,-334.3236"/>
<polygon fill="#000000" stroke="#000000" points="788.6776,-334.2714 785.2281,-324.2539 781.6777,-334.2361 788.6776,-334.2714"/>
</g>
<!-- ProjectMarkdown -->
<g id="node41" class="node">
<title>ProjectMarkdown</title>
<ellipse fill="none" stroke="#000000" cx="853.7947" cy="-234" rx="74.9875" ry="18"/>
<text text-anchor="middle" x="853.7947" y="-230.3" font-family="Times,serif" font-size="14.00" fill="#000000">ProjectMarkdown</text>
</g>
<!-- SampleMarkdown&#45;&gt;ProjectMarkdown -->
<g id="edge57" class="edge">
<title>SampleMarkdown&#45;&gt;ProjectMarkdown</title>
<path fill="none" stroke="#000000" d="M803.3565,-288.2022C811.5512,-279.396 821.5809,-268.6179 830.5318,-258.9989"/>
<polygon fill="#000000" stroke="#000000" points="833.1733,-261.2981 837.4234,-251.593 828.0488,-256.5294 833.1733,-261.2981"/>
</g>
<!-- Fastqc -->
<g id="node16" class="node">
<title>Fastqc</title>
<ellipse fill="none" stroke="#000000" cx="544.7947" cy="-378" rx="33.5952" ry="18"/>
<text text-anchor="middle" x="544.7947" y="-374.3" font-family="Times,serif" font-size="14.00" fill="#000000">Fastqc</text>
</g>
<!-- Fastqc&#45;&gt;SampleMarkdown -->
<g id="edge16" class="edge">
<title>Fastqc&#45;&gt;SampleMarkdown</title>
<path fill="none" stroke="#000000" d="M570.9626,-366.4029C576.471,-364.1437 582.2835,-361.8921 587.7947,-360 632.1172,-344.7833 683.1457,-331.0088 722.4323,-321.1805"/>
<polygon fill="#000000" stroke="#000000" points="723.2932,-324.5731 732.1563,-318.7683 721.6077,-317.779 723.2932,-324.5731"/>
</g>
<!-- Fastqc&#45;&gt;Cleanup -->
<g id="edge68" class="edge">
<title>Fastqc&#45;&gt;Cleanup</title>
<path fill="none" stroke="#000000" d="M554.9475,-360.4707C569.2999,-333.9913 593.7947,-281.798 593.7947,-234 593.7947,-234 593.7947,-234 593.7947,-162 593.7947,-89.889 662.2127,-99.6919 728.7947,-72 800.5305,-42.1645 890.1981,-28.361 944.945,-22.3144"/>
<polygon fill="#000000" stroke="#000000" points="945.5056,-25.7747 955.0808,-21.2397 944.7675,-18.8137 945.5056,-25.7747"/>
</g>
<!-- IndelRealignmentKnown&#45;&gt;GatkDepthOfCoverage -->
<g id="edge18" class="edge">
<title>IndelRealignmentKnown&#45;&gt;GatkDepthOfCoverage</title>
<path fill="none" stroke="#000000" d="M1052.0967,-864.8375C1036.6563,-855.621 1019.0976,-843.0484 1006.7947,-828 979.3125,-794.3851 968.7947,-781.4193 968.7947,-738 968.7947,-738 968.7947,-738 968.7947,-666 968.7947,-622.8617 990.8946,-577.0945 1007.3279,-549.0255"/>
<polygon fill="#000000" stroke="#000000" points="1010.4747,-550.5847 1012.6435,-540.2143 1004.481,-546.9688 1010.4747,-550.5847"/>
</g>
<!-- MergeBamFilesFreebayes -->
<g id="node18" class="node">
<title>MergeBamFilesFreebayes</title>
<ellipse fill="none" stroke="#000000" cx="1138.7947" cy="-810" rx="103.9815" ry="18"/>
<text text-anchor="middle" x="1138.7947" y="-806.3" font-family="Times,serif" font-size="14.00" fill="#000000">MergeBamFilesFreebayes</text>
</g>
<!-- IndelRealignmentKnown&#45;&gt;MergeBamFilesFreebayes -->
<g id="edge19" class="edge">
<title>IndelRealignmentKnown&#45;&gt;MergeBamFilesFreebayes</title>
<path fill="none" stroke="#000000" d="M1099.1688,-863.8314C1105.3671,-855.411 1112.8471,-845.2495 1119.6309,-836.0338"/>
<polygon fill="#000000" stroke="#000000" points="1122.4989,-838.0417 1125.6084,-827.9134 1116.8615,-833.8919 1122.4989,-838.0417"/>
</g>
<!-- HaplotypeCaller -->
<g id="node21" class="node">
<title>HaplotypeCaller</title>
<ellipse fill="none" stroke="#000000" cx="1108.7947" cy="-594" rx="68.7879" ry="18"/>
<text text-anchor="middle" x="1108.7947" y="-590.3" font-family="Times,serif" font-size="14.00" fill="#000000">HaplotypeCaller</text>
</g>
<!-- IndelRealignmentKnown&#45;&gt;HaplotypeCaller -->
<g id="edge22" class="edge">
<title>IndelRealignmentKnown&#45;&gt;HaplotypeCaller</title>
<path fill="none" stroke="#000000" d="M1057.5223,-864.5382C1045.3478,-855.3299 1032.4085,-842.8503 1025.7947,-828 993.2476,-754.92 987.6515,-718.3214 1025.7947,-648 1033.5942,-633.6208 1047.0631,-622.4703 1060.9091,-614.135"/>
<polygon fill="#000000" stroke="#000000" points="1062.9796,-616.9877 1070.0065,-609.0585 1059.5686,-610.875 1062.9796,-616.9877"/>
</g>
<!-- CnvProfile -->
<g id="node23" class="node">
<title>CnvProfile</title>
<ellipse fill="none" stroke="#000000" cx="1470.7947" cy="-378" rx="49.2915" ry="18"/>
<text text-anchor="middle" x="1470.7947" y="-374.3" font-family="Times,serif" font-size="14.00" fill="#000000">CnvProfile</text>
</g>
<!-- IndelRealignmentKnown&#45;&gt;CnvProfile -->
<g id="edge25" class="edge">
<title>IndelRealignmentKnown&#45;&gt;CnvProfile</title>
<path fill="none" stroke="#000000" d="M1159.1222,-869.7216C1171.3597,-867.7527 1183.9296,-865.7794 1195.7947,-864 1386.4211,-835.4112 1610.7947,-930.7583 1610.7947,-738 1610.7947,-738 1610.7947,-738 1610.7947,-522 1610.7947,-463.8533 1551.3859,-420.3563 1509.9685,-397.0972"/>
<polygon fill="#000000" stroke="#000000" points="1511.6286,-394.016 1501.1726,-392.3064 1508.2803,-400.1633 1511.6286,-394.016"/>
</g>
<!-- Mutect2Pon -->
<g id="node25" class="node">
<title>Mutect2Pon</title>
<ellipse fill="none" stroke="#000000" cx="1396.7947" cy="-810" rx="53.8905" ry="18"/>
<text text-anchor="middle" x="1396.7947" y="-806.3" font-family="Times,serif" font-size="14.00" fill="#000000">Mutect2Pon</text>
</g>
<!-- IndelRealignmentKnown&#45;&gt;Mutect2Pon -->
<g id="edge28" class="edge">
<title>IndelRealignmentKnown&#45;&gt;Mutect2Pon</title>
<path fill="none" stroke="#000000" d="M1147.2383,-867.7751C1204.0656,-854.619 1287.7376,-835.248 1342.2516,-822.6273"/>
<polygon fill="#000000" stroke="#000000" points="1343.1254,-826.0177 1352.0782,-820.3524 1341.5465,-819.1981 1343.1254,-826.0177"/>
</g>
<!-- Mutect2 -->
<g id="node27" class="node">
<title>Mutect2</title>
<ellipse fill="none" stroke="#000000" cx="1434.7947" cy="-666" rx="40.0939" ry="18"/>
<text text-anchor="middle" x="1434.7947" y="-662.3" font-family="Times,serif" font-size="14.00" fill="#000000">Mutect2</text>
</g>
<!-- IndelRealignmentKnown&#45;&gt;Mutect2 -->
<g id="edge30" class="edge">
<title>IndelRealignmentKnown&#45;&gt;Mutect2</title>
<path fill="none" stroke="#000000" d="M1148.2428,-867.8041C1188.7374,-857.476 1236.6706,-842.768 1251.7947,-828 1288.2014,-792.4503 1254.1424,-756.3063 1289.7947,-720 1315.4395,-693.8847 1354.8616,-680.2716 1386.1306,-673.2502"/>
<polygon fill="#000000" stroke="#000000" points="1386.8959,-676.6659 1395.9686,-671.1946 1385.4642,-669.8139 1386.8959,-676.6659"/>
</g>
<!-- Freebayes -->
<g id="node19" class="node">
<title>Freebayes</title>
<ellipse fill="none" stroke="#000000" cx="1241.7947" cy="-594" rx="46.2923" ry="18"/>
<text text-anchor="middle" x="1241.7947" y="-590.3" font-family="Times,serif" font-size="14.00" fill="#000000">Freebayes</text>
</g>
<!-- MergeBamFilesFreebayes&#45;&gt;Freebayes -->
<g id="edge20" class="edge">
<title>MergeBamFilesFreebayes&#45;&gt;Freebayes</title>
<path fill="none" stroke="#000000" d="M1151.8998,-792.0642C1168.7037,-768.3609 1197.814,-724.8227 1215.7947,-684 1224.6179,-663.9681 1231.35,-640.1238 1235.7511,-622.0123"/>
<polygon fill="#000000" stroke="#000000" points="1239.204,-622.6173 1238.0712,-612.0832 1232.3876,-621.0245 1239.204,-622.6173"/>
</g>
<!-- CombineVariants -->
<g id="node24" class="node">
<title>CombineVariants</title>
<ellipse fill="none" stroke="#000000" cx="1378.7947" cy="-522" rx="73.387" ry="18"/>
<text text-anchor="middle" x="1378.7947" y="-518.3" font-family="Times,serif" font-size="14.00" fill="#000000">CombineVariants</text>
</g>
<!-- Freebayes&#45;&gt;CombineVariants -->
<g id="edge33" class="edge">
<title>Freebayes&#45;&gt;CombineVariants</title>
<path fill="none" stroke="#000000" d="M1269.5187,-579.4297C1289.3098,-569.0286 1316.2409,-554.875 1338.4149,-543.2215"/>
<polygon fill="#000000" stroke="#000000" points="1340.0544,-546.3138 1347.2782,-538.5634 1336.7979,-540.1174 1340.0544,-546.3138"/>
</g>
<!-- CreatePaddedTargets -->
<g id="node20" class="node">
<title>CreatePaddedTargets</title>
<ellipse fill="none" stroke="#000000" cx="1120.7947" cy="-666" rx="85.5853" ry="18"/>
<text text-anchor="middle" x="1120.7947" y="-662.3" font-family="Times,serif" font-size="14.00" fill="#000000">CreatePaddedTargets</text>
</g>
<!-- CreatePaddedTargets&#45;&gt;Freebayes -->
<g id="edge21" class="edge">
<title>CreatePaddedTargets&#45;&gt;Freebayes</title>
<path fill="none" stroke="#000000" d="M1149.47,-648.937C1166.8868,-638.5733 1189.2227,-625.2825 1207.5623,-614.3697"/>
<polygon fill="#000000" stroke="#000000" points="1209.4014,-617.3481 1216.2054,-609.2267 1205.8219,-611.3326 1209.4014,-617.3481"/>
</g>
<!-- CreatePaddedTargets&#45;&gt;HaplotypeCaller -->
<g id="edge23" class="edge">
<title>CreatePaddedTargets&#45;&gt;HaplotypeCaller</title>
<path fill="none" stroke="#000000" d="M1117.7666,-647.8314C1116.4832,-640.131 1114.9571,-630.9743 1113.5308,-622.4166"/>
<polygon fill="#000000" stroke="#000000" points="1116.96,-621.7018 1111.8636,-612.4133 1110.0553,-622.8526 1116.96,-621.7018"/>
</g>
<!-- HaplotypeCaller&#45;&gt;CombineVariants -->
<g id="edge34" class="edge">
<title>HaplotypeCaller&#45;&gt;CombineVariants</title>
<path fill="none" stroke="#000000" d="M1157.0653,-581.1278C1202.3334,-569.0563 1270.1637,-550.9683 1318.8734,-537.979"/>
<polygon fill="#000000" stroke="#000000" points="1319.8944,-541.3291 1328.6549,-535.3706 1318.0907,-534.5655 1319.8944,-541.3291"/>
</g>
<!-- HaplotypeCaller&#45;&gt;Cleanup -->
<g id="edge71" class="edge">
<title>HaplotypeCaller&#45;&gt;Cleanup</title>
<path fill="none" stroke="#000000" d="M1116.4294,-575.7257C1126.9968,-548.7325 1144.7947,-496.3849 1144.7947,-450 1144.7947,-450 1144.7947,-450 1144.7947,-378 1144.7947,-272.483 1050.0381,-279.0971 1013.7947,-180 997.4531,-135.3185 994.3774,-79.5101 994.1938,-46.4241"/>
<polygon fill="#000000" stroke="#000000" points="997.6947,-46.135 994.2274,-36.1236 990.6947,-46.1121 997.6947,-46.135"/>
</g>
<!-- MergeVariants -->
<g id="node22" class="node">
<title>MergeVariants</title>
<ellipse fill="none" stroke="#000000" cx="1378.7947" cy="-450" rx="63.8893" ry="18"/>
<text text-anchor="middle" x="1378.7947" y="-446.3" font-family="Times,serif" font-size="14.00" fill="#000000">MergeVariants</text>
</g>
<!-- MergeVariants&#45;&gt;CnvProfile -->
<g id="edge24" class="edge">
<title>MergeVariants&#45;&gt;CnvProfile</title>
<path fill="none" stroke="#000000" d="M1395.1871,-432.5708C1406.8745,-422.6208 1422.7989,-410.0643 1437.0778,-399.5052"/>
<polygon fill="#000000" stroke="#000000" points="1439.227,-402.2698 1445.2504,-393.5537 1435.1063,-396.6112 1439.227,-402.2698"/>
</g>
<!-- MergeVariants&#45;&gt;CnvProfile -->
<g id="edge27" class="edge">
<title>MergeVariants&#45;&gt;CnvProfile</title>
<path fill="none" stroke="#000000" d="M1405.9334,-433.3008C1418.9774,-423.8954 1434.3782,-411.9946 1446.9658,-401.6444"/>
<polygon fill="#000000" stroke="#000000" points="1449.3542,-404.2097 1454.7784,-395.1086 1444.8626,-398.8407 1449.3542,-404.2097"/>
</g>
<!-- VariantAnnotation -->
<g id="node29" class="node">
<title>VariantAnnotation</title>
<ellipse fill="none" stroke="#000000" cx="1326.7947" cy="-378" rx="76.8869" ry="18"/>
<text text-anchor="middle" x="1326.7947" y="-374.3" font-family="Times,serif" font-size="14.00" fill="#000000">VariantAnnotation</text>
</g>
<!-- MergeVariants&#45;&gt;VariantAnnotation -->
<g id="edge37" class="edge">
<title>MergeVariants&#45;&gt;VariantAnnotation</title>
<path fill="none" stroke="#000000" d="M1365.9408,-432.2022C1359.8157,-423.7214 1352.3697,-413.4115 1345.6227,-404.0696"/>
<polygon fill="#000000" stroke="#000000" points="1348.3733,-401.9001 1339.681,-395.8425 1342.6985,-405.9986 1348.3733,-401.9001"/>
</g>
<!-- CombineVariants&#45;&gt;MergeVariants -->
<g id="edge36" class="edge">
<title>CombineVariants&#45;&gt;MergeVariants</title>
<path fill="none" stroke="#000000" d="M1378.7947,-503.8314C1378.7947,-496.131 1378.7947,-486.9743 1378.7947,-478.4166"/>
<polygon fill="#000000" stroke="#000000" points="1382.2948,-478.4132 1378.7947,-468.4133 1375.2948,-478.4133 1382.2948,-478.4132"/>
</g>
<!-- CombineVariants&#45;&gt;CnvProfile -->
<g id="edge26" class="edge">
<title>CombineVariants&#45;&gt;CnvProfile</title>
<path fill="none" stroke="#000000" d="M1410.4271,-505.718C1425.1693,-496.5618 1441.656,-483.7837 1451.7947,-468 1463.6097,-449.6066 1468.2218,-425.1491 1469.9559,-406.3726"/>
<polygon fill="#000000" stroke="#000000" points="1473.4517,-406.5534 1470.6639,-396.3319 1466.4691,-406.0609 1473.4517,-406.5534"/>
</g>
<!-- MergeMutect2PonVariantsByProject -->
<g id="node26" class="node">
<title>MergeMutect2PonVariantsByProject</title>
<ellipse fill="none" stroke="#000000" cx="1440.7947" cy="-738" rx="142.1749" ry="18"/>
<text text-anchor="middle" x="1440.7947" y="-734.3" font-family="Times,serif" font-size="14.00" fill="#000000">MergeMutect2PonVariantsByProject</text>
</g>
<!-- Mutect2Pon&#45;&gt;MergeMutect2PonVariantsByProject -->
<g id="edge29" class="edge">
<title>Mutect2Pon&#45;&gt;MergeMutect2PonVariantsByProject</title>
<path fill="none" stroke="#000000" d="M1407.6711,-792.2022C1412.7099,-783.9569 1418.8052,-773.9828 1424.3863,-764.8501"/>
<polygon fill="#000000" stroke="#000000" points="1427.5097,-766.451 1429.7378,-756.0931 1421.5367,-762.8009 1427.5097,-766.451"/>
</g>
<!-- MergeMutect2PonVariantsByProject&#45;&gt;Mutect2 -->
<g id="edge31" class="edge">
<title>MergeMutect2PonVariantsByProject&#45;&gt;Mutect2</title>
<path fill="none" stroke="#000000" d="M1439.2806,-719.8314C1438.6389,-712.131 1437.8759,-702.9743 1437.1627,-694.4166"/>
<polygon fill="#000000" stroke="#000000" points="1440.6476,-694.088 1436.3291,-684.4133 1433.6718,-694.6694 1440.6476,-694.088"/>
</g>
<!-- MergeMutect2VariantsByProject -->
<g id="node28" class="node">
<title>MergeMutect2VariantsByProject</title>
<ellipse fill="none" stroke="#000000" cx="1434.7947" cy="-594" rx="128.8774" ry="18"/>
<text text-anchor="middle" x="1434.7947" y="-590.3" font-family="Times,serif" font-size="14.00" fill="#000000">MergeMutect2VariantsByProject</text>
</g>
<!-- Mutect2&#45;&gt;MergeMutect2VariantsByProject -->
<g id="edge32" class="edge">
<title>Mutect2&#45;&gt;MergeMutect2VariantsByProject</title>
<path fill="none" stroke="#000000" d="M1434.7947,-647.8314C1434.7947,-640.131 1434.7947,-630.9743 1434.7947,-622.4166"/>
<polygon fill="#000000" stroke="#000000" points="1438.2948,-622.4132 1434.7947,-612.4133 1431.2948,-622.4133 1438.2948,-622.4132"/>
</g>
<!-- MergeMutect2VariantsByProject&#45;&gt;CombineVariants -->
<g id="edge35" class="edge">
<title>MergeMutect2VariantsByProject&#45;&gt;CombineVariants</title>
<path fill="none" stroke="#000000" d="M1420.6635,-575.8314C1414.1144,-567.411 1406.211,-557.2495 1399.0432,-548.0338"/>
<polygon fill="#000000" stroke="#000000" points="1401.6295,-545.6581 1392.7273,-539.9134 1396.1041,-549.9558 1401.6295,-545.6581"/>
</g>
<!-- CustTumorNormalAnnotations -->
<g id="node30" class="node">
<title>CustTumorNormalAnnotations</title>
<ellipse fill="none" stroke="#000000" cx="1402.7947" cy="-306" rx="121.5784" ry="18"/>
<text text-anchor="middle" x="1402.7947" y="-302.3" font-family="Times,serif" font-size="14.00" fill="#000000">CustTumorNormalAnnotations</text>
</g>
<!-- VariantAnnotation&#45;&gt;CustTumorNormalAnnotations -->
<g id="edge38" class="edge">
<title>VariantAnnotation&#45;&gt;CustTumorNormalAnnotations</title>
<path fill="none" stroke="#000000" d="M1345.5812,-360.2022C1354.8986,-351.3752 1366.3074,-340.5669 1376.479,-330.9307"/>
<polygon fill="#000000" stroke="#000000" points="1379.1085,-333.2609 1383.9609,-323.8425 1374.2942,-328.1792 1379.1085,-333.2609"/>
</g>
<!-- VariantAnnotation&#45;&gt;MultiQC -->
<g id="edge64" class="edge">
<title>VariantAnnotation&#45;&gt;MultiQC</title>
<path fill="none" stroke="#000000" d="M1305.436,-360.3238C1258.2857,-321.3029 1145.3534,-227.8417 1093.1325,-184.6244"/>
<polygon fill="#000000" stroke="#000000" points="1095.2275,-181.8151 1085.2921,-178.1357 1090.7645,-187.2078 1095.2275,-181.8151"/>
</g>
<!-- SelectIndels -->
<g id="node31" class="node">
<title>SelectIndels</title>
<ellipse fill="none" stroke="#000000" cx="1646.7947" cy="-234" rx="53.8905" ry="18"/>
<text text-anchor="middle" x="1646.7947" y="-230.3" font-family="Times,serif" font-size="14.00" fill="#000000">SelectIndels</text>
</g>
<!-- CustTumorNormalAnnotations&#45;&gt;SelectIndels -->
<g id="edge39" class="edge">
<title>CustTumorNormalAnnotations&#45;&gt;SelectIndels</title>
<path fill="none" stroke="#000000" d="M1457.5531,-289.8418C1499.2201,-277.5466 1556.105,-260.7609 1596.6015,-248.8111"/>
<polygon fill="#000000" stroke="#000000" points="1597.6661,-252.1462 1606.2666,-245.9591 1595.6849,-245.4324 1597.6661,-252.1462"/>
</g>
<!-- SelectSNV -->
<g id="node32" class="node">
<title>SelectSNV</title>
<ellipse fill="none" stroke="#000000" cx="1402.7947" cy="-234" rx="50.0912" ry="18"/>
<text text-anchor="middle" x="1402.7947" y="-230.3" font-family="Times,serif" font-size="14.00" fill="#000000">SelectSNV</text>
</g>
<!-- CustTumorNormalAnnotations&#45;&gt;SelectSNV -->
<g id="edge40" class="edge">
<title>CustTumorNormalAnnotations&#45;&gt;SelectSNV</title>
<path fill="none" stroke="#000000" d="M1402.7947,-287.8314C1402.7947,-280.131 1402.7947,-270.9743 1402.7947,-262.4166"/>
<polygon fill="#000000" stroke="#000000" points="1406.2948,-262.4132 1402.7947,-252.4133 1399.2948,-262.4133 1406.2948,-262.4132"/>
</g>
<!-- IndelVariantsToTable -->
<g id="node33" class="node">
<title>IndelVariantsToTable</title>
<ellipse fill="none" stroke="#000000" cx="2408.7947" cy="-162" rx="88.2844" ry="18"/>
<text text-anchor="middle" x="2408.7947" y="-158.3" font-family="Times,serif" font-size="14.00" fill="#000000">IndelVariantsToTable</text>
</g>
<!-- SelectIndels&#45;&gt;IndelVariantsToTable -->
<g id="edge41" class="edge">
<title>SelectIndels&#45;&gt;IndelVariantsToTable</title>
<path fill="none" stroke="#000000" d="M1700.3508,-231.4742C1813.4704,-225.7378 2084.9118,-209.8525 2310.7947,-180 2318.7805,-178.9446 2327.1037,-177.6776 2335.3773,-176.3108"/>
<polygon fill="#000000" stroke="#000000" points="2336.1477,-179.7301 2345.4186,-174.6018 2334.9731,-172.8294 2336.1477,-179.7301"/>
</g>
<!-- IndelVariantsToMinTable -->
<g id="node34" class="node">
<title>IndelVariantsToMinTable</title>
<ellipse fill="none" stroke="#000000" cx="1646.7947" cy="-162" rx="103.1819" ry="18"/>
<text text-anchor="middle" x="1646.7947" y="-158.3" font-family="Times,serif" font-size="14.00" fill="#000000">IndelVariantsToMinTable</text>
</g>
<!-- SelectIndels&#45;&gt;IndelVariantsToMinTable -->
<g id="edge42" class="edge">
<title>SelectIndels&#45;&gt;IndelVariantsToMinTable</title>
<path fill="none" stroke="#000000" d="M1646.7947,-215.8314C1646.7947,-208.131 1646.7947,-198.9743 1646.7947,-190.4166"/>
<polygon fill="#000000" stroke="#000000" points="1650.2948,-190.4132 1646.7947,-180.4133 1643.2948,-190.4133 1650.2948,-190.4132"/>
</g>
<!-- IndelVariantsToDescriptionTable -->
<g id="node37" class="node">
<title>IndelVariantsToDescriptionTable</title>
<ellipse fill="none" stroke="#000000" cx="2172.7947" cy="-162" rx="129.1772" ry="18"/>
<text text-anchor="middle" x="2172.7947" y="-158.3" font-family="Times,serif" font-size="14.00" fill="#000000">IndelVariantsToDescriptionTable</text>
</g>
<!-- SelectIndels&#45;&gt;IndelVariantsToDescriptionTable -->
<g id="edge45" class="edge">
<title>SelectIndels&#45;&gt;IndelVariantsToDescriptionTable</title>
<path fill="none" stroke="#000000" d="M1696.7537,-227.1615C1782.1365,-215.4741 1957.7813,-191.4315 2070.1872,-176.0451"/>
<polygon fill="#000000" stroke="#000000" points="2070.7549,-179.5002 2080.1878,-174.6762 2069.8055,-172.5648 2070.7549,-179.5002"/>
</g>
<!-- SelectIndels&#45;&gt;MultiQC -->
<g id="edge61" class="edge">
<title>SelectIndels&#45;&gt;MultiQC</title>
<path fill="none" stroke="#000000" d="M1594.99,-228.8711C1464.0536,-215.887 1129.3865,-182.5616 1117.7947,-180 1114.2266,-179.2115 1110.5639,-178.2568 1106.9145,-177.2032"/>
<polygon fill="#000000" stroke="#000000" points="1107.9479,-173.8593 1097.3595,-174.2292 1105.8675,-180.543 1107.9479,-173.8593"/>
</g>
<!-- SNVVariantsToTable -->
<g id="node35" class="node">
<title>SNVVariantsToTable</title>
<ellipse fill="none" stroke="#000000" cx="1437.7947" cy="-162" rx="87.9851" ry="18"/>
<text text-anchor="middle" x="1437.7947" y="-158.3" font-family="Times,serif" font-size="14.00" fill="#000000">SNVVariantsToTable</text>
</g>
<!-- SelectSNV&#45;&gt;SNVVariantsToTable -->
<g id="edge43" class="edge">
<title>SelectSNV&#45;&gt;SNVVariantsToTable</title>
<path fill="none" stroke="#000000" d="M1411.4464,-216.2022C1415.4128,-208.0428 1420.2021,-198.1904 1424.6037,-189.1358"/>
<polygon fill="#000000" stroke="#000000" points="1427.7752,-190.617 1428.9994,-180.0931 1421.4797,-187.5566 1427.7752,-190.617"/>
</g>
<!-- SNVVariantsToMinTable -->
<g id="node36" class="node">
<title>SNVVariantsToMinTable</title>
<ellipse fill="none" stroke="#000000" cx="1229.7947" cy="-162" rx="102.8821" ry="18"/>
<text text-anchor="middle" x="1229.7947" y="-158.3" font-family="Times,serif" font-size="14.00" fill="#000000">SNVVariantsToMinTable</text>
</g>
<!-- SelectSNV&#45;&gt;SNVVariantsToMinTable -->
<g id="edge44" class="edge">
<title>SelectSNV&#45;&gt;SNVVariantsToMinTable</title>
<path fill="none" stroke="#000000" d="M1369.8475,-220.2879C1344.3046,-209.6573 1308.4902,-194.7519 1279.4729,-182.6753"/>
<polygon fill="#000000" stroke="#000000" points="1280.4947,-179.3096 1269.9175,-178.6985 1277.805,-185.7723 1280.4947,-179.3096"/>
</g>
<!-- SNVVariantsToDescriptionTable -->
<g id="node38" class="node">
<title>SNVVariantsToDescriptionTable</title>
<ellipse fill="none" stroke="#000000" cx="1896.7947" cy="-162" rx="128.8774" ry="18"/>
<text text-anchor="middle" x="1896.7947" y="-158.3" font-family="Times,serif" font-size="14.00" fill="#000000">SNVVariantsToDescriptionTable</text>
</g>
<!-- SelectSNV&#45;&gt;SNVVariantsToDescriptionTable -->
<g id="edge46" class="edge">
<title>SelectSNV&#45;&gt;SNVVariantsToDescriptionTable</title>
<path fill="none" stroke="#000000" d="M1449.269,-227.2264C1528.4961,-215.6791 1691.391,-191.9374 1797.2621,-176.5068"/>
<polygon fill="#000000" stroke="#000000" points="1797.9343,-179.9459 1807.325,-175.0401 1796.9247,-173.0191 1797.9343,-179.9459"/>
</g>
<!-- SelectSNV&#45;&gt;MultiQC -->
<g id="edge62" class="edge">
<title>SelectSNV&#45;&gt;MultiQC</title>
<path fill="none" stroke="#000000" d="M1355.9229,-227.2705C1299.0568,-218.614 1200.523,-202.0296 1117.7947,-180 1114.4626,-179.1127 1111.0365,-178.1178 1107.609,-177.0633"/>
<polygon fill="#000000" stroke="#000000" points="1108.6147,-173.7102 1098.0231,-173.9733 1106.4671,-180.3726 1108.6147,-173.7102"/>
</g>
<!-- TablesToSplitTables -->
<g id="node39" class="node">
<title>TablesToSplitTables</title>
<ellipse fill="none" stroke="#000000" cx="1668.7947" cy="-90" rx="83.6854" ry="18"/>
<text text-anchor="middle" x="1668.7947" y="-86.3" font-family="Times,serif" font-size="14.00" fill="#000000">TablesToSplitTables</text>
</g>
<!-- IndelVariantsToTable&#45;&gt;TablesToSplitTables -->
<g id="edge52" class="edge">
<title>IndelVariantsToTable&#45;&gt;TablesToSplitTables</title>
<path fill="none" stroke="#000000" d="M2345.6938,-149.3509C2334.1204,-147.333 2322.1206,-145.4394 2310.7947,-144 2087.576,-115.6322 2029.6642,-130.666 1805.7947,-108 1787.2832,-106.1258 1767.4132,-103.735 1748.707,-101.3127"/>
<polygon fill="#000000" stroke="#000000" points="1749.119,-97.8368 1738.7487,-100.0064 1748.2085,-104.7773 1749.119,-97.8368"/>
</g>
<!-- TablesToXlsx -->
<g id="node40" class="node">
<title>TablesToXlsx</title>
<ellipse fill="none" stroke="#000000" cx="1874.7947" cy="-90" rx="60.3893" ry="18"/>
<text text-anchor="middle" x="1874.7947" y="-86.3" font-family="Times,serif" font-size="14.00" fill="#000000">TablesToXlsx</text>
</g>
<!-- IndelVariantsToTable&#45;&gt;TablesToXlsx -->
<g id="edge53" class="edge">
<title>IndelVariantsToTable&#45;&gt;TablesToXlsx</title>
<path fill="none" stroke="#000000" d="M2344.3094,-149.6024C2333.1525,-147.616 2321.6519,-145.668 2310.7947,-144 2180.7587,-124.0227 2028.0182,-106.451 1942.203,-97.1126"/>
<polygon fill="#000000" stroke="#000000" points="1942.3945,-93.6129 1932.0756,-96.015 1941.6402,-100.5722 1942.3945,-93.6129"/>
</g>
<!-- IndelVariantsToMinTable&#45;&gt;TablesToSplitTables -->
<g id="edge51" class="edge">
<title>IndelVariantsToMinTable&#45;&gt;TablesToSplitTables</title>
<path fill="none" stroke="#000000" d="M1652.3462,-143.8314C1654.725,-136.0463 1657.5585,-126.7729 1660.198,-118.1347"/>
<polygon fill="#000000" stroke="#000000" points="1663.5934,-118.9996 1663.1684,-108.4133 1656.8989,-116.954 1663.5934,-118.9996"/>
</g>
<!-- SNVVariantsToTable&#45;&gt;TablesToSplitTables -->
<g id="edge50" class="edge">
<title>SNVVariantsToTable&#45;&gt;TablesToSplitTables</title>
<path fill="none" stroke="#000000" d="M1486.2199,-146.9064C1522.6535,-135.5505 1572.714,-119.9472 1611.2018,-107.951"/>
<polygon fill="#000000" stroke="#000000" points="1612.7191,-111.1443 1621.2246,-104.8271 1610.636,-104.4614 1612.7191,-111.1443"/>
</g>
<!-- SNVVariantsToTable&#45;&gt;TablesToXlsx -->
<g id="edge54" class="edge">
<title>SNVVariantsToTable&#45;&gt;TablesToXlsx</title>
<path fill="none" stroke="#000000" d="M1502.4517,-149.758C1513.2435,-147.7848 1524.3292,-145.8006 1534.7947,-144 1635.4653,-126.6798 1660.9113,-124.0345 1761.7947,-108 1777.8793,-105.4435 1795.2511,-102.6783 1811.4359,-100.1004"/>
<polygon fill="#000000" stroke="#000000" points="1812.0129,-103.5527 1821.3378,-98.523 1810.9116,-96.6398 1812.0129,-103.5527"/>
</g>
<!-- SNVVariantsToMinTable&#45;&gt;TablesToSplitTables -->
<g id="edge49" class="edge">
<title>SNVVariantsToMinTable&#45;&gt;TablesToSplitTables</title>
<path fill="none" stroke="#000000" d="M1305.2615,-149.6228C1385.3112,-136.4939 1511.1192,-115.8602 1591.7603,-102.6343"/>
<polygon fill="#000000" stroke="#000000" points="1592.5507,-106.0516 1601.8523,-100.9792 1591.4177,-99.1439 1592.5507,-106.0516"/>
</g>
<!-- IndelVariantsToDescriptionTable&#45;&gt;TablesToSplitTables -->
<g id="edge48" class="edge">
<title>IndelVariantsToDescriptionTable&#45;&gt;TablesToSplitTables</title>
<path fill="none" stroke="#000000" d="M2082.3987,-149.0863C1987.5175,-135.5318 1839.7701,-114.4251 1748.9307,-101.448"/>
<polygon fill="#000000" stroke="#000000" points="1749.3549,-97.9732 1738.9604,-100.0237 1748.3649,-104.9028 1749.3549,-97.9732"/>
</g>
<!-- IndelVariantsToDescriptionTable&#45;&gt;TablesToXlsx -->
<g id="edge56" class="edge">
<title>IndelVariantsToDescriptionTable&#45;&gt;TablesToXlsx</title>
<path fill="none" stroke="#000000" d="M2108.1331,-146.3771C2055.4953,-133.6592 1981.9185,-115.8823 1931.5408,-103.7105"/>
<polygon fill="#000000" stroke="#000000" points="1932.33,-100.3005 1921.7876,-101.354 1930.6859,-107.1047 1932.33,-100.3005"/>
</g>
<!-- SNVVariantsToDescriptionTable&#45;&gt;TablesToSplitTables -->
<g id="edge47" class="edge">
<title>SNVVariantsToDescriptionTable&#45;&gt;TablesToSplitTables</title>
<path fill="none" stroke="#000000" d="M1844.4869,-145.4817C1809.156,-134.3246 1762.512,-119.5949 1726.164,-108.1166"/>
<polygon fill="#000000" stroke="#000000" points="1726.7928,-104.6449 1716.203,-104.971 1724.6849,-111.32 1726.7928,-104.6449"/>
</g>
<!-- SNVVariantsToDescriptionTable&#45;&gt;TablesToXlsx -->
<g id="edge55" class="edge">
<title>SNVVariantsToDescriptionTable&#45;&gt;TablesToXlsx</title>
<path fill="none" stroke="#000000" d="M1891.2432,-143.8314C1888.8644,-136.0463 1886.0309,-126.7729 1883.3914,-118.1347"/>
<polygon fill="#000000" stroke="#000000" points="1886.6905,-116.954 1880.421,-108.4133 1879.996,-118.9996 1886.6905,-116.954"/>
</g>
<!-- TablesToXlsx&#45;&gt;Cleanup -->
<g id="edge65" class="edge">
<title>TablesToXlsx&#45;&gt;Cleanup</title>
<path fill="none" stroke="#000000" d="M1820.7755,-81.7723C1799.509,-78.3294 1774.9979,-74.545 1752.7947,-72 1487.0105,-41.5346 1167.3072,-25.6748 1045.3095,-20.2234"/>
<polygon fill="#000000" stroke="#000000" points="1045.2976,-16.7196 1035.1524,-19.7732 1044.9876,-23.7127 1045.2976,-16.7196"/>
</g>
<!-- TablesToXlsx&#45;&gt;Cleanup -->
<g id="edge70" class="edge">
<title>TablesToXlsx&#45;&gt;Cleanup</title>
<path fill="none" stroke="#000000" d="M1824.8885,-79.6782C1807.7969,-76.8652 1788.5572,-74.036 1770.7947,-72 1498.5672,-40.796 1169.7748,-24.9144 1045.5099,-19.8453"/>
<polygon fill="#000000" stroke="#000000" points="1045.3048,-16.3343 1035.1722,-19.4295 1045.0234,-23.3286 1045.3048,-16.3343"/>
</g>
<!-- ProjectMarkdown&#45;&gt;MultiQC -->
<g id="edge59" class="edge">
<title>ProjectMarkdown&#45;&gt;MultiQC</title>
<path fill="none" stroke="#000000" d="M897.2076,-219.256C933.7482,-206.846 985.7482,-189.1856 1022.3092,-176.7687"/>
<polygon fill="#000000" stroke="#000000" points="1023.8429,-179.9442 1032.1862,-173.4142 1021.5918,-173.316 1023.8429,-179.9442"/>
</g>
<!-- ProjectMarkdown&#45;&gt;Cleanup -->
<g id="edge72" class="edge">
<title>ProjectMarkdown&#45;&gt;Cleanup</title>
<path fill="none" stroke="#000000" d="M861.7282,-216.0665C875.7994,-185.1805 907.0356,-120.5888 942.7947,-72 950.6297,-61.3539 960.4324,-50.6558 969.4084,-41.6226"/>
<polygon fill="#000000" stroke="#000000" points="972.0135,-43.9696 976.6924,-34.4639 967.1069,-38.9771 972.0135,-43.9696"/>
</g>
<!-- SamQC&#45;&gt;MultiQC -->
<g id="edge63" class="edge">
<title>SamQC&#45;&gt;MultiQC</title>
<path fill="none" stroke="#000000" d="M969.4137,-442.4702C994.8,-435.1205 1027.3961,-421.2274 1044.7947,-396 1088.0845,-333.2314 1079.3493,-237.357 1071.4858,-190.1967"/>
<polygon fill="#000000" stroke="#000000" points="1074.8873,-189.3335 1069.6891,-180.1015 1067.9956,-190.5601 1074.8873,-189.3335"/>
</g>
<!-- MultiQC&#45;&gt;Cleanup -->
<g id="edge73" class="edge">
<title>MultiQC&#45;&gt;Cleanup</title>
<path fill="none" stroke="#000000" d="M1097.6474,-149.7424C1131.4234,-136.4261 1180.6313,-115.9856 1185.7947,-108 1194.4822,-94.564 1195.4475,-84.7602 1185.7947,-72 1168.6305,-49.3103 1094.144,-33.4246 1043.4239,-25.0055"/>
<polygon fill="#000000" stroke="#000000" points="1043.736,-21.5106 1033.3059,-23.3719 1042.6202,-28.4211 1043.736,-21.5106"/>
</g>
<!-- AnalyseCovariants -->
<g id="node45" class="node">
<title>AnalyseCovariants</title>
<ellipse fill="none" stroke="#000000" cx="1099.7947" cy="-90" rx="77.1866" ry="18"/>
<text text-anchor="middle" x="1099.7947" y="-86.3" font-family="Times,serif" font-size="14.00" fill="#000000">AnalyseCovariants</text>
</g>
<!-- AnalyseCovariants&#45;&gt;Cleanup -->
<g id="edge69" class="edge">
<title>AnalyseCovariants&#45;&gt;Cleanup</title>
<path fill="none" stroke="#000000" d="M1074.9112,-72.937C1060.0722,-62.7617 1041.1184,-49.7649 1025.3719,-38.9672"/>
<polygon fill="#000000" stroke="#000000" points="1027.227,-35.9955 1017.0003,-33.2267 1023.2683,-41.7686 1027.227,-35.9955"/>
</g>
</g>
</svg>
