<?xml version="1.0" encoding="UTF-8" standalone="no"?>
<!DOCTYPE svg PUBLIC "-//W3C//DTD SVG 1.1//EN"
 "http://www.w3.org/Graphics/SVG/1.1/DTD/svg11.dtd">
<!-- Generated by graphviz version 2.40.1 (0)
 -->
<!-- Title: workflow_lexogenrna Pages: 1 -->
<svg width="2577pt" height="1052pt"
 viewBox="0.00 0.00 2576.63 1052.00" xmlns="http://www.w3.org/2000/svg" xmlns:xlink="http://www.w3.org/1999/xlink">
<g id="graph0" class="graph" transform="scale(1 1) rotate(0) translate(4 1048)">
<title>workflow_lexogenrna</title>
<polygon fill="#ffffff" stroke="transparent" points="-4,4 -4,-1048 2572.6292,-1048 2572.6292,4 -4,4"/>
<!-- LexogenPreAlign -->
<g id="node1" class="node">
<title>LexogenPreAlign</title>
<ellipse fill="none" stroke="#000000" cx="1536.8414" cy="-1026" rx="73.387" ry="18"/>
<text text-anchor="middle" x="1536.8414" y="-1022.3" font-family="Times,serif" font-size="14.00" fill="#000000">LexogenPreAlign</text>
</g>
<!-- FusionCatcher -->
<g id="node2" class="node">
<title>FusionCatcher</title>
<ellipse fill="none" stroke="#000000" cx="1397.8414" cy="-954" rx="61.99" ry="18"/>
<text text-anchor="middle" x="1397.8414" y="-950.3" font-family="Times,serif" font-size="14.00" fill="#000000">FusionCatcher</text>
</g>
<!-- LexogenPreAlign&#45;&gt;FusionCatcher -->
<g id="edge1" class="edge">
<title>LexogenPreAlign&#45;&gt;FusionCatcher</title>
<path fill="none" stroke="#000000" d="M1505.3002,-1009.6621C1485.1151,-999.2065 1458.768,-985.5591 1437.2144,-974.3947"/>
<polygon fill="#000000" stroke="#000000" points="1438.7919,-971.2701 1428.3026,-969.7784 1435.5722,-977.4858 1438.7919,-971.2701"/>
</g>
<!-- FastqcLexogen -->
<g id="node3" class="node">
<title>FastqcLexogen</title>
<ellipse fill="none" stroke="#000000" cx="1261.8414" cy="-882" rx="64.189" ry="18"/>
<text text-anchor="middle" x="1261.8414" y="-878.3" font-family="Times,serif" font-size="14.00" fill="#000000">FastqcLexogen</text>
</g>
<!-- LexogenPreAlign&#45;&gt;FastqcLexogen -->
<g id="edge2" class="edge">
<title>LexogenPreAlign&#45;&gt;FastqcLexogen</title>
<path fill="none" stroke="#000000" d="M1527.9547,-1007.8907C1516.9282,-987.334 1496.1893,-954.2898 1468.8414,-936 1428.6851,-909.1441 1375.896,-895.6383 1333.6782,-888.8494"/>
<polygon fill="#000000" stroke="#000000" points="1334.152,-885.3813 1323.7403,-887.3427 1333.1027,-892.3022 1334.152,-885.3813"/>
</g>
<!-- Hisat2Alignment -->
<g id="node4" class="node">
<title>Hisat2Alignment</title>
<ellipse fill="none" stroke="#000000" cx="1586.8414" cy="-954" rx="71.4873" ry="18"/>
<text text-anchor="middle" x="1586.8414" y="-950.3" font-family="Times,serif" font-size="14.00" fill="#000000">Hisat2Alignment</text>
</g>
<!-- LexogenPreAlign&#45;&gt;Hisat2Alignment -->
<g id="edge3" class="edge">
<title>LexogenPreAlign&#45;&gt;Hisat2Alignment</title>
<path fill="none" stroke="#000000" d="M1543.5061,-1007.8314C1548.533,-999.411 1555.4022,-989.2495 1562.2477,-980.0338"/>
<polygon fill="#000000" stroke="#000000" points="1565.1668,-981.9788 1568.4743,-971.9134 1559.6119,-977.7194 1565.1668,-981.9788"/>
</g>
<!-- LexogenPreAlign&#45;&gt;Hisat2Alignment -->
<g id="edge4" class="edge">
<title>LexogenPreAlign&#45;&gt;Hisat2Alignment</title>
<path fill="none" stroke="#000000" d="M1555.1167,-1008.2022C1561.6695,-999.9569 1568.8082,-989.9828 1574.7478,-980.8501"/>
<polygon fill="#000000" stroke="#000000" points="1577.8891,-982.428 1580.2218,-972.0931 1571.9533,-978.7176 1577.8891,-982.428"/>
</g>
<!-- SampleMarkdown -->
<g id="node23" class="node">
<title>SampleMarkdown</title>
<ellipse fill="none" stroke="#000000" cx="1188.8414" cy="-594" rx="76.8869" ry="18"/>
<text text-anchor="middle" x="1188.8414" y="-590.3" font-family="Times,serif" font-size="14.00" fill="#000000">SampleMarkdown</text>
</g>
<!-- FastqcLexogen&#45;&gt;SampleMarkdown -->
<g id="edge26" class="edge">
<title>FastqcLexogen&#45;&gt;SampleMarkdown</title>
<path fill="none" stroke="#000000" d="M1240.4542,-864.9056C1203.3091,-833.6751 1128.1368,-763.2668 1099.8414,-684 1094.4624,-668.9313 1091.9927,-661.9426 1099.8414,-648 1108.1378,-633.2622 1122.2609,-622.0835 1136.8425,-613.8311"/>
<polygon fill="#000000" stroke="#000000" points="1138.7013,-616.8085 1145.9328,-609.0654 1135.451,-610.6088 1138.7013,-616.8085"/>
</g>
<!-- AddOrReplaceReadGroups -->
<g id="node5" class="node">
<title>AddOrReplaceReadGroups</title>
<ellipse fill="none" stroke="#000000" cx="1812.8414" cy="-882" rx="107.4815" ry="18"/>
<text text-anchor="middle" x="1812.8414" y="-878.3" font-family="Times,serif" font-size="14.00" fill="#000000">AddOrReplaceReadGroups</text>
</g>
<!-- Hisat2Alignment&#45;&gt;AddOrReplaceReadGroups -->
<g id="edge5" class="edge">
<title>Hisat2Alignment&#45;&gt;AddOrReplaceReadGroups</title>
<path fill="none" stroke="#000000" d="M1631.2221,-939.861C1665.9153,-928.8083 1714.4969,-913.331 1752.6857,-901.1646"/>
<polygon fill="#000000" stroke="#000000" points="1754.1916,-904.3583 1762.6573,-897.9879 1752.0667,-897.6886 1754.1916,-904.3583"/>
</g>
<!-- MergeBamFiles -->
<g id="node6" class="node">
<title>MergeBamFiles</title>
<ellipse fill="none" stroke="#000000" cx="1993.8414" cy="-810" rx="68.4888" ry="18"/>
<text text-anchor="middle" x="1993.8414" y="-806.3" font-family="Times,serif" font-size="14.00" fill="#000000">MergeBamFiles</text>
</g>
<!-- AddOrReplaceReadGroups&#45;&gt;MergeBamFiles -->
<g id="edge6" class="edge">
<title>AddOrReplaceReadGroups&#45;&gt;MergeBamFiles</title>
<path fill="none" stroke="#000000" d="M1854.8214,-865.3008C1882.3123,-854.3652 1918.2839,-840.056 1946.7484,-828.7331"/>
<polygon fill="#000000" stroke="#000000" points="1948.0925,-831.9653 1956.0907,-825.0169 1945.5052,-825.461 1948.0925,-831.9653"/>
</g>
<!-- HtseqCountDups -->
<g id="node7" class="node">
<title>HtseqCountDups</title>
<ellipse fill="none" stroke="#000000" cx="2127.8414" cy="-738" rx="71.4873" ry="18"/>
<text text-anchor="middle" x="2127.8414" y="-734.3" font-family="Times,serif" font-size="14.00" fill="#000000">HtseqCountDups</text>
</g>
<!-- MergeBamFiles&#45;&gt;HtseqCountDups -->
<g id="edge7" class="edge">
<title>MergeBamFiles&#45;&gt;HtseqCountDups</title>
<path fill="none" stroke="#000000" d="M2023.9136,-793.8418C2043.0031,-783.5847 2067.9089,-770.2026 2088.5535,-759.1099"/>
<polygon fill="#000000" stroke="#000000" points="2090.2536,-762.1697 2097.4059,-754.3534 2086.9404,-756.0035 2090.2536,-762.1697"/>
</g>
<!-- HtseqCountTes500Dups -->
<g id="node8" class="node">
<title>HtseqCountTes500Dups</title>
<ellipse fill="none" stroke="#000000" cx="2371.8414" cy="-738" rx="96.6831" ry="18"/>
<text text-anchor="middle" x="2371.8414" y="-734.3" font-family="Times,serif" font-size="14.00" fill="#000000">HtseqCountTes500Dups</text>
</g>
<!-- MergeBamFiles&#45;&gt;HtseqCountTes500Dups -->
<g id="edge8" class="edge">
<title>MergeBamFiles&#45;&gt;HtseqCountTes500Dups</title>
<path fill="none" stroke="#000000" d="M2049.2107,-799.4535C2113.8421,-787.1427 2221.1586,-766.7015 2294.117,-752.8047"/>
<polygon fill="#000000" stroke="#000000" points="2295.0072,-756.1981 2304.1757,-750.8887 2293.6974,-749.3217 2295.0072,-756.1981"/>
</g>
<!-- MarkDuplicates -->
<g id="node11" class="node">
<title>MarkDuplicates</title>
<ellipse fill="none" stroke="#000000" cx="1562.8414" cy="-738" rx="67.6881" ry="18"/>
<text text-anchor="middle" x="1562.8414" y="-734.3" font-family="Times,serif" font-size="14.00" fill="#000000">MarkDuplicates</text>
</g>
<!-- MergeBamFiles&#45;&gt;MarkDuplicates -->
<g id="edge11" class="edge">
<title>MergeBamFiles&#45;&gt;MarkDuplicates</title>
<path fill="none" stroke="#000000" d="M1936.162,-800.3645C1856.8102,-787.1085 1714.2614,-763.2952 1630.1401,-749.2425"/>
<polygon fill="#000000" stroke="#000000" points="1630.6193,-745.7741 1620.1793,-747.5785 1629.4659,-752.6784 1630.6193,-745.7741"/>
</g>
<!-- SamQC -->
<g id="node46" class="node">
<title>SamQC</title>
<ellipse fill="none" stroke="#000000" cx="1993.8414" cy="-666" rx="38.9931" ry="18"/>
<text text-anchor="middle" x="1993.8414" y="-662.3" font-family="Times,serif" font-size="14.00" fill="#000000">SamQC</text>
</g>
<!-- MergeBamFiles&#45;&gt;SamQC -->
<g id="edge55" class="edge">
<title>MergeBamFiles&#45;&gt;SamQC</title>
<path fill="none" stroke="#000000" d="M1993.8414,-791.7623C1993.8414,-767.201 1993.8414,-723.2474 1993.8414,-694.3541"/>
<polygon fill="#000000" stroke="#000000" points="1997.3415,-694.0896 1993.8414,-684.0896 1990.3415,-694.0897 1997.3415,-694.0896"/>
</g>
<!-- MergeExpressionDupTables -->
<g id="node9" class="node">
<title>MergeExpressionDupTables</title>
<ellipse fill="none" stroke="#000000" cx="2162.8414" cy="-666" rx="111.5806" ry="18"/>
<text text-anchor="middle" x="2162.8414" y="-662.3" font-family="Times,serif" font-size="14.00" fill="#000000">MergeExpressionDupTables</text>
</g>
<!-- HtseqCountDups&#45;&gt;MergeExpressionDupTables -->
<g id="edge9" class="edge">
<title>HtseqCountDups&#45;&gt;MergeExpressionDupTables</title>
<path fill="none" stroke="#000000" d="M2136.6734,-719.8314C2140.54,-711.8771 2145.162,-702.369 2149.4382,-693.5723"/>
<polygon fill="#000000" stroke="#000000" points="2152.6663,-694.9371 2153.8905,-684.4133 2146.3707,-691.8768 2152.6663,-694.9371"/>
</g>
<!-- MergeExpressionTes500DupTables -->
<g id="node10" class="node">
<title>MergeExpressionTes500DupTables</title>
<ellipse fill="none" stroke="#000000" cx="2430.8414" cy="-666" rx="137.5759" ry="18"/>
<text text-anchor="middle" x="2430.8414" y="-662.3" font-family="Times,serif" font-size="14.00" fill="#000000">MergeExpressionTes500DupTables</text>
</g>
<!-- HtseqCountTes500Dups&#45;&gt;MergeExpressionTes500DupTables -->
<g id="edge10" class="edge">
<title>HtseqCountTes500Dups&#45;&gt;MergeExpressionTes500DupTables</title>
<path fill="none" stroke="#000000" d="M2386.4257,-720.2022C2393.3934,-711.6992 2401.8677,-701.3577 2409.5387,-691.9965"/>
<polygon fill="#000000" stroke="#000000" points="2412.384,-694.0463 2416.0151,-684.0931 2406.9697,-689.6095 2412.384,-694.0463"/>
</g>
<!-- MantaSV -->
<g id="node12" class="node">
<title>MantaSV</title>
<ellipse fill="none" stroke="#000000" cx="1685.8414" cy="-666" rx="44.6926" ry="18"/>
<text text-anchor="middle" x="1685.8414" y="-662.3" font-family="Times,serif" font-size="14.00" fill="#000000">MantaSV</text>
</g>
<!-- MarkDuplicates&#45;&gt;MantaSV -->
<g id="edge12" class="edge">
<title>MarkDuplicates&#45;&gt;MantaSV</title>
<path fill="none" stroke="#000000" d="M1591.0601,-721.4817C1609.0613,-710.9445 1632.5063,-697.2205 1651.5746,-686.0586"/>
<polygon fill="#000000" stroke="#000000" points="1653.4039,-689.0434 1660.2659,-680.971 1649.8676,-683.0023 1653.4039,-689.0434"/>
</g>
<!-- HtseqCount -->
<g id="node17" class="node">
<title>HtseqCount</title>
<ellipse fill="none" stroke="#000000" cx="306.8414" cy="-666" rx="52.7911" ry="18"/>
<text text-anchor="middle" x="306.8414" y="-662.3" font-family="Times,serif" font-size="14.00" fill="#000000">HtseqCount</text>
</g>
<!-- MarkDuplicates&#45;&gt;HtseqCount -->
<g id="edge17" class="edge">
<title>MarkDuplicates&#45;&gt;HtseqCount</title>
<path fill="none" stroke="#000000" d="M1496.6416,-734.2051C1278.1077,-721.6777 581.5404,-681.7471 369.0077,-669.5637"/>
<polygon fill="#000000" stroke="#000000" points="369.1433,-666.0658 358.9593,-668.9877 368.7426,-673.0543 369.1433,-666.0658"/>
</g>
<!-- HtseqCountTes500 -->
<g id="node18" class="node">
<title>HtseqCountTes500</title>
<ellipse fill="none" stroke="#000000" cx="1405.8414" cy="-666" rx="78.7863" ry="18"/>
<text text-anchor="middle" x="1405.8414" y="-662.3" font-family="Times,serif" font-size="14.00" fill="#000000">HtseqCountTes500</text>
</g>
<!-- MarkDuplicates&#45;&gt;HtseqCountTes500 -->
<g id="edge18" class="edge">
<title>MarkDuplicates&#45;&gt;HtseqCountTes500</title>
<path fill="none" stroke="#000000" d="M1528.7747,-722.3771C1505.8236,-711.8517 1475.3166,-697.8613 1450.4353,-686.4507"/>
<polygon fill="#000000" stroke="#000000" points="1451.7509,-683.2036 1441.2022,-682.2164 1448.8329,-689.5664 1451.7509,-683.2036"/>
</g>
<!-- CollectMultipleMetrics -->
<g id="node21" class="node">
<title>CollectMultipleMetrics</title>
<ellipse fill="none" stroke="#000000" cx="1842.8414" cy="-666" rx="94.4839" ry="18"/>
<text text-anchor="middle" x="1842.8414" y="-662.3" font-family="Times,serif" font-size="14.00" fill="#000000">CollectMultipleMetrics</text>
</g>
<!-- MarkDuplicates&#45;&gt;CollectMultipleMetrics -->
<g id="edge21" class="edge">
<title>MarkDuplicates&#45;&gt;CollectMultipleMetrics</title>
<path fill="none" stroke="#000000" d="M1611.6137,-725.4586C1657.2967,-713.7115 1725.9337,-696.062 1776.5678,-683.0418"/>
<polygon fill="#000000" stroke="#000000" points="1777.6292,-686.3828 1786.4424,-680.5026 1775.8858,-679.6034 1777.6292,-686.3828"/>
</g>
<!-- CalculateHsMetrics -->
<g id="node22" class="node">
<title>CalculateHsMetrics</title>
<ellipse fill="none" stroke="#000000" cx="1189.8414" cy="-666" rx="81.4863" ry="18"/>
<text text-anchor="middle" x="1189.8414" y="-662.3" font-family="Times,serif" font-size="14.00" fill="#000000">CalculateHsMetrics</text>
</g>
<!-- MarkDuplicates&#45;&gt;CalculateHsMetrics -->
<g id="edge22" class="edge">
<title>MarkDuplicates&#45;&gt;CalculateHsMetrics</title>
<path fill="none" stroke="#000000" d="M1507.804,-727.3762C1442.3856,-714.7485 1333.0598,-693.6454 1261.1998,-679.7743"/>
<polygon fill="#000000" stroke="#000000" points="1261.7993,-676.3255 1251.3172,-677.8666 1260.4726,-683.1986 1261.7993,-676.3255"/>
</g>
<!-- MarkDuplicates&#45;&gt;SampleMarkdown -->
<g id="edge27" class="edge">
<title>MarkDuplicates&#45;&gt;SampleMarkdown</title>
<path fill="none" stroke="#000000" d="M1497.6544,-733.223C1446.2995,-727.2614 1374.2123,-713.8983 1317.8414,-684 1297.2888,-673.0992 1298.4045,-662.0231 1279.8414,-648 1264.1341,-636.1342 1245.6323,-624.7407 1229.4275,-615.5031"/>
<polygon fill="#000000" stroke="#000000" points="1231.1274,-612.4436 1220.6935,-610.6036 1227.7026,-618.5486 1231.1274,-612.4436"/>
</g>
<!-- SplitAndTrim -->
<g id="node25" class="node">
<title>SplitAndTrim</title>
<ellipse fill="none" stroke="#000000" cx="1562.8414" cy="-666" rx="60.3893" ry="18"/>
<text text-anchor="middle" x="1562.8414" y="-662.3" font-family="Times,serif" font-size="14.00" fill="#000000">SplitAndTrim</text>
</g>
<!-- MarkDuplicates&#45;&gt;SplitAndTrim -->
<g id="edge28" class="edge">
<title>MarkDuplicates&#45;&gt;SplitAndTrim</title>
<path fill="none" stroke="#000000" d="M1562.8414,-719.8314C1562.8414,-712.131 1562.8414,-702.9743 1562.8414,-694.4166"/>
<polygon fill="#000000" stroke="#000000" points="1566.3415,-694.4132 1562.8414,-684.4133 1559.3415,-694.4133 1566.3415,-694.4132"/>
</g>
<!-- MarkDuplicates&#45;&gt;SamQC -->
<g id="edge56" class="edge">
<title>MarkDuplicates&#45;&gt;SamQC</title>
<path fill="none" stroke="#000000" d="M1628.0579,-733.1756C1704.9594,-726.4872 1836.1938,-711.9299 1945.8414,-684 1948.8492,-683.2338 1951.9284,-682.3424 1955.0036,-681.3739"/>
<polygon fill="#000000" stroke="#000000" points="1956.3744,-684.6049 1964.7201,-678.078 1954.1258,-677.9759 1956.3744,-684.6049"/>
</g>
<!-- SnpEffManta -->
<g id="node13" class="node">
<title>SnpEffManta</title>
<ellipse fill="none" stroke="#000000" cx="1831.8414" cy="-594" rx="58.4896" ry="18"/>
<text text-anchor="middle" x="1831.8414" y="-590.3" font-family="Times,serif" font-size="14.00" fill="#000000">SnpEffManta</text>
</g>
<!-- MantaSV&#45;&gt;SnpEffManta -->
<g id="edge13" class="edge">
<title>MantaSV&#45;&gt;SnpEffManta</title>
<path fill="none" stroke="#000000" d="M1714.3383,-651.9468C1736.3402,-641.0965 1767.0638,-625.9451 1791.5766,-613.8566"/>
<polygon fill="#000000" stroke="#000000" points="1793.2155,-616.9509 1800.6362,-609.3889 1790.1194,-610.6728 1793.2155,-616.9509"/>
</g>
<!-- SvVariantsToDescriptionTable -->
<g id="node14" class="node">
<title>SvVariantsToDescriptionTable</title>
<ellipse fill="none" stroke="#000000" cx="1831.8414" cy="-522" rx="120.4791" ry="18"/>
<text text-anchor="middle" x="1831.8414" y="-518.3" font-family="Times,serif" font-size="14.00" fill="#000000">SvVariantsToDescriptionTable</text>
</g>
<!-- SnpEffManta&#45;&gt;SvVariantsToDescriptionTable -->
<g id="edge14" class="edge">
<title>SnpEffManta&#45;&gt;SvVariantsToDescriptionTable</title>
<path fill="none" stroke="#000000" d="M1831.8414,-575.8314C1831.8414,-568.131 1831.8414,-558.9743 1831.8414,-550.4166"/>
<polygon fill="#000000" stroke="#000000" points="1835.3415,-550.4132 1831.8414,-540.4133 1828.3415,-550.4133 1835.3415,-550.4132"/>
</g>
<!-- SvVariantsToTable -->
<g id="node15" class="node">
<title>SvVariantsToTable</title>
<ellipse fill="none" stroke="#000000" cx="2049.8414" cy="-522" rx="79.0865" ry="18"/>
<text text-anchor="middle" x="2049.8414" y="-518.3" font-family="Times,serif" font-size="14.00" fill="#000000">SvVariantsToTable</text>
</g>
<!-- SnpEffManta&#45;&gt;SvVariantsToTable -->
<g id="edge15" class="edge">
<title>SnpEffManta&#45;&gt;SvVariantsToTable</title>
<path fill="none" stroke="#000000" d="M1871.826,-580.7941C1906.3538,-569.3904 1956.5774,-552.8028 1994.8816,-540.1519"/>
<polygon fill="#000000" stroke="#000000" points="1996.4473,-543.3208 2004.8452,-536.8611 1994.252,-536.6739 1996.4473,-543.3208"/>
</g>
<!-- SvVariantsToMinTable -->
<g id="node16" class="node">
<title>SvVariantsToMinTable</title>
<ellipse fill="none" stroke="#000000" cx="2241.8414" cy="-522" rx="94.7833" ry="18"/>
<text text-anchor="middle" x="2241.8414" y="-518.3" font-family="Times,serif" font-size="14.00" fill="#000000">SvVariantsToMinTable</text>
</g>
<!-- SnpEffManta&#45;&gt;SvVariantsToMinTable -->
<g id="edge16" class="edge">
<title>SnpEffManta&#45;&gt;SvVariantsToMinTable</title>
<path fill="none" stroke="#000000" d="M1882.9392,-585.0267C1952.8995,-572.741 2079.2148,-550.5588 2161.7946,-536.057"/>
<polygon fill="#000000" stroke="#000000" points="2162.6482,-539.4607 2171.8921,-534.2838 2161.4374,-532.5662 2162.6482,-539.4607"/>
</g>
<!-- MultiQC -->
<g id="node47" class="node">
<title>MultiQC</title>
<ellipse fill="none" stroke="#000000" cx="1756.8414" cy="-162" rx="42.7926" ry="18"/>
<text text-anchor="middle" x="1756.8414" y="-158.3" font-family="Times,serif" font-size="14.00" fill="#000000">MultiQC</text>
</g>
<!-- SnpEffManta&#45;&gt;MultiQC -->
<g id="edge58" class="edge">
<title>SnpEffManta&#45;&gt;MultiQC</title>
<path fill="none" stroke="#000000" d="M1788.9953,-581.6895C1755.4843,-571.0932 1712.9295,-555.1593 1702.8414,-540 1684.8263,-512.929 1707.6125,-499.459 1715.8414,-468 1741.9824,-368.0635 1752.0008,-245.1728 1755.3562,-190.5271"/>
<polygon fill="#000000" stroke="#000000" points="1758.8683,-190.4217 1755.958,-180.2344 1751.8802,-190.0131 1758.8683,-190.4217"/>
</g>
<!-- MergeExpressionTables -->
<g id="node19" class="node">
<title>MergeExpressionTables</title>
<ellipse fill="none" stroke="#000000" cx="96.8414" cy="-594" rx="96.6831" ry="18"/>
<text text-anchor="middle" x="96.8414" y="-590.3" font-family="Times,serif" font-size="14.00" fill="#000000">MergeExpressionTables</text>
</g>
<!-- HtseqCount&#45;&gt;MergeExpressionTables -->
<g id="edge19" class="edge">
<title>HtseqCount&#45;&gt;MergeExpressionTables</title>
<path fill="none" stroke="#000000" d="M269.2976,-653.1278C236.9166,-642.0258 189.6925,-625.8347 152.8452,-613.2013"/>
<polygon fill="#000000" stroke="#000000" points="153.8282,-609.8384 143.2335,-609.9059 151.5578,-616.46 153.8282,-609.8384"/>
</g>
<!-- MergeExpressionTes500Tables -->
<g id="node20" class="node">
<title>MergeExpressionTes500Tables</title>
<ellipse fill="none" stroke="#000000" cx="1405.8414" cy="-594" rx="122.3786" ry="18"/>
<text text-anchor="middle" x="1405.8414" y="-590.3" font-family="Times,serif" font-size="14.00" fill="#000000">MergeExpressionTes500Tables</text>
</g>
<!-- HtseqCountTes500&#45;&gt;MergeExpressionTes500Tables -->
<g id="edge20" class="edge">
<title>HtseqCountTes500&#45;&gt;MergeExpressionTes500Tables</title>
<path fill="none" stroke="#000000" d="M1405.8414,-647.8314C1405.8414,-640.131 1405.8414,-630.9743 1405.8414,-622.4166"/>
<polygon fill="#000000" stroke="#000000" points="1409.3415,-622.4132 1405.8414,-612.4133 1402.3415,-622.4133 1409.3415,-622.4132"/>
</g>
<!-- CollectMultipleMetrics&#45;&gt;SampleMarkdown -->
<g id="edge24" class="edge">
<title>CollectMultipleMetrics&#45;&gt;SampleMarkdown</title>
<path fill="none" stroke="#000000" d="M1775.6639,-653.3054C1763.7602,-651.329 1751.4585,-649.4614 1739.8414,-648 1534.1772,-622.1285 1480.0462,-641.2935 1274.8414,-612 1268.0436,-611.0296 1260.9773,-609.8439 1253.9472,-608.5486"/>
<polygon fill="#000000" stroke="#000000" points="1254.1888,-605.0313 1243.7085,-606.5848 1252.8702,-611.9059 1254.1888,-605.0313"/>
</g>
<!-- Cleanup -->
<g id="node48" class="node">
<title>Cleanup</title>
<ellipse fill="none" stroke="#000000" cx="649.8414" cy="-18" rx="40.0939" ry="18"/>
<text text-anchor="middle" x="649.8414" y="-14.3" font-family="Times,serif" font-size="14.00" fill="#000000">Cleanup</text>
</g>
<!-- CollectMultipleMetrics&#45;&gt;Cleanup -->
<g id="edge66" class="edge">
<title>CollectMultipleMetrics&#45;&gt;Cleanup</title>
<path fill="none" stroke="#000000" d="M1907.3538,-652.8081C2054.6058,-622.2578 2402.8414,-547.3315 2402.8414,-522 2402.8414,-522 2402.8414,-522 2402.8414,-162 2402.8414,-74.1951 987.4401,-27.9188 700.2938,-19.434"/>
<polygon fill="#000000" stroke="#000000" points="700.2684,-15.9319 690.1699,-19.1368 700.0629,-22.9289 700.2684,-15.9319"/>
</g>
<!-- CalculateHsMetrics&#45;&gt;SampleMarkdown -->
<g id="edge23" class="edge">
<title>CalculateHsMetrics&#45;&gt;SampleMarkdown</title>
<path fill="none" stroke="#000000" d="M1189.5891,-647.8314C1189.4821,-640.131 1189.3549,-630.9743 1189.2361,-622.4166"/>
<polygon fill="#000000" stroke="#000000" points="1192.7358,-622.3637 1189.0971,-612.4133 1185.7365,-622.4609 1192.7358,-622.3637"/>
</g>
<!-- CalculateHsMetrics&#45;&gt;Cleanup -->
<g id="edge65" class="edge">
<title>CalculateHsMetrics&#45;&gt;Cleanup</title>
<path fill="none" stroke="#000000" d="M1110.5501,-662.0311C885.6501,-649.7251 259.8414,-607.7757 259.8414,-522 259.8414,-522 259.8414,-522 259.8414,-162 259.8414,-106.6743 297.0768,-98.1333 345.8414,-72 389.0482,-48.8451 525.6878,-31.2128 600.2014,-23.0308"/>
<polygon fill="#000000" stroke="#000000" points="600.7217,-26.495 610.2871,-21.9394 599.9685,-19.5356 600.7217,-26.495"/>
</g>
<!-- ProjectMarkdown -->
<g id="node45" class="node">
<title>ProjectMarkdown</title>
<ellipse fill="none" stroke="#000000" cx="1615.8414" cy="-306" rx="74.9875" ry="18"/>
<text text-anchor="middle" x="1615.8414" y="-302.3" font-family="Times,serif" font-size="14.00" fill="#000000">ProjectMarkdown</text>
</g>
<!-- SampleMarkdown&#45;&gt;ProjectMarkdown -->
<g id="edge54" class="edge">
<title>SampleMarkdown&#45;&gt;ProjectMarkdown</title>
<path fill="none" stroke="#000000" d="M1245.6994,-581.8854C1255.4134,-579.877 1265.4107,-577.8483 1274.8414,-576 1362.1852,-558.8816 1397.0172,-588.2008 1471.8414,-540 1548.562,-490.5776 1591.0364,-384.3326 1607.6019,-333.8001"/>
<polygon fill="#000000" stroke="#000000" points="1610.964,-334.7765 1610.6595,-324.186 1604.2933,-332.6549 1610.964,-334.7765"/>
</g>
<!-- Fastqc -->
<g id="node24" class="node">
<title>Fastqc</title>
<ellipse fill="none" stroke="#000000" cx="815.8414" cy="-666" rx="33.5952" ry="18"/>
<text text-anchor="middle" x="815.8414" y="-662.3" font-family="Times,serif" font-size="14.00" fill="#000000">Fastqc</text>
</g>
<!-- Fastqc&#45;&gt;SampleMarkdown -->
<g id="edge25" class="edge">
<title>Fastqc&#45;&gt;SampleMarkdown</title>
<path fill="none" stroke="#000000" d="M848.2822,-660.1722C901.6548,-650.5269 1011.3006,-630.4715 1103.8414,-612 1109.8601,-610.7987 1116.1127,-609.5245 1122.3729,-608.231"/>
<polygon fill="#000000" stroke="#000000" points="1123.1065,-611.6534 1132.1841,-606.1902 1121.6809,-604.8001 1123.1065,-611.6534"/>
</g>
<!-- Fastqc&#45;&gt;Cleanup -->
<g id="edge67" class="edge">
<title>Fastqc&#45;&gt;Cleanup</title>
<path fill="none" stroke="#000000" d="M781.8483,-665.0094C665.3113,-661.313 286.8626,-646.715 245.8414,-612 214.2407,-585.2573 221.8414,-563.3978 221.8414,-522 221.8414,-522 221.8414,-522 221.8414,-162 221.8414,-120.6022 214.7602,-99.3448 245.8414,-72 272.0371,-48.9534 497.6603,-29.3665 599.8783,-21.5876"/>
<polygon fill="#000000" stroke="#000000" points="600.2513,-25.0695 609.9602,-20.8283 599.7255,-18.0893 600.2513,-25.0695"/>
</g>
<!-- IndelRealignmentKnown -->
<g id="node26" class="node">
<title>IndelRealignmentKnown</title>
<ellipse fill="none" stroke="#000000" cx="1645.8414" cy="-594" rx="100.1823" ry="18"/>
<text text-anchor="middle" x="1645.8414" y="-590.3" font-family="Times,serif" font-size="14.00" fill="#000000">IndelRealignmentKnown</text>
</g>
<!-- SplitAndTrim&#45;&gt;IndelRealignmentKnown -->
<g id="edge29" class="edge">
<title>SplitAndTrim&#45;&gt;IndelRealignmentKnown</title>
<path fill="none" stroke="#000000" d="M1582.5112,-648.937C1593.0276,-639.8144 1606.1586,-628.4237 1617.7329,-618.3833"/>
<polygon fill="#000000" stroke="#000000" points="1620.1855,-620.8891 1625.446,-611.6924 1615.5986,-615.6014 1620.1855,-620.8891"/>
</g>
<!-- HaplotypeCaller -->
<g id="node27" class="node">
<title>HaplotypeCaller</title>
<ellipse fill="none" stroke="#000000" cx="1393.8414" cy="-522" rx="68.7879" ry="18"/>
<text text-anchor="middle" x="1393.8414" y="-518.3" font-family="Times,serif" font-size="14.00" fill="#000000">HaplotypeCaller</text>
</g>
<!-- IndelRealignmentKnown&#45;&gt;HaplotypeCaller -->
<g id="edge30" class="edge">
<title>IndelRealignmentKnown&#45;&gt;HaplotypeCaller</title>
<path fill="none" stroke="#000000" d="M1592.3987,-578.7307C1550.5793,-566.7823 1492.5838,-550.2121 1450.0679,-538.0647"/>
<polygon fill="#000000" stroke="#000000" points="1451.0061,-534.6928 1440.4293,-535.3108 1449.083,-541.4234 1451.0061,-534.6928"/>
</g>
<!-- CnvProfile -->
<g id="node41" class="node">
<title>CnvProfile</title>
<ellipse fill="none" stroke="#000000" cx="1513.8414" cy="-378" rx="49.2915" ry="18"/>
<text text-anchor="middle" x="1513.8414" y="-374.3" font-family="Times,serif" font-size="14.00" fill="#000000">CnvProfile</text>
</g>
<!-- IndelRealignmentKnown&#45;&gt;CnvProfile -->
<g id="edge48" class="edge">
<title>IndelRealignmentKnown&#45;&gt;CnvProfile</title>
<path fill="none" stroke="#000000" d="M1634.8142,-575.9555C1611.5107,-537.8225 1557.1698,-448.901 1529.9623,-404.3796"/>
<polygon fill="#000000" stroke="#000000" points="1532.9454,-402.549 1524.7444,-395.8413 1526.9725,-406.1992 1532.9454,-402.549"/>
</g>
<!-- Varscan2 -->
<g id="node42" class="node">
<title>Varscan2</title>
<ellipse fill="none" stroke="#000000" cx="1662.8414" cy="-450" rx="44.393" ry="18"/>
<text text-anchor="middle" x="1662.8414" y="-446.3" font-family="Times,serif" font-size="14.00" fill="#000000">Varscan2</text>
</g>
<!-- IndelRealignmentKnown&#45;&gt;Varscan2 -->
<g id="edge49" class="edge">
<title>IndelRealignmentKnown&#45;&gt;Varscan2</title>
<path fill="none" stroke="#000000" d="M1647.9945,-575.7623C1650.8941,-551.201 1656.083,-507.2474 1659.4941,-478.3541"/>
<polygon fill="#000000" stroke="#000000" points="1663.0092,-478.431 1660.7058,-468.0896 1656.0575,-477.6103 1663.0092,-478.431"/>
</g>
<!-- MergeVariants -->
<g id="node29" class="node">
<title>MergeVariants</title>
<ellipse fill="none" stroke="#000000" cx="1393.8414" cy="-450" rx="63.8893" ry="18"/>
<text text-anchor="middle" x="1393.8414" y="-446.3" font-family="Times,serif" font-size="14.00" fill="#000000">MergeVariants</text>
</g>
<!-- HaplotypeCaller&#45;&gt;MergeVariants -->
<g id="edge32" class="edge">
<title>HaplotypeCaller&#45;&gt;MergeVariants</title>
<path fill="none" stroke="#000000" d="M1393.8414,-503.8314C1393.8414,-496.131 1393.8414,-486.9743 1393.8414,-478.4166"/>
<polygon fill="#000000" stroke="#000000" points="1397.3415,-478.4132 1393.8414,-468.4133 1390.3415,-478.4133 1397.3415,-478.4132"/>
</g>
<!-- HaplotypeCaller&#45;&gt;Varscan2 -->
<g id="edge50" class="edge">
<title>HaplotypeCaller&#45;&gt;Varscan2</title>
<path fill="none" stroke="#000000" d="M1442.2439,-509.0447C1491.3879,-495.8909 1566.988,-475.6559 1615.6805,-462.623"/>
<polygon fill="#000000" stroke="#000000" points="1616.8884,-465.923 1625.6434,-459.9563 1615.0785,-459.161 1616.8884,-465.923"/>
</g>
<!-- HaplotypeCaller&#45;&gt;Cleanup -->
<g id="edge70" class="edge">
<title>HaplotypeCaller&#45;&gt;Cleanup</title>
<path fill="none" stroke="#000000" d="M1324.8665,-520.2289C1084.4336,-513.1531 297.8414,-482.0529 297.8414,-378 297.8414,-378 297.8414,-378 297.8414,-162 297.8414,-96.9405 506.4349,-46.7132 602.4705,-27.0363"/>
<polygon fill="#000000" stroke="#000000" points="603.3963,-30.42 612.5045,-25.0078 602.0092,-23.5588 603.3963,-30.42"/>
</g>
<!-- CreatePaddedTargets -->
<g id="node28" class="node">
<title>CreatePaddedTargets</title>
<ellipse fill="none" stroke="#000000" cx="1008.8414" cy="-594" rx="85.5853" ry="18"/>
<text text-anchor="middle" x="1008.8414" y="-590.3" font-family="Times,serif" font-size="14.00" fill="#000000">CreatePaddedTargets</text>
</g>
<!-- CreatePaddedTargets&#45;&gt;HaplotypeCaller -->
<g id="edge31" class="edge">
<title>CreatePaddedTargets&#45;&gt;HaplotypeCaller</title>
<path fill="none" stroke="#000000" d="M1072.2894,-581.7992C1082.5034,-579.8498 1092.9628,-577.8624 1102.8414,-576 1179.9293,-561.4669 1268.5655,-545.0629 1327.5603,-534.1881"/>
<polygon fill="#000000" stroke="#000000" points="1328.2934,-537.612 1337.4935,-532.3576 1327.0248,-530.7279 1328.2934,-537.612"/>
</g>
<!-- VariantAnnotation -->
<g id="node30" class="node">
<title>VariantAnnotation</title>
<ellipse fill="none" stroke="#000000" cx="1369.8414" cy="-378" rx="76.8869" ry="18"/>
<text text-anchor="middle" x="1369.8414" y="-374.3" font-family="Times,serif" font-size="14.00" fill="#000000">VariantAnnotation</text>
</g>
<!-- MergeVariants&#45;&gt;VariantAnnotation -->
<g id="edge33" class="edge">
<title>MergeVariants&#45;&gt;VariantAnnotation</title>
<path fill="none" stroke="#000000" d="M1387.7852,-431.8314C1385.1902,-424.0463 1382.099,-414.7729 1379.2197,-406.1347"/>
<polygon fill="#000000" stroke="#000000" points="1382.4619,-404.7933 1375.9792,-396.4133 1375.8211,-407.0069 1382.4619,-404.7933"/>
</g>
<!-- MergeVariants&#45;&gt;CnvProfile -->
<g id="edge47" class="edge">
<title>MergeVariants&#45;&gt;CnvProfile</title>
<path fill="none" stroke="#000000" d="M1421.0713,-433.6621C1438.3049,-423.3219 1460.7415,-409.86 1479.2327,-398.7652"/>
<polygon fill="#000000" stroke="#000000" points="1481.179,-401.6791 1487.9532,-393.5329 1477.5775,-395.6767 1481.179,-401.6791"/>
</g>
<!-- CustTumorNormalAnnotations -->
<g id="node31" class="node">
<title>CustTumorNormalAnnotations</title>
<ellipse fill="none" stroke="#000000" cx="1362.8414" cy="-306" rx="121.5784" ry="18"/>
<text text-anchor="middle" x="1362.8414" y="-302.3" font-family="Times,serif" font-size="14.00" fill="#000000">CustTumorNormalAnnotations</text>
</g>
<!-- VariantAnnotation&#45;&gt;CustTumorNormalAnnotations -->
<g id="edge34" class="edge">
<title>VariantAnnotation&#45;&gt;CustTumorNormalAnnotations</title>
<path fill="none" stroke="#000000" d="M1368.075,-359.8314C1367.3264,-352.131 1366.4361,-342.9743 1365.6041,-334.4166"/>
<polygon fill="#000000" stroke="#000000" points="1369.0829,-334.0276 1364.6316,-324.4133 1362.1158,-334.7051 1369.0829,-334.0276"/>
</g>
<!-- VariantAnnotation&#45;&gt;MultiQC -->
<g id="edge62" class="edge">
<title>VariantAnnotation&#45;&gt;MultiQC</title>
<path fill="none" stroke="#000000" d="M1413.6236,-363.2188C1438.2606,-353.8739 1468.9724,-340.4555 1493.8414,-324 1513.2431,-311.1622 1513.104,-301.7893 1531.8414,-288 1593.238,-242.8166 1672.4981,-201.9979 1718.6986,-179.7259"/>
<polygon fill="#000000" stroke="#000000" points="1720.2492,-182.8641 1727.76,-175.3915 1717.2286,-176.5493 1720.2492,-182.8641"/>
</g>
<!-- SelectIndels -->
<g id="node32" class="node">
<title>SelectIndels</title>
<ellipse fill="none" stroke="#000000" cx="900.8414" cy="-234" rx="53.8905" ry="18"/>
<text text-anchor="middle" x="900.8414" y="-230.3" font-family="Times,serif" font-size="14.00" fill="#000000">SelectIndels</text>
</g>
<!-- CustTumorNormalAnnotations&#45;&gt;SelectIndels -->
<g id="edge35" class="edge">
<title>CustTumorNormalAnnotations&#45;&gt;SelectIndels</title>
<path fill="none" stroke="#000000" d="M1278.9088,-292.9196C1186.6016,-278.5341 1040.6602,-255.7899 959.7559,-243.1815"/>
<polygon fill="#000000" stroke="#000000" points="960.161,-239.7024 949.7413,-241.6208 959.083,-246.619 960.161,-239.7024"/>
</g>
<!-- SelectSNV -->
<g id="node33" class="node">
<title>SelectSNV</title>
<ellipse fill="none" stroke="#000000" cx="1399.8414" cy="-234" rx="50.0912" ry="18"/>
<text text-anchor="middle" x="1399.8414" y="-230.3" font-family="Times,serif" font-size="14.00" fill="#000000">SelectSNV</text>
</g>
<!-- CustTumorNormalAnnotations&#45;&gt;SelectSNV -->
<g id="edge36" class="edge">
<title>CustTumorNormalAnnotations&#45;&gt;SelectSNV</title>
<path fill="none" stroke="#000000" d="M1372.1781,-287.8314C1376.3727,-279.6688 1381.4082,-269.87 1386.0267,-260.8827"/>
<polygon fill="#000000" stroke="#000000" points="1389.1782,-262.4075 1390.6359,-251.9134 1382.9521,-259.208 1389.1782,-262.4075"/>
</g>
<!-- IndelVariantsToTable -->
<g id="node34" class="node">
<title>IndelVariantsToTable</title>
<ellipse fill="none" stroke="#000000" cx="413.8414" cy="-162" rx="88.2844" ry="18"/>
<text text-anchor="middle" x="413.8414" y="-158.3" font-family="Times,serif" font-size="14.00" fill="#000000">IndelVariantsToTable</text>
</g>
<!-- SelectIndels&#45;&gt;IndelVariantsToTable -->
<g id="edge37" class="edge">
<title>SelectIndels&#45;&gt;IndelVariantsToTable</title>
<path fill="none" stroke="#000000" d="M850.0711,-227.6719C775.7012,-218.2392 632.8378,-199.5006 511.8414,-180 504.2763,-178.7808 496.3951,-177.4445 488.5336,-176.0683"/>
<polygon fill="#000000" stroke="#000000" points="489.0689,-172.6087 478.6115,-174.3095 487.8471,-179.5013 489.0689,-172.6087"/>
</g>
<!-- IndelVariantsToMinTable -->
<g id="node35" class="node">
<title>IndelVariantsToMinTable</title>
<ellipse fill="none" stroke="#000000" cx="900.8414" cy="-162" rx="103.1819" ry="18"/>
<text text-anchor="middle" x="900.8414" y="-158.3" font-family="Times,serif" font-size="14.00" fill="#000000">IndelVariantsToMinTable</text>
</g>
<!-- SelectIndels&#45;&gt;IndelVariantsToMinTable -->
<g id="edge38" class="edge">
<title>SelectIndels&#45;&gt;IndelVariantsToMinTable</title>
<path fill="none" stroke="#000000" d="M900.8414,-215.8314C900.8414,-208.131 900.8414,-198.9743 900.8414,-190.4166"/>
<polygon fill="#000000" stroke="#000000" points="904.3415,-190.4132 900.8414,-180.4133 897.3415,-190.4133 904.3415,-190.4132"/>
</g>
<!-- IndelVariantsToDescriptionTable -->
<g id="node38" class="node">
<title>IndelVariantsToDescriptionTable</title>
<ellipse fill="none" stroke="#000000" cx="649.8414" cy="-162" rx="129.1772" ry="18"/>
<text text-anchor="middle" x="649.8414" y="-158.3" font-family="Times,serif" font-size="14.00" fill="#000000">IndelVariantsToDescriptionTable</text>
</g>
<!-- SelectIndels&#45;&gt;IndelVariantsToDescriptionTable -->
<g id="edge41" class="edge">
<title>SelectIndels&#45;&gt;IndelVariantsToDescriptionTable</title>
<path fill="none" stroke="#000000" d="M859.6749,-222.1913C820.8037,-211.041 761.8428,-194.1279 716.3086,-181.0663"/>
<polygon fill="#000000" stroke="#000000" points="717.0929,-177.6502 706.5155,-178.2571 715.1627,-184.3788 717.0929,-177.6502"/>
</g>
<!-- SelectIndels&#45;&gt;MultiQC -->
<g id="edge59" class="edge">
<title>SelectIndels&#45;&gt;MultiQC</title>
<path fill="none" stroke="#000000" d="M954.6093,-232.2537C1110.4802,-226.8958 1560.6242,-209.2574 1704.8414,-180 1708.4226,-179.2735 1712.0945,-178.3622 1715.7501,-177.3377"/>
<polygon fill="#000000" stroke="#000000" points="1716.7772,-180.6836 1725.3149,-174.41 1714.7284,-173.9902 1716.7772,-180.6836"/>
</g>
<!-- SNVVariantsToTable -->
<g id="node36" class="node">
<title>SNVVariantsToTable</title>
<ellipse fill="none" stroke="#000000" cx="1607.8414" cy="-162" rx="87.9851" ry="18"/>
<text text-anchor="middle" x="1607.8414" y="-158.3" font-family="Times,serif" font-size="14.00" fill="#000000">SNVVariantsToTable</text>
</g>
<!-- SelectSNV&#45;&gt;SNVVariantsToTable -->
<g id="edge39" class="edge">
<title>SelectSNV&#45;&gt;SNVVariantsToTable</title>
<path fill="none" stroke="#000000" d="M1436.0722,-221.4586C1468.4464,-210.2521 1516.3388,-193.674 1553.3345,-180.8678"/>
<polygon fill="#000000" stroke="#000000" points="1554.6676,-184.1101 1562.9726,-177.5315 1552.3778,-177.4952 1554.6676,-184.1101"/>
</g>
<!-- SNVVariantsToMinTable -->
<g id="node37" class="node">
<title>SNVVariantsToMinTable</title>
<ellipse fill="none" stroke="#000000" cx="1399.8414" cy="-162" rx="102.8821" ry="18"/>
<text text-anchor="middle" x="1399.8414" y="-158.3" font-family="Times,serif" font-size="14.00" fill="#000000">SNVVariantsToMinTable</text>
</g>
<!-- SelectSNV&#45;&gt;SNVVariantsToMinTable -->
<g id="edge40" class="edge">
<title>SelectSNV&#45;&gt;SNVVariantsToMinTable</title>
<path fill="none" stroke="#000000" d="M1399.8414,-215.8314C1399.8414,-208.131 1399.8414,-198.9743 1399.8414,-190.4166"/>
<polygon fill="#000000" stroke="#000000" points="1403.3415,-190.4132 1399.8414,-180.4133 1396.3415,-190.4133 1403.3415,-190.4132"/>
</g>
<!-- SNVVariantsToDescriptionTable -->
<g id="node39" class="node">
<title>SNVVariantsToDescriptionTable</title>
<ellipse fill="none" stroke="#000000" cx="1150.8414" cy="-162" rx="128.8774" ry="18"/>
<text text-anchor="middle" x="1150.8414" y="-158.3" font-family="Times,serif" font-size="14.00" fill="#000000">SNVVariantsToDescriptionTable</text>
</g>
<!-- SelectSNV&#45;&gt;SNVVariantsToDescriptionTable -->
<g id="edge42" class="edge">
<title>SelectSNV&#45;&gt;SNVVariantsToDescriptionTable</title>
<path fill="none" stroke="#000000" d="M1360.6612,-222.6708C1322.1277,-211.5286 1262.5839,-194.3111 1216.7573,-181.06"/>
<polygon fill="#000000" stroke="#000000" points="1217.4836,-177.6267 1206.9049,-178.2111 1215.5391,-184.3512 1217.4836,-177.6267"/>
</g>
<!-- SelectSNV&#45;&gt;MultiQC -->
<g id="edge60" class="edge">
<title>SelectSNV&#45;&gt;MultiQC</title>
<path fill="none" stroke="#000000" d="M1444.677,-225.781C1461.6414,-222.6888 1481.1274,-219.1582 1498.8414,-216 1590.3417,-199.6868 1614.86,-203.276 1704.8414,-180 1708.1797,-179.1365 1711.6103,-178.1586 1715.0409,-177.1159"/>
<polygon fill="#000000" stroke="#000000" points="1716.1749,-180.4279 1724.6321,-174.0463 1714.0411,-173.761 1716.1749,-180.4279"/>
</g>
<!-- TablesToXlsx -->
<g id="node40" class="node">
<title>TablesToXlsx</title>
<ellipse fill="none" stroke="#000000" cx="649.8414" cy="-90" rx="60.3893" ry="18"/>
<text text-anchor="middle" x="649.8414" y="-86.3" font-family="Times,serif" font-size="14.00" fill="#000000">TablesToXlsx</text>
</g>
<!-- IndelVariantsToTable&#45;&gt;TablesToXlsx -->
<g id="edge43" class="edge">
<title>IndelVariantsToTable&#45;&gt;TablesToXlsx</title>
<path fill="none" stroke="#000000" d="M463.0275,-146.9941C502.4635,-134.9627 557.6618,-118.1226 597.8272,-105.8687"/>
<polygon fill="#000000" stroke="#000000" points="598.8951,-109.2023 607.4386,-102.9365 596.8525,-102.5069 598.8951,-109.2023"/>
</g>
<!-- SNVVariantsToTable&#45;&gt;TablesToXlsx -->
<g id="edge44" class="edge">
<title>SNVVariantsToTable&#45;&gt;TablesToXlsx</title>
<path fill="none" stroke="#000000" d="M1546.3231,-149.1469C1534.9028,-147.1366 1523.0429,-145.2983 1511.8414,-144 1161.821,-103.4325 1068.3238,-160.1536 719.8414,-108 714.4121,-107.1874 708.794,-106.1269 703.2103,-104.9269"/>
<polygon fill="#000000" stroke="#000000" points="703.7746,-101.4654 693.245,-102.6396 702.2086,-108.288 703.7746,-101.4654"/>
</g>
<!-- PlotGenome -->
<g id="node43" class="node">
<title>PlotGenome</title>
<ellipse fill="none" stroke="#000000" cx="1607.8414" cy="-90" rx="55.4913" ry="18"/>
<text text-anchor="middle" x="1607.8414" y="-86.3" font-family="Times,serif" font-size="14.00" fill="#000000">PlotGenome</text>
</g>
<!-- SNVVariantsToTable&#45;&gt;PlotGenome -->
<g id="edge52" class="edge">
<title>SNVVariantsToTable&#45;&gt;PlotGenome</title>
<path fill="none" stroke="#000000" d="M1607.8414,-143.8314C1607.8414,-136.131 1607.8414,-126.9743 1607.8414,-118.4166"/>
<polygon fill="#000000" stroke="#000000" points="1611.3415,-118.4132 1607.8414,-108.4133 1604.3415,-118.4133 1611.3415,-118.4132"/>
</g>
<!-- IndelVariantsToDescriptionTable&#45;&gt;TablesToXlsx -->
<g id="edge46" class="edge">
<title>IndelVariantsToDescriptionTable&#45;&gt;TablesToXlsx</title>
<path fill="none" stroke="#000000" d="M649.8414,-143.8314C649.8414,-136.131 649.8414,-126.9743 649.8414,-118.4166"/>
<polygon fill="#000000" stroke="#000000" points="653.3415,-118.4132 649.8414,-108.4133 646.3415,-118.4133 653.3415,-118.4132"/>
</g>
<!-- SNVVariantsToDescriptionTable&#45;&gt;TablesToXlsx -->
<g id="edge45" class="edge">
<title>SNVVariantsToDescriptionTable&#45;&gt;TablesToXlsx</title>
<path fill="none" stroke="#000000" d="M1056.9489,-149.6577C1042.1906,-147.7453 1027.1034,-145.8063 1012.8414,-144 882.6797,-127.5151 848.7562,-132.3883 719.8414,-108 714.7324,-107.0335 709.4433,-105.9082 704.1663,-104.701"/>
<polygon fill="#000000" stroke="#000000" points="704.6226,-101.2118 694.0837,-102.2985 703,-108.0211 704.6226,-101.2118"/>
</g>
<!-- TablesToXlsx&#45;&gt;Cleanup -->
<g id="edge64" class="edge">
<title>TablesToXlsx&#45;&gt;Cleanup</title>
<path fill="none" stroke="#000000" d="M643.889,-71.8314C643.127,-64.0125 642.911,-54.6923 643.2409,-46.0221"/>
<polygon fill="#000000" stroke="#000000" points="646.7418,-46.1239 643.9141,-35.9134 639.7573,-45.6587 646.7418,-46.1239"/>
</g>
<!-- TablesToXlsx&#45;&gt;Cleanup -->
<g id="edge69" class="edge">
<title>TablesToXlsx&#45;&gt;Cleanup</title>
<path fill="none" stroke="#000000" d="M655.7938,-71.8314C656.5558,-64.0125 656.7718,-54.6923 656.4419,-46.0221"/>
<polygon fill="#000000" stroke="#000000" points="659.9255,-45.6587 655.7687,-35.9134 652.941,-46.1239 659.9255,-45.6587"/>
</g>
<!-- Varscan2&#45;&gt;PlotGenome -->
<g id="edge51" class="edge">
<title>Varscan2&#45;&gt;PlotGenome</title>
<path fill="none" stroke="#000000" d="M1676.1364,-432.4322C1718.7952,-375.0729 1847.2557,-194.0968 1808.8414,-144 1791.852,-121.8438 1722.1263,-106.7591 1669.5263,-98.2823"/>
<polygon fill="#000000" stroke="#000000" points="1670.0096,-94.8154 1659.5884,-96.7256 1668.9262,-101.7311 1670.0096,-94.8154"/>
</g>
<!-- MergeSegFiles -->
<g id="node44" class="node">
<title>MergeSegFiles</title>
<ellipse fill="none" stroke="#000000" cx="1607.8414" cy="-18" rx="64.189" ry="18"/>
<text text-anchor="middle" x="1607.8414" y="-14.3" font-family="Times,serif" font-size="14.00" fill="#000000">MergeSegFiles</text>
</g>
<!-- PlotGenome&#45;&gt;MergeSegFiles -->
<g id="edge53" class="edge">
<title>PlotGenome&#45;&gt;MergeSegFiles</title>
<path fill="none" stroke="#000000" d="M1607.8414,-71.8314C1607.8414,-64.131 1607.8414,-54.9743 1607.8414,-46.4166"/>
<polygon fill="#000000" stroke="#000000" points="1611.3415,-46.4132 1607.8414,-36.4133 1604.3415,-46.4133 1611.3415,-46.4132"/>
</g>
<!-- PlotGenome&#45;&gt;Cleanup -->
<g id="edge63" class="edge">
<title>PlotGenome&#45;&gt;Cleanup</title>
<path fill="none" stroke="#000000" d="M1553.9368,-85.9487C1384.4801,-73.2129 864.0842,-34.1018 699.9676,-21.7673"/>
<polygon fill="#000000" stroke="#000000" points="699.9145,-18.2535 689.6803,-20.9942 699.3898,-25.2339 699.9145,-18.2535"/>
</g>
<!-- ProjectMarkdown&#45;&gt;MultiQC -->
<g id="edge57" class="edge">
<title>ProjectMarkdown&#45;&gt;MultiQC</title>
<path fill="none" stroke="#000000" d="M1633.1308,-288.3428C1658.2426,-262.6967 1704.8883,-215.0584 1733.1727,-186.1723"/>
<polygon fill="#000000" stroke="#000000" points="1735.7915,-188.5005 1740.287,-178.9066 1730.7899,-183.6031 1735.7915,-188.5005"/>
</g>
<!-- SamQC&#45;&gt;MultiQC -->
<g id="edge61" class="edge">
<title>SamQC&#45;&gt;MultiQC</title>
<path fill="none" stroke="#000000" d="M2024.0259,-654.5894C2029.9268,-652.3845 2036.0729,-650.1061 2041.8414,-648 2186.5874,-595.1532 2364.8414,-676.0915 2364.8414,-522 2364.8414,-522 2364.8414,-522 2364.8414,-306 2364.8414,-192.519 1958.7111,-168.345 1810.3102,-163.2998"/>
<polygon fill="#000000" stroke="#000000" points="1810.1879,-159.7941 1800.0799,-162.9686 1809.9613,-166.7904 1810.1879,-159.7941"/>
</g>
<!-- AnalyseCovariants -->
<g id="node49" class="node">
<title>AnalyseCovariants</title>
<ellipse fill="none" stroke="#000000" cx="805.8414" cy="-90" rx="77.1866" ry="18"/>
<text text-anchor="middle" x="805.8414" y="-86.3" font-family="Times,serif" font-size="14.00" fill="#000000">AnalyseCovariants</text>
</g>
<!-- AnalyseCovariants&#45;&gt;Cleanup -->
<g id="edge68" class="edge">
<title>AnalyseCovariants&#45;&gt;Cleanup</title>
<path fill="none" stroke="#000000" d="M770.832,-73.8418C745.9794,-62.3714 712.6589,-46.9927 687.2778,-35.2784"/>
<polygon fill="#000000" stroke="#000000" points="688.5196,-31.9967 677.9733,-30.9839 685.5862,-38.3524 688.5196,-31.9967"/>
</g>
</g>
</svg>
