<?xml version="1.0" encoding="UTF-8" standalone="no"?>
<!DOCTYPE svg PUBLIC "-//W3C//DTD SVG 1.1//EN"
 "http://www.w3.org/Graphics/SVG/1.1/DTD/svg11.dtd">
<!-- Generated by graphviz version 2.40.1 (0)
 -->
<!-- Title: workflow_lexogenrnarat Pages: 1 -->
<svg width="2170pt" height="620pt"
 viewBox="0.00 0.00 2169.69 620.00" xmlns="http://www.w3.org/2000/svg" xmlns:xlink="http://www.w3.org/1999/xlink">
<g id="graph0" class="graph" transform="scale(1 1) rotate(0) translate(4 616)">
<title>workflow_lexogenrnarat</title>
<polygon fill="#ffffff" stroke="transparent" points="-4,4 -4,-616 2165.6886,-616 2165.6886,4 -4,4"/>
<!-- LexogenPreAlign -->
<g id="node1" class="node">
<title>LexogenPreAlign</title>
<ellipse fill="none" stroke="#000000" cx="1509.7924" cy="-594" rx="73.387" ry="18"/>
<text text-anchor="middle" x="1509.7924" y="-590.3" font-family="Times,serif" font-size="14.00" fill="#000000">LexogenPreAlign</text>
</g>
<!-- FusionCatcher -->
<g id="node2" class="node">
<title>FusionCatcher</title>
<ellipse fill="none" stroke="#000000" cx="1358.7924" cy="-522" rx="61.99" ry="18"/>
<text text-anchor="middle" x="1358.7924" y="-518.3" font-family="Times,serif" font-size="14.00" fill="#000000">FusionCatcher</text>
</g>
<!-- LexogenPreAlign&#45;&gt;FusionCatcher -->
<g id="edge1" class="edge">
<title>LexogenPreAlign&#45;&gt;FusionCatcher</title>
<path fill="none" stroke="#000000" d="M1475.905,-577.8418C1453.4902,-567.1539 1423.9592,-553.0729 1400.1596,-541.7248"/>
<polygon fill="#000000" stroke="#000000" points="1401.5477,-538.5092 1391.0149,-537.3644 1398.5349,-544.8277 1401.5477,-538.5092"/>
</g>
<!-- FastqcLexogen -->
<g id="node3" class="node">
<title>FastqcLexogen</title>
<ellipse fill="none" stroke="#000000" cx="1802.7924" cy="-450" rx="64.189" ry="18"/>
<text text-anchor="middle" x="1802.7924" y="-446.3" font-family="Times,serif" font-size="14.00" fill="#000000">FastqcLexogen</text>
</g>
<!-- LexogenPreAlign&#45;&gt;FastqcLexogen -->
<g id="edge2" class="edge">
<title>LexogenPreAlign&#45;&gt;FastqcLexogen</title>
<path fill="none" stroke="#000000" d="M1542.8337,-577.7613C1596.6752,-551.2999 1703.1978,-498.9475 1761.7873,-470.1527"/>
<polygon fill="#000000" stroke="#000000" points="1763.3327,-473.2931 1770.7636,-465.7411 1760.2451,-467.0108 1763.3327,-473.2931"/>
</g>
<!-- Hisat2Alignment -->
<g id="node4" class="node">
<title>Hisat2Alignment</title>
<ellipse fill="none" stroke="#000000" cx="1509.7924" cy="-522" rx="71.4873" ry="18"/>
<text text-anchor="middle" x="1509.7924" y="-518.3" font-family="Times,serif" font-size="14.00" fill="#000000">Hisat2Alignment</text>
</g>
<!-- LexogenPreAlign&#45;&gt;Hisat2Alignment -->
<g id="edge3" class="edge">
<title>LexogenPreAlign&#45;&gt;Hisat2Alignment</title>
<path fill="none" stroke="#000000" d="M1503.84,-575.8314C1503.0896,-568.131 1502.8687,-558.9743 1503.1773,-550.4166"/>
<polygon fill="#000000" stroke="#000000" points="1506.6716,-550.6161 1503.8164,-540.4133 1499.6858,-550.1697 1506.6716,-550.6161"/>
</g>
<!-- LexogenPreAlign&#45;&gt;Hisat2Alignment -->
<g id="edge4" class="edge">
<title>LexogenPreAlign&#45;&gt;Hisat2Alignment</title>
<path fill="none" stroke="#000000" d="M1515.7448,-575.8314C1516.4952,-568.131 1516.7161,-558.9743 1516.4075,-550.4166"/>
<polygon fill="#000000" stroke="#000000" points="1519.8989,-550.1697 1515.7684,-540.4133 1512.9132,-550.6161 1519.8989,-550.1697"/>
</g>
<!-- SampleMarkdown -->
<g id="node23" class="node">
<title>SampleMarkdown</title>
<ellipse fill="none" stroke="#000000" cx="1359.7924" cy="-162" rx="76.8869" ry="18"/>
<text text-anchor="middle" x="1359.7924" y="-158.3" font-family="Times,serif" font-size="14.00" fill="#000000">SampleMarkdown</text>
</g>
<!-- FastqcLexogen&#45;&gt;SampleMarkdown -->
<g id="edge26" class="edge">
<title>FastqcLexogen&#45;&gt;SampleMarkdown</title>
<path fill="none" stroke="#000000" d="M1817.4411,-432.1701C1850.8917,-389.2424 1925.6853,-279.0419 1867.7924,-216 1835.9621,-181.3387 1492.3529,-186.8329 1445.7924,-180 1439.0998,-179.0178 1432.1454,-177.8359 1425.2207,-176.5528"/>
<polygon fill="#000000" stroke="#000000" points="1425.6115,-173.0638 1415.1304,-174.612 1424.2893,-179.9378 1425.6115,-173.0638"/>
</g>
<!-- AddOrReplaceReadGroups -->
<g id="node5" class="node">
<title>AddOrReplaceReadGroups</title>
<ellipse fill="none" stroke="#000000" cx="1444.7924" cy="-450" rx="107.4815" ry="18"/>
<text text-anchor="middle" x="1444.7924" y="-446.3" font-family="Times,serif" font-size="14.00" fill="#000000">AddOrReplaceReadGroups</text>
</g>
<!-- Hisat2Alignment&#45;&gt;AddOrReplaceReadGroups -->
<g id="edge5" class="edge">
<title>Hisat2Alignment&#45;&gt;AddOrReplaceReadGroups</title>
<path fill="none" stroke="#000000" d="M1493.725,-504.2022C1485.9124,-495.5483 1476.3806,-484.99 1467.8122,-475.4988"/>
<polygon fill="#000000" stroke="#000000" points="1470.1993,-472.9199 1460.9002,-467.8425 1465.0034,-477.6106 1470.1993,-472.9199"/>
</g>
<!-- MergeBamFiles -->
<g id="node6" class="node">
<title>MergeBamFiles</title>
<ellipse fill="none" stroke="#000000" cx="1402.7924" cy="-378" rx="68.4888" ry="18"/>
<text text-anchor="middle" x="1402.7924" y="-374.3" font-family="Times,serif" font-size="14.00" fill="#000000">MergeBamFiles</text>
</g>
<!-- AddOrReplaceReadGroups&#45;&gt;MergeBamFiles -->
<g id="edge6" class="edge">
<title>AddOrReplaceReadGroups&#45;&gt;MergeBamFiles</title>
<path fill="none" stroke="#000000" d="M1434.194,-431.8314C1429.3824,-423.5829 1423.5961,-413.6635 1418.3086,-404.5992"/>
<polygon fill="#000000" stroke="#000000" points="1421.3039,-402.7876 1413.2419,-395.9134 1415.2574,-406.3148 1421.3039,-402.7876"/>
</g>
<!-- HtseqCountDups -->
<g id="node7" class="node">
<title>HtseqCountDups</title>
<ellipse fill="none" stroke="#000000" cx="516.7924" cy="-306" rx="71.4873" ry="18"/>
<text text-anchor="middle" x="516.7924" y="-302.3" font-family="Times,serif" font-size="14.00" fill="#000000">HtseqCountDups</text>
</g>
<!-- MergeBamFiles&#45;&gt;HtseqCountDups -->
<g id="edge7" class="edge">
<title>MergeBamFiles&#45;&gt;HtseqCountDups</title>
<path fill="none" stroke="#000000" d="M1337.2829,-372.6764C1177.332,-359.6782 767.3785,-326.3637 595.0057,-312.3559"/>
<polygon fill="#000000" stroke="#000000" points="595.2418,-308.8637 584.9912,-311.5421 594.6748,-315.8407 595.2418,-308.8637"/>
</g>
<!-- HtseqCountTes500Dups -->
<g id="node9" class="node">
<title>HtseqCountTes500Dups</title>
<ellipse fill="none" stroke="#000000" cx="1047.7924" cy="-306" rx="96.6831" ry="18"/>
<text text-anchor="middle" x="1047.7924" y="-302.3" font-family="Times,serif" font-size="14.00" fill="#000000">HtseqCountTes500Dups</text>
</g>
<!-- MergeBamFiles&#45;&gt;HtseqCountTes500Dups -->
<g id="edge9" class="edge">
<title>MergeBamFiles&#45;&gt;HtseqCountTes500Dups</title>
<path fill="none" stroke="#000000" d="M1348.4891,-366.9864C1288.354,-354.79 1190.9929,-335.0435 1123.416,-321.3378"/>
<polygon fill="#000000" stroke="#000000" points="1123.7496,-317.8342 1113.2535,-319.2766 1122.3582,-324.6946 1123.7496,-317.8342"/>
</g>
<!-- MarkDuplicates -->
<g id="node11" class="node">
<title>MarkDuplicates</title>
<ellipse fill="none" stroke="#000000" cx="1402.7924" cy="-306" rx="67.6881" ry="18"/>
<text text-anchor="middle" x="1402.7924" y="-302.3" font-family="Times,serif" font-size="14.00" fill="#000000">MarkDuplicates</text>
</g>
<!-- MergeBamFiles&#45;&gt;MarkDuplicates -->
<g id="edge11" class="edge">
<title>MergeBamFiles&#45;&gt;MarkDuplicates</title>
<path fill="none" stroke="#000000" d="M1402.7924,-359.8314C1402.7924,-352.131 1402.7924,-342.9743 1402.7924,-334.4166"/>
<polygon fill="#000000" stroke="#000000" points="1406.2925,-334.4132 1402.7924,-324.4133 1399.2925,-334.4133 1406.2925,-334.4132"/>
</g>
<!-- SamQC -->
<g id="node30" class="node">
<title>SamQC</title>
<ellipse fill="none" stroke="#000000" cx="1819.7924" cy="-234" rx="38.9931" ry="18"/>
<text text-anchor="middle" x="1819.7924" y="-230.3" font-family="Times,serif" font-size="14.00" fill="#000000">SamQC</text>
</g>
<!-- MergeBamFiles&#45;&gt;SamQC -->
<g id="edge33" class="edge">
<title>MergeBamFiles&#45;&gt;SamQC</title>
<path fill="none" stroke="#000000" d="M1445.5503,-363.8587C1514.4481,-340.9691 1654.2099,-294.1113 1771.7924,-252 1774.5024,-251.0294 1777.2939,-250.0168 1780.1029,-248.9882"/>
<polygon fill="#000000" stroke="#000000" points="1781.462,-252.2173 1789.6284,-245.4675 1779.0352,-245.6514 1781.462,-252.2173"/>
</g>
<!-- MergeExpressionDupTables -->
<g id="node8" class="node">
<title>MergeExpressionDupTables</title>
<ellipse fill="none" stroke="#000000" cx="301.7924" cy="-234" rx="111.5806" ry="18"/>
<text text-anchor="middle" x="301.7924" y="-230.3" font-family="Times,serif" font-size="14.00" fill="#000000">MergeExpressionDupTables</text>
</g>
<!-- HtseqCountDups&#45;&gt;MergeExpressionDupTables -->
<g id="edge8" class="edge">
<title>HtseqCountDups&#45;&gt;MergeExpressionDupTables</title>
<path fill="none" stroke="#000000" d="M473.8007,-291.6028C441.2049,-280.687 396.0527,-265.5663 360.1881,-253.5558"/>
<polygon fill="#000000" stroke="#000000" points="360.9307,-250.1135 350.3369,-250.2568 358.7078,-256.7512 360.9307,-250.1135"/>
</g>
<!-- MergeExpressionTes500DupTables -->
<g id="node10" class="node">
<title>MergeExpressionTes500DupTables</title>
<ellipse fill="none" stroke="#000000" cx="569.7924" cy="-234" rx="137.5759" ry="18"/>
<text text-anchor="middle" x="569.7924" y="-230.3" font-family="Times,serif" font-size="14.00" fill="#000000">MergeExpressionTes500DupTables</text>
</g>
<!-- HtseqCountTes500Dups&#45;&gt;MergeExpressionTes500DupTables -->
<g id="edge10" class="edge">
<title>HtseqCountTes500Dups&#45;&gt;MergeExpressionTes500DupTables</title>
<path fill="none" stroke="#000000" d="M972.3156,-294.6311C890.7912,-282.3513 760.4997,-262.7258 670.3365,-249.1447"/>
<polygon fill="#000000" stroke="#000000" points="670.7803,-245.6722 660.3705,-247.6436 669.7376,-252.5941 670.7803,-245.6722"/>
</g>
<!-- MantaSV -->
<g id="node12" class="node">
<title>MantaSV</title>
<ellipse fill="none" stroke="#000000" cx="1717.7924" cy="-234" rx="44.6926" ry="18"/>
<text text-anchor="middle" x="1717.7924" y="-230.3" font-family="Times,serif" font-size="14.00" fill="#000000">MantaSV</text>
</g>
<!-- MarkDuplicates&#45;&gt;MantaSV -->
<g id="edge12" class="edge">
<title>MarkDuplicates&#45;&gt;MantaSV</title>
<path fill="none" stroke="#000000" d="M1460.0036,-296.3231C1513.4067,-286.7928 1595.102,-270.9375 1664.7924,-252 1667.9807,-251.1336 1671.2571,-250.1798 1674.5418,-249.1772"/>
<polygon fill="#000000" stroke="#000000" points="1675.8721,-252.4269 1684.3413,-246.0611 1673.7508,-245.7561 1675.8721,-252.4269"/>
</g>
<!-- HtseqCount -->
<g id="node17" class="node">
<title>HtseqCount</title>
<ellipse fill="none" stroke="#000000" cx="916.7924" cy="-234" rx="52.7911" ry="18"/>
<text text-anchor="middle" x="916.7924" y="-230.3" font-family="Times,serif" font-size="14.00" fill="#000000">HtseqCount</text>
</g>
<!-- MarkDuplicates&#45;&gt;HtseqCount -->
<g id="edge17" class="edge">
<title>MarkDuplicates&#45;&gt;HtseqCount</title>
<path fill="none" stroke="#000000" d="M1337.6226,-300.8776C1253.932,-293.5751 1104.4902,-278.0848 978.7924,-252 974.4146,-251.0915 969.8957,-250.0291 965.386,-248.8828"/>
<polygon fill="#000000" stroke="#000000" points="966.1509,-245.4645 955.5864,-246.2665 964.3452,-252.2276 966.1509,-245.4645"/>
</g>
<!-- HtseqCountTes500 -->
<g id="node19" class="node">
<title>HtseqCountTes500</title>
<ellipse fill="none" stroke="#000000" cx="1576.7924" cy="-234" rx="78.7863" ry="18"/>
<text text-anchor="middle" x="1576.7924" y="-230.3" font-family="Times,serif" font-size="14.00" fill="#000000">HtseqCountTes500</text>
</g>
<!-- MarkDuplicates&#45;&gt;HtseqCountTes500 -->
<g id="edge19" class="edge">
<title>MarkDuplicates&#45;&gt;HtseqCountTes500</title>
<path fill="none" stroke="#000000" d="M1439.6933,-290.7307C1465.7746,-279.9384 1500.9682,-265.3755 1529.1673,-253.7069"/>
<polygon fill="#000000" stroke="#000000" points="1530.5372,-256.928 1538.4391,-249.8703 1527.8607,-250.4598 1530.5372,-256.928"/>
</g>
<!-- CollectMultipleMetrics -->
<g id="node21" class="node">
<title>CollectMultipleMetrics</title>
<ellipse fill="none" stroke="#000000" cx="1081.7924" cy="-234" rx="94.4839" ry="18"/>
<text text-anchor="middle" x="1081.7924" y="-230.3" font-family="Times,serif" font-size="14.00" fill="#000000">CollectMultipleMetrics</text>
</g>
<!-- MarkDuplicates&#45;&gt;CollectMultipleMetrics -->
<g id="edge21" class="edge">
<title>MarkDuplicates&#45;&gt;CollectMultipleMetrics</title>
<path fill="none" stroke="#000000" d="M1350.8614,-294.3519C1297.0745,-282.2876 1212.6636,-263.3543 1152.7431,-249.9142"/>
<polygon fill="#000000" stroke="#000000" points="1153.4965,-246.4963 1142.9729,-247.7227 1151.9645,-253.3266 1153.4965,-246.4963"/>
</g>
<!-- CalculateHsMetrics -->
<g id="node22" class="node">
<title>CalculateHsMetrics</title>
<ellipse fill="none" stroke="#000000" cx="1360.7924" cy="-234" rx="81.4863" ry="18"/>
<text text-anchor="middle" x="1360.7924" y="-230.3" font-family="Times,serif" font-size="14.00" fill="#000000">CalculateHsMetrics</text>
</g>
<!-- MarkDuplicates&#45;&gt;CalculateHsMetrics -->
<g id="edge22" class="edge">
<title>MarkDuplicates&#45;&gt;CalculateHsMetrics</title>
<path fill="none" stroke="#000000" d="M1392.4104,-288.2022C1387.6006,-279.9569 1381.7824,-269.9828 1376.455,-260.8501"/>
<polygon fill="#000000" stroke="#000000" points="1379.4087,-258.9674 1371.3467,-252.0931 1373.3622,-262.4945 1379.4087,-258.9674"/>
</g>
<!-- MarkDuplicates&#45;&gt;SampleMarkdown -->
<g id="edge27" class="edge">
<title>MarkDuplicates&#45;&gt;SampleMarkdown</title>
<path fill="none" stroke="#000000" d="M1424.0086,-288.8602C1434.1978,-279.2384 1445.354,-266.3039 1450.7924,-252 1456.4785,-237.0445 1458.7094,-229.904 1450.7924,-216 1442.286,-201.061 1427.8391,-189.8281 1412.9313,-181.5881"/>
<polygon fill="#000000" stroke="#000000" points="1414.1358,-178.273 1403.6386,-176.8379 1410.9496,-184.5059 1414.1358,-178.273"/>
</g>
<!-- SplitAndTrim -->
<g id="node25" class="node">
<title>SplitAndTrim</title>
<ellipse fill="none" stroke="#000000" cx="785.7924" cy="-234" rx="60.3893" ry="18"/>
<text text-anchor="middle" x="785.7924" y="-230.3" font-family="Times,serif" font-size="14.00" fill="#000000">SplitAndTrim</text>
</g>
<!-- MarkDuplicates&#45;&gt;SplitAndTrim -->
<g id="edge28" class="edge">
<title>MarkDuplicates&#45;&gt;SplitAndTrim</title>
<path fill="none" stroke="#000000" d="M1337.5153,-300.8618C1213.0257,-290.8486 945.9625,-268.2798 854.7924,-252 849.8165,-251.1115 844.6728,-250.0485 839.5413,-248.8894"/>
<polygon fill="#000000" stroke="#000000" points="840.2734,-245.466 829.7355,-246.5623 838.657,-252.2769 840.2734,-245.466"/>
</g>
<!-- MarkDuplicates&#45;&gt;SamQC -->
<g id="edge34" class="edge">
<title>MarkDuplicates&#45;&gt;SamQC</title>
<path fill="none" stroke="#000000" d="M1467.613,-300.735C1541.9589,-293.7282 1667.0846,-278.964 1771.7924,-252 1774.7982,-251.226 1777.8759,-250.3287 1780.95,-249.3563"/>
<polygon fill="#000000" stroke="#000000" points="1782.3239,-252.586 1790.6647,-246.0528 1780.0702,-245.9587 1782.3239,-252.586"/>
</g>
<!-- SnpEffManta -->
<g id="node13" class="node">
<title>SnpEffManta</title>
<ellipse fill="none" stroke="#000000" cx="1775.7924" cy="-162" rx="58.4896" ry="18"/>
<text text-anchor="middle" x="1775.7924" y="-158.3" font-family="Times,serif" font-size="14.00" fill="#000000">SnpEffManta</text>
</g>
<!-- MantaSV&#45;&gt;SnpEffManta -->
<g id="edge13" class="edge">
<title>MantaSV&#45;&gt;SnpEffManta</title>
<path fill="none" stroke="#000000" d="M1731.8326,-216.5708C1738.9044,-207.7919 1747.6107,-196.9841 1755.4044,-187.3093"/>
<polygon fill="#000000" stroke="#000000" points="1758.1328,-189.5015 1761.6805,-179.5182 1752.6815,-185.1101 1758.1328,-189.5015"/>
</g>
<!-- SvVariantsToDescriptionTable -->
<g id="node14" class="node">
<title>SvVariantsToDescriptionTable</title>
<ellipse fill="none" stroke="#000000" cx="1970.7924" cy="-90" rx="120.4791" ry="18"/>
<text text-anchor="middle" x="1970.7924" y="-86.3" font-family="Times,serif" font-size="14.00" fill="#000000">SvVariantsToDescriptionTable</text>
</g>
<!-- SnpEffManta&#45;&gt;SvVariantsToDescriptionTable -->
<g id="edge14" class="edge">
<title>SnpEffManta&#45;&gt;SvVariantsToDescriptionTable</title>
<path fill="none" stroke="#000000" d="M1813.3903,-148.1177C1842.5013,-137.369 1883.2443,-122.3254 1915.9845,-110.2368"/>
<polygon fill="#000000" stroke="#000000" points="1917.2586,-113.4974 1925.4272,-106.7502 1914.8339,-106.9307 1917.2586,-113.4974"/>
</g>
<!-- SvVariantsToTable -->
<g id="node15" class="node">
<title>SvVariantsToTable</title>
<ellipse fill="none" stroke="#000000" cx="1545.7924" cy="-90" rx="79.0865" ry="18"/>
<text text-anchor="middle" x="1545.7924" y="-86.3" font-family="Times,serif" font-size="14.00" fill="#000000">SvVariantsToTable</text>
</g>
<!-- SnpEffManta&#45;&gt;SvVariantsToTable -->
<g id="edge15" class="edge">
<title>SnpEffManta&#45;&gt;SvVariantsToTable</title>
<path fill="none" stroke="#000000" d="M1734.673,-149.1278C1697.71,-137.5568 1643.088,-120.4577 1602.0788,-107.6201"/>
<polygon fill="#000000" stroke="#000000" points="1603.0833,-104.2671 1592.4944,-104.6197 1600.992,-110.9475 1603.0833,-104.2671"/>
</g>
<!-- SvVariantsToMinTable -->
<g id="node16" class="node">
<title>SvVariantsToMinTable</title>
<ellipse fill="none" stroke="#000000" cx="1737.7924" cy="-90" rx="94.7833" ry="18"/>
<text text-anchor="middle" x="1737.7924" y="-86.3" font-family="Times,serif" font-size="14.00" fill="#000000">SvVariantsToMinTable</text>
</g>
<!-- SnpEffManta&#45;&gt;SvVariantsToMinTable -->
<g id="edge16" class="edge">
<title>SnpEffManta&#45;&gt;SvVariantsToMinTable</title>
<path fill="none" stroke="#000000" d="M1766.3991,-144.2022C1762.0928,-136.0428 1756.8929,-126.1904 1752.1141,-117.1358"/>
<polygon fill="#000000" stroke="#000000" points="1755.1045,-115.3033 1747.3415,-108.0931 1748.9138,-118.5707 1755.1045,-115.3033"/>
</g>
<!-- MultiQC -->
<g id="node31" class="node">
<title>MultiQC</title>
<ellipse fill="none" stroke="#000000" cx="2118.7924" cy="-18" rx="42.7926" ry="18"/>
<text text-anchor="middle" x="2118.7924" y="-14.3" font-family="Times,serif" font-size="14.00" fill="#000000">MultiQC</text>
</g>
<!-- SnpEffManta&#45;&gt;MultiQC -->
<g id="edge36" class="edge">
<title>SnpEffManta&#45;&gt;MultiQC</title>
<path fill="none" stroke="#000000" d="M1834.0159,-159.9699C1916.7995,-155.8454 2062.6282,-143.6028 2099.7924,-108 2116.2143,-92.2681 2120.2454,-66.189 2120.5895,-46.1425"/>
<polygon fill="#000000" stroke="#000000" points="2124.0878,-45.9711 2120.4682,-36.0138 2117.0883,-46.055 2124.0878,-45.9711"/>
</g>
<!-- MergeExpressionTables -->
<g id="node18" class="node">
<title>MergeExpressionTables</title>
<ellipse fill="none" stroke="#000000" cx="941.7924" cy="-162" rx="96.6831" ry="18"/>
<text text-anchor="middle" x="941.7924" y="-158.3" font-family="Times,serif" font-size="14.00" fill="#000000">MergeExpressionTables</text>
</g>
<!-- HtseqCount&#45;&gt;MergeExpressionTables -->
<g id="edge18" class="edge">
<title>HtseqCount&#45;&gt;MergeExpressionTables</title>
<path fill="none" stroke="#000000" d="M923.1009,-215.8314C925.8041,-208.0463 929.024,-198.7729 932.0234,-190.1347"/>
<polygon fill="#000000" stroke="#000000" points="935.4251,-191.0081 935.3989,-180.4133 928.8124,-188.7119 935.4251,-191.0081"/>
</g>
<!-- MergeExpressionTes500Tables -->
<g id="node20" class="node">
<title>MergeExpressionTes500Tables</title>
<ellipse fill="none" stroke="#000000" cx="1576.7924" cy="-162" rx="122.3786" ry="18"/>
<text text-anchor="middle" x="1576.7924" y="-158.3" font-family="Times,serif" font-size="14.00" fill="#000000">MergeExpressionTes500Tables</text>
</g>
<!-- HtseqCountTes500&#45;&gt;MergeExpressionTes500Tables -->
<g id="edge20" class="edge">
<title>HtseqCountTes500&#45;&gt;MergeExpressionTes500Tables</title>
<path fill="none" stroke="#000000" d="M1576.7924,-215.8314C1576.7924,-208.131 1576.7924,-198.9743 1576.7924,-190.4166"/>
<polygon fill="#000000" stroke="#000000" points="1580.2925,-190.4132 1576.7924,-180.4133 1573.2925,-190.4133 1580.2925,-190.4132"/>
</g>
<!-- CollectMultipleMetrics&#45;&gt;SampleMarkdown -->
<g id="edge24" class="edge">
<title>CollectMultipleMetrics&#45;&gt;SampleMarkdown</title>
<path fill="none" stroke="#000000" d="M1138.0498,-219.4297C1184.4118,-207.4223 1250.0826,-190.4141 1297.9201,-178.0245"/>
<polygon fill="#000000" stroke="#000000" points="1299.041,-181.3497 1307.8441,-175.4542 1297.286,-174.5733 1299.041,-181.3497"/>
</g>
<!-- Cleanup -->
<g id="node33" class="node">
<title>Cleanup</title>
<ellipse fill="none" stroke="#000000" cx="1085.7924" cy="-18" rx="40.0939" ry="18"/>
<text text-anchor="middle" x="1085.7924" y="-14.3" font-family="Times,serif" font-size="14.00" fill="#000000">Cleanup</text>
</g>
<!-- CollectMultipleMetrics&#45;&gt;Cleanup -->
<g id="edge40" class="edge">
<title>CollectMultipleMetrics&#45;&gt;Cleanup</title>
<path fill="none" stroke="#000000" d="M1082.1265,-215.9555C1082.8221,-178.3938 1084.4303,-91.5541 1085.2663,-46.4103"/>
<polygon fill="#000000" stroke="#000000" points="1088.7705,-46.2082 1085.4564,-36.1451 1081.7717,-46.0785 1088.7705,-46.2082"/>
</g>
<!-- CalculateHsMetrics&#45;&gt;SampleMarkdown -->
<g id="edge23" class="edge">
<title>CalculateHsMetrics&#45;&gt;SampleMarkdown</title>
<path fill="none" stroke="#000000" d="M1360.54,-215.8314C1360.4331,-208.131 1360.3059,-198.9743 1360.1871,-190.4166"/>
<polygon fill="#000000" stroke="#000000" points="1363.6868,-190.3637 1360.0481,-180.4133 1356.6874,-190.4609 1363.6868,-190.3637"/>
</g>
<!-- CalculateHsMetrics&#45;&gt;Cleanup -->
<g id="edge39" class="edge">
<title>CalculateHsMetrics&#45;&gt;Cleanup</title>
<path fill="none" stroke="#000000" d="M1328.0087,-217.3822C1286.7283,-195.5663 1214.8029,-154.5348 1161.7924,-108 1139.6681,-88.5784 1118.3943,-62.5409 1104.0102,-43.4692"/>
<polygon fill="#000000" stroke="#000000" points="1106.6776,-41.1903 1097.9078,-35.2454 1101.0562,-45.3617 1106.6776,-41.1903"/>
</g>
<!-- ProjectMarkdown -->
<g id="node29" class="node">
<title>ProjectMarkdown</title>
<ellipse fill="none" stroke="#000000" cx="1373.7924" cy="-90" rx="74.9875" ry="18"/>
<text text-anchor="middle" x="1373.7924" y="-86.3" font-family="Times,serif" font-size="14.00" fill="#000000">ProjectMarkdown</text>
</g>
<!-- SampleMarkdown&#45;&gt;ProjectMarkdown -->
<g id="edge32" class="edge">
<title>SampleMarkdown&#45;&gt;ProjectMarkdown</title>
<path fill="none" stroke="#000000" d="M1363.3252,-143.8314C1364.8225,-136.131 1366.6029,-126.9743 1368.2669,-118.4166"/>
<polygon fill="#000000" stroke="#000000" points="1371.7389,-118.8975 1370.212,-108.4133 1364.8676,-117.5614 1371.7389,-118.8975"/>
</g>
<!-- Fastqc -->
<g id="node24" class="node">
<title>Fastqc</title>
<ellipse fill="none" stroke="#000000" cx="1227.7924" cy="-234" rx="33.5952" ry="18"/>
<text text-anchor="middle" x="1227.7924" y="-230.3" font-family="Times,serif" font-size="14.00" fill="#000000">Fastqc</text>
</g>
<!-- Fastqc&#45;&gt;SampleMarkdown -->
<g id="edge25" class="edge">
<title>Fastqc&#45;&gt;SampleMarkdown</title>
<path fill="none" stroke="#000000" d="M1251.6966,-220.9613C1270.7636,-210.5612 1297.8752,-195.773 1320.1761,-183.6089"/>
<polygon fill="#000000" stroke="#000000" points="1321.9833,-186.61 1329.0862,-178.7488 1318.6313,-180.4647 1321.9833,-186.61"/>
</g>
<!-- Fastqc&#45;&gt;Cleanup -->
<g id="edge41" class="edge">
<title>Fastqc&#45;&gt;Cleanup</title>
<path fill="none" stroke="#000000" d="M1201.5115,-222.5506C1175.6274,-210.7855 1138.5835,-192.4747 1128.7924,-180 1112.5063,-159.25 1097.7213,-86.6399 1090.4795,-46.0313"/>
<polygon fill="#000000" stroke="#000000" points="1093.8909,-45.2202 1088.7231,-35.9712 1086.9952,-46.4242 1093.8909,-45.2202"/>
</g>
<!-- HaplotypeCaller -->
<g id="node26" class="node">
<title>HaplotypeCaller</title>
<ellipse fill="none" stroke="#000000" cx="757.7924" cy="-162" rx="68.7879" ry="18"/>
<text text-anchor="middle" x="757.7924" y="-158.3" font-family="Times,serif" font-size="14.00" fill="#000000">HaplotypeCaller</text>
</g>
<!-- SplitAndTrim&#45;&gt;HaplotypeCaller -->
<g id="edge29" class="edge">
<title>SplitAndTrim&#45;&gt;HaplotypeCaller</title>
<path fill="none" stroke="#000000" d="M778.7268,-215.8314C775.6193,-207.8406 771.902,-198.2819 768.4679,-189.4514"/>
<polygon fill="#000000" stroke="#000000" points="771.6453,-187.9649 764.7587,-179.9134 765.1212,-190.502 771.6453,-187.9649"/>
</g>
<!-- MergeVariants -->
<g id="node28" class="node">
<title>MergeVariants</title>
<ellipse fill="none" stroke="#000000" cx="943.7924" cy="-90" rx="63.8893" ry="18"/>
<text text-anchor="middle" x="943.7924" y="-86.3" font-family="Times,serif" font-size="14.00" fill="#000000">MergeVariants</text>
</g>
<!-- HaplotypeCaller&#45;&gt;MergeVariants -->
<g id="edge31" class="edge">
<title>HaplotypeCaller&#45;&gt;MergeVariants</title>
<path fill="none" stroke="#000000" d="M796.7841,-146.9064C825.8132,-135.6694 865.586,-120.2734 896.4426,-108.329"/>
<polygon fill="#000000" stroke="#000000" points="898.0606,-111.4558 906.1228,-104.5818 895.5336,-104.9278 898.0606,-111.4558"/>
</g>
<!-- HaplotypeCaller&#45;&gt;Cleanup -->
<g id="edge43" class="edge">
<title>HaplotypeCaller&#45;&gt;Cleanup</title>
<path fill="none" stroke="#000000" d="M774.9108,-144.3925C795.7235,-123.9947 832.8003,-90.7913 870.7924,-72 924.2387,-45.5649 991.7413,-31.3484 1036.7106,-24.2434"/>
<polygon fill="#000000" stroke="#000000" points="1037.4318,-27.6741 1046.7918,-22.7102 1036.3792,-20.7537 1037.4318,-27.6741"/>
</g>
<!-- CreatePaddedTargets -->
<g id="node27" class="node">
<title>CreatePaddedTargets</title>
<ellipse fill="none" stroke="#000000" cx="85.7924" cy="-234" rx="85.5853" ry="18"/>
<text text-anchor="middle" x="85.7924" y="-230.3" font-family="Times,serif" font-size="14.00" fill="#000000">CreatePaddedTargets</text>
</g>
<!-- CreatePaddedTargets&#45;&gt;HaplotypeCaller -->
<g id="edge30" class="edge">
<title>CreatePaddedTargets&#45;&gt;HaplotypeCaller</title>
<path fill="none" stroke="#000000" d="M147.4866,-221.4398C158.5462,-219.437 169.9884,-217.5257 180.7924,-216 358.7908,-190.8644 569.3923,-174.5106 680.3808,-166.9244"/>
<polygon fill="#000000" stroke="#000000" points="680.74,-170.4081 690.4803,-166.2395 680.2663,-163.4242 680.74,-170.4081"/>
</g>
<!-- MergeVariants&#45;&gt;Cleanup -->
<g id="edge42" class="edge">
<title>MergeVariants&#45;&gt;Cleanup</title>
<path fill="none" stroke="#000000" d="M974.9549,-74.1993C997.0553,-62.9935 1026.7697,-47.927 1049.8688,-36.2148"/>
<polygon fill="#000000" stroke="#000000" points="1051.6663,-39.2276 1059.0025,-31.5836 1048.5006,-32.9843 1051.6663,-39.2276"/>
</g>
<!-- ProjectMarkdown&#45;&gt;MultiQC -->
<g id="edge35" class="edge">
<title>ProjectMarkdown&#45;&gt;MultiQC</title>
<path fill="none" stroke="#000000" d="M1427.3777,-77.4355C1437.4415,-75.3839 1447.9065,-73.4567 1457.7924,-72 1682.58,-38.8761 1953.5891,-24.7319 2065.986,-19.989"/>
<polygon fill="#000000" stroke="#000000" points="2066.1962,-23.4834 2076.0426,-19.572 2065.9062,-16.4894 2066.1962,-23.4834"/>
</g>
<!-- SamQC&#45;&gt;MultiQC -->
<g id="edge37" class="edge">
<title>SamQC&#45;&gt;MultiQC</title>
<path fill="none" stroke="#000000" d="M1858.5215,-231.0169C1925.6592,-223.5173 2062.175,-197.4716 2121.7924,-108 2133.8612,-89.8876 2131.9162,-64.8581 2127.6301,-45.7916"/>
<polygon fill="#000000" stroke="#000000" points="2130.9649,-44.706 2125.0823,-35.8943 2124.1859,-46.4511 2130.9649,-44.706"/>
</g>
<!-- PlotGenome -->
<g id="node32" class="node">
<title>PlotGenome</title>
<ellipse fill="none" stroke="#000000" cx="1225.7924" cy="-90" rx="55.4913" ry="18"/>
<text text-anchor="middle" x="1225.7924" y="-86.3" font-family="Times,serif" font-size="14.00" fill="#000000">PlotGenome</text>
</g>
<!-- PlotGenome&#45;&gt;Cleanup -->
<g id="edge38" class="edge">
<title>PlotGenome&#45;&gt;Cleanup</title>
<path fill="none" stroke="#000000" d="M1196.102,-74.7307C1174.374,-63.5562 1144.7858,-48.3395 1121.7229,-36.4785"/>
<polygon fill="#000000" stroke="#000000" points="1123.0931,-33.2475 1112.5995,-31.7865 1119.8916,-39.4725 1123.0931,-33.2475"/>
</g>
</g>
</svg>
