<?xml version="1.0" encoding="UTF-8" standalone="no"?>
<!DOCTYPE svg PUBLIC "-//W3C//DTD SVG 1.1//EN"
 "http://www.w3.org/Graphics/SVG/1.1/DTD/svg11.dtd">
<!-- Generated by graphviz version 2.40.1 (0)
 -->
<!-- Title: workflow_nugenein Pages: 1 -->
<svg width="2272pt" height="980pt"
 viewBox="0.00 0.00 2271.56 980.00" xmlns="http://www.w3.org/2000/svg" xmlns:xlink="http://www.w3.org/1999/xlink">
<g id="graph0" class="graph" transform="scale(1 1) rotate(0) translate(4 976)">
<title>workflow_nugenein</title>
<polygon fill="#ffffff" stroke="transparent" points="-4,4 -4,-976 2267.5555,-976 2267.5555,4 -4,4"/>
<!-- NugeneIncPreAlign -->
<g id="node1" class="node">
<title>NugeneIncPreAlign</title>
<ellipse fill="none" stroke="#000000" cx="1342.3161" cy="-954" rx="81.4863" ry="18"/>
<text text-anchor="middle" x="1342.3161" y="-950.3" font-family="Times,serif" font-size="14.00" fill="#000000">NugeneIncPreAlign</text>
</g>
<!-- FastqcNugene -->
<g id="node2" class="node">
<title>FastqcNugene</title>
<ellipse fill="none" stroke="#000000" cx="1249.3161" cy="-810" rx="61.1893" ry="18"/>
<text text-anchor="middle" x="1249.3161" y="-806.3" font-family="Times,serif" font-size="14.00" fill="#000000">FastqcNugene</text>
</g>
<!-- NugeneIncPreAlign&#45;&gt;FastqcNugene -->
<g id="edge1" class="edge">
<title>NugeneIncPreAlign&#45;&gt;FastqcNugene</title>
<path fill="none" stroke="#000000" d="M1330.7257,-936.0535C1314.5569,-911.0179 1285.1177,-865.4347 1266.4224,-836.4872"/>
<polygon fill="#000000" stroke="#000000" points="1269.126,-834.2219 1260.7605,-827.7204 1263.2457,-838.0196 1269.126,-834.2219"/>
</g>
<!-- BwaMemAlignment -->
<g id="node3" class="node">
<title>BwaMemAlignment</title>
<ellipse fill="none" stroke="#000000" cx="1416.3161" cy="-882" rx="84.485" ry="18"/>
<text text-anchor="middle" x="1416.3161" y="-878.3" font-family="Times,serif" font-size="14.00" fill="#000000">BwaMemAlignment</text>
</g>
<!-- NugeneIncPreAlign&#45;&gt;BwaMemAlignment -->
<g id="edge2" class="edge">
<title>NugeneIncPreAlign&#45;&gt;BwaMemAlignment</title>
<path fill="none" stroke="#000000" d="M1360.6083,-936.2022C1369.7487,-927.3088 1380.9562,-916.4042 1390.9161,-906.7135"/>
<polygon fill="#000000" stroke="#000000" points="1393.5079,-909.0752 1398.2344,-899.593 1388.6264,-904.0581 1393.5079,-909.0752"/>
</g>
<!-- SampleMarkdown -->
<g id="node14" class="node">
<title>SampleMarkdown</title>
<ellipse fill="none" stroke="#000000" cx="1429.3161" cy="-522" rx="76.8869" ry="18"/>
<text text-anchor="middle" x="1429.3161" y="-518.3" font-family="Times,serif" font-size="14.00" fill="#000000">SampleMarkdown</text>
</g>
<!-- FastqcNugene&#45;&gt;SampleMarkdown -->
<g id="edge16" class="edge">
<title>FastqcNugene&#45;&gt;SampleMarkdown</title>
<path fill="none" stroke="#000000" d="M1249.5406,-791.85C1251.0044,-749.1664 1260.2789,-641.1221 1315.3161,-576 1329.2866,-559.4697 1349.4602,-547.6545 1368.9656,-539.3776"/>
<polygon fill="#000000" stroke="#000000" points="1370.4644,-542.5481 1378.4571,-535.5935 1367.872,-536.0458 1370.4644,-542.5481"/>
</g>
<!-- AddOrReplaceReadGroups -->
<g id="node4" class="node">
<title>AddOrReplaceReadGroups</title>
<ellipse fill="none" stroke="#000000" cx="1435.3161" cy="-810" rx="107.4815" ry="18"/>
<text text-anchor="middle" x="1435.3161" y="-806.3" font-family="Times,serif" font-size="14.00" fill="#000000">AddOrReplaceReadGroups</text>
</g>
<!-- BwaMemAlignment&#45;&gt;AddOrReplaceReadGroups -->
<g id="edge3" class="edge">
<title>BwaMemAlignment&#45;&gt;AddOrReplaceReadGroups</title>
<path fill="none" stroke="#000000" d="M1421.1106,-863.8314C1423.165,-856.0463 1425.6122,-846.7729 1427.8917,-838.1347"/>
<polygon fill="#000000" stroke="#000000" points="1431.2896,-838.9753 1430.4571,-828.4133 1424.5213,-837.1892 1431.2896,-838.9753"/>
</g>
<!-- Nudup -->
<g id="node5" class="node">
<title>Nudup</title>
<ellipse fill="none" stroke="#000000" cx="1433.3161" cy="-738" rx="34.394" ry="18"/>
<text text-anchor="middle" x="1433.3161" y="-734.3" font-family="Times,serif" font-size="14.00" fill="#000000">Nudup</text>
</g>
<!-- AddOrReplaceReadGroups&#45;&gt;Nudup -->
<g id="edge4" class="edge">
<title>AddOrReplaceReadGroups&#45;&gt;Nudup</title>
<path fill="none" stroke="#000000" d="M1434.8114,-791.8314C1434.5975,-784.131 1434.3432,-774.9743 1434.1055,-766.4166"/>
<polygon fill="#000000" stroke="#000000" points="1437.604,-766.3122 1433.8276,-756.4133 1430.6067,-766.5066 1437.604,-766.3122"/>
</g>
<!-- MergeBamFiles -->
<g id="node6" class="node">
<title>MergeBamFiles</title>
<ellipse fill="none" stroke="#000000" cx="1430.3161" cy="-666" rx="68.4888" ry="18"/>
<text text-anchor="middle" x="1430.3161" y="-662.3" font-family="Times,serif" font-size="14.00" fill="#000000">MergeBamFiles</text>
</g>
<!-- Nudup&#45;&gt;MergeBamFiles -->
<g id="edge5" class="edge">
<title>Nudup&#45;&gt;MergeBamFiles</title>
<path fill="none" stroke="#000000" d="M1432.5591,-719.8314C1432.2383,-712.131 1431.8567,-702.9743 1431.5002,-694.4166"/>
<polygon fill="#000000" stroke="#000000" points="1434.9967,-694.2589 1431.0834,-684.4133 1428.0028,-694.5503 1434.9967,-694.2589"/>
</g>
<!-- MantaSV -->
<g id="node7" class="node">
<title>MantaSV</title>
<ellipse fill="none" stroke="#000000" cx="1866.3161" cy="-594" rx="44.6926" ry="18"/>
<text text-anchor="middle" x="1866.3161" y="-590.3" font-family="Times,serif" font-size="14.00" fill="#000000">MantaSV</text>
</g>
<!-- MergeBamFiles&#45;&gt;MantaSV -->
<g id="edge6" class="edge">
<title>MergeBamFiles&#45;&gt;MantaSV</title>
<path fill="none" stroke="#000000" d="M1493.0159,-658.888C1566.3711,-650.08 1691.2923,-633.5624 1797.3161,-612 1804.6549,-610.5075 1812.3781,-608.7153 1819.8943,-606.8483"/>
<polygon fill="#000000" stroke="#000000" points="1820.7822,-610.234 1829.6061,-604.3699 1819.0512,-603.4514 1820.7822,-610.234"/>
</g>
<!-- CollectMultipleMetrics -->
<g id="node12" class="node">
<title>CollectMultipleMetrics</title>
<ellipse fill="none" stroke="#000000" cx="1428.3161" cy="-594" rx="94.4839" ry="18"/>
<text text-anchor="middle" x="1428.3161" y="-590.3" font-family="Times,serif" font-size="14.00" fill="#000000">CollectMultipleMetrics</text>
</g>
<!-- MergeBamFiles&#45;&gt;CollectMultipleMetrics -->
<g id="edge11" class="edge">
<title>MergeBamFiles&#45;&gt;CollectMultipleMetrics</title>
<path fill="none" stroke="#000000" d="M1429.8114,-647.8314C1429.5975,-640.131 1429.3432,-630.9743 1429.1055,-622.4166"/>
<polygon fill="#000000" stroke="#000000" points="1432.604,-622.3122 1428.8276,-612.4133 1425.6067,-622.5066 1432.604,-622.3122"/>
</g>
<!-- CalculateHsMetrics -->
<g id="node13" class="node">
<title>CalculateHsMetrics</title>
<ellipse fill="none" stroke="#000000" cx="1707.3161" cy="-594" rx="81.4863" ry="18"/>
<text text-anchor="middle" x="1707.3161" y="-590.3" font-family="Times,serif" font-size="14.00" fill="#000000">CalculateHsMetrics</text>
</g>
<!-- MergeBamFiles&#45;&gt;CalculateHsMetrics -->
<g id="edge12" class="edge">
<title>MergeBamFiles&#45;&gt;CalculateHsMetrics</title>
<path fill="none" stroke="#000000" d="M1479.2005,-653.2936C1525.2126,-641.3338 1594.3498,-623.3631 1644.4467,-610.3415"/>
<polygon fill="#000000" stroke="#000000" points="1645.4018,-613.7096 1654.1997,-607.8064 1643.6408,-606.9348 1645.4018,-613.7096"/>
</g>
<!-- MergeBamFiles&#45;&gt;SampleMarkdown -->
<g id="edge17" class="edge">
<title>MergeBamFiles&#45;&gt;SampleMarkdown</title>
<path fill="none" stroke="#000000" d="M1381.2943,-653.3203C1360.2264,-645.176 1337.6487,-632.2103 1325.3161,-612 1316.9819,-598.342 1317.0086,-589.6742 1325.3161,-576 1335.2539,-559.6425 1351.9328,-548.0148 1369.0561,-539.8497"/>
<polygon fill="#000000" stroke="#000000" points="1370.8312,-542.8925 1378.5748,-535.6616 1368.0121,-536.4853 1370.8312,-542.8925"/>
</g>
<!-- IndelRealignmentKnown -->
<g id="node16" class="node">
<title>IndelRealignmentKnown</title>
<ellipse fill="none" stroke="#000000" cx="902.3161" cy="-594" rx="100.1823" ry="18"/>
<text text-anchor="middle" x="902.3161" y="-590.3" font-family="Times,serif" font-size="14.00" fill="#000000">IndelRealignmentKnown</text>
</g>
<!-- MergeBamFiles&#45;&gt;IndelRealignmentKnown -->
<g id="edge18" class="edge">
<title>MergeBamFiles&#45;&gt;IndelRealignmentKnown</title>
<path fill="none" stroke="#000000" d="M1367.7519,-658.6396C1285.7713,-648.8339 1137.5797,-630.5558 1011.3161,-612 1002.8369,-610.7539 993.997,-609.3944 985.1804,-607.9991"/>
<polygon fill="#000000" stroke="#000000" points="985.684,-604.5352 975.2568,-606.4126 984.5789,-611.4474 985.684,-604.5352"/>
</g>
<!-- SnpEffManta -->
<g id="node8" class="node">
<title>SnpEffManta</title>
<ellipse fill="none" stroke="#000000" cx="1895.3161" cy="-522" rx="58.4896" ry="18"/>
<text text-anchor="middle" x="1895.3161" y="-518.3" font-family="Times,serif" font-size="14.00" fill="#000000">SnpEffManta</text>
</g>
<!-- MantaSV&#45;&gt;SnpEffManta -->
<g id="edge7" class="edge">
<title>MantaSV&#45;&gt;SnpEffManta</title>
<path fill="none" stroke="#000000" d="M1873.4847,-576.2022C1876.7365,-568.1287 1880.656,-558.3976 1884.2712,-549.422"/>
<polygon fill="#000000" stroke="#000000" points="1887.539,-550.6766 1888.0286,-540.0931 1881.0459,-548.0613 1887.539,-550.6766"/>
</g>
<!-- SvVariantsToDescriptionTable -->
<g id="node9" class="node">
<title>SvVariantsToDescriptionTable</title>
<ellipse fill="none" stroke="#000000" cx="2143.3161" cy="-450" rx="120.4791" ry="18"/>
<text text-anchor="middle" x="2143.3161" y="-446.3" font-family="Times,serif" font-size="14.00" fill="#000000">SvVariantsToDescriptionTable</text>
</g>
<!-- SnpEffManta&#45;&gt;SvVariantsToDescriptionTable -->
<g id="edge8" class="edge">
<title>SnpEffManta&#45;&gt;SvVariantsToDescriptionTable</title>
<path fill="none" stroke="#000000" d="M1937.9489,-509.6228C1976.4458,-498.4462 2033.6762,-481.831 2077.9508,-468.977"/>
<polygon fill="#000000" stroke="#000000" points="2079.1326,-472.2785 2087.7602,-466.1291 2077.1809,-465.5561 2079.1326,-472.2785"/>
</g>
<!-- SvVariantsToTable -->
<g id="node10" class="node">
<title>SvVariantsToTable</title>
<ellipse fill="none" stroke="#000000" cx="1718.3161" cy="-450" rx="79.0865" ry="18"/>
<text text-anchor="middle" x="1718.3161" y="-446.3" font-family="Times,serif" font-size="14.00" fill="#000000">SvVariantsToTable</text>
</g>
<!-- SnpEffManta&#45;&gt;SvVariantsToTable -->
<g id="edge9" class="edge">
<title>SnpEffManta&#45;&gt;SvVariantsToTable</title>
<path fill="none" stroke="#000000" d="M1859.9229,-507.6028C1833.0682,-496.6788 1795.8608,-481.5436 1766.3244,-469.5288"/>
<polygon fill="#000000" stroke="#000000" points="1767.6088,-466.2728 1757.0271,-465.7468 1764.9712,-472.7569 1767.6088,-466.2728"/>
</g>
<!-- SvVariantsToMinTable -->
<g id="node11" class="node">
<title>SvVariantsToMinTable</title>
<ellipse fill="none" stroke="#000000" cx="1910.3161" cy="-450" rx="94.7833" ry="18"/>
<text text-anchor="middle" x="1910.3161" y="-446.3" font-family="Times,serif" font-size="14.00" fill="#000000">SvVariantsToMinTable</text>
</g>
<!-- SnpEffManta&#45;&gt;SvVariantsToMinTable -->
<g id="edge10" class="edge">
<title>SnpEffManta&#45;&gt;SvVariantsToMinTable</title>
<path fill="none" stroke="#000000" d="M1899.1013,-503.8314C1900.7055,-496.131 1902.6131,-486.9743 1904.396,-478.4166"/>
<polygon fill="#000000" stroke="#000000" points="1907.8668,-478.9169 1906.48,-468.4133 1901.014,-477.4892 1907.8668,-478.9169"/>
</g>
<!-- CollectMultipleMetrics&#45;&gt;SampleMarkdown -->
<g id="edge14" class="edge">
<title>CollectMultipleMetrics&#45;&gt;SampleMarkdown</title>
<path fill="none" stroke="#000000" d="M1428.5685,-575.8314C1428.6754,-568.131 1428.8026,-558.9743 1428.9215,-550.4166"/>
<polygon fill="#000000" stroke="#000000" points="1432.4211,-550.4609 1429.0604,-540.4133 1425.4218,-550.3637 1432.4211,-550.4609"/>
</g>
<!-- Cleanup -->
<g id="node36" class="node">
<title>Cleanup</title>
<ellipse fill="none" stroke="#000000" cx="1446.3161" cy="-18" rx="40.0939" ry="18"/>
<text text-anchor="middle" x="1446.3161" y="-14.3" font-family="Times,serif" font-size="14.00" fill="#000000">Cleanup</text>
</g>
<!-- CollectMultipleMetrics&#45;&gt;Cleanup -->
<g id="edge46" class="edge">
<title>CollectMultipleMetrics&#45;&gt;Cleanup</title>
<path fill="none" stroke="#000000" d="M1468.5479,-577.6128C1485.3805,-568.8258 1503.6935,-556.3844 1515.3161,-540 1539.0239,-506.5791 1535.3161,-490.9758 1535.3161,-450 1535.3161,-450 1535.3161,-450 1535.3161,-162 1535.3161,-113.5842 1498.4609,-67.8494 1472.1838,-41.3944"/>
<polygon fill="#000000" stroke="#000000" points="1474.3562,-38.6236 1464.757,-34.1396 1469.4647,-43.6311 1474.3562,-38.6236"/>
</g>
<!-- CalculateHsMetrics&#45;&gt;SampleMarkdown -->
<g id="edge13" class="edge">
<title>CalculateHsMetrics&#45;&gt;SampleMarkdown</title>
<path fill="none" stroke="#000000" d="M1654.3721,-580.2879C1607.7989,-568.2257 1539.9755,-550.66 1490.9695,-537.9678"/>
<polygon fill="#000000" stroke="#000000" points="1491.6801,-534.5364 1481.122,-535.4173 1489.925,-541.3128 1491.6801,-534.5364"/>
</g>
<!-- CalculateHsMetrics&#45;&gt;Cleanup -->
<g id="edge45" class="edge">
<title>CalculateHsMetrics&#45;&gt;Cleanup</title>
<path fill="none" stroke="#000000" d="M1685.5322,-576.5177C1657.2082,-551.6613 1611.3161,-503.1819 1611.3161,-450 1611.3161,-450 1611.3161,-450 1611.3161,-162 1611.3161,-96.4141 1536.3988,-53.833 1487.527,-33.0331"/>
<polygon fill="#000000" stroke="#000000" points="1488.7092,-29.7349 1478.1298,-29.1632 1486.0436,-36.2075 1488.7092,-29.7349"/>
</g>
<!-- ProjectMarkdown -->
<g id="node35" class="node">
<title>ProjectMarkdown</title>
<ellipse fill="none" stroke="#000000" cx="1432.3161" cy="-378" rx="74.9875" ry="18"/>
<text text-anchor="middle" x="1432.3161" y="-374.3" font-family="Times,serif" font-size="14.00" fill="#000000">ProjectMarkdown</text>
</g>
<!-- SampleMarkdown&#45;&gt;ProjectMarkdown -->
<g id="edge42" class="edge">
<title>SampleMarkdown&#45;&gt;ProjectMarkdown</title>
<path fill="none" stroke="#000000" d="M1429.6961,-503.7623C1430.2078,-479.201 1431.1235,-435.2474 1431.7254,-406.3541"/>
<polygon fill="#000000" stroke="#000000" points="1435.2301,-406.1604 1431.9393,-396.0896 1428.2316,-406.0145 1435.2301,-406.1604"/>
</g>
<!-- Fastqc -->
<g id="node15" class="node">
<title>Fastqc</title>
<ellipse fill="none" stroke="#000000" cx="1574.3161" cy="-594" rx="33.5952" ry="18"/>
<text text-anchor="middle" x="1574.3161" y="-590.3" font-family="Times,serif" font-size="14.00" fill="#000000">Fastqc</text>
</g>
<!-- Fastqc&#45;&gt;SampleMarkdown -->
<g id="edge15" class="edge">
<title>Fastqc&#45;&gt;SampleMarkdown</title>
<path fill="none" stroke="#000000" d="M1549.3897,-581.6228C1527.9714,-570.9874 1496.6352,-555.4274 1471.3456,-542.8698"/>
<polygon fill="#000000" stroke="#000000" points="1472.8447,-539.7065 1462.3315,-538.3939 1469.7315,-545.9761 1472.8447,-539.7065"/>
</g>
<!-- Fastqc&#45;&gt;Cleanup -->
<g id="edge47" class="edge">
<title>Fastqc&#45;&gt;Cleanup</title>
<path fill="none" stroke="#000000" d="M1574.1089,-575.8149C1573.816,-548.4989 1573.3161,-495.2511 1573.3161,-450 1573.3161,-450 1573.3161,-450 1573.3161,-162 1573.3161,-105.8352 1518.3009,-61.2231 1480.6894,-37.2865"/>
<polygon fill="#000000" stroke="#000000" points="1482.3643,-34.2073 1472.0165,-31.9329 1478.6875,-40.1639 1482.3643,-34.2073"/>
</g>
<!-- NugeneProbeMetrics -->
<g id="node17" class="node">
<title>NugeneProbeMetrics</title>
<ellipse fill="none" stroke="#000000" cx="902.3161" cy="-522" rx="85.5853" ry="18"/>
<text text-anchor="middle" x="902.3161" y="-518.3" font-family="Times,serif" font-size="14.00" fill="#000000">NugeneProbeMetrics</text>
</g>
<!-- IndelRealignmentKnown&#45;&gt;NugeneProbeMetrics -->
<g id="edge19" class="edge">
<title>IndelRealignmentKnown&#45;&gt;NugeneProbeMetrics</title>
<path fill="none" stroke="#000000" d="M902.3161,-575.8314C902.3161,-568.131 902.3161,-558.9743 902.3161,-550.4166"/>
<polygon fill="#000000" stroke="#000000" points="905.8162,-550.4132 902.3161,-540.4133 898.8162,-550.4133 905.8162,-550.4132"/>
</g>
<!-- HaplotypeCaller -->
<g id="node18" class="node">
<title>HaplotypeCaller</title>
<ellipse fill="none" stroke="#000000" cx="1075.3161" cy="-522" rx="68.7879" ry="18"/>
<text text-anchor="middle" x="1075.3161" y="-518.3" font-family="Times,serif" font-size="14.00" fill="#000000">HaplotypeCaller</text>
</g>
<!-- IndelRealignmentKnown&#45;&gt;HaplotypeCaller -->
<g id="edge20" class="edge">
<title>IndelRealignmentKnown&#45;&gt;HaplotypeCaller</title>
<path fill="none" stroke="#000000" d="M942.4406,-577.3008C968.4237,-566.487 1002.3328,-552.3745 1029.3923,-541.1128"/>
<polygon fill="#000000" stroke="#000000" points="1030.7662,-544.3321 1038.6537,-537.2583 1028.0765,-537.8694 1030.7662,-544.3321"/>
</g>
<!-- Varscan2 -->
<g id="node32" class="node">
<title>Varscan2</title>
<ellipse fill="none" stroke="#000000" cx="788.3161" cy="-450" rx="44.393" ry="18"/>
<text text-anchor="middle" x="788.3161" y="-446.3" font-family="Times,serif" font-size="14.00" fill="#000000">Varscan2</text>
</g>
<!-- IndelRealignmentKnown&#45;&gt;Varscan2 -->
<g id="edge37" class="edge">
<title>IndelRealignmentKnown&#45;&gt;Varscan2</title>
<path fill="none" stroke="#000000" d="M856.8755,-577.7841C838.8986,-569.1898 819.6273,-556.8501 807.3161,-540 794.3401,-522.24 789.827,-497.5382 788.4265,-478.5054"/>
<polygon fill="#000000" stroke="#000000" points="791.9128,-478.1396 787.9277,-468.3228 784.9212,-478.4821 791.9128,-478.1396"/>
</g>
<!-- MergeVariants -->
<g id="node20" class="node">
<title>MergeVariants</title>
<ellipse fill="none" stroke="#000000" cx="1064.3161" cy="-450" rx="63.8893" ry="18"/>
<text text-anchor="middle" x="1064.3161" y="-446.3" font-family="Times,serif" font-size="14.00" fill="#000000">MergeVariants</text>
</g>
<!-- HaplotypeCaller&#45;&gt;MergeVariants -->
<g id="edge22" class="edge">
<title>HaplotypeCaller&#45;&gt;MergeVariants</title>
<path fill="none" stroke="#000000" d="M1072.5404,-503.8314C1071.3639,-496.131 1069.965,-486.9743 1068.6576,-478.4166"/>
<polygon fill="#000000" stroke="#000000" points="1072.0995,-477.7699 1067.1293,-468.4133 1065.1798,-478.8272 1072.0995,-477.7699"/>
</g>
<!-- HaplotypeCaller&#45;&gt;Varscan2 -->
<g id="edge38" class="edge">
<title>HaplotypeCaller&#45;&gt;Varscan2</title>
<path fill="none" stroke="#000000" d="M1025.3245,-509.4586C972.0651,-496.0973 888.3675,-475.1 836.0057,-461.9639"/>
<polygon fill="#000000" stroke="#000000" points="836.8398,-458.5648 826.2886,-459.5262 835.1364,-465.3544 836.8398,-458.5648"/>
</g>
<!-- HaplotypeCaller&#45;&gt;Cleanup -->
<g id="edge49" class="edge">
<title>HaplotypeCaller&#45;&gt;Cleanup</title>
<path fill="none" stroke="#000000" d="M1099.6746,-504.8416C1161.956,-459.5763 1327.7629,-330.0451 1408.3161,-180 1431.4965,-136.8224 1440.6419,-79.732 1444.1743,-46.1276"/>
<polygon fill="#000000" stroke="#000000" points="1447.6663,-46.3776 1445.1346,-36.0897 1440.6981,-45.7109 1447.6663,-46.3776"/>
</g>
<!-- CreatePaddedTargets -->
<g id="node19" class="node">
<title>CreatePaddedTargets</title>
<ellipse fill="none" stroke="#000000" cx="1106.3161" cy="-594" rx="85.5853" ry="18"/>
<text text-anchor="middle" x="1106.3161" y="-590.3" font-family="Times,serif" font-size="14.00" fill="#000000">CreatePaddedTargets</text>
</g>
<!-- CreatePaddedTargets&#45;&gt;HaplotypeCaller -->
<g id="edge21" class="edge">
<title>CreatePaddedTargets&#45;&gt;HaplotypeCaller</title>
<path fill="none" stroke="#000000" d="M1098.4935,-575.8314C1095.0161,-567.7547 1090.8489,-558.0761 1087.013,-549.1668"/>
<polygon fill="#000000" stroke="#000000" points="1090.1982,-547.7141 1083.0289,-539.9134 1083.7688,-550.4824 1090.1982,-547.7141"/>
</g>
<!-- VariantAnnotation -->
<g id="node21" class="node">
<title>VariantAnnotation</title>
<ellipse fill="none" stroke="#000000" cx="1041.3161" cy="-378" rx="76.8869" ry="18"/>
<text text-anchor="middle" x="1041.3161" y="-374.3" font-family="Times,serif" font-size="14.00" fill="#000000">VariantAnnotation</text>
</g>
<!-- MergeVariants&#45;&gt;VariantAnnotation -->
<g id="edge23" class="edge">
<title>MergeVariants&#45;&gt;VariantAnnotation</title>
<path fill="none" stroke="#000000" d="M1058.5123,-431.8314C1056.0254,-424.0463 1053.063,-414.7729 1050.3036,-406.1347"/>
<polygon fill="#000000" stroke="#000000" points="1053.5752,-404.874 1047.1981,-396.4133 1046.9072,-407.0041 1053.5752,-404.874"/>
</g>
<!-- CustTumorNormalAnnotations -->
<g id="node22" class="node">
<title>CustTumorNormalAnnotations</title>
<ellipse fill="none" stroke="#000000" cx="1019.3161" cy="-306" rx="121.5784" ry="18"/>
<text text-anchor="middle" x="1019.3161" y="-302.3" font-family="Times,serif" font-size="14.00" fill="#000000">CustTumorNormalAnnotations</text>
</g>
<!-- VariantAnnotation&#45;&gt;CustTumorNormalAnnotations -->
<g id="edge24" class="edge">
<title>VariantAnnotation&#45;&gt;CustTumorNormalAnnotations</title>
<path fill="none" stroke="#000000" d="M1035.7646,-359.8314C1033.3858,-352.0463 1030.5523,-342.7729 1027.9129,-334.1347"/>
<polygon fill="#000000" stroke="#000000" points="1031.2119,-332.954 1024.9424,-324.4133 1024.5174,-334.9996 1031.2119,-332.954"/>
</g>
<!-- SelectIndels -->
<g id="node23" class="node">
<title>SelectIndels</title>
<ellipse fill="none" stroke="#000000" cx="1019.3161" cy="-234" rx="53.8905" ry="18"/>
<text text-anchor="middle" x="1019.3161" y="-230.3" font-family="Times,serif" font-size="14.00" fill="#000000">SelectIndels</text>
</g>
<!-- CustTumorNormalAnnotations&#45;&gt;SelectIndels -->
<g id="edge25" class="edge">
<title>CustTumorNormalAnnotations&#45;&gt;SelectIndels</title>
<path fill="none" stroke="#000000" d="M1019.3161,-287.8314C1019.3161,-280.131 1019.3161,-270.9743 1019.3161,-262.4166"/>
<polygon fill="#000000" stroke="#000000" points="1022.8162,-262.4132 1019.3161,-252.4133 1015.8162,-262.4133 1022.8162,-262.4132"/>
</g>
<!-- SelectSNV -->
<g id="node24" class="node">
<title>SelectSNV</title>
<ellipse fill="none" stroke="#000000" cx="449.3161" cy="-234" rx="50.0912" ry="18"/>
<text text-anchor="middle" x="449.3161" y="-230.3" font-family="Times,serif" font-size="14.00" fill="#000000">SelectSNV</text>
</g>
<!-- CustTumorNormalAnnotations&#45;&gt;SelectSNV -->
<g id="edge26" class="edge">
<title>CustTumorNormalAnnotations&#45;&gt;SelectSNV</title>
<path fill="none" stroke="#000000" d="M926.7849,-294.3118C808.0312,-279.3114 605.5873,-253.7395 506.8652,-241.2694"/>
<polygon fill="#000000" stroke="#000000" points="507.142,-237.7766 496.7821,-239.9957 506.2647,-244.7214 507.142,-237.7766"/>
</g>
<!-- IndelVariantsToTable -->
<g id="node25" class="node">
<title>IndelVariantsToTable</title>
<ellipse fill="none" stroke="#000000" cx="809.3161" cy="-162" rx="88.2844" ry="18"/>
<text text-anchor="middle" x="809.3161" y="-158.3" font-family="Times,serif" font-size="14.00" fill="#000000">IndelVariantsToTable</text>
</g>
<!-- SelectIndels&#45;&gt;IndelVariantsToTable -->
<g id="edge27" class="edge">
<title>SelectIndels&#45;&gt;IndelVariantsToTable</title>
<path fill="none" stroke="#000000" d="M981.2867,-220.9613C948.6282,-209.7641 901.1346,-193.4806 864.3292,-180.8616"/>
<polygon fill="#000000" stroke="#000000" points="865.3311,-177.5052 854.7365,-177.5727 863.0608,-184.1268 865.3311,-177.5052"/>
</g>
<!-- IndelVariantsToMinTable -->
<g id="node26" class="node">
<title>IndelVariantsToMinTable</title>
<ellipse fill="none" stroke="#000000" cx="1019.3161" cy="-162" rx="103.1819" ry="18"/>
<text text-anchor="middle" x="1019.3161" y="-158.3" font-family="Times,serif" font-size="14.00" fill="#000000">IndelVariantsToMinTable</text>
</g>
<!-- SelectIndels&#45;&gt;IndelVariantsToMinTable -->
<g id="edge28" class="edge">
<title>SelectIndels&#45;&gt;IndelVariantsToMinTable</title>
<path fill="none" stroke="#000000" d="M1019.3161,-215.8314C1019.3161,-208.131 1019.3161,-198.9743 1019.3161,-190.4166"/>
<polygon fill="#000000" stroke="#000000" points="1022.8162,-190.4132 1019.3161,-180.4133 1015.8162,-190.4133 1022.8162,-190.4132"/>
</g>
<!-- IndelVariantsToDescriptionTable -->
<g id="node29" class="node">
<title>IndelVariantsToDescriptionTable</title>
<ellipse fill="none" stroke="#000000" cx="1270.3161" cy="-162" rx="129.1772" ry="18"/>
<text text-anchor="middle" x="1270.3161" y="-158.3" font-family="Times,serif" font-size="14.00" fill="#000000">IndelVariantsToDescriptionTable</text>
</g>
<!-- SelectIndels&#45;&gt;IndelVariantsToDescriptionTable -->
<g id="edge31" class="edge">
<title>SelectIndels&#45;&gt;IndelVariantsToDescriptionTable</title>
<path fill="none" stroke="#000000" d="M1060.4826,-222.1913C1099.3539,-211.041 1158.3148,-194.1279 1203.8489,-181.0663"/>
<polygon fill="#000000" stroke="#000000" points="1204.9948,-184.3788 1213.6421,-178.2571 1203.0646,-177.6502 1204.9948,-184.3788"/>
</g>
<!-- SNVVariantsToTable -->
<g id="node27" class="node">
<title>SNVVariantsToTable</title>
<ellipse fill="none" stroke="#000000" cx="117.3161" cy="-162" rx="87.9851" ry="18"/>
<text text-anchor="middle" x="117.3161" y="-158.3" font-family="Times,serif" font-size="14.00" fill="#000000">SNVVariantsToTable</text>
</g>
<!-- SelectSNV&#45;&gt;SNVVariantsToTable -->
<g id="edge29" class="edge">
<title>SelectSNV&#45;&gt;SNVVariantsToTable</title>
<path fill="none" stroke="#000000" d="M406.2533,-224.6611C350.8477,-212.6454 253.8726,-191.6146 187.683,-177.2603"/>
<polygon fill="#000000" stroke="#000000" points="188.2573,-173.8035 177.7427,-175.1046 186.7737,-180.6445 188.2573,-173.8035"/>
</g>
<!-- SNVVariantsToMinTable -->
<g id="node28" class="node">
<title>SNVVariantsToMinTable</title>
<ellipse fill="none" stroke="#000000" cx="325.3161" cy="-162" rx="102.8821" ry="18"/>
<text text-anchor="middle" x="325.3161" y="-158.3" font-family="Times,serif" font-size="14.00" fill="#000000">SNVVariantsToMinTable</text>
</g>
<!-- SelectSNV&#45;&gt;SNVVariantsToMinTable -->
<g id="edge30" class="edge">
<title>SelectSNV&#45;&gt;SNVVariantsToMinTable</title>
<path fill="none" stroke="#000000" d="M422.715,-218.5542C405.6365,-208.6377 383.1689,-195.5919 364.1166,-184.5293"/>
<polygon fill="#000000" stroke="#000000" points="365.762,-181.4375 355.3566,-179.4428 362.247,-187.491 365.762,-181.4375"/>
</g>
<!-- SNVVariantsToDescriptionTable -->
<g id="node30" class="node">
<title>SNVVariantsToDescriptionTable</title>
<ellipse fill="none" stroke="#000000" cx="574.3161" cy="-162" rx="128.8774" ry="18"/>
<text text-anchor="middle" x="574.3161" y="-158.3" font-family="Times,serif" font-size="14.00" fill="#000000">SNVVariantsToDescriptionTable</text>
</g>
<!-- SelectSNV&#45;&gt;SNVVariantsToDescriptionTable -->
<g id="edge32" class="edge">
<title>SelectSNV&#45;&gt;SNVVariantsToDescriptionTable</title>
<path fill="none" stroke="#000000" d="M475.8254,-218.7307C493.0245,-208.824 515.7396,-195.7401 535.0208,-184.6341"/>
<polygon fill="#000000" stroke="#000000" points="536.9692,-187.551 543.8876,-179.5269 533.4753,-181.4853 536.9692,-187.551"/>
</g>
<!-- TablesToXlsx -->
<g id="node31" class="node">
<title>TablesToXlsx</title>
<ellipse fill="none" stroke="#000000" cx="1039.3161" cy="-90" rx="60.3893" ry="18"/>
<text text-anchor="middle" x="1039.3161" y="-86.3" font-family="Times,serif" font-size="14.00" fill="#000000">TablesToXlsx</text>
</g>
<!-- IndelVariantsToTable&#45;&gt;TablesToXlsx -->
<g id="edge33" class="edge">
<title>IndelVariantsToTable&#45;&gt;TablesToXlsx</title>
<path fill="none" stroke="#000000" d="M857.5317,-146.9064C895.662,-134.97 948.7829,-118.3408 987.7558,-106.1406"/>
<polygon fill="#000000" stroke="#000000" points="988.844,-109.4675 997.3417,-103.1398 986.7527,-102.7872 988.844,-109.4675"/>
</g>
<!-- SNVVariantsToTable&#45;&gt;TablesToXlsx -->
<g id="edge34" class="edge">
<title>SNVVariantsToTable&#45;&gt;TablesToXlsx</title>
<path fill="none" stroke="#000000" d="M179.3719,-149.2382C190.631,-147.2444 202.2963,-145.3882 213.3161,-144 491.5181,-108.9534 825.4762,-95.9609 968.5873,-91.7633"/>
<polygon fill="#000000" stroke="#000000" points="969.0738,-95.2508 978.9689,-91.4645 968.8723,-88.2537 969.0738,-95.2508"/>
</g>
<!-- PlotGenome -->
<g id="node33" class="node">
<title>PlotGenome</title>
<ellipse fill="none" stroke="#000000" cx="117.3161" cy="-90" rx="55.4913" ry="18"/>
<text text-anchor="middle" x="117.3161" y="-86.3" font-family="Times,serif" font-size="14.00" fill="#000000">PlotGenome</text>
</g>
<!-- SNVVariantsToTable&#45;&gt;PlotGenome -->
<g id="edge40" class="edge">
<title>SNVVariantsToTable&#45;&gt;PlotGenome</title>
<path fill="none" stroke="#000000" d="M117.3161,-143.8314C117.3161,-136.131 117.3161,-126.9743 117.3161,-118.4166"/>
<polygon fill="#000000" stroke="#000000" points="120.8162,-118.4132 117.3161,-108.4133 113.8162,-118.4133 120.8162,-118.4132"/>
</g>
<!-- IndelVariantsToDescriptionTable&#45;&gt;TablesToXlsx -->
<g id="edge36" class="edge">
<title>IndelVariantsToDescriptionTable&#45;&gt;TablesToXlsx</title>
<path fill="none" stroke="#000000" d="M1217.3201,-145.4817C1179.4149,-133.6672 1128.6571,-117.8465 1091.0432,-106.1227"/>
<polygon fill="#000000" stroke="#000000" points="1091.8814,-102.718 1081.2929,-103.0837 1089.7984,-109.4009 1091.8814,-102.718"/>
</g>
<!-- SNVVariantsToDescriptionTable&#45;&gt;TablesToXlsx -->
<g id="edge35" class="edge">
<title>SNVVariantsToDescriptionTable&#45;&gt;TablesToXlsx</title>
<path fill="none" stroke="#000000" d="M660.6893,-148.6261C751.9933,-134.4887 893.8585,-112.5225 975.535,-99.8758"/>
<polygon fill="#000000" stroke="#000000" points="976.3292,-103.2946 985.6759,-98.3056 975.2581,-96.377 976.3292,-103.2946"/>
</g>
<!-- TablesToXlsx&#45;&gt;Cleanup -->
<g id="edge44" class="edge">
<title>TablesToXlsx&#45;&gt;Cleanup</title>
<path fill="none" stroke="#000000" d="M1090.2375,-80.1397C1169.405,-65.6542 1320.6836,-38.9181 1398.1454,-25.7468"/>
<polygon fill="#000000" stroke="#000000" points="1398.8446,-29.1783 1408.1195,-24.057 1397.6753,-22.2766 1398.8446,-29.1783"/>
</g>
<!-- TablesToXlsx&#45;&gt;Cleanup -->
<g id="edge48" class="edge">
<title>TablesToXlsx&#45;&gt;Cleanup</title>
<path fill="none" stroke="#000000" d="M1092.5751,-81.3866C1172.6229,-67.7328 1322.4536,-41.2344 1398.9229,-27.2141"/>
<polygon fill="#000000" stroke="#000000" points="1400.0097,-30.573 1409.2113,-25.3213 1398.743,-23.6885 1400.0097,-30.573"/>
</g>
<!-- Varscan2&#45;&gt;PlotGenome -->
<g id="edge39" class="edge">
<title>Varscan2&#45;&gt;PlotGenome</title>
<path fill="none" stroke="#000000" d="M744.6003,-446.6788C579.2379,-433.5413 1.3161,-382.1781 1.3161,-306 1.3161,-306 1.3161,-306 1.3161,-234 1.3161,-193.1184 -3.9484,-176.902 20.3161,-144 32.3957,-127.6204 51.0135,-115.5658 68.7205,-107.0551"/>
<polygon fill="#000000" stroke="#000000" points="70.188,-110.2328 77.8577,-102.9234 67.3038,-103.8545 70.188,-110.2328"/>
</g>
<!-- MergeSegFiles -->
<g id="node34" class="node">
<title>MergeSegFiles</title>
<ellipse fill="none" stroke="#000000" cx="117.3161" cy="-18" rx="64.189" ry="18"/>
<text text-anchor="middle" x="117.3161" y="-14.3" font-family="Times,serif" font-size="14.00" fill="#000000">MergeSegFiles</text>
</g>
<!-- PlotGenome&#45;&gt;MergeSegFiles -->
<g id="edge41" class="edge">
<title>PlotGenome&#45;&gt;MergeSegFiles</title>
<path fill="none" stroke="#000000" d="M117.3161,-71.8314C117.3161,-64.131 117.3161,-54.9743 117.3161,-46.4166"/>
<polygon fill="#000000" stroke="#000000" points="120.8162,-46.4132 117.3161,-36.4133 113.8162,-46.4133 120.8162,-46.4132"/>
</g>
<!-- PlotGenome&#45;&gt;Cleanup -->
<g id="edge43" class="edge">
<title>PlotGenome&#45;&gt;Cleanup</title>
<path fill="none" stroke="#000000" d="M171.8922,-87.0433C388.6433,-75.3006 1187.0139,-32.048 1395.9836,-20.7268"/>
<polygon fill="#000000" stroke="#000000" points="1396.2614,-24.217 1406.0574,-20.1811 1395.8827,-17.2272 1396.2614,-24.217"/>
</g>
<!-- ProjectMarkdown&#45;&gt;Cleanup -->
<g id="edge50" class="edge">
<title>ProjectMarkdown&#45;&gt;Cleanup</title>
<path fill="none" stroke="#000000" d="M1439.3146,-359.6679C1449.0014,-332.6028 1465.3161,-280.1665 1465.3161,-234 1465.3161,-234 1465.3161,-234 1465.3161,-162 1465.3161,-121.5282 1457.8482,-75.2037 1452.2761,-46.2725"/>
<polygon fill="#000000" stroke="#000000" points="1455.6338,-45.2111 1450.2529,-36.0844 1448.7679,-46.5746 1455.6338,-45.2111"/>
</g>
</g>
</svg>
