<?xml version="1.0" encoding="UTF-8" standalone="no"?>
<!DOCTYPE svg PUBLIC "-//W3C//DTD SVG 1.1//EN"
 "http://www.w3.org/Graphics/SVG/1.1/DTD/svg11.dtd">
<!-- Generated by graphviz version 2.40.1 (0)
 -->
<!-- Title: workflow_iont_fastq Pages: 1 -->
<svg width="161pt" height="260pt"
 viewBox="0.00 0.00 161.39 260.00" xmlns="http://www.w3.org/2000/svg" xmlns:xlink="http://www.w3.org/1999/xlink">
<g id="graph0" class="graph" transform="scale(1 1) rotate(0) translate(4 256)">
<title>workflow_iont_fastq</title>
<polygon fill="#ffffff" stroke="transparent" points="-4,4 -4,-256 157.3864,-256 157.3864,4 -4,4"/>
<!-- Fastqc -->
<g id="node1" class="node">
<title>Fastqc</title>
<ellipse fill="none" stroke="#000000" cx="76.6932" cy="-234" rx="33.5952" ry="18"/>
<text text-anchor="middle" x="76.6932" y="-230.3" font-family="Times,serif" font-size="14.00" fill="#000000">Fastqc</text>
</g>
<!-- SampleMarkdown -->
<g id="node2" class="node">
<title>SampleMarkdown</title>
<ellipse fill="none" stroke="#000000" cx="76.6932" cy="-162" rx="76.8869" ry="18"/>
<text text-anchor="middle" x="76.6932" y="-158.3" font-family="Times,serif" font-size="14.00" fill="#000000">SampleMarkdown</text>
</g>
<!-- Fastqc&#45;&gt;SampleMarkdown -->
<g id="edge1" class="edge">
<title>Fastqc&#45;&gt;SampleMarkdown</title>
<path fill="none" stroke="#000000" d="M76.6932,-215.8314C76.6932,-208.131 76.6932,-198.9743 76.6932,-190.4166"/>
<polygon fill="#000000" stroke="#000000" points="80.1933,-190.4132 76.6932,-180.4133 73.1933,-190.4133 80.1933,-190.4132"/>
</g>
<!-- ProjectMarkdown -->
<g id="node3" class="node">
<title>ProjectMarkdown</title>
<ellipse fill="none" stroke="#000000" cx="76.6932" cy="-90" rx="74.9875" ry="18"/>
<text text-anchor="middle" x="76.6932" y="-86.3" font-family="Times,serif" font-size="14.00" fill="#000000">ProjectMarkdown</text>
</g>
<!-- SampleMarkdown&#45;&gt;ProjectMarkdown -->
<g id="edge2" class="edge">
<title>SampleMarkdown&#45;&gt;ProjectMarkdown</title>
<path fill="none" stroke="#000000" d="M76.6932,-143.8314C76.6932,-136.131 76.6932,-126.9743 76.6932,-118.4166"/>
<polygon fill="#000000" stroke="#000000" points="80.1933,-118.4132 76.6932,-108.4133 73.1933,-118.4133 80.1933,-118.4132"/>
</g>
<!-- MultiQC -->
<g id="node4" class="node">
<title>MultiQC</title>
<ellipse fill="none" stroke="#000000" cx="76.6932" cy="-18" rx="42.7926" ry="18"/>
<text text-anchor="middle" x="76.6932" y="-14.3" font-family="Times,serif" font-size="14.00" fill="#000000">MultiQC</text>
</g>
<!-- ProjectMarkdown&#45;&gt;MultiQC -->
<g id="edge3" class="edge">
<title>ProjectMarkdown&#45;&gt;MultiQC</title>
<path fill="none" stroke="#000000" d="M76.6932,-71.8314C76.6932,-64.131 76.6932,-54.9743 76.6932,-46.4166"/>
<polygon fill="#000000" stroke="#000000" points="80.1933,-46.4132 76.6932,-36.4133 73.1933,-46.4133 80.1933,-46.4132"/>
</g>
</g>
</svg>
