<?xml version="1.0" encoding="UTF-8" standalone="no"?>
<!DOCTYPE svg PUBLIC "-//W3C//DTD SVG 1.1//EN"
 "http://www.w3.org/Graphics/SVG/1.1/DTD/svg11.dtd">
<!-- Generated by graphviz version 2.40.1 (0)
 -->
<!-- Title: workflow_nugeneinctrimbybed Pages: 1 -->
<svg width="2457pt" height="980pt"
 viewBox="0.00 0.00 2457.41 980.00" xmlns="http://www.w3.org/2000/svg" xmlns:xlink="http://www.w3.org/1999/xlink">
<g id="graph0" class="graph" transform="scale(1 1) rotate(0) translate(4 976)">
<title>workflow_nugeneinctrimbybed</title>
<polygon fill="#ffffff" stroke="transparent" points="-4,4 -4,-976 2453.4107,-976 2453.4107,4 -4,4"/>
<!-- NugeneIncPreAlign -->
<g id="node1" class="node">
<title>NugeneIncPreAlign</title>
<ellipse fill="none" stroke="#000000" cx="2261.3161" cy="-954" rx="81.4863" ry="18"/>
<text text-anchor="middle" x="2261.3161" y="-950.3" font-family="Times,serif" font-size="14.00" fill="#000000">NugeneIncPreAlign</text>
</g>
<!-- FastqcNugene -->
<g id="node2" class="node">
<title>FastqcNugene</title>
<ellipse fill="none" stroke="#000000" cx="2388.3161" cy="-810" rx="61.1893" ry="18"/>
<text text-anchor="middle" x="2388.3161" y="-806.3" font-family="Times,serif" font-size="14.00" fill="#000000">FastqcNugene</text>
</g>
<!-- NugeneIncPreAlign&#45;&gt;FastqcNugene -->
<g id="edge1" class="edge">
<title>NugeneIncPreAlign&#45;&gt;FastqcNugene</title>
<path fill="none" stroke="#000000" d="M2277.144,-936.0535C2299.5107,-910.6928 2340.4731,-864.2472 2365.9431,-835.3679"/>
<polygon fill="#000000" stroke="#000000" points="2368.6982,-837.5354 2372.6878,-827.7204 2363.4483,-832.9052 2368.6982,-837.5354"/>
</g>
<!-- BwaMemAlignment -->
<g id="node3" class="node">
<title>BwaMemAlignment</title>
<ellipse fill="none" stroke="#000000" cx="2205.3161" cy="-882" rx="84.485" ry="18"/>
<text text-anchor="middle" x="2205.3161" y="-878.3" font-family="Times,serif" font-size="14.00" fill="#000000">BwaMemAlignment</text>
</g>
<!-- NugeneIncPreAlign&#45;&gt;BwaMemAlignment -->
<g id="edge2" class="edge">
<title>NugeneIncPreAlign&#45;&gt;BwaMemAlignment</title>
<path fill="none" stroke="#000000" d="M2247.4734,-936.2022C2240.8099,-927.6348 2232.6946,-917.2009 2225.3703,-907.7839"/>
<polygon fill="#000000" stroke="#000000" points="2228.0959,-905.5873 2219.1937,-899.8425 2222.5704,-909.8849 2228.0959,-905.5873"/>
</g>
<!-- SampleMarkdown -->
<g id="node14" class="node">
<title>SampleMarkdown</title>
<ellipse fill="none" stroke="#000000" cx="2250.3161" cy="-522" rx="76.8869" ry="18"/>
<text text-anchor="middle" x="2250.3161" y="-518.3" font-family="Times,serif" font-size="14.00" fill="#000000">SampleMarkdown</text>
</g>
<!-- FastqcNugene&#45;&gt;SampleMarkdown -->
<g id="edge16" class="edge">
<title>FastqcNugene&#45;&gt;SampleMarkdown</title>
<path fill="none" stroke="#000000" d="M2392.9604,-791.8372C2402.6331,-749.5882 2420.3447,-643.2072 2373.3161,-576 2360.3297,-557.4415 2339.4926,-545.1922 2318.6311,-537.136"/>
<polygon fill="#000000" stroke="#000000" points="2319.6671,-533.7896 2309.0725,-533.722 2317.3126,-540.3817 2319.6671,-533.7896"/>
</g>
<!-- AddOrReplaceReadGroups -->
<g id="node4" class="node">
<title>AddOrReplaceReadGroups</title>
<ellipse fill="none" stroke="#000000" cx="2073.3161" cy="-810" rx="107.4815" ry="18"/>
<text text-anchor="middle" x="2073.3161" y="-806.3" font-family="Times,serif" font-size="14.00" fill="#000000">AddOrReplaceReadGroups</text>
</g>
<!-- BwaMemAlignment&#45;&gt;AddOrReplaceReadGroups -->
<g id="edge3" class="edge">
<title>BwaMemAlignment&#45;&gt;AddOrReplaceReadGroups</title>
<path fill="none" stroke="#000000" d="M2174.368,-865.1192C2156.3433,-855.2876 2133.4051,-842.7758 2113.9404,-832.1587"/>
<polygon fill="#000000" stroke="#000000" points="2115.4422,-828.9911 2104.9872,-827.2751 2112.0902,-835.1363 2115.4422,-828.9911"/>
</g>
<!-- Nudup -->
<g id="node5" class="node">
<title>Nudup</title>
<ellipse fill="none" stroke="#000000" cx="2040.3161" cy="-738" rx="34.394" ry="18"/>
<text text-anchor="middle" x="2040.3161" y="-734.3" font-family="Times,serif" font-size="14.00" fill="#000000">Nudup</text>
</g>
<!-- AddOrReplaceReadGroups&#45;&gt;Nudup -->
<g id="edge4" class="edge">
<title>AddOrReplaceReadGroups&#45;&gt;Nudup</title>
<path fill="none" stroke="#000000" d="M2064.9888,-791.8314C2061.287,-783.7547 2056.851,-774.0761 2052.7676,-765.1668"/>
<polygon fill="#000000" stroke="#000000" points="2055.8748,-763.5458 2048.5264,-755.9134 2049.5113,-766.4624 2055.8748,-763.5458"/>
</g>
<!-- MergeBamFiles -->
<g id="node6" class="node">
<title>MergeBamFiles</title>
<ellipse fill="none" stroke="#000000" cx="2023.3161" cy="-666" rx="68.4888" ry="18"/>
<text text-anchor="middle" x="2023.3161" y="-662.3" font-family="Times,serif" font-size="14.00" fill="#000000">MergeBamFiles</text>
</g>
<!-- Nudup&#45;&gt;MergeBamFiles -->
<g id="edge5" class="edge">
<title>Nudup&#45;&gt;MergeBamFiles</title>
<path fill="none" stroke="#000000" d="M2036.0263,-719.8314C2034.2082,-712.131 2032.0462,-702.9743 2030.0256,-694.4166"/>
<polygon fill="#000000" stroke="#000000" points="2033.3681,-693.3414 2027.6637,-684.4133 2026.5554,-694.95 2033.3681,-693.3414"/>
</g>
<!-- MantaSV -->
<g id="node7" class="node">
<title>MantaSV</title>
<ellipse fill="none" stroke="#000000" cx="2015.3161" cy="-594" rx="44.6926" ry="18"/>
<text text-anchor="middle" x="2015.3161" y="-590.3" font-family="Times,serif" font-size="14.00" fill="#000000">MantaSV</text>
</g>
<!-- MergeBamFiles&#45;&gt;MantaSV -->
<g id="edge6" class="edge">
<title>MergeBamFiles&#45;&gt;MantaSV</title>
<path fill="none" stroke="#000000" d="M2021.2974,-647.8314C2020.4418,-640.131 2019.4244,-630.9743 2018.4735,-622.4166"/>
<polygon fill="#000000" stroke="#000000" points="2021.945,-621.9656 2017.3621,-612.4133 2014.9879,-622.7386 2021.945,-621.9656"/>
</g>
<!-- CollectMultipleMetrics -->
<g id="node12" class="node">
<title>CollectMultipleMetrics</title>
<ellipse fill="none" stroke="#000000" cx="1858.3161" cy="-594" rx="94.4839" ry="18"/>
<text text-anchor="middle" x="1858.3161" y="-590.3" font-family="Times,serif" font-size="14.00" fill="#000000">CollectMultipleMetrics</text>
</g>
<!-- MergeBamFiles&#45;&gt;CollectMultipleMetrics -->
<g id="edge11" class="edge">
<title>MergeBamFiles&#45;&gt;CollectMultipleMetrics</title>
<path fill="none" stroke="#000000" d="M1987.9195,-650.5542C1963.8839,-640.066 1931.8266,-626.0773 1905.6086,-614.6367"/>
<polygon fill="#000000" stroke="#000000" points="1906.8044,-611.3399 1896.2392,-610.5483 1904.0048,-617.7556 1906.8044,-611.3399"/>
</g>
<!-- CalculateHsMetrics -->
<g id="node13" class="node">
<title>CalculateHsMetrics</title>
<ellipse fill="none" stroke="#000000" cx="2283.3161" cy="-594" rx="81.4863" ry="18"/>
<text text-anchor="middle" x="2283.3161" y="-590.3" font-family="Times,serif" font-size="14.00" fill="#000000">CalculateHsMetrics</text>
</g>
<!-- MergeBamFiles&#45;&gt;CalculateHsMetrics -->
<g id="edge12" class="edge">
<title>MergeBamFiles&#45;&gt;CalculateHsMetrics</title>
<path fill="none" stroke="#000000" d="M2070.4002,-652.9613C2113.0256,-641.1574 2176.0628,-623.7009 2222.4909,-610.8439"/>
<polygon fill="#000000" stroke="#000000" points="2223.4296,-614.2158 2232.1328,-608.1739 2221.5614,-607.4697 2223.4296,-614.2158"/>
</g>
<!-- MergeBamFiles&#45;&gt;SampleMarkdown -->
<g id="edge17" class="edge">
<title>MergeBamFiles&#45;&gt;SampleMarkdown</title>
<path fill="none" stroke="#000000" d="M2068.1175,-652.322C2094.6584,-643.1128 2128.2752,-629.4604 2155.3161,-612 2155.4408,-611.9195 2195.9626,-573.5189 2224.0363,-546.9103"/>
<polygon fill="#000000" stroke="#000000" points="2226.7304,-549.1791 2231.5805,-539.7596 2221.9149,-544.0986 2226.7304,-549.1791"/>
</g>
<!-- IndelRealignmentKnown -->
<g id="node16" class="node">
<title>IndelRealignmentKnown</title>
<ellipse fill="none" stroke="#000000" cx="1127.3161" cy="-594" rx="100.1823" ry="18"/>
<text text-anchor="middle" x="1127.3161" y="-590.3" font-family="Times,serif" font-size="14.00" fill="#000000">IndelRealignmentKnown</text>
</g>
<!-- MergeBamFiles&#45;&gt;IndelRealignmentKnown -->
<g id="edge18" class="edge">
<title>MergeBamFiles&#45;&gt;IndelRealignmentKnown</title>
<path fill="none" stroke="#000000" d="M1955.4787,-663.5213C1818.9519,-658.0531 1501.4075,-642.9119 1236.3161,-612 1227.2923,-610.9477 1217.8761,-609.6686 1208.5217,-608.2827"/>
<polygon fill="#000000" stroke="#000000" points="1208.8302,-604.7893 1198.417,-606.7425 1207.7754,-611.7094 1208.8302,-604.7893"/>
</g>
<!-- SnpEffManta -->
<g id="node8" class="node">
<title>SnpEffManta</title>
<ellipse fill="none" stroke="#000000" cx="1930.3161" cy="-522" rx="58.4896" ry="18"/>
<text text-anchor="middle" x="1930.3161" y="-518.3" font-family="Times,serif" font-size="14.00" fill="#000000">SnpEffManta</text>
</g>
<!-- MantaSV&#45;&gt;SnpEffManta -->
<g id="edge7" class="edge">
<title>MantaSV&#45;&gt;SnpEffManta</title>
<path fill="none" stroke="#000000" d="M1996.0283,-577.6621C1984.8582,-568.2004 1970.6022,-556.1247 1958.2253,-545.6407"/>
<polygon fill="#000000" stroke="#000000" points="1960.3072,-542.8173 1950.4145,-539.0245 1955.7828,-548.1587 1960.3072,-542.8173"/>
</g>
<!-- SvVariantsToDescriptionTable -->
<g id="node9" class="node">
<title>SvVariantsToDescriptionTable</title>
<ellipse fill="none" stroke="#000000" cx="1821.3161" cy="-450" rx="120.4791" ry="18"/>
<text text-anchor="middle" x="1821.3161" y="-446.3" font-family="Times,serif" font-size="14.00" fill="#000000">SvVariantsToDescriptionTable</text>
</g>
<!-- SnpEffManta&#45;&gt;SvVariantsToDescriptionTable -->
<g id="edge8" class="edge">
<title>SnpEffManta&#45;&gt;SvVariantsToDescriptionTable</title>
<path fill="none" stroke="#000000" d="M1905.5823,-505.6621C1891.1671,-496.1401 1872.744,-483.9707 1856.8024,-473.4405"/>
<polygon fill="#000000" stroke="#000000" points="1858.5156,-470.3775 1848.2425,-467.7862 1854.6574,-476.2183 1858.5156,-470.3775"/>
</g>
<!-- SvVariantsToTable -->
<g id="node10" class="node">
<title>SvVariantsToTable</title>
<ellipse fill="none" stroke="#000000" cx="2039.3161" cy="-450" rx="79.0865" ry="18"/>
<text text-anchor="middle" x="2039.3161" y="-446.3" font-family="Times,serif" font-size="14.00" fill="#000000">SvVariantsToTable</text>
</g>
<!-- SnpEffManta&#45;&gt;SvVariantsToTable -->
<g id="edge9" class="edge">
<title>SnpEffManta&#45;&gt;SvVariantsToTable</title>
<path fill="none" stroke="#000000" d="M1955.0499,-505.6621C1969.7832,-495.93 1988.703,-483.4325 2004.8811,-472.7461"/>
<polygon fill="#000000" stroke="#000000" points="2007.128,-475.4566 2013.5429,-467.0245 2003.2698,-469.6158 2007.128,-475.4566"/>
</g>
<!-- SvVariantsToMinTable -->
<g id="node11" class="node">
<title>SvVariantsToMinTable</title>
<ellipse fill="none" stroke="#000000" cx="1588.3161" cy="-450" rx="94.7833" ry="18"/>
<text text-anchor="middle" x="1588.3161" y="-446.3" font-family="Times,serif" font-size="14.00" fill="#000000">SvVariantsToMinTable</text>
</g>
<!-- SnpEffManta&#45;&gt;SvVariantsToMinTable -->
<g id="edge10" class="edge">
<title>SnpEffManta&#45;&gt;SvVariantsToMinTable</title>
<path fill="none" stroke="#000000" d="M1881.6791,-511.7606C1824.3201,-499.685 1728.3881,-479.4888 1661.916,-465.4947"/>
<polygon fill="#000000" stroke="#000000" points="1662.4277,-462.0258 1651.9211,-463.3905 1660.9855,-468.8756 1662.4277,-462.0258"/>
</g>
<!-- CollectMultipleMetrics&#45;&gt;SampleMarkdown -->
<g id="edge14" class="edge">
<title>CollectMultipleMetrics&#45;&gt;SampleMarkdown</title>
<path fill="none" stroke="#000000" d="M1926.5973,-581.4586C1997.6188,-568.4138 2108.268,-548.0905 2180.026,-534.9104"/>
<polygon fill="#000000" stroke="#000000" points="2180.6819,-538.3486 2189.885,-533.0996 2179.4173,-531.4638 2180.6819,-538.3486"/>
</g>
<!-- Cleanup -->
<g id="node36" class="node">
<title>Cleanup</title>
<ellipse fill="none" stroke="#000000" cx="1374.3161" cy="-18" rx="40.0939" ry="18"/>
<text text-anchor="middle" x="1374.3161" y="-14.3" font-family="Times,serif" font-size="14.00" fill="#000000">Cleanup</text>
</g>
<!-- CollectMultipleMetrics&#45;&gt;Cleanup -->
<g id="edge46" class="edge">
<title>CollectMultipleMetrics&#45;&gt;Cleanup</title>
<path fill="none" stroke="#000000" d="M1785.3169,-582.5863C1671.6642,-562.7294 1465.3161,-517.3969 1465.3161,-450 1465.3161,-450 1465.3161,-450 1465.3161,-162 1465.3161,-118.9187 1453.1967,-107.8569 1429.3161,-72 1421.7073,-60.5753 1411.3655,-49.6361 1401.7025,-40.6278"/>
<polygon fill="#000000" stroke="#000000" points="1403.9387,-37.9316 1394.1637,-33.8448 1399.2566,-43.1353 1403.9387,-37.9316"/>
</g>
<!-- CalculateHsMetrics&#45;&gt;SampleMarkdown -->
<g id="edge13" class="edge">
<title>CalculateHsMetrics&#45;&gt;SampleMarkdown</title>
<path fill="none" stroke="#000000" d="M2274.9888,-575.8314C2271.287,-567.7547 2266.851,-558.0761 2262.7676,-549.1668"/>
<polygon fill="#000000" stroke="#000000" points="2265.8748,-547.5458 2258.5264,-539.9134 2259.5113,-550.4624 2265.8748,-547.5458"/>
</g>
<!-- CalculateHsMetrics&#45;&gt;Cleanup -->
<g id="edge45" class="edge">
<title>CalculateHsMetrics&#45;&gt;Cleanup</title>
<path fill="none" stroke="#000000" d="M2305.723,-576.4747C2316.5558,-566.8389 2328.8069,-554.009 2336.3161,-540 2355.6302,-503.9684 2355.3161,-490.8816 2355.3161,-450 2355.3161,-450 2355.3161,-450 2355.3161,-162 2355.3161,-66.9803 1625.5486,-28.7473 1424.8587,-20.0295"/>
<polygon fill="#000000" stroke="#000000" points="1424.7422,-16.5214 1414.6014,-19.5897 1424.4423,-23.5149 1424.7422,-16.5214"/>
</g>
<!-- ProjectMarkdown -->
<g id="node35" class="node">
<title>ProjectMarkdown</title>
<ellipse fill="none" stroke="#000000" cx="2250.3161" cy="-450" rx="74.9875" ry="18"/>
<text text-anchor="middle" x="2250.3161" y="-446.3" font-family="Times,serif" font-size="14.00" fill="#000000">ProjectMarkdown</text>
</g>
<!-- SampleMarkdown&#45;&gt;ProjectMarkdown -->
<g id="edge42" class="edge">
<title>SampleMarkdown&#45;&gt;ProjectMarkdown</title>
<path fill="none" stroke="#000000" d="M2250.3161,-503.8314C2250.3161,-496.131 2250.3161,-486.9743 2250.3161,-478.4166"/>
<polygon fill="#000000" stroke="#000000" points="2253.8162,-478.4132 2250.3161,-468.4133 2246.8162,-478.4133 2253.8162,-478.4132"/>
</g>
<!-- Fastqc -->
<g id="node15" class="node">
<title>Fastqc</title>
<ellipse fill="none" stroke="#000000" cx="2112.3161" cy="-594" rx="33.5952" ry="18"/>
<text text-anchor="middle" x="2112.3161" y="-590.3" font-family="Times,serif" font-size="14.00" fill="#000000">Fastqc</text>
</g>
<!-- Fastqc&#45;&gt;SampleMarkdown -->
<g id="edge15" class="edge">
<title>Fastqc&#45;&gt;SampleMarkdown</title>
<path fill="none" stroke="#000000" d="M2136.6701,-581.2936C2156.8214,-570.7799 2185.876,-555.621 2209.5628,-543.2626"/>
<polygon fill="#000000" stroke="#000000" points="2211.4316,-546.2354 2218.6785,-538.5066 2208.1936,-540.0293 2211.4316,-546.2354"/>
</g>
<!-- Fastqc&#45;&gt;Cleanup -->
<g id="edge47" class="edge">
<title>Fastqc&#45;&gt;Cleanup</title>
<path fill="none" stroke="#000000" d="M2117.1154,-575.9456C2126.4875,-539.0483 2146.3161,-452.2152 2146.3161,-378 2146.3161,-378 2146.3161,-378 2146.3161,-162 2146.3161,-88.264 1595.0344,-36.3182 1424.183,-21.9899"/>
<polygon fill="#000000" stroke="#000000" points="1424.4524,-18.5003 1414.1966,-21.1591 1423.8719,-25.4762 1424.4524,-18.5003"/>
</g>
<!-- NugeneProbeMetrics -->
<g id="node17" class="node">
<title>NugeneProbeMetrics</title>
<ellipse fill="none" stroke="#000000" cx="1127.3161" cy="-522" rx="85.5853" ry="18"/>
<text text-anchor="middle" x="1127.3161" y="-518.3" font-family="Times,serif" font-size="14.00" fill="#000000">NugeneProbeMetrics</text>
</g>
<!-- IndelRealignmentKnown&#45;&gt;NugeneProbeMetrics -->
<g id="edge19" class="edge">
<title>IndelRealignmentKnown&#45;&gt;NugeneProbeMetrics</title>
<path fill="none" stroke="#000000" d="M1127.3161,-575.8314C1127.3161,-568.131 1127.3161,-558.9743 1127.3161,-550.4166"/>
<polygon fill="#000000" stroke="#000000" points="1130.8162,-550.4132 1127.3161,-540.4133 1123.8162,-550.4133 1130.8162,-550.4132"/>
</g>
<!-- HaplotypeCaller -->
<g id="node18" class="node">
<title>HaplotypeCaller</title>
<ellipse fill="none" stroke="#000000" cx="1300.3161" cy="-522" rx="68.7879" ry="18"/>
<text text-anchor="middle" x="1300.3161" y="-518.3" font-family="Times,serif" font-size="14.00" fill="#000000">HaplotypeCaller</text>
</g>
<!-- IndelRealignmentKnown&#45;&gt;HaplotypeCaller -->
<g id="edge20" class="edge">
<title>IndelRealignmentKnown&#45;&gt;HaplotypeCaller</title>
<path fill="none" stroke="#000000" d="M1167.4406,-577.3008C1193.4237,-566.487 1227.3328,-552.3745 1254.3923,-541.1128"/>
<polygon fill="#000000" stroke="#000000" points="1255.7662,-544.3321 1263.6537,-537.2583 1253.0765,-537.8694 1255.7662,-544.3321"/>
</g>
<!-- Varscan2 -->
<g id="node32" class="node">
<title>Varscan2</title>
<ellipse fill="none" stroke="#000000" cx="1013.3161" cy="-450" rx="44.393" ry="18"/>
<text text-anchor="middle" x="1013.3161" y="-446.3" font-family="Times,serif" font-size="14.00" fill="#000000">Varscan2</text>
</g>
<!-- IndelRealignmentKnown&#45;&gt;Varscan2 -->
<g id="edge37" class="edge">
<title>IndelRealignmentKnown&#45;&gt;Varscan2</title>
<path fill="none" stroke="#000000" d="M1081.8755,-577.7841C1063.8986,-569.1898 1044.6273,-556.8501 1032.3161,-540 1019.3401,-522.24 1014.827,-497.5382 1013.4265,-478.5054"/>
<polygon fill="#000000" stroke="#000000" points="1016.9128,-478.1396 1012.9277,-468.3228 1009.9212,-478.4821 1016.9128,-478.1396"/>
</g>
<!-- MergeVariants -->
<g id="node20" class="node">
<title>MergeVariants</title>
<ellipse fill="none" stroke="#000000" cx="1220.3161" cy="-450" rx="63.8893" ry="18"/>
<text text-anchor="middle" x="1220.3161" y="-446.3" font-family="Times,serif" font-size="14.00" fill="#000000">MergeVariants</text>
</g>
<!-- HaplotypeCaller&#45;&gt;MergeVariants -->
<g id="edge22" class="edge">
<title>HaplotypeCaller&#45;&gt;MergeVariants</title>
<path fill="none" stroke="#000000" d="M1280.9504,-504.5708C1270.829,-495.4616 1258.2804,-484.1679 1247.2295,-474.2221"/>
<polygon fill="#000000" stroke="#000000" points="1249.2779,-471.3568 1239.5036,-467.2687 1244.5951,-476.5599 1249.2779,-471.3568"/>
</g>
<!-- HaplotypeCaller&#45;&gt;Varscan2 -->
<g id="edge38" class="edge">
<title>HaplotypeCaller&#45;&gt;Varscan2</title>
<path fill="none" stroke="#000000" d="M1250.3245,-509.4586C1197.0651,-496.0973 1113.3675,-475.1 1061.0057,-461.9639"/>
<polygon fill="#000000" stroke="#000000" points="1061.8398,-458.5648 1051.2886,-459.5262 1060.1364,-465.3544 1061.8398,-458.5648"/>
</g>
<!-- HaplotypeCaller&#45;&gt;Cleanup -->
<g id="edge50" class="edge">
<title>HaplotypeCaller&#45;&gt;Cleanup</title>
<path fill="none" stroke="#000000" d="M1330.092,-505.5922C1367.6294,-482.4678 1427.3161,-436.5008 1427.3161,-378 1427.3161,-378 1427.3161,-378 1427.3161,-162 1427.3161,-121.1184 1423.6692,-109.8892 1408.3161,-72 1404.3636,-62.2458 1398.6625,-52.2947 1393.0548,-43.636"/>
<polygon fill="#000000" stroke="#000000" points="1395.8178,-41.4734 1387.322,-35.1431 1390.0159,-45.3898 1395.8178,-41.4734"/>
</g>
<!-- CreatePaddedTargets -->
<g id="node19" class="node">
<title>CreatePaddedTargets</title>
<ellipse fill="none" stroke="#000000" cx="1331.3161" cy="-594" rx="85.5853" ry="18"/>
<text text-anchor="middle" x="1331.3161" y="-590.3" font-family="Times,serif" font-size="14.00" fill="#000000">CreatePaddedTargets</text>
</g>
<!-- CreatePaddedTargets&#45;&gt;HaplotypeCaller -->
<g id="edge21" class="edge">
<title>CreatePaddedTargets&#45;&gt;HaplotypeCaller</title>
<path fill="none" stroke="#000000" d="M1323.4935,-575.8314C1320.0161,-567.7547 1315.8489,-558.0761 1312.013,-549.1668"/>
<polygon fill="#000000" stroke="#000000" points="1315.1982,-547.7141 1308.0289,-539.9134 1308.7688,-550.4824 1315.1982,-547.7141"/>
</g>
<!-- VariantAnnotation -->
<g id="node21" class="node">
<title>VariantAnnotation</title>
<ellipse fill="none" stroke="#000000" cx="1086.3161" cy="-378" rx="76.8869" ry="18"/>
<text text-anchor="middle" x="1086.3161" y="-374.3" font-family="Times,serif" font-size="14.00" fill="#000000">VariantAnnotation</text>
</g>
<!-- MergeVariants&#45;&gt;VariantAnnotation -->
<g id="edge23" class="edge">
<title>MergeVariants&#45;&gt;VariantAnnotation</title>
<path fill="none" stroke="#000000" d="M1190.5772,-434.0209C1171.6366,-423.8438 1146.8708,-410.5368 1126.2294,-399.4459"/>
<polygon fill="#000000" stroke="#000000" points="1127.8344,-396.3351 1117.3689,-394.6851 1124.5212,-402.5014 1127.8344,-396.3351"/>
</g>
<!-- CustTumorNormalAnnotations -->
<g id="node22" class="node">
<title>CustTumorNormalAnnotations</title>
<ellipse fill="none" stroke="#000000" cx="1019.3161" cy="-306" rx="121.5784" ry="18"/>
<text text-anchor="middle" x="1019.3161" y="-302.3" font-family="Times,serif" font-size="14.00" fill="#000000">CustTumorNormalAnnotations</text>
</g>
<!-- VariantAnnotation&#45;&gt;CustTumorNormalAnnotations -->
<g id="edge24" class="edge">
<title>VariantAnnotation&#45;&gt;CustTumorNormalAnnotations</title>
<path fill="none" stroke="#000000" d="M1069.7543,-360.2022C1061.6208,-351.4617 1051.6796,-340.7786 1042.7796,-331.2144"/>
<polygon fill="#000000" stroke="#000000" points="1045.2942,-328.7789 1035.9196,-323.8425 1040.1697,-333.5476 1045.2942,-328.7789"/>
</g>
<!-- SelectIndels -->
<g id="node23" class="node">
<title>SelectIndels</title>
<ellipse fill="none" stroke="#000000" cx="1019.3161" cy="-234" rx="53.8905" ry="18"/>
<text text-anchor="middle" x="1019.3161" y="-230.3" font-family="Times,serif" font-size="14.00" fill="#000000">SelectIndels</text>
</g>
<!-- CustTumorNormalAnnotations&#45;&gt;SelectIndels -->
<g id="edge25" class="edge">
<title>CustTumorNormalAnnotations&#45;&gt;SelectIndels</title>
<path fill="none" stroke="#000000" d="M1019.3161,-287.8314C1019.3161,-280.131 1019.3161,-270.9743 1019.3161,-262.4166"/>
<polygon fill="#000000" stroke="#000000" points="1022.8162,-262.4132 1019.3161,-252.4133 1015.8162,-262.4133 1022.8162,-262.4132"/>
</g>
<!-- SelectSNV -->
<g id="node24" class="node">
<title>SelectSNV</title>
<ellipse fill="none" stroke="#000000" cx="476.3161" cy="-234" rx="50.0912" ry="18"/>
<text text-anchor="middle" x="476.3161" y="-230.3" font-family="Times,serif" font-size="14.00" fill="#000000">SelectSNV</text>
</g>
<!-- CustTumorNormalAnnotations&#45;&gt;SelectSNV -->
<g id="edge26" class="edge">
<title>CustTumorNormalAnnotations&#45;&gt;SelectSNV</title>
<path fill="none" stroke="#000000" d="M928.7359,-293.9894C816.3265,-279.0842 627.9805,-254.1102 533.7127,-241.6106"/>
<polygon fill="#000000" stroke="#000000" points="533.8901,-238.1036 523.5168,-240.2586 532.9699,-245.0428 533.8901,-238.1036"/>
</g>
<!-- IndelVariantsToTable -->
<g id="node25" class="node">
<title>IndelVariantsToTable</title>
<ellipse fill="none" stroke="#000000" cx="809.3161" cy="-162" rx="88.2844" ry="18"/>
<text text-anchor="middle" x="809.3161" y="-158.3" font-family="Times,serif" font-size="14.00" fill="#000000">IndelVariantsToTable</text>
</g>
<!-- SelectIndels&#45;&gt;IndelVariantsToTable -->
<g id="edge27" class="edge">
<title>SelectIndels&#45;&gt;IndelVariantsToTable</title>
<path fill="none" stroke="#000000" d="M981.2867,-220.9613C948.6282,-209.7641 901.1346,-193.4806 864.3292,-180.8616"/>
<polygon fill="#000000" stroke="#000000" points="865.3311,-177.5052 854.7365,-177.5727 863.0608,-184.1268 865.3311,-177.5052"/>
</g>
<!-- IndelVariantsToMinTable -->
<g id="node26" class="node">
<title>IndelVariantsToMinTable</title>
<ellipse fill="none" stroke="#000000" cx="1019.3161" cy="-162" rx="103.1819" ry="18"/>
<text text-anchor="middle" x="1019.3161" y="-158.3" font-family="Times,serif" font-size="14.00" fill="#000000">IndelVariantsToMinTable</text>
</g>
<!-- SelectIndels&#45;&gt;IndelVariantsToMinTable -->
<g id="edge28" class="edge">
<title>SelectIndels&#45;&gt;IndelVariantsToMinTable</title>
<path fill="none" stroke="#000000" d="M1019.3161,-215.8314C1019.3161,-208.131 1019.3161,-198.9743 1019.3161,-190.4166"/>
<polygon fill="#000000" stroke="#000000" points="1022.8162,-190.4132 1019.3161,-180.4133 1015.8162,-190.4133 1022.8162,-190.4132"/>
</g>
<!-- IndelVariantsToDescriptionTable -->
<g id="node29" class="node">
<title>IndelVariantsToDescriptionTable</title>
<ellipse fill="none" stroke="#000000" cx="1270.3161" cy="-162" rx="129.1772" ry="18"/>
<text text-anchor="middle" x="1270.3161" y="-158.3" font-family="Times,serif" font-size="14.00" fill="#000000">IndelVariantsToDescriptionTable</text>
</g>
<!-- SelectIndels&#45;&gt;IndelVariantsToDescriptionTable -->
<g id="edge31" class="edge">
<title>SelectIndels&#45;&gt;IndelVariantsToDescriptionTable</title>
<path fill="none" stroke="#000000" d="M1060.4826,-222.1913C1099.3539,-211.041 1158.3148,-194.1279 1203.8489,-181.0663"/>
<polygon fill="#000000" stroke="#000000" points="1204.9948,-184.3788 1213.6421,-178.2571 1203.0646,-177.6502 1204.9948,-184.3788"/>
</g>
<!-- SNVVariantsToTable -->
<g id="node27" class="node">
<title>SNVVariantsToTable</title>
<ellipse fill="none" stroke="#000000" cx="117.3161" cy="-162" rx="87.9851" ry="18"/>
<text text-anchor="middle" x="117.3161" y="-158.3" font-family="Times,serif" font-size="14.00" fill="#000000">SNVVariantsToTable</text>
</g>
<!-- SelectSNV&#45;&gt;SNVVariantsToTable -->
<g id="edge29" class="edge">
<title>SelectSNV&#45;&gt;SNVVariantsToTable</title>
<path fill="none" stroke="#000000" d="M432.2957,-225.1714C371.9432,-213.0673 262.7387,-191.1655 190.1146,-176.6002"/>
<polygon fill="#000000" stroke="#000000" points="190.6117,-173.1303 180.1186,-174.5955 189.2351,-179.9936 190.6117,-173.1303"/>
</g>
<!-- SNVVariantsToMinTable -->
<g id="node28" class="node">
<title>SNVVariantsToMinTable</title>
<ellipse fill="none" stroke="#000000" cx="600.3161" cy="-162" rx="102.8821" ry="18"/>
<text text-anchor="middle" x="600.3161" y="-158.3" font-family="Times,serif" font-size="14.00" fill="#000000">SNVVariantsToMinTable</text>
</g>
<!-- SelectSNV&#45;&gt;SNVVariantsToMinTable -->
<g id="edge30" class="edge">
<title>SelectSNV&#45;&gt;SNVVariantsToMinTable</title>
<path fill="none" stroke="#000000" d="M502.9172,-218.5542C519.9957,-208.6377 542.4634,-195.5919 561.5157,-184.5293"/>
<polygon fill="#000000" stroke="#000000" points="563.3853,-187.491 570.2757,-179.4428 559.8703,-181.4375 563.3853,-187.491"/>
</g>
<!-- SNVVariantsToDescriptionTable -->
<g id="node30" class="node">
<title>SNVVariantsToDescriptionTable</title>
<ellipse fill="none" stroke="#000000" cx="351.3161" cy="-162" rx="128.8774" ry="18"/>
<text text-anchor="middle" x="351.3161" y="-158.3" font-family="Times,serif" font-size="14.00" fill="#000000">SNVVariantsToDescriptionTable</text>
</g>
<!-- SelectSNV&#45;&gt;SNVVariantsToDescriptionTable -->
<g id="edge32" class="edge">
<title>SelectSNV&#45;&gt;SNVVariantsToDescriptionTable</title>
<path fill="none" stroke="#000000" d="M449.8068,-218.7307C432.6077,-208.824 409.8927,-195.7401 390.6115,-184.6341"/>
<polygon fill="#000000" stroke="#000000" points="392.157,-181.4853 381.7447,-179.5269 388.6631,-187.551 392.157,-181.4853"/>
</g>
<!-- TablesToXlsx -->
<g id="node31" class="node">
<title>TablesToXlsx</title>
<ellipse fill="none" stroke="#000000" cx="988.3161" cy="-90" rx="60.3893" ry="18"/>
<text text-anchor="middle" x="988.3161" y="-86.3" font-family="Times,serif" font-size="14.00" fill="#000000">TablesToXlsx</text>
</g>
<!-- IndelVariantsToTable&#45;&gt;TablesToXlsx -->
<g id="edge33" class="edge">
<title>IndelVariantsToTable&#45;&gt;TablesToXlsx</title>
<path fill="none" stroke="#000000" d="M849.4872,-145.8418C877.1769,-134.704 914.0277,-119.8814 942.8039,-108.3066"/>
<polygon fill="#000000" stroke="#000000" points="944.2568,-111.4948 952.2283,-104.5158 941.6445,-105.0005 944.2568,-111.4948"/>
</g>
<!-- SNVVariantsToTable&#45;&gt;TablesToXlsx -->
<g id="edge34" class="edge">
<title>SNVVariantsToTable&#45;&gt;TablesToXlsx</title>
<path fill="none" stroke="#000000" d="M179.6348,-149.2317C190.8135,-147.251 202.3834,-145.401 213.3161,-144 471.4765,-110.9165 780.8001,-97.0261 917.4631,-92.1918"/>
<polygon fill="#000000" stroke="#000000" points="917.9166,-95.6782 927.7887,-91.8322 917.6729,-88.6825 917.9166,-95.6782"/>
</g>
<!-- PlotGenome -->
<g id="node33" class="node">
<title>PlotGenome</title>
<ellipse fill="none" stroke="#000000" cx="117.3161" cy="-90" rx="55.4913" ry="18"/>
<text text-anchor="middle" x="117.3161" y="-86.3" font-family="Times,serif" font-size="14.00" fill="#000000">PlotGenome</text>
</g>
<!-- SNVVariantsToTable&#45;&gt;PlotGenome -->
<g id="edge40" class="edge">
<title>SNVVariantsToTable&#45;&gt;PlotGenome</title>
<path fill="none" stroke="#000000" d="M117.3161,-143.8314C117.3161,-136.131 117.3161,-126.9743 117.3161,-118.4166"/>
<polygon fill="#000000" stroke="#000000" points="120.8162,-118.4132 117.3161,-108.4133 113.8162,-118.4133 120.8162,-118.4132"/>
</g>
<!-- IndelVariantsToDescriptionTable&#45;&gt;TablesToXlsx -->
<g id="edge36" class="edge">
<title>IndelVariantsToDescriptionTable&#45;&gt;TablesToXlsx</title>
<path fill="none" stroke="#000000" d="M1208.0809,-146.1102C1159.1696,-133.6222 1091.6402,-116.3806 1044.39,-104.3167"/>
<polygon fill="#000000" stroke="#000000" points="1045.1842,-100.9073 1034.6292,-101.8246 1043.4525,-107.6897 1045.1842,-100.9073"/>
</g>
<!-- SNVVariantsToDescriptionTable&#45;&gt;TablesToXlsx -->
<g id="edge35" class="edge">
<title>SNVVariantsToDescriptionTable&#45;&gt;TablesToXlsx</title>
<path fill="none" stroke="#000000" d="M444.1346,-149.5106C458.9066,-147.6078 474.0246,-145.7104 488.3161,-144 642.8484,-125.506 824.599,-106.5854 920.7391,-96.799"/>
<polygon fill="#000000" stroke="#000000" points="921.3071,-100.2594 930.9019,-95.7661 920.5992,-93.2953 921.3071,-100.2594"/>
</g>
<!-- TablesToXlsx&#45;&gt;Cleanup -->
<g id="edge44" class="edge">
<title>TablesToXlsx&#45;&gt;Cleanup</title>
<path fill="none" stroke="#000000" d="M1038.3238,-79.7606C1113.1323,-65.318 1252.981,-39.2589 1326.4989,-26.088"/>
<polygon fill="#000000" stroke="#000000" points="1327.1892,-29.5202 1336.4187,-24.3176 1325.9593,-22.6291 1327.1892,-29.5202"/>
</g>
<!-- TablesToXlsx&#45;&gt;Cleanup -->
<g id="edge49" class="edge">
<title>TablesToXlsx&#45;&gt;Cleanup</title>
<path fill="none" stroke="#000000" d="M1041.0667,-81.0267C1116.8355,-67.4093 1255.0656,-41.6335 1327.4401,-27.6342"/>
<polygon fill="#000000" stroke="#000000" points="1328.4754,-30.9986 1337.6252,-25.657 1327.1414,-24.1269 1328.4754,-30.9986"/>
</g>
<!-- Varscan2&#45;&gt;PlotGenome -->
<g id="edge39" class="edge">
<title>Varscan2&#45;&gt;PlotGenome</title>
<path fill="none" stroke="#000000" d="M969.181,-448.4461C774.4001,-441.0152 1.3161,-405.269 1.3161,-306 1.3161,-306 1.3161,-306 1.3161,-234 1.3161,-193.1184 -3.9484,-176.902 20.3161,-144 32.3957,-127.6204 51.0135,-115.5658 68.7205,-107.0551"/>
<polygon fill="#000000" stroke="#000000" points="70.188,-110.2328 77.8577,-102.9234 67.3038,-103.8545 70.188,-110.2328"/>
</g>
<!-- MergeSegFiles -->
<g id="node34" class="node">
<title>MergeSegFiles</title>
<ellipse fill="none" stroke="#000000" cx="117.3161" cy="-18" rx="64.189" ry="18"/>
<text text-anchor="middle" x="117.3161" y="-14.3" font-family="Times,serif" font-size="14.00" fill="#000000">MergeSegFiles</text>
</g>
<!-- PlotGenome&#45;&gt;MergeSegFiles -->
<g id="edge41" class="edge">
<title>PlotGenome&#45;&gt;MergeSegFiles</title>
<path fill="none" stroke="#000000" d="M117.3161,-71.8314C117.3161,-64.131 117.3161,-54.9743 117.3161,-46.4166"/>
<polygon fill="#000000" stroke="#000000" points="120.8162,-46.4132 117.3161,-36.4133 113.8162,-46.4133 120.8162,-46.4132"/>
</g>
<!-- PlotGenome&#45;&gt;Cleanup -->
<g id="edge43" class="edge">
<title>PlotGenome&#45;&gt;Cleanup</title>
<path fill="none" stroke="#000000" d="M171.7313,-86.8831C379.7086,-74.9704 1122.7357,-32.4103 1323.8253,-20.8921"/>
<polygon fill="#000000" stroke="#000000" points="1324.3092,-24.3702 1334.0927,-20.304 1323.9089,-17.3816 1324.3092,-24.3702"/>
</g>
<!-- AnalyseCovariants -->
<g id="node37" class="node">
<title>AnalyseCovariants</title>
<ellipse fill="none" stroke="#000000" cx="1322.3161" cy="-90" rx="77.1866" ry="18"/>
<text text-anchor="middle" x="1322.3161" y="-86.3" font-family="Times,serif" font-size="14.00" fill="#000000">AnalyseCovariants</text>
</g>
<!-- AnalyseCovariants&#45;&gt;Cleanup -->
<g id="edge48" class="edge">
<title>AnalyseCovariants&#45;&gt;Cleanup</title>
<path fill="none" stroke="#000000" d="M1335.1701,-72.2022C1341.3873,-63.5938 1348.9654,-53.1011 1355.792,-43.6488"/>
<polygon fill="#000000" stroke="#000000" points="1358.7719,-45.5006 1361.7895,-35.3446 1353.0972,-41.4022 1358.7719,-45.5006"/>
</g>
</g>
</svg>
