<?xml version="1.0" encoding="UTF-8" standalone="no"?>
<!DOCTYPE svg PUBLIC "-//W3C//DTD SVG 1.1//EN"
 "http://www.w3.org/Graphics/SVG/1.1/DTD/svg11.dtd">
<!-- Generated by graphviz version 2.40.1 (0)
 -->
<!-- Title: workflow_nugenerna Pages: 1 -->
<svg width="2044pt" height="1340pt"
 viewBox="0.00 0.00 2044.04 1340.00" xmlns="http://www.w3.org/2000/svg" xmlns:xlink="http://www.w3.org/1999/xlink">
<g id="graph0" class="graph" transform="scale(1 1) rotate(0) translate(4 1336)">
<title>workflow_nugenerna</title>
<polygon fill="#ffffff" stroke="transparent" points="-4,4 -4,-1336 2040.0375,-1336 2040.0375,4 -4,4"/>
<!-- NugenePreRnaAlign -->
<g id="node1" class="node">
<title>NugenePreRnaAlign</title>
<ellipse fill="none" stroke="#000000" cx="151.7445" cy="-1314" rx="83.6854" ry="18"/>
<text text-anchor="middle" x="151.7445" y="-1310.3" font-family="Times,serif" font-size="14.00" fill="#000000">NugenePreRnaAlign</text>
</g>
<!-- FusionCatcher -->
<g id="node2" class="node">
<title>FusionCatcher</title>
<ellipse fill="none" stroke="#000000" cx="61.7445" cy="-1242" rx="61.99" ry="18"/>
<text text-anchor="middle" x="61.7445" y="-1238.3" font-family="Times,serif" font-size="14.00" fill="#000000">FusionCatcher</text>
</g>
<!-- NugenePreRnaAlign&#45;&gt;FusionCatcher -->
<g id="edge1" class="edge">
<title>NugenePreRnaAlign&#45;&gt;FusionCatcher</title>
<path fill="none" stroke="#000000" d="M129.958,-1296.5708C118.2651,-1287.2164 103.6925,-1275.5584 91.0221,-1265.422"/>
<polygon fill="#000000" stroke="#000000" points="93.015,-1262.5342 83.0198,-1259.0202 88.6421,-1268.0003 93.015,-1262.5342"/>
</g>
<!-- FastqcNugene -->
<g id="node3" class="node">
<title>FastqcNugene</title>
<ellipse fill="none" stroke="#000000" cx="143.7445" cy="-1170" rx="61.1893" ry="18"/>
<text text-anchor="middle" x="143.7445" y="-1166.3" font-family="Times,serif" font-size="14.00" fill="#000000">FastqcNugene</text>
</g>
<!-- NugenePreRnaAlign&#45;&gt;FastqcNugene -->
<g id="edge2" class="edge">
<title>NugenePreRnaAlign&#45;&gt;FastqcNugene</title>
<path fill="none" stroke="#000000" d="M150.7313,-1295.7623C149.3668,-1271.201 146.9249,-1227.2474 145.3197,-1198.3541"/>
<polygon fill="#000000" stroke="#000000" points="148.7989,-1197.88 144.7495,-1188.0896 141.8097,-1198.2684 148.7989,-1197.88"/>
</g>
<!-- Hisat2Alignment -->
<g id="node4" class="node">
<title>Hisat2Alignment</title>
<ellipse fill="none" stroke="#000000" cx="267.7445" cy="-1242" rx="71.4873" ry="18"/>
<text text-anchor="middle" x="267.7445" y="-1238.3" font-family="Times,serif" font-size="14.00" fill="#000000">Hisat2Alignment</text>
</g>
<!-- NugenePreRnaAlign&#45;&gt;Hisat2Alignment -->
<g id="edge3" class="edge">
<title>NugenePreRnaAlign&#45;&gt;Hisat2Alignment</title>
<path fill="none" stroke="#000000" d="M179.2349,-1296.937C195.0955,-1287.0925 215.2114,-1274.6068 232.2567,-1264.0269"/>
<polygon fill="#000000" stroke="#000000" points="234.201,-1266.9396 240.8516,-1258.6921 230.5094,-1260.9921 234.201,-1266.9396"/>
</g>
<!-- SampleMarkdown -->
<g id="node24" class="node">
<title>SampleMarkdown</title>
<ellipse fill="none" stroke="#000000" cx="405.7445" cy="-738" rx="76.8869" ry="18"/>
<text text-anchor="middle" x="405.7445" y="-734.3" font-family="Times,serif" font-size="14.00" fill="#000000">SampleMarkdown</text>
</g>
<!-- FastqcNugene&#45;&gt;SampleMarkdown -->
<g id="edge26" class="edge">
<title>FastqcNugene&#45;&gt;SampleMarkdown</title>
<path fill="none" stroke="#000000" d="M143.5373,-1151.8149C143.2444,-1124.4989 142.7445,-1071.2511 142.7445,-1026 142.7445,-1026 142.7445,-1026 142.7445,-882 142.7445,-841.1184 132.978,-821.0482 161.7445,-792 184.4458,-769.0764 263.1189,-754.5627 325.0697,-746.4242"/>
<polygon fill="#000000" stroke="#000000" points="325.7723,-749.863 335.2481,-745.1239 324.8852,-742.9194 325.7723,-749.863"/>
</g>
<!-- TrimByBed -->
<g id="node5" class="node">
<title>TrimByBed</title>
<ellipse fill="none" stroke="#000000" cx="276.7445" cy="-1170" rx="53.0913" ry="18"/>
<text text-anchor="middle" x="276.7445" y="-1166.3" font-family="Times,serif" font-size="14.00" fill="#000000">TrimByBed</text>
</g>
<!-- Hisat2Alignment&#45;&gt;TrimByBed -->
<g id="edge4" class="edge">
<title>Hisat2Alignment&#45;&gt;TrimByBed</title>
<path fill="none" stroke="#000000" d="M270.0156,-1223.8314C270.9782,-1216.131 272.1227,-1206.9743 273.1924,-1198.4166"/>
<polygon fill="#000000" stroke="#000000" points="276.6754,-1198.7702 274.4429,-1188.4133 269.7295,-1197.9019 276.6754,-1198.7702"/>
</g>
<!-- AddOrReplaceReadGroups -->
<g id="node6" class="node">
<title>AddOrReplaceReadGroups</title>
<ellipse fill="none" stroke="#000000" cx="469.7445" cy="-1098" rx="107.4815" ry="18"/>
<text text-anchor="middle" x="469.7445" y="-1094.3" font-family="Times,serif" font-size="14.00" fill="#000000">AddOrReplaceReadGroups</text>
</g>
<!-- TrimByBed&#45;&gt;AddOrReplaceReadGroups -->
<g id="edge5" class="edge">
<title>TrimByBed&#45;&gt;AddOrReplaceReadGroups</title>
<path fill="none" stroke="#000000" d="M312.594,-1156.6261C341.6649,-1145.781 383.0853,-1130.3288 416.1042,-1118.0109"/>
<polygon fill="#000000" stroke="#000000" points="417.4708,-1121.2368 425.6167,-1114.4622 415.0241,-1114.6783 417.4708,-1121.2368"/>
</g>
<!-- NugeneBcSplitter -->
<g id="node7" class="node">
<title>NugeneBcSplitter</title>
<ellipse fill="none" stroke="#000000" cx="517.7445" cy="-1026" rx="73.387" ry="18"/>
<text text-anchor="middle" x="517.7445" y="-1022.3" font-family="Times,serif" font-size="14.00" fill="#000000">NugeneBcSplitter</text>
</g>
<!-- AddOrReplaceReadGroups&#45;&gt;NugeneBcSplitter -->
<g id="edge6" class="edge">
<title>AddOrReplaceReadGroups&#45;&gt;NugeneBcSplitter</title>
<path fill="none" stroke="#000000" d="M481.8569,-1079.8314C487.4132,-1071.497 494.1067,-1061.4567 500.2004,-1052.3162"/>
<polygon fill="#000000" stroke="#000000" points="503.1674,-1054.1754 505.8022,-1043.9134 497.343,-1050.2925 503.1674,-1054.1754"/>
</g>
<!-- MergeBamFiles -->
<g id="node8" class="node">
<title>MergeBamFiles</title>
<ellipse fill="none" stroke="#000000" cx="613.7445" cy="-954" rx="68.4888" ry="18"/>
<text text-anchor="middle" x="613.7445" y="-950.3" font-family="Times,serif" font-size="14.00" fill="#000000">MergeBamFiles</text>
</g>
<!-- NugeneBcSplitter&#45;&gt;MergeBamFiles -->
<g id="edge7" class="edge">
<title>NugeneBcSplitter&#45;&gt;MergeBamFiles</title>
<path fill="none" stroke="#000000" d="M540.9834,-1008.5708C553.5747,-999.1273 569.2964,-987.3361 582.9007,-977.1328"/>
<polygon fill="#000000" stroke="#000000" points="585.1509,-979.8203 591.0509,-971.0202 580.9508,-974.2203 585.1509,-979.8203"/>
</g>
<!-- HtseqCountDups -->
<g id="node9" class="node">
<title>HtseqCountDups</title>
<ellipse fill="none" stroke="#000000" cx="1111.7445" cy="-882" rx="71.4873" ry="18"/>
<text text-anchor="middle" x="1111.7445" y="-878.3" font-family="Times,serif" font-size="14.00" fill="#000000">HtseqCountDups</text>
</g>
<!-- MergeBamFiles&#45;&gt;HtseqCountDups -->
<g id="edge8" class="edge">
<title>MergeBamFiles&#45;&gt;HtseqCountDups</title>
<path fill="none" stroke="#000000" d="M673.815,-945.3151C765.6366,-932.0397 940.6104,-906.7423 1039.3197,-892.4711"/>
<polygon fill="#000000" stroke="#000000" points="1040.1096,-895.8933 1049.5058,-890.9984 1039.1079,-888.9654 1040.1096,-895.8933"/>
</g>
<!-- MarkDuplicates -->
<g id="node11" class="node">
<title>MarkDuplicates</title>
<ellipse fill="none" stroke="#000000" cx="662.7445" cy="-882" rx="67.6881" ry="18"/>
<text text-anchor="middle" x="662.7445" y="-878.3" font-family="Times,serif" font-size="14.00" fill="#000000">MarkDuplicates</text>
</g>
<!-- MergeBamFiles&#45;&gt;MarkDuplicates -->
<g id="edge10" class="edge">
<title>MergeBamFiles&#45;&gt;MarkDuplicates</title>
<path fill="none" stroke="#000000" d="M625.8569,-936.2022C631.5697,-927.8079 638.5019,-917.6218 644.8079,-908.3558"/>
<polygon fill="#000000" stroke="#000000" points="647.8689,-910.0789 650.6017,-899.8425 642.0819,-906.1405 647.8689,-910.0789"/>
</g>
<!-- SamQC -->
<g id="node53" class="node">
<title>SamQC</title>
<ellipse fill="none" stroke="#000000" cx="209.7445" cy="-810" rx="38.9931" ry="18"/>
<text text-anchor="middle" x="209.7445" y="-806.3" font-family="Times,serif" font-size="14.00" fill="#000000">SamQC</text>
</g>
<!-- MergeBamFiles&#45;&gt;SamQC -->
<g id="edge64" class="edge">
<title>MergeBamFiles&#45;&gt;SamQC</title>
<path fill="none" stroke="#000000" d="M572.272,-939.6023C505.7752,-916.454 371.2416,-869.3618 257.7445,-828 255.0399,-827.0144 252.2525,-825.9905 249.4465,-824.9537"/>
<polygon fill="#000000" stroke="#000000" points="250.52,-821.6188 239.9271,-821.4161 248.0815,-828.1804 250.52,-821.6188"/>
</g>
<!-- MergeExpressionDupTables -->
<g id="node10" class="node">
<title>MergeExpressionDupTables</title>
<ellipse fill="none" stroke="#000000" cx="1404.7445" cy="-810" rx="111.5806" ry="18"/>
<text text-anchor="middle" x="1404.7445" y="-806.3" font-family="Times,serif" font-size="14.00" fill="#000000">MergeExpressionDupTables</text>
</g>
<!-- HtseqCountDups&#45;&gt;MergeExpressionDupTables -->
<g id="edge9" class="edge">
<title>HtseqCountDups&#45;&gt;MergeExpressionDupTables</title>
<path fill="none" stroke="#000000" d="M1163.1165,-869.3762C1210.2975,-857.7822 1280.6699,-840.4893 1333.3175,-827.552"/>
<polygon fill="#000000" stroke="#000000" points="1334.3891,-830.8929 1343.2649,-825.1076 1332.7186,-824.0951 1334.3891,-830.8929"/>
</g>
<!-- NugeneProbeMetrics -->
<g id="node13" class="node">
<title>NugeneProbeMetrics</title>
<ellipse fill="none" stroke="#000000" cx="1306.7445" cy="-666" rx="85.5853" ry="18"/>
<text text-anchor="middle" x="1306.7445" y="-662.3" font-family="Times,serif" font-size="14.00" fill="#000000">NugeneProbeMetrics</text>
</g>
<!-- MarkDuplicates&#45;&gt;NugeneProbeMetrics -->
<g id="edge12" class="edge">
<title>MarkDuplicates&#45;&gt;NugeneProbeMetrics</title>
<path fill="none" stroke="#000000" d="M727.6989,-876.8343C825.0267,-868.4906 1003.6925,-850.6676 1063.7445,-828 1150.1988,-795.3665 1236.7174,-727.0899 1279.3899,-690.461"/>
<polygon fill="#000000" stroke="#000000" points="1281.8197,-692.9866 1287.0824,-683.7912 1277.234,-687.6978 1281.8197,-692.9866"/>
</g>
<!-- MantaSV -->
<g id="node15" class="node">
<title>MantaSV</title>
<ellipse fill="none" stroke="#000000" cx="1229.7445" cy="-810" rx="44.6926" ry="18"/>
<text text-anchor="middle" x="1229.7445" y="-806.3" font-family="Times,serif" font-size="14.00" fill="#000000">MantaSV</text>
</g>
<!-- MarkDuplicates&#45;&gt;MantaSV -->
<g id="edge14" class="edge">
<title>MarkDuplicates&#45;&gt;MantaSV</title>
<path fill="none" stroke="#000000" d="M729.5247,-878.9533C827.2378,-873.5839 1014.5317,-859.8299 1170.7445,-828 1175.542,-827.0225 1180.5077,-825.82 1185.4285,-824.5041"/>
<polygon fill="#000000" stroke="#000000" points="1186.7306,-827.773 1195.3978,-821.6795 1184.8224,-821.0381 1186.7306,-827.773"/>
</g>
<!-- HtseqCount -->
<g id="node20" class="node">
<title>HtseqCount</title>
<ellipse fill="none" stroke="#000000" cx="828.7445" cy="-810" rx="52.7911" ry="18"/>
<text text-anchor="middle" x="828.7445" y="-806.3" font-family="Times,serif" font-size="14.00" fill="#000000">HtseqCount</text>
</g>
<!-- MarkDuplicates&#45;&gt;HtseqCount -->
<g id="edge19" class="edge">
<title>MarkDuplicates&#45;&gt;HtseqCount</title>
<path fill="none" stroke="#000000" d="M698.3557,-866.5542C724.2621,-855.3177 759.4316,-840.0634 786.7162,-828.2291"/>
<polygon fill="#000000" stroke="#000000" points="788.2287,-831.3882 796.0102,-824.198 785.4432,-824.9663 788.2287,-831.3882"/>
</g>
<!-- CollectMultipleMetrics -->
<g id="node22" class="node">
<title>CollectMultipleMetrics</title>
<ellipse fill="none" stroke="#000000" cx="360.7445" cy="-810" rx="94.4839" ry="18"/>
<text text-anchor="middle" x="360.7445" y="-806.3" font-family="Times,serif" font-size="14.00" fill="#000000">CollectMultipleMetrics</text>
</g>
<!-- MarkDuplicates&#45;&gt;CollectMultipleMetrics -->
<g id="edge21" class="edge">
<title>MarkDuplicates&#45;&gt;CollectMultipleMetrics</title>
<path fill="none" stroke="#000000" d="M612.1965,-869.9488C562.1411,-858.0151 485.1331,-839.6556 429.5261,-826.3983"/>
<polygon fill="#000000" stroke="#000000" points="430.2909,-822.9826 419.7518,-824.068 428.6675,-829.7917 430.2909,-822.9826"/>
</g>
<!-- CalculateHsMetrics -->
<g id="node23" class="node">
<title>CalculateHsMetrics</title>
<ellipse fill="none" stroke="#000000" cx="553.7445" cy="-810" rx="81.4863" ry="18"/>
<text text-anchor="middle" x="553.7445" y="-806.3" font-family="Times,serif" font-size="14.00" fill="#000000">CalculateHsMetrics</text>
</g>
<!-- MarkDuplicates&#45;&gt;CalculateHsMetrics -->
<g id="edge22" class="edge">
<title>MarkDuplicates&#45;&gt;CalculateHsMetrics</title>
<path fill="none" stroke="#000000" d="M637.4638,-865.3008C622.8182,-855.6267 604.1759,-843.3125 588.2024,-832.7612"/>
<polygon fill="#000000" stroke="#000000" points="589.9182,-829.6999 579.6451,-827.1086 586.06,-835.5407 589.9182,-829.6999"/>
</g>
<!-- MarkDuplicates&#45;&gt;SampleMarkdown -->
<g id="edge27" class="edge">
<title>MarkDuplicates&#45;&gt;SampleMarkdown</title>
<path fill="none" stroke="#000000" d="M664.238,-863.819C664.843,-843.5101 662.4598,-810.9992 643.7445,-792 637.6692,-785.8325 542.3181,-765.525 474.1767,-751.6493"/>
<polygon fill="#000000" stroke="#000000" points="474.8308,-748.2108 464.3344,-749.6512 473.4381,-755.0708 474.8308,-748.2108"/>
</g>
<!-- SplitAndTrim -->
<g id="node26" class="node">
<title>SplitAndTrim</title>
<ellipse fill="none" stroke="#000000" cx="994.7445" cy="-810" rx="60.3893" ry="18"/>
<text text-anchor="middle" x="994.7445" y="-806.3" font-family="Times,serif" font-size="14.00" fill="#000000">SplitAndTrim</text>
</g>
<!-- MarkDuplicates&#45;&gt;SplitAndTrim -->
<g id="edge28" class="edge">
<title>MarkDuplicates&#45;&gt;SplitAndTrim</title>
<path fill="none" stroke="#000000" d="M715.3509,-870.5914C775.278,-857.5951 872.9724,-836.4084 935.5238,-822.8431"/>
<polygon fill="#000000" stroke="#000000" points="936.6002,-826.1911 945.6312,-820.6511 935.1166,-819.3501 936.6002,-826.1911"/>
</g>
<!-- MarkDuplicates&#45;&gt;SamQC -->
<g id="edge65" class="edge">
<title>MarkDuplicates&#45;&gt;SamQC</title>
<path fill="none" stroke="#000000" d="M596.6499,-877.7958C515.7543,-871.6003 375.0571,-857.4132 257.7445,-828 254.7338,-827.2451 251.6526,-826.3619 248.576,-825.3993"/>
<polygon fill="#000000" stroke="#000000" points="249.4509,-822.0005 238.8567,-822.1142 247.2094,-828.632 249.4509,-822.0005"/>
</g>
<!-- IndelRealignmentKnown -->
<g id="node12" class="node">
<title>IndelRealignmentKnown</title>
<ellipse fill="none" stroke="#000000" cx="1028.7445" cy="-738" rx="100.1823" ry="18"/>
<text text-anchor="middle" x="1028.7445" y="-734.3" font-family="Times,serif" font-size="14.00" fill="#000000">IndelRealignmentKnown</text>
</g>
<!-- IndelRealignmentKnown&#45;&gt;NugeneProbeMetrics -->
<g id="edge11" class="edge">
<title>IndelRealignmentKnown&#45;&gt;NugeneProbeMetrics</title>
<path fill="none" stroke="#000000" d="M1086.0092,-723.1689C1131.5655,-711.3701 1195.2888,-694.8662 1242.5638,-682.6223"/>
<polygon fill="#000000" stroke="#000000" points="1243.5867,-685.973 1252.3897,-680.0775 1241.8316,-679.1966 1243.5867,-685.973"/>
</g>
<!-- MergeBamFilesFreebayes -->
<g id="node27" class="node">
<title>MergeBamFilesFreebayes</title>
<ellipse fill="none" stroke="#000000" cx="866.7445" cy="-666" rx="103.9815" ry="18"/>
<text text-anchor="middle" x="866.7445" y="-662.3" font-family="Times,serif" font-size="14.00" fill="#000000">MergeBamFilesFreebayes</text>
</g>
<!-- IndelRealignmentKnown&#45;&gt;MergeBamFilesFreebayes -->
<g id="edge30" class="edge">
<title>IndelRealignmentKnown&#45;&gt;MergeBamFilesFreebayes</title>
<path fill="none" stroke="#000000" d="M991.1713,-721.3008C968.1303,-711.0603 938.4333,-697.8617 913.8305,-686.9271"/>
<polygon fill="#000000" stroke="#000000" points="915.2348,-683.7212 904.6752,-682.8581 912.3918,-690.1179 915.2348,-683.7212"/>
</g>
<!-- HaplotypeCaller -->
<g id="node28" class="node">
<title>HaplotypeCaller</title>
<ellipse fill="none" stroke="#000000" cx="636.7445" cy="-594" rx="68.7879" ry="18"/>
<text text-anchor="middle" x="636.7445" y="-590.3" font-family="Times,serif" font-size="14.00" fill="#000000">HaplotypeCaller</text>
</g>
<!-- IndelRealignmentKnown&#45;&gt;HaplotypeCaller -->
<g id="edge31" class="edge">
<title>IndelRealignmentKnown&#45;&gt;HaplotypeCaller</title>
<path fill="none" stroke="#000000" d="M956.723,-725.4501C944.4062,-723.4921 931.7224,-721.593 919.7445,-720 880.3343,-714.7586 590.4055,-713.493 563.7445,-684 553.015,-672.1308 556.5419,-662.2871 563.7445,-648 570.4907,-634.6184 582.2927,-623.7289 594.4655,-615.3258"/>
<polygon fill="#000000" stroke="#000000" points="596.3766,-618.2581 602.8945,-609.9054 592.5904,-612.3704 596.3766,-618.2581"/>
</g>
<!-- ContEst -->
<g id="node31" class="node">
<title>ContEst</title>
<ellipse fill="none" stroke="#000000" cx="1125.7445" cy="-666" rx="38.9931" ry="18"/>
<text text-anchor="middle" x="1125.7445" y="-662.3" font-family="Times,serif" font-size="14.00" fill="#000000">ContEst</text>
</g>
<!-- IndelRealignmentKnown&#45;&gt;ContEst -->
<g id="edge34" class="edge">
<title>IndelRealignmentKnown&#45;&gt;ContEst</title>
<path fill="none" stroke="#000000" d="M1052.7221,-720.2022C1066.0096,-710.3393 1082.6296,-698.0028 1096.6557,-687.5917"/>
<polygon fill="#000000" stroke="#000000" points="1099.057,-690.1681 1105.0007,-681.3975 1094.8849,-684.5473 1099.057,-690.1681"/>
</g>
<!-- Mutect2 -->
<g id="node32" class="node">
<title>Mutect2</title>
<ellipse fill="none" stroke="#000000" cx="1028.7445" cy="-666" rx="40.0939" ry="18"/>
<text text-anchor="middle" x="1028.7445" y="-662.3" font-family="Times,serif" font-size="14.00" fill="#000000">Mutect2</text>
</g>
<!-- IndelRealignmentKnown&#45;&gt;Mutect2 -->
<g id="edge35" class="edge">
<title>IndelRealignmentKnown&#45;&gt;Mutect2</title>
<path fill="none" stroke="#000000" d="M1028.7445,-719.8314C1028.7445,-712.131 1028.7445,-702.9743 1028.7445,-694.4166"/>
<polygon fill="#000000" stroke="#000000" points="1032.2446,-694.4132 1028.7445,-684.4133 1025.2446,-694.4133 1032.2446,-694.4132"/>
</g>
<!-- Varscan2 -->
<g id="node49" class="node">
<title>Varscan2</title>
<ellipse fill="none" stroke="#000000" cx="1256.7445" cy="-522" rx="44.393" ry="18"/>
<text text-anchor="middle" x="1256.7445" y="-518.3" font-family="Times,serif" font-size="14.00" fill="#000000">Varscan2</text>
</g>
<!-- IndelRealignmentKnown&#45;&gt;Varscan2 -->
<g id="edge58" class="edge">
<title>IndelRealignmentKnown&#45;&gt;Varscan2</title>
<path fill="none" stroke="#000000" d="M1098.8313,-725.1455C1125.2379,-717.1868 1153.6998,-704.4124 1173.7445,-684 1209.3968,-647.6937 1186.6144,-620.246 1211.7445,-576 1217.6509,-565.6008 1225.6297,-555.2501 1233.2288,-546.4346"/>
<polygon fill="#000000" stroke="#000000" points="1235.9834,-548.6045 1240.0304,-538.813 1230.7606,-543.9437 1235.9834,-548.6045"/>
</g>
<!-- MergeNugeneCNRTables -->
<g id="node14" class="node">
<title>MergeNugeneCNRTables</title>
<ellipse fill="none" stroke="#000000" cx="1323.7445" cy="-594" rx="102.8821" ry="18"/>
<text text-anchor="middle" x="1323.7445" y="-590.3" font-family="Times,serif" font-size="14.00" fill="#000000">MergeNugeneCNRTables</text>
</g>
<!-- NugeneProbeMetrics&#45;&gt;MergeNugeneCNRTables -->
<g id="edge13" class="edge">
<title>NugeneProbeMetrics&#45;&gt;MergeNugeneCNRTables</title>
<path fill="none" stroke="#000000" d="M1311.0343,-647.8314C1312.8525,-640.131 1315.0145,-630.9743 1317.035,-622.4166"/>
<polygon fill="#000000" stroke="#000000" points="1320.5053,-622.95 1319.3969,-612.4133 1313.6926,-621.3414 1320.5053,-622.95"/>
</g>
<!-- SnpEffManta -->
<g id="node16" class="node">
<title>SnpEffManta</title>
<ellipse fill="none" stroke="#000000" cx="1621.7445" cy="-738" rx="58.4896" ry="18"/>
<text text-anchor="middle" x="1621.7445" y="-734.3" font-family="Times,serif" font-size="14.00" fill="#000000">SnpEffManta</text>
</g>
<!-- MantaSV&#45;&gt;SnpEffManta -->
<g id="edge15" class="edge">
<title>MantaSV&#45;&gt;SnpEffManta</title>
<path fill="none" stroke="#000000" d="M1263.1992,-797.9065C1269.9434,-795.7361 1277.0255,-793.6449 1283.7445,-792 1377.215,-769.1175 1487.6803,-753.5769 1556.2384,-745.2458"/>
<polygon fill="#000000" stroke="#000000" points="1556.9456,-748.6862 1566.4574,-744.0198 1556.1117,-741.736 1556.9456,-748.6862"/>
</g>
<!-- SvVariantsToDescriptionTable -->
<g id="node17" class="node">
<title>SvVariantsToDescriptionTable</title>
<ellipse fill="none" stroke="#000000" cx="1738.7445" cy="-666" rx="120.4791" ry="18"/>
<text text-anchor="middle" x="1738.7445" y="-662.3" font-family="Times,serif" font-size="14.00" fill="#000000">SvVariantsToDescriptionTable</text>
</g>
<!-- SnpEffManta&#45;&gt;SvVariantsToDescriptionTable -->
<g id="edge16" class="edge">
<title>SnpEffManta&#45;&gt;SvVariantsToDescriptionTable</title>
<path fill="none" stroke="#000000" d="M1648.0016,-721.8418C1663.7219,-712.1678 1683.9595,-699.7138 1701.3325,-689.0228"/>
<polygon fill="#000000" stroke="#000000" points="1703.435,-691.8386 1710.1173,-683.6168 1699.7663,-685.877 1703.435,-691.8386"/>
</g>
<!-- SvVariantsToTable -->
<g id="node18" class="node">
<title>SvVariantsToTable</title>
<ellipse fill="none" stroke="#000000" cx="1956.7445" cy="-666" rx="79.0865" ry="18"/>
<text text-anchor="middle" x="1956.7445" y="-662.3" font-family="Times,serif" font-size="14.00" fill="#000000">SvVariantsToTable</text>
</g>
<!-- SnpEffManta&#45;&gt;SvVariantsToTable -->
<g id="edge17" class="edge">
<title>SnpEffManta&#45;&gt;SvVariantsToTable</title>
<path fill="none" stroke="#000000" d="M1669.7419,-727.6842C1727.1861,-715.3379 1823.758,-694.5822 1888.8362,-680.5952"/>
<polygon fill="#000000" stroke="#000000" points="1889.9583,-683.9341 1898.9996,-678.4109 1888.4874,-677.0903 1889.9583,-683.9341"/>
</g>
<!-- SvVariantsToMinTable -->
<g id="node19" class="node">
<title>SvVariantsToMinTable</title>
<ellipse fill="none" stroke="#000000" cx="1505.7445" cy="-666" rx="94.7833" ry="18"/>
<text text-anchor="middle" x="1505.7445" y="-662.3" font-family="Times,serif" font-size="14.00" fill="#000000">SvVariantsToMinTable</text>
</g>
<!-- SnpEffManta&#45;&gt;SvVariantsToMinTable -->
<g id="edge18" class="edge">
<title>SnpEffManta&#45;&gt;SvVariantsToMinTable</title>
<path fill="none" stroke="#000000" d="M1595.7119,-721.8418C1580.0122,-712.0972 1559.7681,-699.5319 1542.46,-688.7889"/>
<polygon fill="#000000" stroke="#000000" points="1544.0585,-685.6617 1533.7163,-683.3618 1540.3669,-691.6092 1544.0585,-685.6617"/>
</g>
<!-- MergeExpressionTables -->
<g id="node21" class="node">
<title>MergeExpressionTables</title>
<ellipse fill="none" stroke="#000000" cx="813.7445" cy="-738" rx="96.6831" ry="18"/>
<text text-anchor="middle" x="813.7445" y="-734.3" font-family="Times,serif" font-size="14.00" fill="#000000">MergeExpressionTables</text>
</g>
<!-- HtseqCount&#45;&gt;MergeExpressionTables -->
<g id="edge20" class="edge">
<title>HtseqCount&#45;&gt;MergeExpressionTables</title>
<path fill="none" stroke="#000000" d="M824.9594,-791.8314C823.3551,-784.131 821.4475,-774.9743 819.6647,-766.4166"/>
<polygon fill="#000000" stroke="#000000" points="823.0467,-765.4892 817.5806,-756.4133 816.1938,-766.9169 823.0467,-765.4892"/>
</g>
<!-- CollectMultipleMetrics&#45;&gt;SampleMarkdown -->
<g id="edge24" class="edge">
<title>CollectMultipleMetrics&#45;&gt;SampleMarkdown</title>
<path fill="none" stroke="#000000" d="M372.0999,-791.8314C377.2552,-783.5829 383.4548,-773.6635 389.12,-764.5992"/>
<polygon fill="#000000" stroke="#000000" points="392.2166,-766.2484 394.5486,-755.9134 386.2806,-762.5384 392.2166,-766.2484"/>
</g>
<!-- Cleanup -->
<g id="node55" class="node">
<title>Cleanup</title>
<ellipse fill="none" stroke="#000000" cx="427.7445" cy="-18" rx="40.0939" ry="18"/>
<text text-anchor="middle" x="427.7445" y="-14.3" font-family="Times,serif" font-size="14.00" fill="#000000">Cleanup</text>
</g>
<!-- CollectMultipleMetrics&#45;&gt;Cleanup -->
<g id="edge74" class="edge">
<title>CollectMultipleMetrics&#45;&gt;Cleanup</title>
<path fill="none" stroke="#000000" d="M327.9097,-792.871C313.3402,-783.7357 297.1691,-771.2213 286.7445,-756 263.3525,-721.8446 262.7445,-707.3978 262.7445,-666 262.7445,-666 262.7445,-666 262.7445,-162 262.7445,-120.6022 259.0505,-102.7704 286.7445,-72 310.3767,-45.7426 348.2025,-32.1656 378.7289,-25.195"/>
<polygon fill="#000000" stroke="#000000" points="379.7088,-28.5654 388.7704,-23.0756 378.2632,-21.7163 379.7088,-28.5654"/>
</g>
<!-- CalculateHsMetrics&#45;&gt;SampleMarkdown -->
<g id="edge23" class="edge">
<title>CalculateHsMetrics&#45;&gt;SampleMarkdown</title>
<path fill="none" stroke="#000000" d="M519.7903,-793.4817C498.5634,-783.1551 471.0454,-769.768 448.3585,-758.7311"/>
<polygon fill="#000000" stroke="#000000" points="449.8089,-755.5446 439.2854,-754.3172 446.7466,-761.8392 449.8089,-755.5446"/>
</g>
<!-- CalculateHsMetrics&#45;&gt;Cleanup -->
<g id="edge73" class="edge">
<title>CalculateHsMetrics&#45;&gt;Cleanup</title>
<path fill="none" stroke="#000000" d="M493.7705,-797.8301C426.5089,-783.9335 325.932,-762.3046 319.7445,-756 291.109,-726.8227 300.7445,-706.8816 300.7445,-666 300.7445,-666 300.7445,-666 300.7445,-162 300.7445,-105.8352 355.7598,-61.2231 393.3713,-37.2865"/>
<polygon fill="#000000" stroke="#000000" points="395.3732,-40.1639 402.0442,-31.9329 391.6963,-34.2073 395.3732,-40.1639"/>
</g>
<!-- ProjectMarkdown -->
<g id="node52" class="node">
<title>ProjectMarkdown</title>
<ellipse fill="none" stroke="#000000" cx="403.7445" cy="-450" rx="74.9875" ry="18"/>
<text text-anchor="middle" x="403.7445" y="-446.3" font-family="Times,serif" font-size="14.00" fill="#000000">ProjectMarkdown</text>
</g>
<!-- SampleMarkdown&#45;&gt;ProjectMarkdown -->
<g id="edge63" class="edge">
<title>SampleMarkdown&#45;&gt;ProjectMarkdown</title>
<path fill="none" stroke="#000000" d="M405.6194,-719.9843C405.2813,-671.2939 404.3473,-536.7961 403.9394,-478.0573"/>
<polygon fill="#000000" stroke="#000000" points="407.439,-477.9843 403.8696,-468.0089 400.4392,-478.033 407.439,-477.9843"/>
</g>
<!-- Fastqc -->
<g id="node25" class="node">
<title>Fastqc</title>
<ellipse fill="none" stroke="#000000" cx="724.7445" cy="-810" rx="33.5952" ry="18"/>
<text text-anchor="middle" x="724.7445" y="-806.3" font-family="Times,serif" font-size="14.00" fill="#000000">Fastqc</text>
</g>
<!-- Fastqc&#45;&gt;SampleMarkdown -->
<g id="edge25" class="edge">
<title>Fastqc&#45;&gt;SampleMarkdown</title>
<path fill="none" stroke="#000000" d="M697.8389,-799.0366C691.0283,-796.5043 683.6773,-793.9765 676.7445,-792 674.2766,-791.2964 553.9409,-767.3895 474.4693,-751.6245"/>
<polygon fill="#000000" stroke="#000000" points="474.999,-748.1614 464.5091,-749.6488 473.637,-755.0276 474.999,-748.1614"/>
</g>
<!-- Fastqc&#45;&gt;Cleanup -->
<g id="edge75" class="edge">
<title>Fastqc&#45;&gt;Cleanup</title>
<path fill="none" stroke="#000000" d="M698.0134,-798.8111C639.8012,-772.4551 506.7445,-700.5582 506.7445,-594 506.7445,-594 506.7445,-594 506.7445,-522 506.7445,-481.1184 501.5014,-470.4975 487.7445,-432 454.7033,-339.5372 389.7445,-332.189 389.7445,-234 389.7445,-234 389.7445,-234 389.7445,-162 389.7445,-120.1368 404.9448,-73.6262 416.1182,-45.0925"/>
<polygon fill="#000000" stroke="#000000" points="419.3769,-46.3698 419.8709,-35.7865 412.8849,-43.7518 419.3769,-46.3698"/>
</g>
<!-- SplitAndTrim&#45;&gt;IndelRealignmentKnown -->
<g id="edge29" class="edge">
<title>SplitAndTrim&#45;&gt;IndelRealignmentKnown</title>
<path fill="none" stroke="#000000" d="M1003.3242,-791.8314C1007.0803,-783.8771 1011.5703,-774.369 1015.7243,-765.5723"/>
<polygon fill="#000000" stroke="#000000" points="1018.9441,-766.9503 1020.0494,-756.4133 1012.6144,-763.9612 1018.9441,-766.9503"/>
</g>
<!-- Freebayes -->
<g id="node35" class="node">
<title>Freebayes</title>
<ellipse fill="none" stroke="#000000" cx="818.7445" cy="-594" rx="46.2923" ry="18"/>
<text text-anchor="middle" x="818.7445" y="-590.3" font-family="Times,serif" font-size="14.00" fill="#000000">Freebayes</text>
</g>
<!-- MergeBamFilesFreebayes&#45;&gt;Freebayes -->
<g id="edge38" class="edge">
<title>MergeBamFilesFreebayes&#45;&gt;Freebayes</title>
<path fill="none" stroke="#000000" d="M854.6321,-647.8314C849.0758,-639.497 842.3823,-629.4567 836.2887,-620.3162"/>
<polygon fill="#000000" stroke="#000000" points="839.146,-618.2925 830.6868,-611.9134 833.3217,-622.1754 839.146,-618.2925"/>
</g>
<!-- MergeVariants -->
<g id="node30" class="node">
<title>MergeVariants</title>
<ellipse fill="none" stroke="#000000" cx="636.7445" cy="-522" rx="63.8893" ry="18"/>
<text text-anchor="middle" x="636.7445" y="-518.3" font-family="Times,serif" font-size="14.00" fill="#000000">MergeVariants</text>
</g>
<!-- HaplotypeCaller&#45;&gt;MergeVariants -->
<g id="edge33" class="edge">
<title>HaplotypeCaller&#45;&gt;MergeVariants</title>
<path fill="none" stroke="#000000" d="M636.7445,-575.8314C636.7445,-568.131 636.7445,-558.9743 636.7445,-550.4166"/>
<polygon fill="#000000" stroke="#000000" points="640.2446,-550.4132 636.7445,-540.4133 633.2446,-550.4133 640.2446,-550.4132"/>
</g>
<!-- HaplotypeCaller&#45;&gt;Varscan2 -->
<g id="edge59" class="edge">
<title>HaplotypeCaller&#45;&gt;Varscan2</title>
<path fill="none" stroke="#000000" d="M696.0934,-584.8473C717.3932,-581.7588 741.6131,-578.4716 763.7445,-576 958.7413,-554.2235 1011.6247,-579.8492 1203.7445,-540 1207.3335,-539.2556 1211.0154,-538.3398 1214.685,-537.3192"/>
<polygon fill="#000000" stroke="#000000" points="1215.7348,-540.6584 1224.2975,-534.419 1213.7128,-533.9568 1215.7348,-540.6584"/>
</g>
<!-- HaplotypeCaller&#45;&gt;Cleanup -->
<g id="edge77" class="edge">
<title>HaplotypeCaller&#45;&gt;Cleanup</title>
<path fill="none" stroke="#000000" d="M607.3273,-577.6261C592.6109,-568.2139 575.4815,-555.2357 563.7445,-540 532.215,-499.0718 541.2916,-479.4031 520.7445,-432 482.0785,-342.7958 427.7445,-331.2237 427.7445,-234 427.7445,-234 427.7445,-234 427.7445,-162 427.7445,-121.876 427.7445,-75.4631 427.7445,-46.4177"/>
<polygon fill="#000000" stroke="#000000" points="431.2446,-46.1853 427.7445,-36.1854 424.2446,-46.1854 431.2446,-46.1853"/>
</g>
<!-- CreatePaddedTargets -->
<g id="node29" class="node">
<title>CreatePaddedTargets</title>
<ellipse fill="none" stroke="#000000" cx="658.7445" cy="-666" rx="85.5853" ry="18"/>
<text text-anchor="middle" x="658.7445" y="-662.3" font-family="Times,serif" font-size="14.00" fill="#000000">CreatePaddedTargets</text>
</g>
<!-- CreatePaddedTargets&#45;&gt;HaplotypeCaller -->
<g id="edge32" class="edge">
<title>CreatePaddedTargets&#45;&gt;HaplotypeCaller</title>
<path fill="none" stroke="#000000" d="M653.193,-647.8314C650.8142,-640.0463 647.9807,-630.7729 645.3412,-622.1347"/>
<polygon fill="#000000" stroke="#000000" points="648.6403,-620.954 642.3708,-612.4133 641.9458,-622.9996 648.6403,-620.954"/>
</g>
<!-- CreatePaddedTargets&#45;&gt;Freebayes -->
<g id="edge39" class="edge">
<title>CreatePaddedTargets&#45;&gt;Freebayes</title>
<path fill="none" stroke="#000000" d="M695.051,-649.6621C720.0683,-638.4043 753.309,-623.446 779.0309,-611.8711"/>
<polygon fill="#000000" stroke="#000000" points="780.8052,-614.9108 788.4881,-607.6154 777.9326,-608.5274 780.8052,-614.9108"/>
</g>
<!-- CombineVariants -->
<g id="node37" class="node">
<title>CombineVariants</title>
<ellipse fill="none" stroke="#000000" cx="818.7445" cy="-450" rx="73.387" ry="18"/>
<text text-anchor="middle" x="818.7445" y="-446.3" font-family="Times,serif" font-size="14.00" fill="#000000">CombineVariants</text>
</g>
<!-- MergeVariants&#45;&gt;CombineVariants -->
<g id="edge41" class="edge">
<title>MergeVariants&#45;&gt;CombineVariants</title>
<path fill="none" stroke="#000000" d="M674.0141,-507.256C701.8849,-496.2302 740.232,-481.0599 770.4521,-469.1047"/>
<polygon fill="#000000" stroke="#000000" points="771.9434,-472.2787 779.9547,-465.3454 769.3683,-465.7696 771.9434,-472.2787"/>
</g>
<!-- MergeMutect2VariantsBySample -->
<g id="node33" class="node">
<title>MergeMutect2VariantsBySample</title>
<ellipse fill="none" stroke="#000000" cx="1030.7445" cy="-594" rx="130.777" ry="18"/>
<text text-anchor="middle" x="1030.7445" y="-590.3" font-family="Times,serif" font-size="14.00" fill="#000000">MergeMutect2VariantsBySample</text>
</g>
<!-- Mutect2&#45;&gt;MergeMutect2VariantsBySample -->
<g id="edge36" class="edge">
<title>Mutect2&#45;&gt;MergeMutect2VariantsBySample</title>
<path fill="none" stroke="#000000" d="M1029.2492,-647.8314C1029.4631,-640.131 1029.7175,-630.9743 1029.9552,-622.4166"/>
<polygon fill="#000000" stroke="#000000" points="1033.4539,-622.5066 1030.233,-612.4133 1026.4566,-622.3122 1033.4539,-622.5066"/>
</g>
<!-- MergeMutect2VariantsByProject -->
<g id="node34" class="node">
<title>MergeMutect2VariantsByProject</title>
<ellipse fill="none" stroke="#000000" cx="1065.7445" cy="-522" rx="128.8774" ry="18"/>
<text text-anchor="middle" x="1065.7445" y="-518.3" font-family="Times,serif" font-size="14.00" fill="#000000">MergeMutect2VariantsByProject</text>
</g>
<!-- MergeMutect2VariantsBySample&#45;&gt;MergeMutect2VariantsByProject -->
<g id="edge37" class="edge">
<title>MergeMutect2VariantsBySample&#45;&gt;MergeMutect2VariantsByProject</title>
<path fill="none" stroke="#000000" d="M1039.5765,-575.8314C1043.4432,-567.8771 1048.0651,-558.369 1052.3413,-549.5723"/>
<polygon fill="#000000" stroke="#000000" points="1055.5694,-550.9371 1056.7936,-540.4133 1049.2739,-547.8768 1055.5694,-550.9371"/>
</g>
<!-- MergeMutect2VariantsByProject&#45;&gt;CombineVariants -->
<g id="edge43" class="edge">
<title>MergeMutect2VariantsByProject&#45;&gt;CombineVariants</title>
<path fill="none" stroke="#000000" d="M1010.0049,-505.752C970.045,-494.1038 916.377,-478.4597 876.0624,-466.708"/>
<polygon fill="#000000" stroke="#000000" points="876.9577,-463.3234 866.3777,-463.885 874.9987,-470.0437 876.9577,-463.3234"/>
</g>
<!-- MergeFreeBayesVariants -->
<g id="node36" class="node">
<title>MergeFreeBayesVariants</title>
<ellipse fill="none" stroke="#000000" cx="818.7445" cy="-522" rx="100.9827" ry="18"/>
<text text-anchor="middle" x="818.7445" y="-518.3" font-family="Times,serif" font-size="14.00" fill="#000000">MergeFreeBayesVariants</text>
</g>
<!-- Freebayes&#45;&gt;MergeFreeBayesVariants -->
<g id="edge40" class="edge">
<title>Freebayes&#45;&gt;MergeFreeBayesVariants</title>
<path fill="none" stroke="#000000" d="M818.7445,-575.8314C818.7445,-568.131 818.7445,-558.9743 818.7445,-550.4166"/>
<polygon fill="#000000" stroke="#000000" points="822.2446,-550.4132 818.7445,-540.4133 815.2446,-550.4133 822.2446,-550.4132"/>
</g>
<!-- MergeFreeBayesVariants&#45;&gt;CombineVariants -->
<g id="edge42" class="edge">
<title>MergeFreeBayesVariants&#45;&gt;CombineVariants</title>
<path fill="none" stroke="#000000" d="M818.7445,-503.8314C818.7445,-496.131 818.7445,-486.9743 818.7445,-478.4166"/>
<polygon fill="#000000" stroke="#000000" points="822.2446,-478.4132 818.7445,-468.4133 815.2446,-478.4133 822.2446,-478.4132"/>
</g>
<!-- VariantAnnotation -->
<g id="node38" class="node">
<title>VariantAnnotation</title>
<ellipse fill="none" stroke="#000000" cx="818.7445" cy="-378" rx="76.8869" ry="18"/>
<text text-anchor="middle" x="818.7445" y="-374.3" font-family="Times,serif" font-size="14.00" fill="#000000">VariantAnnotation</text>
</g>
<!-- CombineVariants&#45;&gt;VariantAnnotation -->
<g id="edge44" class="edge">
<title>CombineVariants&#45;&gt;VariantAnnotation</title>
<path fill="none" stroke="#000000" d="M818.7445,-431.8314C818.7445,-424.131 818.7445,-414.9743 818.7445,-406.4166"/>
<polygon fill="#000000" stroke="#000000" points="822.2446,-406.4132 818.7445,-396.4133 815.2446,-406.4133 822.2446,-406.4132"/>
</g>
<!-- CustTumorNormalAnnotations -->
<g id="node39" class="node">
<title>CustTumorNormalAnnotations</title>
<ellipse fill="none" stroke="#000000" cx="845.7445" cy="-306" rx="121.5784" ry="18"/>
<text text-anchor="middle" x="845.7445" y="-302.3" font-family="Times,serif" font-size="14.00" fill="#000000">CustTumorNormalAnnotations</text>
</g>
<!-- VariantAnnotation&#45;&gt;CustTumorNormalAnnotations -->
<g id="edge45" class="edge">
<title>VariantAnnotation&#45;&gt;CustTumorNormalAnnotations</title>
<path fill="none" stroke="#000000" d="M825.5578,-359.8314C828.5089,-351.9617 832.0303,-342.5712 835.2995,-333.8533"/>
<polygon fill="#000000" stroke="#000000" points="838.6054,-335.0055 838.8395,-324.4133 832.0511,-332.5476 838.6054,-335.0055"/>
</g>
<!-- MultiQC -->
<g id="node54" class="node">
<title>MultiQC</title>
<ellipse fill="none" stroke="#000000" cx="498.7445" cy="-162" rx="42.7926" ry="18"/>
<text text-anchor="middle" x="498.7445" y="-158.3" font-family="Times,serif" font-size="14.00" fill="#000000">MultiQC</text>
</g>
<!-- VariantAnnotation&#45;&gt;MultiQC -->
<g id="edge70" class="edge">
<title>VariantAnnotation&#45;&gt;MultiQC</title>
<path fill="none" stroke="#000000" d="M784.2357,-361.8622C763.6045,-351.7809 737.1355,-338.0757 714.7445,-324 643.6092,-279.282 566.192,-217.7624 526.1658,-184.894"/>
<polygon fill="#000000" stroke="#000000" points="528.1498,-181.9935 518.2079,-178.3315 523.6962,-187.394 528.1498,-181.9935"/>
</g>
<!-- SelectIndels -->
<g id="node40" class="node">
<title>SelectIndels</title>
<ellipse fill="none" stroke="#000000" cx="845.7445" cy="-234" rx="53.8905" ry="18"/>
<text text-anchor="middle" x="845.7445" y="-230.3" font-family="Times,serif" font-size="14.00" fill="#000000">SelectIndels</text>
</g>
<!-- CustTumorNormalAnnotations&#45;&gt;SelectIndels -->
<g id="edge46" class="edge">
<title>CustTumorNormalAnnotations&#45;&gt;SelectIndels</title>
<path fill="none" stroke="#000000" d="M845.7445,-287.8314C845.7445,-280.131 845.7445,-270.9743 845.7445,-262.4166"/>
<polygon fill="#000000" stroke="#000000" points="849.2446,-262.4132 845.7445,-252.4133 842.2446,-262.4133 849.2446,-262.4132"/>
</g>
<!-- SelectSNV -->
<g id="node41" class="node">
<title>SelectSNV</title>
<ellipse fill="none" stroke="#000000" cx="1384.7445" cy="-234" rx="50.0912" ry="18"/>
<text text-anchor="middle" x="1384.7445" y="-230.3" font-family="Times,serif" font-size="14.00" fill="#000000">SelectSNV</text>
</g>
<!-- CustTumorNormalAnnotations&#45;&gt;SelectSNV -->
<g id="edge47" class="edge">
<title>CustTumorNormalAnnotations&#45;&gt;SelectSNV</title>
<path fill="none" stroke="#000000" d="M936.2648,-293.9082C1047.8267,-279.0057 1234.0687,-254.1274 1327.5464,-241.6406"/>
<polygon fill="#000000" stroke="#000000" points="1328.2107,-245.083 1337.6592,-240.2897 1327.2838,-238.1446 1328.2107,-245.083"/>
</g>
<!-- IndelVariantsToTable -->
<g id="node42" class="node">
<title>IndelVariantsToTable</title>
<ellipse fill="none" stroke="#000000" cx="924.7445" cy="-162" rx="88.2844" ry="18"/>
<text text-anchor="middle" x="924.7445" y="-158.3" font-family="Times,serif" font-size="14.00" fill="#000000">IndelVariantsToTable</text>
</g>
<!-- SelectIndels&#45;&gt;IndelVariantsToTable -->
<g id="edge48" class="edge">
<title>SelectIndels&#45;&gt;IndelVariantsToTable</title>
<path fill="none" stroke="#000000" d="M864.4664,-216.937C874.3797,-207.9021 886.734,-196.6425 897.6725,-186.6733"/>
<polygon fill="#000000" stroke="#000000" points="900.2987,-189.0153 905.332,-179.6924 895.5834,-183.8417 900.2987,-189.0153"/>
</g>
<!-- IndelVariantsToMinTable -->
<g id="node43" class="node">
<title>IndelVariantsToMinTable</title>
<ellipse fill="none" stroke="#000000" cx="1134.7445" cy="-162" rx="103.1819" ry="18"/>
<text text-anchor="middle" x="1134.7445" y="-158.3" font-family="Times,serif" font-size="14.00" fill="#000000">IndelVariantsToMinTable</text>
</g>
<!-- SelectIndels&#45;&gt;IndelVariantsToMinTable -->
<g id="edge49" class="edge">
<title>SelectIndels&#45;&gt;IndelVariantsToMinTable</title>
<path fill="none" stroke="#000000" d="M889.0107,-223.2209C935.6313,-211.6061 1010.505,-192.9524 1065.3667,-179.2844"/>
<polygon fill="#000000" stroke="#000000" points="1066.5091,-182.6069 1075.3664,-176.7932 1064.8168,-175.8145 1066.5091,-182.6069"/>
</g>
<!-- IndelVariantsToDescriptionTable -->
<g id="node46" class="node">
<title>IndelVariantsToDescriptionTable</title>
<ellipse fill="none" stroke="#000000" cx="688.7445" cy="-162" rx="129.1772" ry="18"/>
<text text-anchor="middle" x="688.7445" y="-158.3" font-family="Times,serif" font-size="14.00" fill="#000000">IndelVariantsToDescriptionTable</text>
</g>
<!-- SelectIndels&#45;&gt;IndelVariantsToDescriptionTable -->
<g id="edge52" class="edge">
<title>SelectIndels&#45;&gt;IndelVariantsToDescriptionTable</title>
<path fill="none" stroke="#000000" d="M813.9732,-219.4297C791.568,-209.1547 761.1778,-195.2178 735.9462,-183.6466"/>
<polygon fill="#000000" stroke="#000000" points="737.1047,-180.3275 726.556,-179.3403 734.1867,-186.6903 737.1047,-180.3275"/>
</g>
<!-- SelectIndels&#45;&gt;MultiQC -->
<g id="edge67" class="edge">
<title>SelectIndels&#45;&gt;MultiQC</title>
<path fill="none" stroke="#000000" d="M795.6501,-227.2066C736.5487,-218.6468 635.5915,-202.312 550.7445,-180 547.4097,-179.1231 543.9816,-178.1356 540.5528,-177.0862"/>
<polygon fill="#000000" stroke="#000000" points="541.5559,-173.7323 530.9645,-174.0051 539.4143,-180.3967 541.5559,-173.7323"/>
</g>
<!-- SNVVariantsToTable -->
<g id="node44" class="node">
<title>SNVVariantsToTable</title>
<ellipse fill="none" stroke="#000000" cx="1841.7445" cy="-162" rx="87.9851" ry="18"/>
<text text-anchor="middle" x="1841.7445" y="-158.3" font-family="Times,serif" font-size="14.00" fill="#000000">SNVVariantsToTable</text>
</g>
<!-- SelectSNV&#45;&gt;SNVVariantsToTable -->
<g id="edge50" class="edge">
<title>SelectSNV&#45;&gt;SNVVariantsToTable</title>
<path fill="none" stroke="#000000" d="M1431.5625,-227.5588C1500.4852,-217.9492 1633.2622,-198.9514 1745.7445,-180 1752.872,-178.7991 1760.2875,-177.4991 1767.6974,-176.1663"/>
<polygon fill="#000000" stroke="#000000" points="1768.5583,-179.5673 1777.7708,-174.3347 1767.306,-172.6802 1768.5583,-179.5673"/>
</g>
<!-- SNVVariantsToMinTable -->
<g id="node45" class="node">
<title>SNVVariantsToMinTable</title>
<ellipse fill="none" stroke="#000000" cx="1633.7445" cy="-162" rx="102.8821" ry="18"/>
<text text-anchor="middle" x="1633.7445" y="-158.3" font-family="Times,serif" font-size="14.00" fill="#000000">SNVVariantsToMinTable</text>
</g>
<!-- SelectSNV&#45;&gt;SNVVariantsToMinTable -->
<g id="edge51" class="edge">
<title>SelectSNV&#45;&gt;SNVVariantsToMinTable</title>
<path fill="none" stroke="#000000" d="M1423.9247,-222.6708C1463.3062,-211.2834 1524.6328,-193.5504 1570.8337,-180.1911"/>
<polygon fill="#000000" stroke="#000000" points="1571.8153,-183.5507 1580.4495,-177.4106 1569.8708,-176.8262 1571.8153,-183.5507"/>
</g>
<!-- SNVVariantsToDescriptionTable -->
<g id="node47" class="node">
<title>SNVVariantsToDescriptionTable</title>
<ellipse fill="none" stroke="#000000" cx="1384.7445" cy="-162" rx="128.8774" ry="18"/>
<text text-anchor="middle" x="1384.7445" y="-158.3" font-family="Times,serif" font-size="14.00" fill="#000000">SNVVariantsToDescriptionTable</text>
</g>
<!-- SelectSNV&#45;&gt;SNVVariantsToDescriptionTable -->
<g id="edge53" class="edge">
<title>SelectSNV&#45;&gt;SNVVariantsToDescriptionTable</title>
<path fill="none" stroke="#000000" d="M1384.7445,-215.8314C1384.7445,-208.131 1384.7445,-198.9743 1384.7445,-190.4166"/>
<polygon fill="#000000" stroke="#000000" points="1388.2446,-190.4132 1384.7445,-180.4133 1381.2446,-190.4133 1388.2446,-190.4132"/>
</g>
<!-- SelectSNV&#45;&gt;MultiQC -->
<g id="edge68" class="edge">
<title>SelectSNV&#45;&gt;MultiQC</title>
<path fill="none" stroke="#000000" d="M1334.6054,-232.5176C1178.4303,-227.6226 702.1335,-210.5228 550.7445,-180 547.1624,-179.2778 543.4899,-178.3696 539.8339,-177.347"/>
<polygon fill="#000000" stroke="#000000" points="540.8549,-173.9993 530.2685,-174.4225 538.8082,-180.6934 540.8549,-173.9993"/>
</g>
<!-- TablesToXlsx -->
<g id="node48" class="node">
<title>TablesToXlsx</title>
<ellipse fill="none" stroke="#000000" cx="806.7445" cy="-90" rx="60.3893" ry="18"/>
<text text-anchor="middle" x="806.7445" y="-86.3" font-family="Times,serif" font-size="14.00" fill="#000000">TablesToXlsx</text>
</g>
<!-- IndelVariantsToTable&#45;&gt;TablesToXlsx -->
<g id="edge54" class="edge">
<title>IndelVariantsToTable&#45;&gt;TablesToXlsx</title>
<path fill="none" stroke="#000000" d="M896.4806,-144.7542C880.2234,-134.8346 859.6466,-122.2792 842.2992,-111.6944"/>
<polygon fill="#000000" stroke="#000000" points="843.9215,-108.5842 833.562,-106.3632 840.2754,-114.5597 843.9215,-108.5842"/>
</g>
<!-- SNVVariantsToTable&#45;&gt;TablesToXlsx -->
<g id="edge55" class="edge">
<title>SNVVariantsToTable&#45;&gt;TablesToXlsx</title>
<path fill="none" stroke="#000000" d="M1779.9554,-149.212C1768.6158,-147.2082 1756.8538,-145.3553 1745.7445,-144 1423.3033,-104.6634 1034.9795,-93.8542 877.8643,-90.9897"/>
<polygon fill="#000000" stroke="#000000" points="877.4643,-87.4821 867.4039,-90.8046 877.3404,-94.481 877.4643,-87.4821"/>
</g>
<!-- PlotGenome -->
<g id="node50" class="node">
<title>PlotGenome</title>
<ellipse fill="none" stroke="#000000" cx="1841.7445" cy="-90" rx="55.4913" ry="18"/>
<text text-anchor="middle" x="1841.7445" y="-86.3" font-family="Times,serif" font-size="14.00" fill="#000000">PlotGenome</text>
</g>
<!-- SNVVariantsToTable&#45;&gt;PlotGenome -->
<g id="edge61" class="edge">
<title>SNVVariantsToTable&#45;&gt;PlotGenome</title>
<path fill="none" stroke="#000000" d="M1841.7445,-143.8314C1841.7445,-136.131 1841.7445,-126.9743 1841.7445,-118.4166"/>
<polygon fill="#000000" stroke="#000000" points="1845.2446,-118.4132 1841.7445,-108.4133 1838.2446,-118.4133 1845.2446,-118.4132"/>
</g>
<!-- IndelVariantsToDescriptionTable&#45;&gt;TablesToXlsx -->
<g id="edge57" class="edge">
<title>IndelVariantsToDescriptionTable&#45;&gt;TablesToXlsx</title>
<path fill="none" stroke="#000000" d="M717.6106,-144.3868C733.8791,-134.4602 754.3261,-121.9841 771.5315,-111.4859"/>
<polygon fill="#000000" stroke="#000000" points="773.4807,-114.3967 780.1941,-106.2003 769.8346,-108.4212 773.4807,-114.3967"/>
</g>
<!-- SNVVariantsToDescriptionTable&#45;&gt;TablesToXlsx -->
<g id="edge56" class="edge">
<title>SNVVariantsToDescriptionTable&#45;&gt;TablesToXlsx</title>
<path fill="none" stroke="#000000" d="M1290.8522,-149.656C1276.0939,-147.7438 1261.0067,-145.8053 1246.7445,-144 1114.3112,-127.2367 959.3504,-108.3999 873.1826,-97.9946"/>
<polygon fill="#000000" stroke="#000000" points="873.3689,-94.4918 863.0215,-96.7682 872.53,-101.4414 873.3689,-94.4918"/>
</g>
<!-- TablesToXlsx&#45;&gt;Cleanup -->
<g id="edge72" class="edge">
<title>TablesToXlsx&#45;&gt;Cleanup</title>
<path fill="none" stroke="#000000" d="M754.4691,-80.9541C680.0973,-67.3466 545.1439,-41.7174 474.1348,-27.7231"/>
<polygon fill="#000000" stroke="#000000" points="474.6259,-24.2525 464.1368,-25.7456 473.2676,-31.1195 474.6259,-24.2525"/>
</g>
<!-- TablesToXlsx&#45;&gt;Cleanup -->
<g id="edge76" class="edge">
<title>TablesToXlsx&#45;&gt;Cleanup</title>
<path fill="none" stroke="#000000" d="M756.9538,-79.6075C683.7235,-65.2057 548.1027,-39.4677 475.844,-26.2829"/>
<polygon fill="#000000" stroke="#000000" points="476.1223,-22.7762 465.6576,-24.4316 474.8705,-29.6634 476.1223,-22.7762"/>
</g>
<!-- Varscan2&#45;&gt;PlotGenome -->
<g id="edge60" class="edge">
<title>Varscan2&#45;&gt;PlotGenome</title>
<path fill="none" stroke="#000000" d="M1299.8027,-517.766C1452.3189,-502.1991 1957.7445,-445.5181 1957.7445,-378 1957.7445,-378 1957.7445,-378 1957.7445,-234 1957.7445,-193.1184 1963.0091,-176.902 1938.7445,-144 1926.6649,-127.6204 1908.0472,-115.5658 1890.3402,-107.0551"/>
<polygon fill="#000000" stroke="#000000" points="1891.7568,-103.8545 1881.203,-102.9234 1888.8727,-110.2328 1891.7568,-103.8545"/>
</g>
<!-- MergeSegFiles -->
<g id="node51" class="node">
<title>MergeSegFiles</title>
<ellipse fill="none" stroke="#000000" cx="1841.7445" cy="-18" rx="64.189" ry="18"/>
<text text-anchor="middle" x="1841.7445" y="-14.3" font-family="Times,serif" font-size="14.00" fill="#000000">MergeSegFiles</text>
</g>
<!-- PlotGenome&#45;&gt;MergeSegFiles -->
<g id="edge62" class="edge">
<title>PlotGenome&#45;&gt;MergeSegFiles</title>
<path fill="none" stroke="#000000" d="M1841.7445,-71.8314C1841.7445,-64.131 1841.7445,-54.9743 1841.7445,-46.4166"/>
<polygon fill="#000000" stroke="#000000" points="1845.2446,-46.4132 1841.7445,-36.4133 1838.2446,-46.4133 1845.2446,-46.4132"/>
</g>
<!-- PlotGenome&#45;&gt;Cleanup -->
<g id="edge71" class="edge">
<title>PlotGenome&#45;&gt;Cleanup</title>
<path fill="none" stroke="#000000" d="M1786.748,-87.1996C1559.6033,-75.6335 696.2495,-31.6721 478.0682,-20.5624"/>
<polygon fill="#000000" stroke="#000000" points="478.0384,-17.0565 467.8733,-20.0433 477.6824,-24.0474 478.0384,-17.0565"/>
</g>
<!-- ProjectMarkdown&#45;&gt;MultiQC -->
<g id="edge66" class="edge">
<title>ProjectMarkdown&#45;&gt;MultiQC</title>
<path fill="none" stroke="#000000" d="M418.0181,-432.0401C435.7573,-408.6554 465.4339,-365.8139 479.7445,-324 495.15,-278.9872 498.5182,-223.2824 499.0136,-190.3067"/>
<polygon fill="#000000" stroke="#000000" points="502.5153,-190.0673 499.0847,-180.0432 495.5154,-190.0187 502.5153,-190.0673"/>
</g>
<!-- SamQC&#45;&gt;MultiQC -->
<g id="edge69" class="edge">
<title>SamQC&#45;&gt;MultiQC</title>
<path fill="none" stroke="#000000" d="M212.8525,-791.8777C217.2461,-764.6417 224.7445,-711.4948 224.7445,-666 224.7445,-666 224.7445,-666 224.7445,-522 224.7445,-363.8788 394.1896,-231.8196 466.5792,-182.6166"/>
<polygon fill="#000000" stroke="#000000" points="468.5524,-185.5076 474.9081,-177.0308 464.6534,-179.6939 468.5524,-185.5076"/>
</g>
</g>
</svg>
